<?xml version="1.0" standalone="no"?>
<!DOCTYPE svg PUBLIC "-//W3C//DTD SVG 20010904//EN"
 "http://www.w3.org/TR/2001/REC-SVG-20010904/DTD/svg10.dtd">
<svg version="1.0" xmlns="http://www.w3.org/2000/svg"
 width="312.000000pt" height="306.000000pt" viewBox="0 0 312.000000 306.000000"
 preserveAspectRatio="xMidYMid meet">

<g transform="translate(0.000000,306.000000) scale(0.100000,-0.100000)"
fill="#000000" stroke="none">
<path d="M1407 2960 c-256 -25 -535 -147 -752 -331 -110 -93 -162 -152 -246
-277 -123 -183 -204 -388 -231 -587 -14 -101 -4 -443 16 -541 35 -175 144
-415 250 -552 63 -82 239 -249 326 -311 141 -99 339 -187 515 -227 116 -27
514 -27 630 0 185 43 407 143 544 247 135 102 281 257 362 384 89 140 175 369
199 535 19 129 8 448 -19 573 -59 270 -204 524 -409 718 -47 44 -103 93 -125
107 -205 138 -363 208 -561 248 -86 18 -378 26 -499 14z m352 -314 c202 -57
365 -150 507 -291 138 -135 233 -304 291 -511 27 -94 28 -109 28 -319 0 -210
-1 -225 -28 -319 -57 -206 -150 -369 -292 -512 -135 -138 -304 -233 -511 -291
-94 -27 -109 -28 -319 -28 -210 0 -225 1 -319 28 -206 57 -369 150 -512 292
-138 135 -233 304 -291 511 -27 94 -28 109 -28 319 0 210 1 225 28 319 107
386 370 664 740 786 128 42 199 50 412 46 179 -3 210 -6 294 -30z"/>
<path d="M1338 2351 c-246 -67 -444 -234 -558 -472 -55 -114 -70 -194 -70
-369 0 -175 15 -255 70 -368 95 -198 224 -327 421 -422 114 -55 194 -70 369
-70 175 0 255 15 369 70 146 70 267 171 349 292 52 76 111 207 127 283 20 93
20 337 0 430 -18 83 -79 215 -139 299 -122 170 -334 306 -523 335 -114 17
-336 13 -415 -8z m275 -226 c215 -56 396 -237 452 -452 20 -75 20 -251 0 -326
-45 -172 -164 -319 -328 -403 -95 -49 -164 -64 -287 -64 -194 0 -307 47 -445
185 -97 97 -141 170 -170 281 -20 77 -20 252 0 329 55 208 239 393 448 450 71
19 258 19 330 0z"/>
<path d="M1518 1767 c-103 -53 -156 -151 -145 -270 10 -110 93 -209 200 -238
70 -19 175 -7 237 27 171 93 186 353 26 461 -59 41 -103 53 -188 53 -55 0 -77
-5 -130 -33z"/>
</g>
</svg>
