<svg xmlns="http://www.w3.org/2000/svg" width="1440" height="1440" version="1.0" viewBox="0 0 1080 1080"><path d="M532.5 229.3c-3.3 3.3-3.7 3.4-14.2 4.1-38.9 2.5-76.2 12.6-112.8 30.6-30.6 15-54.3 31.5-78.4 54.5-14.7 14-39.3 44.1-46.3 56.7-1.8 3.2-2.7 3.8-5.6 3.8-6.9 0-11.3 8.2-8.1 15.2.9 2 .3 4-3.6 12.3-14.9 32-23.6 61.7-28 95.8-2 15.8-2 57 0 73.4 4.2 33.9 13.2 65.1 27.1 94.2 4.1 8.6 6.1 13.8 5.5 14.5-.9 1.1-1.4 4.4-1.2 8.4.2 3.3 4.8 7.2 8.6 7.2 2.8 0 3.6.7 6.8 5.8 11 17.8 34 44.9 50.5 59.5 25.6 22.6 43.5 34.8 71.7 48.8 36.3 17.9 69.4 27.1 112 30.9 9.6.9 13.2 1.6 13.9 2.7 2.2 4 4.6 5.3 9.6 5.3 5.2 0 9-2.3 9-5.5 0-.9.9-1.5 2.3-1.5 1.2 0 7.4-.5 13.7-1 62.6-5.7 117-27.3 166-65.8 23.5-18.5 49.6-47.2 65.9-72.4 4.1-6.4 4.6-6.8 8.1-6.8 5.1 0 8-3.2 8-8.9 0-2.3-.4-5.1-1-6.1-.7-1.4.5-4.7 5.4-15.1 13-27.2 21.5-55.5 26.1-86.4 3.6-24.5 3.6-64.1 0-88.5-4.6-30.9-15.7-66.8-28.8-92.5-2.2-4.4-2.4-5.9-2-11.6.5-6.4.5-6.6-2.7-9.2-1.7-1.5-4.4-2.7-5.9-2.7-2.1 0-3.2-.9-5-4-3.8-6.8-18.9-27-27.7-37-19.9-22.8-43.5-43-68.9-58.8-11.7-7.3-36.8-20.2-46.3-23.9-34.5-13.1-65.1-20.1-95.5-21.9-10-.6-11.9-1-12.8-2.5-1.3-2.4-6.1-4.9-9.5-4.9-1.6 0-3.8 1.2-5.9 3.3zm-3.1 9.4c.4.9.3 2-.1 2.4-.4.4-55.6 32.5-122.6 71.4-137.6 79.9-130.6 76.4-117.6 57.4 20.6-30 46.8-56.9 75.9-77.6 37.9-27.1 84.8-45.9 130.1-52.3 24.2-3.4 33.4-3.7 34.3-1.3zm44.5-.2c56.2 6.3 110 28.5 154.4 63.8 21.7 17.2 46.8 44.3 62.3 67.1 6.4 9.6 7.2 11.2 6 12.4-1.6 1.7 12.1 9.4-140.6-79.3-114.5-66.6-106.4-61.8-106.8-63.8-.3-1.4.5-1.7 5.5-1.7 3.2 0 11.8.7 19.2 1.5zm35.9 39.4c66.6 38.7 144.6 84.1 168.7 98.1 8.3 4.8 15.1 9.5 15.3 10.4.4 2.1.7 2.1-16-1.4-7.9-1.7-45.7-9.6-84.1-17.6-38.4-8-71.3-15.2-73.2-16-3-1.2-8.3-8.6-39-54.6-31-46.6-36.1-54.8-33.9-54.8.3 0 28.2 16.1 62.2 35.9zM532.5 244c.9 1.5-68.8 105.4-71.6 106.6-1.3.6-41.1 8.9-88.4 18.4-47.3 9.5-86.3 17.8-86.7 18.4-.5.7-.8.5-.8-.4 0-1 38.7-24.1 109.3-65 60-34.9 115.1-66.9 122.2-71.1 13.3-7.9 14.9-8.6 16-6.9zm40.4 50.9c15.5 26.6 28 48.6 27.8 48.7-.2.2-3.2-.5-6.8-1.6-6.8-2.1-26-5.4-37.2-6.5-6-.6-6.9-1-7.7-3.1-.5-1.3-2.5-3.2-4.5-4.1l-3.5-1.7v-40.2c0-31.3.3-40.3 1.3-40.7.6-.2 1.5-.2 1.9.2.3.3 13.3 22.4 28.7 49zm-33.9-8.5c0 39.4-.1 40.5-2 41.1-1.1.3-3.2 2.1-4.7 4-2.7 3.2-3.2 3.4-12.8 4.4-12.4 1.4-24.2 3.6-33.1 6.1-3.7 1.1-6.9 1.8-7.1 1.6-.2-.2 12.3-22.2 27.9-49 20.4-35 28.8-48.6 30-48.6 1.7 0 1.8 2.5 1.8 40.4zm-21.9-12.7c-.6 1-10.2 17.5-21.4 36.7-19.5 33.4-20.6 35-24.2 36.3-2.1.7-4 1.2-4.1 1-.4-.3 49.7-75.7 50.3-75.7.2 0-.1.8-.6 1.7zm71.2 36.7c13.6 20.4 24.5 37.2 24.3 37.3-.2.2-2.2-.3-4.4-1.2-3.8-1.6-4.8-3.1-23.8-35.8-10.9-18.8-20.4-35.3-21.3-36.7-.8-1.4-1-2.1-.4-1.5.6.5 12.1 17.6 25.6 37.9zm-56.7 32.1c2 3 3.8-.1-16.6 27.3l-13.5 18.1-24.3.1h-24.3l2.8-4.8c1.5-2.6 6.4-11 10.9-18.7l8.1-14 25.4-5.1c14-2.9 26.4-5.2 27.6-5.3 1.4-.1 2.9.9 3.9 2.4zm47 3c14.7 3.1 26.9 5.7 27 5.8.7.8 21.4 36.9 21.4 37.2 0 .3-10.7.5-23.8.5h-23.7L564 368.4c-8.5-11.4-15.9-21.3-16.3-22-.8-1.4 1.8-6.4 3.3-6.4.4 0 12.9 2.5 27.6 5.5zm-68.9-3.9c-.3.3-1.2.4-1.9.1-.8-.3-.5-.6.6-.6 1.1-.1 1.7.2 1.3.5zm62.6.1c-.7.2-1.9.2-2.5 0-.7-.3-.2-.5 1.2-.5s1.9.2 1.3.5zm-67.6.9c-.3.3-1.2.4-1.9.1-.8-.3-.5-.6.6-.6 1.1-.1 1.7.2 1.3.5zm72.6.1c-.7.2-1.9.2-2.5 0-.7-.3-.2-.5 1.2-.5s1.9.2 1.3.5zm-77.6.9c-.3.3-1.2.4-1.9.1-.8-.3-.5-.6.6-.6 1.1-.1 1.7.2 1.3.5zm82.6.1c-.7.2-1.9.2-2.5 0-.7-.3-.2-.5 1.2-.5s1.9.2 1.3.5zm7.7 1.3c2 .6 2.1.8.5.8-1.1 0-3.1-.4-4.5-.8-2-.6-2.1-.8-.5-.8 1.1 0 3.1.4 4.5.8zm-51 23.1V389l-12.7-.1c-7.1 0-14.9-.4-17.5-.7l-4.7-.7 15.5-20.6c20.2-26.9 19.4-27 19.4 1.2zm21.4-1.1c8.6 11.6 15.6 21.2 15.6 21.5 0 .3-7.9.5-17.5.5H541v-20.9c0-19.1.2-21 1.8-21.4.9-.3 1.8-.5 1.9-.6.1 0 7.1 9.4 15.7 20.9zm-91.1-11.2c-1.6 2.6-6.4 10.9-10.7 18.5l-8 13.7H440l11-16.5c10.6-15.9 12.5-17.9 17.9-19.6 1.4-.4 2.7-.8 2.9-.8.1-.1-1 2.1-2.5 4.7zm145.2-2.4c2.7 1.2 5.6 4.7 14.4 18 6.1 9.1 11.1 16.8 11.1 17.1 0 .3-2.4.5-5.2.3l-5.3-.3-10.2-17.5c-5.6-9.6-10.2-17.8-10.3-18.3 0-1.1 1.7-.9 5.5.7zm-175.1 7.9c-12 7.1-20.1 12.7-29.5 20.3l-7.8 6.4-55.8-.1-55.8-.1L368 372c42.6-8.7 78.2-15.9 78.9-15.9.8-.1-2.5 2.3-7.5 5.2zm8.9 10.7-10.6 16h-14.4c-7.8 0-14.3-.1-14.3-.3 0-.7 12.9-10.6 20.5-15.7 6.8-4.6 27.5-16 29-16 .3 0-4.3 7.2-10.2 16zm189.2-7.9c9.2 5.1 22.9 14.5 30.6 21.1l4.4 3.7-14.7.1H643l-11-16.5-11.1-16.6 3.8 1.6c2.1.9 7.9 3.8 12.8 6.6zM701 371c34.4 7.1 67.5 14.1 73.5 15.4l11 2.4-53.4.1-53.3.1-5.7-4.8c-9.6-8.3-17.8-14.1-28.9-20.8-5.9-3.6-9.6-6.3-8.2-5.9 1.4.3 30.6 6.4 65 13.5zm-309.5 28.2c-4.4 4.5-8.1 8.4-8.2 8.7-.3.4-88.5-15.9-89.2-16.5-.2-.2 23.4-.4 52.5-.4h52.9l-8 8.2zm43.5-7.7c0 .6-13.7 21.4-15 22.8-.8.9-29.8-4.1-31.2-5.3-.4-.3 2.8-4.5 7.3-9.3l8.1-8.7h15.4c8.5 0 15.4.2 15.4.5zm7.3 10.7c-3.6 6.2-7.1 12.3-7.9 13.4-1.2 2-1.7 2.1-6.6 1.2-2.9-.5-5.4-1.1-5.6-1.3-.2-.2 3.3-5.8 7.7-12.4L438 391h10.9l-6.6 11.2zm44.6 5c-6.7 9-12.5 16.7-13 17.2-.8.9-35.8-5.1-37.2-6.4-.4-.4 2.6-6.6 6.8-13.9l7.7-13.1H499l-12.1 16.2zm52.1 2.3c0 17.2-.1 18.5-1.8 18.5-2.1 0-7.2 4.9-7.2 6.9 0 1-.9 1.2-3.2.7-1.8-.4-13.9-2.7-26.8-5.2s-23.6-4.6-23.8-4.8c-.2-.3 5.4-8.1 12.5-17.5l12.8-17.1H539v18.5zm52.3-1.2c10.9 14.7 12.5 17.3 11 17.9-1 .4-11.9 2.6-24.3 4.8-12.4 2.3-23.5 4.4-24.6 4.7-1.6.3-2.7-.4-4.4-3.2-1.4-2.3-3.2-3.8-5.1-4.2l-2.9-.6V391h18.8l18.7.1 12.8 17.2zm45.2-3.8c4.3 7.5 7.6 13.7 7.4 13.9-.6.5-33.4 6.6-35.7 6.6-1.3 0-5.9-5.4-14.5-17l-12.6-17h47.7l7.7 13.5zm13.6-1.4c5.7 8.5 7.7 12.4 6.9 12.9-1.2.8-10.1 2.2-10.5 1.8-.1-.2-3.1-5.3-6.5-11.3-3.5-6.1-7-12-7.8-13.3-1.4-2.2-1.4-2.2 4.2-2.2h5.6l8.1 12.1zm33.6-3.6c4.3 4.7 7.9 8.9 8.1 9.4.2.7-16.5 4.3-27.1 5.7l-4.3.6-7.7-11.6c-4.2-6.4-7.7-11.8-7.7-12.1 0-.3 6.9-.5 15.4-.5h15.5l7.8 8.5zm93.3-5.9c-12.4 2.5-74.2 14.1-77.5 14.5-1.4.2-4.6-2.4-10.4-8.4l-8.5-8.7 54 .1 53.9.1-11.5 2.4zm-445.8 14.6c22.4 7.3 40.8 13.6 40.8 14 0 .5-2.1 4-4.7 7.9-3.3 5-5.1 6.8-6.2 6.4-1.9-.7-73.4-41.5-74.1-42.3-.3-.3.4-.2 1.4.2 1.1.4 20.3 6.6 42.8 13.8zm6.8-6.2c23.3 4.4 42.5 8.1 42.7 8.3.2.2-1.3 2.5-3.2 5l-3.5 4.6-7.2-2.4c-4-1.3-21.5-7-38.8-12.5-34.2-10.9-33.8-10.8-32.9-10.9.3-.1 19.7 3.5 42.9 7.9zm454.6-7.3c-.4.5-17.5 10.3-37.9 21.9l-37.2 21.1-4.2-6.6c-4.8-7.5-5.7-9-5.2-9.5.2-.2 14.1-4.7 30.9-10 16.8-5.4 35.7-11.5 42-13.6 13.2-4.4 12.6-4.2 11.6-3.3zm-10.7.7c-.2.2-17.3 5.9-37.9 12.5L706.5 420l-2.8-3.2c-5.7-6.8-7.7-5.8 26.6-12.2 17.2-3.2 35-6.7 39.7-7.6 8.5-1.8 12.7-2.4 11.9-1.6zm-457.4 22.8c19.3 11 35.4 20.3 35.8 20.7.6.6-7.1 18.2-8.7 19.9-.3.2-14.6-13-31.8-29.3-39.8-37.9-35.9-34-32.8-32.5 1.4.7 18.3 10.3 37.5 21.2zM789 402.4c-3.6 3.6-18.6 17.9-33.5 31.9l-26.9 25.5-4.8-10.1c-2.7-5.5-4.6-10.3-4.3-10.6.7-.7 74.8-42.9 75.5-43 .3-.1-2.4 2.8-6 6.3zM275 539.5c0 118.7-.2 140.4-1.4 140.8-1 .4-3.1-3.2-7.4-12.1-19.6-41.6-28.5-81.5-28.5-128.2-.1-30.6 2.6-51.1 10.3-80.7 5.9-22.7 22.3-61.9 25.4-60.7 1.4.6 1.6 14.6 1.6 140.9zm497.5-76.3c-14.7 35.3-27 64.7-27.4 65.1-.5.5-1.2-2.9-1.6-7.4-.3-4.6-1.2-11.6-1.9-15.6l-1.3-7.3 28.1-48.8c15.5-26.8 28.5-49.3 29-50 3.6-5.7-1.7 8-24.9 64zm-466.3 1.7 26.9 65.3-2.1 2.3c-3.4 3.6-3.6 8.4-.6 12.7l2.5 3.7-26.8 65.2c-14.7 35.9-27.2 65.4-27.9 65.7-.9.3-1.2-30.7-1.2-140.3 0-107.3.3-140.6 1.2-140.3.6.2 13.2 29.8 28 65.7zM803 540.1c0 105.7-.3 141-1.1 140.7-.7-.2-4.8-9.2-9.1-19.8-4.4-10.7-16.5-40.4-26.9-65.9L747 548.8l2.5-3c1.4-1.7 2.5-4.2 2.5-5.9 0-3.3-2.3-8.5-4.1-9.1-.7-.2 9.5-25.9 25.6-64.8 14.7-35.5 27-65.1 27.2-65.8.3-.6.9-1.2 1.4-1.2.5 0 .9 59 .9 141.1zm11.3-128.9c19.5 43.3 28 81.8 28 127.3 0 35.3-3.9 61.5-14 93-6.6 20.4-19.4 49.5-21.9 49.5-1.2 0-1.4-23.3-1.4-141 0-136.9.1-141 1.9-141 1.4 0 3.2 2.9 7.4 12.2zM339.6 451l11.1 10.7-3.2 8.6-3.1 8.7-28.4-38.1c-15.7-21-28.9-38.9-29.4-39.8-.8-1.4 16.6 15 53 49.9zm-27.1 2.8 26.8 46.3-1.1 6.7c-.6 3.7-1.4 10.2-1.8 14.5-.4 4.3-1 7.5-1.5 7-.4-.4-11.4-26.6-24.4-58.2-12.9-31.5-24.2-59-25.1-61-.8-2-1.1-3.2-.6-2.6.5.5 13 21.8 27.7 47.3zm465.1-32.6c-6.2 8.4-18.3 24.6-26.9 36.1L735.3 478l-2.7-7.4c-1.4-4.1-2.6-7.8-2.6-8.4 0-.8 57.7-56.2 58.6-56.2.2 0-4.7 6.9-11 15.2zm-461.3 23.6 27.6 36.7-1.9 6.9c-2.3 8-2.5 8.4-3.8 5.9-.6-1-12-20.8-25.5-44.1-13.5-23.2-24.4-42.2-24.2-42.2.1 0 12.7 16.5 27.8 36.8zm87.6-30.3c7.4 1.3 13.6 2.6 13.7 2.8.8.8-8.9 13.8-9.9 13.4-.7-.2-7-2.3-14.2-4.6-7.1-2.3-13.6-4.4-14.3-4.6-1-.4-.1-2 2.8-5.5 3.2-3.8 4.7-4.9 6.3-4.5 1.2.2 8.2 1.6 15.6 3zm294.2 1.7 4.1 5.2-14.9 4.8c-8.1 2.6-15.1 4.8-15.5 4.8-.4 0-2.8-3-5.3-6.8-3.9-5.7-4.3-6.8-2.8-7.1 1-.2 8.1-1.6 15.8-3.1 7.7-1.5 14.1-2.8 14.2-2.9.2-.1 2.1 2.2 4.4 5.1zm72.2 25.5c-9.1 15.9-19.5 34.1-23.2 40.5-3.6 6.5-6.8 11.8-7.1 11.8-1 0-4-13.2-3.2-14.4 1.4-2.4 49.4-66.6 49.7-66.6.2 0-7.1 12.9-16.2 28.7zm-339.1-21.8c.4.3-1.1 3.5-3.3 7.1-2.1 3.6-4 6.9-4.2 7.5-.2.6-2.8.2-6.5-1l-6.2-2 4.6-6.8 4.6-6.9 5.1.7c2.9.4 5.5 1 5.9 1.4zm232.7 4c2.2 3.2 4.2 6.4 4.3 7.1.2.6-2.2 1.9-5.4 3l-5.7 1.8-4.5-7.6c-2.5-4.2-4.3-7.8-4.1-8.1.5-.5 7-1.8 9.7-2 1.1-.1 3.3 2.2 5.7 5.8zm-209.5.1c8.8 1.7 16.2 3.2 16.4 3.5.7.6-12.8 18.5-14 18.5-1.6 0-30.2-9.1-31-9.9-.3-.3 1.4-4.1 3.9-8.3 3.8-6.5 4.9-7.7 6.7-7.3 1.1.3 9.3 1.9 18 3.5zm196.3 4.9c2.4 4 4.2 7.5 4.1 7.6-.2.2-7.5 2.6-16.2 5.3-14.7 4.7-16.1 5-17.2 3.4-.7-.9-3.9-5.3-7.3-9.7-3.3-4.4-5.5-8.1-4.8-8.3 9.9-2.2 31.9-6 34.1-5.9 2.5.2 3.6 1.3 7.3 7.6zm-257.8-.9c7.7 2.5 14.1 4.9 14.1 5.3 0 .4-3.2 5.5-7.1 11.3-6.8 10.1-7.1 10.5-9.2 9.1-1.2-.7-7.2-4.2-13.4-7.7-6.4-3.6-11-6.8-10.6-7.4 3.2-5.9 10-15.6 10.9-15.4.6.2 7.5 2.3 15.3 4.8zm315.2 2.3c2.6 3.9 4.9 7.7 5.3 8.3.4.8-3.4 3.4-9.7 7-5.6 3.2-11.6 6.6-13.4 7.7l-3.2 1.8-7.1-10.6c-4-5.9-6.8-11.1-6.3-11.5.6-.7 27.4-9.7 29.3-9.9.3 0 2.6 3.2 5.1 7.2zm-216.9.6c8.4 1.6 19.7 3.7 25.1 4.7l9.8 1.8-10.8 2.8c-6.6 1.8-15.2 5-22.1 8.5l-11.4 5.5-10.9-3.3c-7.5-2.3-10.8-3.7-10.5-4.6 1.1-2.7 13.2-18.2 14.3-18.3.6 0 8 1.3 16.5 2.9zm121.9 6.6c4 5.3 6.9 9.8 6.7 10.1-.3.3-5.4 2-11.3 3.9l-10.8 3.4-3.6-2.3c-9.5-6-23.2-11.4-34.6-13.7l-6-1.2L578 433c13.5-2.6 25.3-4.8 26.2-4.9 1.1-.1 4.4 3.4 8.9 9.4zm-196.5-1.8 5.3 1.6-1.8 3.1c-1 1.7-4.4 7.5-7.5 12.9l-5.7 9.7-4.7-2.6c-7.9-4.5-7.9-3.8 0-15.7 3.9-5.9 7.5-10.7 8.1-10.7.6 0 3.4.8 6.3 1.7zM678 445c4 6.1 7.1 11.2 6.9 11.4-.2.1-3 1.7-6.1 3.5l-5.7 3.2-1.5-2.3c-.8-1.3-4.2-7-7.5-12.8l-6.1-10.5 4.7-1.7c2.7-.9 5.5-1.7 6.4-1.7 1-.1 4.5 4.2 8.9 10.9zm-230.3.7 8.2 2.8-10.5 14c-5.8 7.7-10.9 14.4-11.3 14.8-.7.7-20.9-10.1-23.8-12.7-.9-.8.2-3.6 4.8-11.6 3.3-5.8 6.7-11.5 7.4-12.7l1.5-2.2 7.7 2.4c4.3 1.4 11.5 3.7 16 5.2zm216.1 5.8c3.9 6.6 6.8 12.3 6.6 12.7-.3.5-21.3 12.7-23.5 13.6-.4.2-5.8-6.3-11.9-14.5l-11.2-14.8 15.9-5.1c8.7-2.8 16.1-4.8 16.5-4.5.3.3 3.8 6 7.6 12.6zM530 442.1c0 .6-7.5 4.6-16.7 9-17 8.2-17.5 8.3-23.9 5.8l-2.8-1 4-2.4c12.2-7.5 39.4-15.4 39.4-11.4zm40.5 3.1c8.6 2.8 22.5 9.5 22.5 10.9 0 .6-6.9 2.9-8.9 2.9-.6 0-8.6-3.6-17.7-8-10.6-5-16.3-8.3-15.9-9 1-1.7 9.4-.3 20 3.2zm-191.9 3.9c6.8 3.9 12.4 7.5 12.4 8 0 1.5-15.2 23.9-16.3 23.9-.6 0-5.3-4.2-10.5-9.3l-9.5-9.4 4.8-10.1c2.7-5.6 5.2-10.2 5.8-10.2.5 0 6.5 3.2 13.3 7.1zm341.8 2.9c2.6 5.6 4.6 10.5 4.4 10.9-.2.5-4.7 5-10 10l-9.7 9.2L697 470c-4.5-6.7-8-12.6-7.8-13.1.4-1.1 23.7-14.8 25.4-14.8.6-.1 3.2 4.4 5.8 9.9zm-189.6-6.2c-.1.4-4.4 4.7-9.5 9.5l-9.2 8.8-5.5-1.7c-3.1-1-5.6-2-5.6-2.3 0-.7 27.9-14.9 29.3-15 .5-.1.7.2.5.7zm34.5 6.9 15.2 7.6-6.2 2-6.2 2.1-9.3-8.9c-9-8.7-10.6-10.5-9.4-10.5.4 0 7.5 3.4 15.9 7.7zm-28.1-3.7c1.6 0 1.8 1.1 1.8 12 0 9.1-.3 11.8-1.2 11.5-12.2-3.8-21.5-6.9-22.1-7.5-.4-.3 3.3-4.6 8.4-9.4 6.7-6.5 9.4-8.5 10.2-7.7.6.6 1.9 1.1 2.9 1.1zm21.2 8.9c3.9 3.9 6.8 7.2 6.5 7.4-.2.3-5 1.9-10.6 3.6-5.6 1.7-10.9 3.4-11.8 3.7-1.3.5-1.5-1-1.5-11.5 0-11.3.1-12.1 1.9-12.1 1.1 0 2.3-.5 2.6-1 .9-1.4 4.6 1.4 12.9 9.9zm-88.1-4.9 9.9 3.2-3.9 3.1c-4.5 3.7-12.9 11.9-16.5 16.4-1.4 1.7-5.2 4.5-8.5 6.1l-5.9 3-4.7-2.6c-2.6-1.4-4.7-2.8-4.7-3.1.1-1.9 22.1-30 23.2-29.7.7.3 5.7 1.9 11.1 3.6zm162.8 11.1c9 12 11 15.3 9.8 16-.8.5-3 1.8-4.9 2.8l-3.5 1.9-6.1-3.2c-4.3-2.2-7.7-4.9-11.2-9.2-2.8-3.4-7.8-8.3-11.2-10.9-3.3-2.7-5.8-5-5.6-5.3.3-.2 5.1-1.9 10.8-3.7 5.7-1.8 10.4-3.4 10.4-3.4.1-.1 5.3 6.7 11.5 15zm-233-2.9c3.2 1.8 5.8 3.5 5.6 3.9-.1.3-4 7.1-8.7 15.2l-8.5 14.6-5.9-5.9-6-5.9 8.4-12.5c4.5-6.9 8.5-12.6 8.7-12.6.2 0 3.1 1.5 6.4 3.2zm90.2-1.9 3.8 1.2-14.8 7.3-14.8 7.4 4.5-4.7c6.2-6.6 13.9-12.5 15.8-12.4 1 0 3.4.6 5.5 1.2zm111.4 2.6c2.6 2.1 6.8 6 9.3 8.6l4.5 4.7L601 468l-14.5-7.3 3.5-1.3c5.4-1.9 6.4-1.7 11.7 2.5zm93.3 8.5c4.5 6.9 8 12.9 7.9 13.4-.2.5-2.9 3.2-6 6l-5.6 5.1-8.2-14.2c-4.6-7.8-8.3-14.6-8.4-15.1-.2-.9 9.9-7.5 11.4-7.6.3 0 4.3 5.6 8.9 12.4zm-191-6.7c3.3 1 5.9 2.1 5.7 2.4-.1.4-6.1 6.2-13.2 13-12.8 12.1-13.2 12.5-21.4 15.1l-8.4 2.7-6.3-3.5-6.4-3.5 1.7-2.7c4.2-6.6 6.2-8.1 22.6-16.4 9.5-4.8 17.8-8.7 18.5-8.7.7-.1 4 .7 7.2 1.6zm97.8 7.2c15.2 7.7 18.1 9.5 20.2 12.8 1.3 2.1 2.8 4.3 3.3 5 .5.8-1.2 2.3-5.6 4.7l-6.4 3.6-8.7-3c-8.6-2.9-9-3.2-21-14.7-6.7-6.5-12.3-12.3-12.4-12.8-.2-1 7.9-4.3 11.1-4.4.9-.1 9.7 3.9 19.5 8.8zM372.3 486c-.9 1.4-3.7 5.5-6.1 9.2l-4.5 6.8-6.8-9.2c-3.8-5-6.9-9.7-6.9-10.3 0-1.1 2.5-8.8 4.9-14.8l1.1-2.8 10 9.3c9.9 9.3 9.9 9.3 8.3 11.8zm47.6-13.4c6.4 3.7 11.8 6.8 12 7 .2.2-2.7 4.4-6.4 9.4-6.4 8.6-7.3 9.4-15.4 13.4l-8.6 4.4-5.8-5.2-5.8-5.3 8.8-15.1c4.8-8.4 9-15.2 9.2-15.2.2 0 5.6 3 12 6.6zm261.3 8.7 8.8 15.2-5.5 5.2-5.6 5.3-8.9-4.5c-8.4-4.2-9.4-5-15.5-13.1-3.6-4.8-6.5-9-6.5-9.3 0-.6 22.9-13.9 24-14 .3 0 4.4 6.8 9.2 15.2zm48.2-7.3 2.8 7.9-6.9 9.5c-3.7 5.3-7 9.6-7.3 9.6-.5 0-10.2-14.5-10.9-16.3-.4-1.1 16.9-18.7 18.5-18.7.6 0 2.3 3.6 3.8 8zm-204.1-3.4c6 2 10.7 3.8 10.5 4-.2.2-11 3.7-23.9 7.8l-23.4 7.5 11.7-11.5c6.5-6.3 12.3-11.4 13-11.4.7 0 6.2 1.6 12.1 3.6zm54.5 7.8 11.7 11.5-22.5-7.3c-12.4-4-23.2-7.5-24-7.8-1.3-.5 18.5-7.5 21.8-7.7.7-.1 6.5 5 13 11.3zM539 507.1v31.1l-4.2-2.5c-2.4-1.3-16.4-9.3-31.3-17.7-14.8-8.4-27.2-15.5-27.5-15.7-.2-.2 1.6-2.4 4-4.8 4.3-4.2 5.5-4.7 31-12.9 14.6-4.6 26.8-8.5 27.3-8.5.4-.1.7 13.9.7 31zm29.9-22.5c25.5 8.2 26.8 8.7 31.1 12.9 2.4 2.5 4.2 4.6 4 4.8-.5.4-57.1 32.6-60.7 34.6l-2.3 1.2V507c0-17 .3-31 .6-31 .4 0 12.7 3.9 27.3 8.6zM442 485.8c0 .4-4.3 2.9-9.5 5.5l-9.6 4.7 5.7-7.5 5.6-7.4 3.9 2c2.1 1 3.9 2.3 3.9 2.7zm211.1 4.9c1.6 2.4 2.8 4.3 2.5 4.3-1.3 0-17.6-8.5-17.6-9.2 0-.4 1.7-1.6 3.8-2.7l3.7-2 2.2 2.7c1.3 1.5 3.7 4.6 5.4 6.9zm-199.1-7c0 .5-.7 1.6-1.5 2.6-1 1.4-1.8 1.6-3.1.9-1.5-.9-1.4-1.1 1.2-2.5 3.4-1.9 3.4-1.9 3.4-1zm176.6 3.5c-1.3.7-2.1.5-3.1-.9-2.3-2.9-1.7-3.5 1.7-1.7 2.8 1.4 2.9 1.7 1.4 2.6zM387 497c0 .3-2.9 5.3-6.3 11.2l-6.3 10.8-5.4-7.2c-2.9-4-5.3-7.7-5.3-8.3 0-.5 2.6-5 5.8-9.8l5.9-8.8 5.8 5.8c3.2 3.1 5.8 6 5.8 6.3zm348.1-3.2 1.3 6.3-3.4 6.5c-5 9.4-5.2 9.5-9.9 2.6l-4-6 6.7-9c3.9-5.2 7-8.5 7.4-7.8.3.6 1.2 3.9 1.9 7.4zM360 503.6c0 .4-1.9 3.6-4.2 7.1-3 4.6-4.4 6.1-5 5.1-.5-.7-2.5-4.1-4.4-7.6l-3.6-6.3 1.7-7.2c1-3.9 2-7.6 2.2-8 .5-.8 13.3 15.6 13.3 16.9zm350.8-9.6c2.8 4.4 5.2 8.4 5.2 9 0 1.2-10.2 15-11 15-.4 0-10.9-17.9-11.9-20.3-.4-1.1 9.9-11.7 11.4-11.7.5 0 3.4 3.6 6.3 8zm-261.3-4.1c.3.5-.9 4-2.7 7.7l-3.3 6.8-16.5 5.3c-9.1 2.9-16.8 5.2-17.2 5-.4-.1 1.8-3.6 5-7.7 5.5-7.2 6.1-7.7 18.1-13.7 12.3-6.1 14.6-6.6 16.6-3.4zm204.8 6.8c3.7 2 6.8 5 10.9 10.3 3.2 4.1 5.4 7.6 5 7.7-.4.2-8.1-2.1-17.2-5.1l-16.5-5.3-3.3-6.9-3.4-6.8 2.2-1.8c2-1.6 2.4-1.6 9.6 1.7 4.2 1.9 9.9 4.7 12.7 6.2zm-195.9-2.1c2.6 1.5 4.4 3 3.9 3.4-1 .9-14.3 4.9-14.3 4.4 0-.8 5-10.4 5.4-10.4.2 0 2.5 1.2 5 2.6zm171.1 2.4c1.4 2.7 2.5 5.1 2.5 5.4 0 .7-13.5-3.9-13.8-4.8-.3-.8 6.2-5.3 8-5.5.4-.1 1.9 2.1 3.3 4.9zm-152.9.9c-2.5 2.6-3.2 2.8-5.2 1.9-2.9-1.3-2.8-1.4 2.2-3.2 5.7-2.1 6.1-1.9 3 1.3zm131.8-.5 2.9 1.2-2.5 1.1c-2.3 1-2.9.8-5.4-1.9l-2.9-3 2.5.7c1.4.4 3.8 1.3 5.4 1.9zM394.5 503l4.9 4.9-10.4 5c-5.8 2.8-10.6 4.8-10.8 4.6-.4-.3 10.6-19.5 11.1-19.5.2 0 2.5 2.2 5.2 5zm74.7-2.2 2.7 1.8-15.1 14.2c-8.2 7.9-15.2 14.1-15.4 13.9-.6-.5 2.2-15.2 3.8-20.7l1.4-4.5 9.4-3.2c5.2-1.7 9.7-3.2 10-3.2.3 0 1.7.7 3.2 1.7zm155 1.6c4.8 1.4 8.9 3 9.2 3.4.8 1.4 4.4 16.5 5.1 21.6l.7 4.9-15.6-14.8-15.6-14.9 2.8-1.8c1.5-1 3.2-1.6 3.7-1.4.6.2 4.9 1.5 9.7 3zm72.6 5.8c2.9 5 5.1 9.3 4.9 9.5-.2.1-5-2-10.8-4.8l-10.3-5.1 4.9-4.3c2.8-2.5 5.2-4.4 5.5-4.4.3-.1 2.9 4 5.8 9.1zm-284.9-1c-1.8 2.4-3.5 4.6-3.9 5.1-.3.4-1.7-.4-2.9-1.7l-2.3-2.5 5.8-2.9c3.3-1.7 6.1-2.8 6.3-2.6.2.1-1.1 2.2-3 4.6zM671 505c3.3 1.7 6 3.2 6 3.3 0 .2-1.1 1.3-2.4 2.6l-2.3 2.2-4.2-5.6c-2.3-3-3.9-5.5-3.6-5.5.3 0 3.2 1.4 6.5 3zm-167.8 15.1c15.6 8.9 28.7 16.6 29.2 17 .6.5-19.5.9-45.3.9-45.3 0-46.2 0-45.9-2 .3-1.9 31.2-32 32.9-32 .4 0 13.5 7.3 29.1 16.1zm119.4-.9c8.7 8.4 16 16 16.2 17 .3 1.7-1.9 1.8-46.5 1.8h-46.8l29.5-16.9c16.2-9.3 30-16.9 30.6-17 .5-.1 8.2 6.7 17 15.1zm99.4-8.3c2.2 3.3 4 6.4 4 7 0 .8-3.4 7.4-4.7 9-.2.3-3.5-1.1-7.3-2.9-4.4-2.2-6.9-3.9-6.6-4.7.5-1.2 9.8-14.2 10.3-14.3.1 0 2 2.7 4.3 5.9zm17 5.5c1.7 15.8.5 17.2-6 7.6l-4.1-6.1 3.6-6.4c2-3.6 4-6.5 4.4-6.5.5 0 1.4 5.1 2.1 11.4zm-392.5-3.8 3.7 6.6-3.7 5.4c-2.1 3-4.3 5.3-4.9 5.1-.6-.2-1.1-2.6-1-5.3 0-5.6 1.4-18.4 1.9-18.4.2 0 2 3 4 6.6zm21.3.7 5.3 7.1-7.3 3.7c-4.2 2.1-7.7 3.3-8.3 2.9-.5-.5-1.9-2.4-2.9-4.4l-1.9-3.5 4.3-6.6c2.3-3.6 4.5-6.5 4.9-6.5.3.1 3 3.3 5.9 7.3zm74.7-4.6c-1.2 3.3-3.4 13.8-4.1 20-.4 4.2-1.3 6.8-2.5 7.9-1.9 1.7-2.4 1.3-12.7-8.7-5.9-5.7-10.8-10.6-11-10.9-.2-.6 27.1-9.7 29.7-9.9.9-.1 1.1.5.6 1.6zm210.6 3c8.2 2.5 14.9 4.9 14.9 5.2 0 .3-5 5.3-11 11-10.6 9.9-11.2 10.3-13 8.6-1.2-1.1-2-3.7-2.5-7.8-.7-6.3-2.8-16.7-4-20-.4-.9-.4-1.7 0-1.7s7.5 2.1 15.6 4.7zm-247.6 4.2c-.6.5-6.6 2.8-13.4 5-9.2 3-12.8 3.7-13.8 2.9-.7-.6-1.3-1.4-1.3-1.9s5.3-3.6 11.8-6.8l11.7-5.9 3 2.9c1.8 1.8 2.6 3.2 2 3.8zm296.3 7.1c-.7 1.1-1.7 1.9-2.3 1.7-.5-.2-6.2-2.1-12.5-4.2s-11.9-4.1-12.4-4.6c-.6-.5.1-2 1.8-3.8l2.9-3 11.8 6c11.2 5.5 11.8 6 10.7 7.9zm-281.3 5 10.2 10h-19.4c-16 0-19.3-.2-18.6-1.3.4-.8 3.7-5.3 7.3-10 4.3-5.8 7.1-8.7 8.4-8.7 1.2 0 6.1 4.1 12.1 10zm257.5-3.8c2.5 3.4 5.8 7.9 7.3 10l2.9 3.8h-19.4l-19.3-.1 10.3-9.9c5.7-5.5 11.1-10 12-10 .9 0 3.7 2.8 6.2 6.2zm-278.2-1c-1.3 1.8-4.4 5.9-6.7 9.1l-4.4 5.7-3.8-5.2c-2.2-2.8-3.9-5.5-3.9-5.8 0-.6 18.3-6.8 20.4-7 .4 0-.3 1.5-1.6 3.2zm289.5.1 9.7 3.2-3.7 5.2c-2.1 2.9-4.1 5.3-4.4 5.3-.6 0-10.3-12.5-12.3-15.8-1-1.7-.1-1.6 10.7 2.1zm42.2 2c2.2 3.3 3.3 6 2.9 7-.5 1.5-1.2 1.3-5.7-1-2.9-1.4-5.3-2.7-5.5-2.8-.3-.3 4.1-8.5 4.5-8.5.2 0 1.9 2.4 3.8 5.3zm-377.6-.1 2.2 3.8-4.5 2.2c-6.7 3.2-7.9 1.5-3.6-5.2 1.8-2.8 3.3-4.9 3.5-4.8.1.2 1.2 2 2.4 4zm21.9.9c-.7.5-1.9.9-2.6.9-1 0-1-.4 0-1.9.9-1.5 1.5-1.7 2.6-.9 1 .9 1.1 1.3 0 1.9zm330.6-1.5c.9 2.2.8 2.3-1.4 1.7-2.1-.5-2.5-1.5-1.3-2.6 1.1-1.1 2-.8 2.7.9zm-336.8 2.2c-1.7 1.9-9.4 4.8-10.3 3.8-.6-.6 11-6.6 11.6-6 .2.2-.3 1.2-1.3 2.2zm344.8-.1c3 1.5 5.3 3 5 3.4-.8 1.3-8.9-2-10.2-4.1-1.6-2.6-1.3-2.5 5.2.7zm-2.8 7 2.5 4.3h-10c-5.6 0-10.1-.2-10.1-.5s1.6-2.7 3.6-5.4l3.7-4.9 3.9 1.2c2.9.8 4.5 2.1 6.4 5.3zm-328.9-.5 3.5 4.8h-20.4l2.5-4.2c4.2-7.2 9.3-7.4 14.4-.6zM357 532c-.8.5-1.9 1-2.5 1-.5 0-.3-.5.5-1s2-1 2.5-1c.6 0 .3.5-.5 1zm10-.3c0 .5-.9 1.9-1.9 3.2l-1.9 2.4-1.1-2.2c-1-1.8-.9-2.3 1.1-3.1 2.9-1.1 3.8-1.2 3.8-.3zm350.9.9c.2.2-.2 1.1-1 2-1.2 1.4-1.4 1.4-2.6-.2-1.9-2.6-1.6-3.6 1-2.8 1.2.3 2.4.8 2.6 1zm7.1-.6c1.8 1.2.2 1.2-2.5 0-1.3-.6-1.5-.9-.5-.9.8 0 2.2.4 3 .9zm6.6 5.3c.4.4-2.5.7-6.4.7-4 0-7.2-.3-7.2-.6s.4-1.4 1-2.4c.9-1.7 1.2-1.7 6.4-.1 3.1.9 5.8 2 6.2 2.4zM360 536c1 1.9.8 2-5.6 2-7.4 0-7.6-.3-1.8-2.4 5.3-2 6.2-1.9 7.4.4zm.9 6.2c-.6 1.3-1.3 2.4-1.4 2.6-.6.7-11.5-3.2-11.5-4 0-.4 3.2-.8 7-.8 7 0 7.1 0 5.9 2.2zm23 2.3c-4.8 6.7-5.2 6.9-10 5.4-3.1-1.1-4.7-2.4-6.6-5.7l-2.5-4.2H387.1l-3.2 4.5zm37.6 6c-7 6.6-11.8 10.4-13.2 10.5-1.7 0-4.1-2.5-9.8-10-4.1-5.4-7.5-10.2-7.5-10.5 0-.3 9.3-.5 20.8-.5h20.7l-11 10.5zm115.4-10.1c-.9.8-62 35.6-62.5 35.6-.3 0-8-7.1-17-15.7-12-11.4-16.4-16.3-16.4-18V540h48.2c26.5 0 47.9.2 47.7.4zm102.1 2c0 1.8-4.1 6.3-16.4 18-9 8.6-16.6 15.6-16.9 15.6-.5 0-61.8-34.9-62.6-35.6-.2-.2 21.2-.4 47.7-.4H639v2.4zm47.8.8c-1.3 1.8-4.3 5.8-6.6 8.9-3 4-5.2 5.9-7.9 6.7-3.6 1.1-3.7 1-10.2-4.8-3.6-3.2-8.4-7.7-10.6-9.9l-3.9-4.1h41.6l-2.4 3.2zm26.2-2.7c0 .2-.5 1.6-1.2 3-.8 1.8-2.6 3-6.6 4.2l-5.4 1.7-2.5-2.9c-5.4-6.6-5.5-6.5 5.7-6.5 5.5 0 10 .2 10 .5zm11.1 1.1c-3.4 1.5-6.1 1.3-6.1-.6 0-.5 2.1-1 4.8-.9l4.7.1-3.4 1.4zm-285.6 8.8c.3 3.5 1.5 9.6 2.5 13.7 1.1 4 1.7 7.5 1.6 7.7-.2.2-7.2-1.9-15.6-4.6l-15.2-4.9 11.3-10.6c10.3-9.7 11.5-10.5 13-9.1 1 .9 1.9 3.9 2.4 7.8zM716 544c-2.4 1.5-3.1 1.1-1.8-1 .9-1.3 1.6-1.6 2.3-.9.7.7.5 1.3-.5 1.9zm16-2c0 1.6-9.8 6.1-10.5 4.9-.4-.6-.4-1.3 0-1.7.5-.5 6.8-3 10.3-4.1.1-.1.2.3.2.9zm-366.3 4.7c-.3.2-1.5.2-2.6-.2-1.7-.5-1.9-.9-.9-2.5 1.2-1.8 1.2-1.8 2.6.1.8 1.1 1.2 2.3.9 2.6zm29.3 3.2c3.3 4.4 6 8.2 6 8.5 0 .4-12.1-3.4-18.8-5.9-.9-.3-.1-2 2.5-5.5 2-2.7 3.8-5 4-5 .1 0 2.9 3.6 6.3 7.9zm143.6 52.9c-.3.2-12.5-3.4-27.2-8.1-25.7-8.3-27-8.8-31-12.9l-4.3-4.3 31.2-17.8 31.2-17.8.3 30.2c.1 16.6 0 30.4-.2 30.7zm36.9-41.3c15.4 8.7 28.2 16 28.5 16.2.2.2-.9 1.5-2.5 2.8-1.9 1.5-13.5 5.9-30.5 11.6-15.1 5.1-28.1 9.4-28.7 9.7-1 .3-1.3-6-1.3-29.8v-30.2l3.3 1.9c1.7 1.1 15.8 9.1 31.2 17.8zm80.9-10.1 10 9.3-13.9 4.6c-7.6 2.6-14.1 4.5-14.3 4.3-.2-.3.3-3.3 1.1-6.8.9-3.5 1.8-9 2.2-12.3.7-6.1 1.8-8.5 3.9-8.5.6.1 5.6 4.3 11 9.4zm38-5.3c1.5 2.2 2.7 4.2 2.5 4.3-.7.6-16.2 5.6-16.5 5.3-.4-.4 9.8-13.7 10.5-13.7.3 0 1.9 1.9 3.5 4.1zm-342.9 1.1c2.5 1.2 4.5 2.5 4.5 2.9 0 .5-1 2.4-2.1 4.4l-2.2 3.6-3.3-5c-2-2.9-3.1-5.6-2.8-6.5.8-2 .5-2 5.9.6zm6-.1c1.5 1.4-.7 1-3.5-.7l-2.5-1.5 2.5.7c1.4.3 2.9 1 3.5 1.5zm377.1-.7c.3.8-1 3.8-3 6.7l-3.5 5.2-2-3.4c-1.2-1.9-2.1-3.9-2.1-4.5 0-.9 7.4-5.2 9.3-5.3.4-.1 1 .5 1.3 1.3zm-14.9 1.3c.3.7-2.3 2.6-5.6 4.3-3.4 1.7-6.1 2.8-6.1 2.4 0-.3.8-1.9 1.7-3.5 2.5-4.1 9-6.2 10-3.2zm-351.9 2.9c4 2.6 2.3 3.3-2.8 1.2-2.7-1.1-5-2.5-5-3 0-1.3 4.7-.2 7.8 1.8zm94 16.7c9.5 9.1 10.1 10 8.5 11.3-2.4 1.8-2.2 1.8-13.4-1.6l-9.8-3.1-2-6.3c-1-3.4-2.2-8.5-2.6-11.2-.4-2.7-.9-5.8-1.2-6.9-.6-2.2 3.2 1.1 20.5 17.8zm175.6-10.5c-2.5 14.5-2.5 14.5-15.3 18.6-17.1 5.6-17.1 4.7.9-12.5 8.5-8.1 15.6-14.7 15.7-14.6.1.1-.5 4-1.3 8.5zM338 571l1.2 8.6-27.3 47.1c-15.1 25.9-27.5 47-27.6 46.9-.2-.2 44.7-110.3 50-122.6.9-2.2 1.1-1.7 1.8 4.5.4 3.8 1.3 10.8 1.9 15.5zm8.7-16.4 3.7 5.5-2.4 4.4c-1.3 2.4-3.1 5.3-4 6.6-1.7 2.1-1.7 1.9-2.9-6.8-2.2-17.2-.9-19.4 5.6-9.7zm359.6-1.5-2 3.1-1.7-2.3c-1.6-2.3-1.5-2.4 1.6-3.5 1.8-.6 3.5-1 3.7-.8.2.2-.5 1.7-1.6 3.5zm33.7-.9c0 5.2-2.2 20.8-2.9 20.8-.4 0-2.2-2.9-4.1-6.4l-3.4-6.4 3.7-5.6c4.2-6.4 6.7-7.3 6.7-2.4zm19.5 32.3c7.6 18.7 18.9 46.6 25.2 61.9 6.2 15.4 11 27.7 10.7 27.3-.4-.3-12.8-21.4-27.6-46.9-26.4-45.4-26.9-46.4-26.4-50.8.3-2.5 1.1-9.6 1.8-15.7.7-6.2 1.5-10.9 1.9-10.5.3.4 6.8 16 14.4 34.7zm-393.5-30c3.9 1.9 7 3.8 7 4.1 0 1-10.1 14.4-10.8 14.4-.4 0-2.6-3-5-6.5l-4.3-6.6 2.7-4.4c1.4-2.5 2.8-4.5 3-4.5.3 0 3.6 1.6 7.4 3.5zm10.4-1.6c.3.4 0 1.3-.5 2.1-.8 1.3-1.2 1.2-2.4-.4-.8-1.1-1.5-2.3-1.5-2.7 0-.8 3.8 0 4.4 1zm347.8 2.6 2.8 4.6-4.6 6.9-4.7 7-5.8-7.8-5.8-7.7 7.2-3.7c4-2 7.4-3.7 7.7-3.8.3 0 1.7 2 3.2 4.5zm-33.5 8.2-12.2 6.1-2.5-2.4c-2.4-2.3-2.4-2.5-.8-5.1 1.3-2.2 3.9-3.5 12.5-6.4l10.8-3.7 2.2 2.6 2.3 2.7-12.3 6.2zm-299.2-6.1c10.3 3.4 14.5 5.6 14.5 7.5 0 .5-1.2 1.6-2.6 2.5-2.5 1.7-2.8 1.6-14.4-4.1-10.4-5.2-11.8-6.1-10.9-7.7.5-1 1.3-1.8 1.7-1.8.4 0 5.6 1.6 11.7 3.6zm2.7 18.7c-2.8 2.8-5.3 4.9-5.5 4.7-.9-1.1-11.7-19.9-11.7-20.4 0-.3 5 1.9 11.2 5l11.1 5.6-5.1 5.1zm316.2-8.8c3.1 4.1 5.6 7.8 5.6 8.2 0 1-11.4 18.3-12 18.3-.3 0-3.2-2.7-6.4-5.9l-5.9-5.9 6.4-11.1c3.5-6.1 6.5-11.1 6.5-11.1.1 0 2.7 3.4 5.8 7.5zm-329.3 4.6c3.2 5.6 5.9 10.5 5.9 10.9 0 .4-2.6 3-5.8 5.8l-5.9 5-5.9-9.2-6-9.2 5.4-7.2c3-4 5.7-7 5.9-6.8.3.2 3.1 5.1 6.4 10.7zM673 561.4c0 .3-.4.8-1 1.1-.5.3-1 .1-1-.4 0-.6.5-1.1 1-1.1.6 0 1 .2 1 .4zm23 9.5c-2.9 5-5.4 9.1-5.7 9.1-.2 0-2.7-1.9-5.4-4.2l-5-4.2 10.3-5.2c5.7-2.9 10.5-5 10.7-4.9.2.2-2 4.5-4.9 9.4zm-339.8-2.1 4.6 6.8-6.6 8.8c-3.6 4.8-6.8 8.3-7.2 7.9-.5-.4-1.5-4-2.4-7.9l-1.6-7.2 4.3-7.6c2.3-4.1 4.2-7.6 4.3-7.6.1 0 2.1 3.1 4.6 6.8zm313.5-4.2c.2.6-1.9 4.1-4.7 7.7-4.8 6.4-5.8 7.1-18 13.2-7.1 3.6-13.3 6.5-13.7 6.5-.5 0-1.7-.7-2.7-1.5-1.4-1.1-1.6-1.8-.8-2.8.6-.7 2.4-4.4 4.1-8.2l2.9-6.9 13.9-4.8c13.5-4.6 18.3-5.4 19-3.2zm63 5.7c4.6 8 4.5 6.5 1.1 20l-.9 3.9-6.9-9.2-6.9-9.2 4.2-6.4c2.3-3.5 4.4-6.4 4.8-6.4.3 0 2.4 3.3 4.6 7.3zm-304.5-.7c9.3 3.1 16.8 6.1 16.8 6.7 0 .7 1.3 4 2.9 7.3l2.9 6.2-2.2 1.2c-2 1-3.9.3-16.2-5.8-13.2-6.7-14.1-7.3-18.6-13.3-4.2-5.8-5-7.9-3-7.9.4 0 8.2 2.5 17.4 5.6zm-18 .6c4.2 5.7 4.1 5.9-1.6 3.1-5.2-2.5-5.5-2.8-3.9-4.5 2.2-2.4 2.7-2.3 5.5 1.4zm264.2-1.3c1.7 1.9 1.6 2-3.3 4.5-2.8 1.4-5.3 2.6-5.6 2.6-.4 0 .8-2 2.6-4.5s3.5-4.5 3.9-4.5c.4 0 1.5.9 2.4 1.9zm-249.4 21c3.8 5.2 7 9.7 7 10-.1 1.1-24.4 14.3-24.7 13.5-.2-.5-4.2-7.4-8.8-15.4l-8.4-14.5 5.6-5.7 5.6-5.7 8.3 4.2c7.8 3.9 8.7 4.8 15.4 13.6zm259.4-12 4.8 4.9-8.7 15.1c-4.8 8.3-9.2 15.1-9.7 15.1s-6-3-12.3-6.6l-11.4-6.5 7.1-9.5c6.5-8.7 7.8-9.9 14.7-13.4 4.2-2.2 8.3-3.9 9.1-4 .9 0 3.7 2.2 6.4 4.9zm-54 1.8-3.1 7.1c-.3.7-.8 1.2-1.2 1-.3-.2-3.5-1.9-6.9-3.8l-6.2-3.5 9.2-3.2c5.1-1.7 9.6-3.2 10-3.2.4-.1-.4 2.5-1.8 5.6zm-171.6-.2c2.8.9 5 2 4.7 2.5-.6.9-9.7 6.2-10 5.8-.6-.7-3.6-7-4.5-9.2-.8-2.3-.8-2.4 1.8-1.6 1.5.5 5.1 1.6 8 2.5zm-90.5 7.3 5.8 8.7-9.7 9.2c-5.4 5.1-10 9-10.4 8.8-.4-.2-1.9-4.2-3.5-8.8l-2.8-8.3 6.9-9.2c3.8-5.1 7.1-9.2 7.4-9.2.3 0 3.1 4 6.3 8.8zm356.2-.6c3.3 4.4 6.4 8.8 6.8 9.7.8 1.7-4.4 17.3-5.9 17.8-.5.2-5.1-3.9-10.1-8.9l-9.3-9.3 5.8-8.7c3.1-4.8 5.9-8.8 6.2-8.7.3 0 3.2 3.6 6.5 8.1zm-247.4-4.5c1.9 2.1 2.1 2.5.6 2-1.1-.4-3-1-4.3-1.3-2.6-.7-3.1-1.9-1.1-2.7 2-.9 2.3-.8 4.8 2zm129.4-1.7c-.3.5-1.1 1-1.6 1-.6 0-.7-.5-.4-1 .3-.6 1.1-1 1.6-1 .6 0 .7.4.4 1zm11.6 5.7c3.8 2.1 6.9 4.1 6.9 4.5 0 .3-1.5 2.6-3.2 5-2.8 3.7-5.9 5.6-21.3 13.4l-18 9.1-6.4-2.1-6.4-2.2 14.7-13.9c14-13.4 19.6-17.3 25-17.4 1-.1 4.9 1.6 8.7 3.6zm-275.7 5.5 1.6 6.8-27.1 36.2c-28.1 37.5-30.1 40.1-27.8 35.7 6.3-12 50.5-86.6 51-86.1.3.4 1.4 3.7 2.3 7.4zm101.4 2.3c.1.1-2 1.4-4.7 2.8l-4.9 2.7-5.6-7.5c-3.1-4.1-5.6-7.7-5.6-8 0-.4 19.7 9 20.8 10zm32.4-8.3c6.4 2.1 7.8 3.1 20 14.7l13 12.5-6.7 2.3-6.6 2.2-17.3-8.6c-16-8-17.6-9-20.6-13.5-1.8-2.6-3.1-5-2.9-5.2 1.6-1.4 11.7-6.6 12.8-6.6.8 0 4.5 1 8.3 2.2zm178.2 1.5c-1.5 2.1-4.2 5.7-5.9 8l-3.1 4.1-4.8-2.6-4.7-2.6 10.3-5.3c5.7-2.8 10.5-5.2 10.7-5.2.2-.1-.9 1.6-2.5 3.6zm98.7 18.5c6.7 11.7 17.6 30.5 24.2 41.8 15.6 26.9 16.1 27.8 14.5 25.9-.7-.8-13.6-18-28.6-38.1L736 598.2l1.7-7.1c.9-3.9 2-7.1 2.4-7.1.4 0 6.2 9.6 13 21.2zM397.3 600c9.4 16 9.3 14.9 1.5 19.4l-4.8 2.7-8.7-13.2-8.8-13.1 5.9-5.5c3.2-3 6-5.3 6.1-5.1.2.2 4.2 6.8 8.8 14.8zm300.1-9.5 5.9 5.5-8.7 13-8.7 13.1-6.2-3.6c-3.4-1.9-6.1-3.9-6-4.5.5-1.9 16.5-29 17.2-29 .3.1 3.3 2.5 6.5 5.5zM594 587.3c0 .2-6 6-13.4 13l-13.4 12.6-12.8-4.3c-7.6-2.6-12.3-4.6-11.4-5 2.8-1.1 49.5-16.6 50.3-16.6.4 0 .7.1.7.3zm-80 10.2c9.6 3.1 18.2 5.8 19 6.2.8.3-3.5 2.2-9.9 4.4l-11.5 3.9-9-8.7c-5-4.8-10.4-10-12.1-11.5l-3-2.8 4.5 1.4c2.5.9 12.4 4 22 7.1zm-60.2-3.5c1.4 2.3 1.2 2.4-2.2.9-1.4-.7-2.3-1.6-2-2 .9-1.5 2.9-1 4.2 1.1zm176.6-1.1c.3.4-.6 1.3-2 2-3.4 1.5-3.6 1.4-2.2-.9 1.3-2.1 3.3-2.6 4.2-1.1zM452 597.5c3 1.5 9.2 6.8 16 13.6 6.1 6.2 10.9 11.3 10.8 11.4-.9.7-19.6 6.5-20.8 6.5-1.4-.1-22.7-27.7-21.9-28.5.9-.8 9.5-5.5 10.2-5.5.4 0 3 1.1 5.7 2.5zm187.3.3 4.7 2.8-11 14.7c-6.1 8.1-11.3 14.7-11.7 14.7-.8 0-20.6-6.1-21.5-6.7-.4-.2 1.8-2.6 5-5.2 3.2-2.7 8.4-7.7 11.6-11.2 5-5.6 13.9-11.7 17.1-11.8.6-.1 3.1 1.2 5.8 2.7zM384 610.5c6.2 9.3 7.7 12.2 6.7 13.1-1.5 1.4-24.9 14.5-25.3 14.2-.1-.2-2.6-5-5.4-10.8l-5.3-10.4 9.9-9.3c5.4-5.1 10.2-9.2 10.7-9 .4.1 4.3 5.6 8.7 12.2zm331.4-2.8 9.7 9.2-5.2 10.3c-2.8 5.7-5.3 10.5-5.5 10.7-.2.2-24.6-13.2-26.3-14.5-.6-.6 16.1-25.5 16.9-25.2.4.2 5.1 4.4 10.4 9.5zm-367.2 2.1 2.7 7.7-4.2 4.1c-3.6 3.5-19.5 18.6-54.1 51.3-8.2 7.8-10 10.4 24.9-36.2 14.7-19.7 27-35.5 27.4-35.2.3.4 1.8 4.1 3.3 8.3zm416 29.7c15.6 20.9 28.8 38.7 29.3 39.5.8 1.3-18.1-16.6-53.2-50.5l-11.4-11 2.6-7c1.4-3.9 2.8-7.6 3.1-8.4.2-.8.6-1.2.8-1 .2.2 13.1 17.5 28.8 38.4zm-319.6-23.4c5.8 7.7 10.4 14.2 10.2 14.3-.1.2-7.3 2.6-16 5.3l-15.6 5-7.3-12.6c-3.9-6.9-6.8-12.7-6.3-12.8.5-.2 5.9-3.2 11.9-6.8 6.1-3.5 11.3-6.4 11.7-6.4.4-.1 5.5 6.2 11.4 14zm212.3-8.1c5.8 3.3 11.2 6.4 12 6.9 1 .7-.3 3.6-6 13.5-7.1 12.2-7.5 12.6-10.2 12-5.7-1.2-27.8-9-27.8-9.7 0-1 20.3-28.7 20.9-28.7.3 0 5.3 2.7 11.1 6zM480 611.5c7.6 3.8 11.9 6.5 11 6.9-7.5 2.8-7 2.8-11.8-.8-5.4-3.9-14.1-12.6-12.7-12.5.6 0 6.6 2.9 13.5 6.4zm59 5.8v12.3l-3.1 1.1c-3.1 1.2-3.3 1.1-13-8l-9.8-9.2 12.2-4.2c6.7-2.3 12.5-4.2 13-4.2.4-.1.7 5.4.7 12.2zm71.5-8.2c-2.2 2.2-6.5 6.1-9.6 8.5l-5.7 4.4-4.8-1.7-4.8-1.6 13.5-6.8c7.4-3.7 13.8-6.8 14.4-6.8.5-.1-.9 1.7-3 4zm-53.8 13.8c-4.9 4.7-9.3 8.6-9.6 8.5-.3 0-1.8-.4-3.3-.8l-2.8-.8v-23.6l12.4 4.1 12.3 4.1-9 8.5zm-33.2 3c4.4 4.5 7.5 8.1 7 8-.6 0-8-3.5-16.5-7.9-11.2-5.6-15-8-13.8-8.5 1-.4 3.7-1.3 6-2 5.2-1.5 5.8-1.2 17.3 10.4zm51.4-8.8c2.3.7 4.1 1.5 4.1 1.8 0 .8-29.1 15.3-29.6 14.8-.9-.9 18.7-18.9 20-18.4.8.3 3.2 1.1 5.5 1.8zm-160.4 12.5c3.7 6.4 6.5 11.7 6.3 11.9-1.4 1.1-11.1 3.5-11.8 2.9-.4-.5-3.7-5.4-7.3-10.8l-6.6-10 5.7-3.2c3.1-1.8 6-3 6.4-2.8.3.2 3.6 5.6 7.3 12zm263.9-9.4c3.1 1.8 5.6 3.6 5.6 4 0 .5-3.2 5.6-7.1 11.4-6.2 9.2-7.3 10.4-9.2 9.8-6.9-2.2-9.2-3.2-9.2-4.1 0-1.5 12.8-24.2 13.7-24.3.3 0 3.1 1.4 6.2 3.2zm-165.9 7.5c9.6 4.8 17.5 9.1 17.5 9.6 0 1.2-8.1-.2-17.8-2.9-7.8-2.3-19.7-7.5-24.3-10.7-2-1.4-1.9-1.5 2.3-3 2.4-.9 4.4-1.6 4.5-1.6.2-.1 8.2 3.8 17.8 8.6zM357 630l5 10-2.3 1.4c-1.2.8-17 9.8-35.2 20.1-18.1 10.3-34.5 19.6-36.2 20.7-1.8 1.1-3.3 1.7-3.3 1.4 0-.5 66.1-63.6 66.6-63.6.2 0 2.6 4.5 5.4 10zm230.1-8.9c1.9.7 3.8 1.5 4.3 2 .5.4-2.8 2.6-7.2 4.8-11.8 5.9-32.2 11.5-33.7 9.1-.5-.9 29.6-16.8 32.1-16.9.6-.1 2.6.4 4.5 1zM772.3 662c12.4 11.8 22.4 21.6 22.2 21.8-.2.2-75-42.2-76.3-43.3-.2-.1 2-4.8 4.8-10.4l5.1-10.2 10.9 10.3c5.9 5.7 20.9 20 33.3 31.8zm-282.7-34c8 4.7 20.3 9.3 30.3 11.4 4 .8 7.5 1.6 7.7 1.8.2.2-11.2 2.6-25.4 5.2-14.1 2.7-26.2 5.1-26.9 5.3-1.1.4-16.9-19.5-16-20.3.7-.8 20.1-7.2 21.8-7.3.9-.1 4.7 1.7 8.5 3.9zm-89.2 7.1c3.7 5.6 6.4 10.5 5.9 10.9-.4.4-7.1 2.8-14.8 5.4l-14 4.6-2-2.5c-3.9-4.7-9-13.8-8-14.2.6-.2 6.4-3.5 13-7.3s12.3-7 12.6-7c.3 0 3.6 4.6 7.3 10.1zm207.9-7c5.6 1.7 10.6 3.5 11 3.9.5.4-2.3 5.1-6.3 10.4-6.5 8.6-7.4 9.5-9.8 9-1.5-.3-13.9-2.7-27.7-5.3-21.3-4.1-24.4-4.9-21-5.5 10-1.8 22.8-6 31.5-10.5 5.2-2.7 10.1-4.9 10.8-5 .8-.1 6 1.3 11.5 3zm90.9 4c6.7 3.9 12.7 7.4 13.1 7.8 1.1 1-8.9 16.1-10.7 16.1-.8 0-7.8-2.1-15.6-4.6l-14.1-4.5 1.7-2.7c5.7-8.8 12.7-19.2 13-19.2.1 0 5.8 3.2 12.6 7.1zM464 641.9c3.8 5.2 6.7 9.8 6.3 10.2-1.6 1.4-35.5 7.1-36.4 6.2-1.4-1.4-8.9-14.4-8.9-15.4 0-.8 29.8-10.9 31.2-10.6.4.1 3.9 4.4 7.8 9.6zm174.3-4c8.1 2.7 15 5.1 15.3 5.3.3.4-6.5 13.4-8.2 15.7-.6.7-36.4-6.3-36.4-7.1 0-1 13.3-18.8 14-18.8.3 0 7.2 2.2 15.3 4.9zM364 642.8c0 .4 2 3.9 4.5 7.7 2.5 3.7 4.4 6.9 4.3 7-.2.1-19.1 6.4-42 13.9l-43.5 14.2c-1 .4 15.5-9.3 36.7-21.4 21.2-12.2 38.8-22.1 39.3-22.2.4 0 .7.4.7.8zM755.3 664c20.6 11.8 37.4 21.6 37.3 21.7-.3.4-84.1-26.9-84.9-27.6-.4-.4 1.3-3.9 3.8-7.7 2.5-3.8 4.5-7.3 4.5-7.7 0-1.2-1.4-2 39.3 21.3zm-328.1-12.7 4.7 8.2-5.6 1.3c-3.1.7-5.7 1.1-5.8 1-2.4-3.2-8.5-12.9-8.7-13.8-.2-1 7.4-4.6 10.2-4.9.3 0 2.6 3.7 5.2 8.2zm103.8-4.8c1.5 2.4 3.2 3.8 5.1 4.2l2.9.5V690l-12.7-.1c-7.1-.1-15.6-.4-19-.8l-6.1-.6-12.2-16.4c-6.7-9-12.4-16.9-12.6-17.5-.3-.7 8.6-2.9 25.8-6.3 14.5-2.8 26.4-5.2 26.5-5.2.1-.1 1.1 1.5 2.3 3.4zm53.5 3.1c10.5 2 19.2 3.8 19.4 4 .4.4-24.8 34.6-26.4 35.6-.5.4-9 .8-18.7.8H541v-38.8l3-.6c2-.4 3.7-1.7 5-4l2.1-3.4 7.2 1.4c3.9.8 15.8 3 26.2 5zm78.2-3.9c2.9.9 5.3 2 5.3 2.5 0 1.9-8.6 13.8-10 13.7-.8-.1-3.6-.6-6.2-1.2l-4.6-1.2 4.5-7.8c2.5-4.2 4.7-7.7 5.1-7.7.3 0 2.9.8 5.9 1.7zM413.4 655c3.1 4.8 4.2 7.2 3.4 7.5-.7.2-7.8 1.6-15.7 3.1l-14.5 2.7-2.3-2.9c-3.5-4.2-5.6-7.4-5.2-7.8.6-.5 27.3-9.4 28.5-9.5.6-.1 3.2 3.1 5.8 6.9zm273.2-1.4c15.9 5 15.4 4.4 9.5 11.4l-2.9 3.4-15.6-2.9c-8.6-1.5-15.6-3-15.6-3.1 0-1.1 8.4-13.4 9.2-13.4.5 0 7.5 2.1 15.4 4.6zm-204.8 12.1c4.8 6.5 10.7 14.4 13 17.5l4.3 5.8h-47.8l-6.8-11.8c-3.8-6.4-7.4-12.7-8.2-13.8-1.4-2.1-1.2-2.2 16.4-5.7 9.8-1.9 18.3-3.5 19-3.6.7 0 5.2 5.2 10.1 11.6zm143.6-8.2c9.8 1.9 18 3.6 18.1 3.7.3.3-11.6 21.4-14.8 26.1L627 690h-23.1c-13.8 0-22.9-.4-22.7-.9.5-1.5 25.2-35 25.8-35.1.3 0 8.5 1.6 18.4 3.5zM378.2 664c3.2 4.2 3.5 5 2 5.4-2.8.8-81.7 15.6-82.7 15.5-.9-.1 75.3-25.8 76.5-25.8.3 0 2.2 2.2 4.2 4.9zm365.6 8.2c20.6 6.7 37 12.4 36.4 12.6-.5.1-13.7-2.2-29.3-5.2-15.6-3-33.8-6.5-40.4-7.8-6.6-1.2-12.2-2.3-12.4-2.5-.5-.3 6.8-9.3 7.7-9.3.3 0 17.4 5.5 38 12.2zm-305.1-.9c2.9 5 6.4 11.1 7.8 13.4l2.6 4.3h-10.6l-7.7-11.8c-4.3-6.4-7.9-12.1-8-12.7-.3-1 3.8-2.2 8.2-2.4 2.1 0 3.3 1.3 7.7 9.2zm218.5-7.7c.4.3-3.1 6.3-7.9 13.4l-8.6 13h-10.8l1.7-3.1c1.6-3.2 10.5-18.6 13.1-22.8 1.4-2.1 2-2.3 6.6-1.7 2.8.4 5.4.9 5.9 1.2zm-229.4 12.9L436 689h-29.5l-9-9c-4.9-4.9-8.6-9.2-8.2-9.6.5-.5 24.7-5.6 29.7-6.3.3 0 4.2 5.6 8.8 12.4zm249.6-9c7.1 1.3 13.1 2.7 13.5 3 .3.4-3.8 4.9-9 10.1l-9.6 9.4h-14.2c-7.9 0-14.1-.4-13.9-.9.2-.5 3.9-6.3 8.3-12.9 6.5-9.8 8.4-12 10-11.6 1.1.2 7.8 1.5 14.9 2.9zM391.8 680l8.3 9-54.8-.1c-30.1-.1-54.1-.3-53.3-.5 1.9-.6 89.2-17.2 90.5-17.3.6-.1 4.8 3.9 9.3 8.9zm325.2-5c31.3 5.9 72.5 14 73.5 14.4.6.3-24.3.5-55.3.5l-56.4.1 8.9-9.5c6.6-7.2 9.3-9.4 10.8-9.1 1.1.3 9.4 1.9 18.5 3.6zm-307.8 21.3c9.6 7.8 19.1 14.5 30.3 21 5.5 3.3 8.9 5.7 7.5 5.4-1.4-.3-37.4-7.4-80-15.7-42.6-8.3-77.7-15.3-77.9-15.6-.2-.2 25.2-.4 56.6-.4h57l6.5 5.3zm38.4 10.2c5.6 8.2 10 15.1 9.9 15.3-.5.5-12.5-5.8-21.8-11.4-8.8-5.4-24-16.5-25.2-18.4-.4-.7 3.9-1 13.2-.8l13.8.3 10.1 15zm13 2.5c5.6 9.6 10.1 17.6 10 17.7-.2.2-2.2-.4-4.7-1.2-4.1-1.5-5.1-2.6-14.4-16.7-5.5-8.3-10.2-15.7-10.3-16.5-.3-1.1.7-1.3 4.4-1.1l4.8.3 10.2 17.5zm40-17.2c.6.4 7.9 9.9 16.3 21 14.8 19.7 15.2 20.5 14.1 23.2-1.1 2.6-1.6 2.8-4.4 2.3-25.1-4.7-52.3-10.6-53.1-11.6-1.3-1.4-20.5-34.4-20.5-35.2 0-.8 46.4-.6 47.6.3zm22.5.2H539v39l-2.5.6c-1.4.4-2.7.5-2.9.3-2.7-3.2-29.6-40-29.6-40.5 0-.3.7-.3 1.6 0 .9.3 8.7.6 17.5.6zm38.2 19.7c-8.1 10.9-14.8 20-15 20.2-.1.2-1.4.1-2.8-.3l-2.5-.6v-39h35l-14.7 19.7zm63-16.5c-1.1 1.8-5.7 10-10.3 18.1-5.7 9.9-9.1 14.9-10.5 15.3-1.1.2-12.6 2.4-25.5 4.9-12.9 2.5-24.5 4.7-25.6 5-1.7.4-2.4-.2-3.4-2.4-1.1-2.7-.6-3.5 14.1-23.5l15.3-20.6h47.8l-1.9 3.2zm12.6.5c-5 8.2-17.7 26.9-19 27.9-2.1 1.6-7.9 3.7-8.5 3.1-.3-.3 3.9-8.2 9.3-17.6l9.8-17.1h10.7l-2.3 3.7zm32.1-3.2c0 1.7-27.1 19.9-37.8 25.4-9.9 5-9.9 5 .8-10.9l10-15h13.5c7.4 0 13.5.2 13.5.5zm106.5 2.6c-33 6.7-143.8 28-144.1 27.7-.2-.2 4-2.9 9.3-5.9 10.3-5.8 24.2-15.4 30.8-21.3l4-3.5 57 .1h57l-14 2.9zM374 710.5c46.5 9.1 85.3 16.8 86.3 17.1 2.4.8 73 107.3 72.2 109.2-.5 1.2-.8 1.2-2.8 0-1.2-.8-15.5-9.2-31.7-18.6-117.1-67.8-211.4-123-211.8-124-.2-.6.5-.9 1.5-.6 1 .2 39.8 7.9 86.3 16.9zm419.6-15.6c-.4.5-4.3 3.1-8.9 5.7C772 707.9 554.9 834 551.2 836.2c-2.6 1.6-3.3 1.7-3.7.5-.8-1.8 69.8-108.3 72.2-109.1 1-.3 33.5-6.7 72.3-14.2 38.8-7.5 76.8-14.9 84.5-16.4 15.6-3.1 17.9-3.4 17.1-2.1zm-394.2 68.3c137.8 80 130.6 75.7 130.6 77.5 0 1.3-1.4 1.4-8.7.9-76.8-6-143.7-36.3-195.9-89.1-24-24.3-48.7-58.5-39.7-55.1.8.4 52 29.9 113.7 65.8zm397.2-65.1c.8 1.4-9.6 16.9-21.2 31.4-10.5 13.1-31.3 34.1-44.4 44.6-48.9 39.4-103.9 61.4-167.4 67-12.5 1.1-16.4.6-13.4-1.8.7-.6 38-22.3 82.8-48.3 44.8-26 99.5-57.8 121.5-70.6 22-12.9 40.3-23.4 40.7-23.4.4 0 1 .5 1.4 1.1zm-325.8 33.4c4 1.6 4.6 2.6 36.5 58 3.8 6.6 7.8 13.6 9 15.5 1.1 1.9 1.8 3.3 1.4 3-.5-.4-48.6-72.7-51.1-76.8-.9-1.6-.5-1.5 4.2.3zm142.6-.3c-.5.7-12.5 18.8-26.7 40.3-23.2 34.9-29 43.5-26.1 38.4.5-.8 10.6-18.3 22.4-38.9 20.3-35.2 21.7-37.4 25.5-39.1 4.9-2.1 5.9-2.3 4.9-.7zm-122.7 6.3c10.1 2.6 27.9 5.5 33.9 5.5 3.5 0 4.1.4 5.9 3.8 1.2 2.2 3.3 4.3 5.3 5.1l3.2 1.5v40.3c0 37.9-.1 40.3-1.8 40.3-1.3 0-9.6-13.5-30.5-49.5-15.8-27.2-28.7-49.8-28.7-50.1 0-.3.8-.3 1.8.1.9.4 5.8 1.7 10.9 3zm108.6 1.3C549.7 825 544.4 834 542.8 834c-1.7 0-1.8-2.4-1.8-40.4v-40.5l2.3-.6c3.1-1 6.4-4.2 7.1-6.9.5-2.1 1.4-2.4 8.5-3 10.1-.8 27.7-4 36.1-6.5 3.6-1.1 6.6-2 6.8-2 .1-.1-1 2.1-2.5 4.7zm-18.6-3.2c-.3.3-1.2.4-1.9.1-.8-.3-.5-.6.6-.6 1.1-.1 1.7.2 1.3.5z"/></svg>