<svg xmlns="http://www.w3.org/2000/svg" width="1440" height="1440" version="1.0" viewBox="0 0 1080 1080"><path d="M517.5 244.5c-.5.2-5 .7-9.9 1l-8.8.7.5 3.5c.4 2 .8 3.7 1.1 4 .4.4 24-1.5 26.2-2.2.6-.2.8-1.9.6-3.9-.4-3.5-.5-3.6-4.6-3.5-2.2 0-4.5.2-5.1.4zM534 248v4h13.4c14.4 0 14.6-.1 14.6-5.6V244h-28v4zM567.8 248.5c-.2 2.1 0 3.9.6 4.1 1.4.5 22.4 3.4 24.7 3.4 1.7 0 3.8-5.5 2.5-6.7-.6-.7-12.5-2.8-21.2-3.8l-6.2-.7-.4 3.7zM481.2 249.3l-5.4 1 .7 3.6c.4 2 .8 3.8 1 4 .5.4 14.1-2 15.3-2.8.5-.3.7-2.1.5-3.9-.5-2.9-.9-3.2-3.7-3.1-1.7.1-5.5.6-8.4 1.2zM602.6 250.8c-.2.4-.7 2.1-1 3.9-.7 3.1-.6 3.2 3.6 4.3 4 .9 17.1 4.5 20.9 5.6 1.2.3 1.9-.6 2.7-3.6.5-2.2.8-4 .6-4-.2 0-6.3-1.5-13.4-3.4-7.1-1.9-13.2-3.1-13.4-2.8zM456.5 255.6c-6.6 1.9-12.4 3.9-12.8 4.3-.9.9.1 5.8 1.3 6.6.7.5 24.9-6.1 25.8-6.9.6-.6-1-7.6-1.7-7.6-.3.1-6 1.7-12.6 3.6zM634.9 262.6c-.5 1.5-1.2 3-1.4 3.4-.3.4 3.7 2.3 8.8 4.3 5 1.9 10.9 4.2 13 5.1l3.8 1.7 1.5-3.7c.8-2 1.4-3.7 1.2-3.9-.9-.6-23.9-9.5-24.8-9.5-.6 0-1.5 1.2-2.1 2.6zM423 267.6c-5.8 2.5-10.9 5-11.4 5.4-.9.9 1.1 7 2.3 7 .6 0 24.4-10 24.9-10.4.9-.9-2.3-6.6-3.6-6.5-1 0-6.4 2.1-12.2 4.5zM509 265.2c-4.7.5-8.6 1.1-8.7 1.2-.2.2 0 1.7.3 3.5l.7 3.3 7.6-.6c12.7-1.1 12.8-1.1 12.3-5.1-.3-2.5-.9-3.5-2.1-3.4-.9.1-5.4.6-10.1 1.1zM546 267.4v3.3l9.8.5c10.2.6 11.2.3 11.2-3.8 0-2.8-2.3-3.4-12.7-3.4H546v3.4zM591.6 268.9c-.2.3-.6 1.9-.7 3.5l-.4 2.9 9.8 2.2c5.4 1.2 9.9 1.9 10.1 1.6 1.3-2.3 1.5-6.2.4-6.6-3.7-1.3-18.9-4.2-19.2-3.6zM465.2 273.7l-9.4 2.6.6 3c.3 1.7.8 3.3 1.1 3.5.4.5 18.4-4.3 19.1-5.1.6-.6-.8-6.7-1.5-6.6-.3 0-4.8 1.2-9.9 2.6zM666.5 276c-.8 1.6-1.5 3.1-1.5 3.4 0 .3 3.1 2.1 6.8 4 3.8 1.9 9.2 4.8 12 6.5l5.1 3 2-3.4 2-3.5-6.7-3.9c-7.1-4.1-16.8-9.1-17.6-9.1-.3 0-1.2 1.3-2.1 3zM393.5 282.3c-5 2.9-10 6-11.2 6.8l-2.2 1.5 2.1 3.2 2 3.3 3.7-2.2c2-1.2 7.2-4.2 11.6-6.7 4.4-2.5 8.1-4.7 8.3-4.8.8-.5-3-6.4-4.1-6.4-.6.1-5.3 2.4-10.2 5.3zM635 282.9c-1.9 3.7-1 4.6 7.7 8.1 4.8 1.9 9.1 3.6 9.4 3.8.7.3 3.2-5.9 2.6-6.4-.6-.6-16.9-7.4-17.8-7.4-.4 0-1.3.9-1.9 1.9zM523 283.6c-.8.1-5 .6-9.2.9l-7.8.7v7.1l7.3-.7c3.9-.3 12.7-.9 19.5-1.2l12.2-.7V283l-10.2.1c-5.7.1-11 .3-11.8.5zM571.7 285.7c-.4.3-.7 1.9-.7 3.4 0 3-.3 2.9 12 4.9 3.6.6 10.7 2 15.7 3.2 5.1 1.2 9.5 2 9.8 1.7.2-.3.7-1.9 1.1-3.5l.6-3-9.9-2.2c-8.7-2-25.8-5.2-27.4-5.2-.3 0-.9.3-1.2.7zM421.3 290.3l-8.1 4.2 1.4 2.7c.8 1.6 1.9 2.8 2.3 2.8.5 0 4.8-1.8 9.5-4.1l8.5-4.1-1.5-2.9c-.8-1.6-2-2.9-2.7-2.8-.6 0-4.9 1.9-9.4 4.2zM469 293c-9.1 2.7-27 8.9-27 9.4 0 .2.5 1.7 1.1 3.5.8 2.4 1.6 3.1 2.8 2.6 5.3-2.1 21.7-7.7 27.9-9.5 7-2 7.2-2.2 6.6-4.8-.4-1.5-.9-3-1.3-3.3-.3-.4-4.9.6-10.1 2.1zM696 292.9l-2.1 3 7.8 5.2c4.3 2.9 9.5 6.5 11.5 8.1l3.6 2.8 2.2-3c1.2-1.6 1.8-3.4 1.5-4-.8-1.3-20.5-15-21.6-15-.4 0-1.7 1.3-2.9 2.9zM366 300.1c-4.7 3.4-9.7 7.2-11.1 8.4l-2.7 2.2 2.4 3.1 2.4 3 10.8-8c5.9-4.5 10.8-8.4 10.9-8.7.2-.3-.7-1.9-2-3.4l-2.2-2.8-8.5 6.2zM675.6 303l-1.7 2.9 5.3 3.3c2.9 1.9 6.9 4.4 8.9 5.6l3.5 2.1 1.8-3c1-1.7 1.6-3.1 1.4-3.3-.1-.1-2.8-1.8-5.8-3.7-3-2-6.9-4.3-8.6-5.2-3-1.5-3.1-1.5-4.8 1.3zM634.1 304.7c-1.4 3.1-1.4 3.2 6.9 6.7 3.6 1.6 11 5.2 16.6 8.2l10.1 5.3 1.4-2.7c.7-1.5 1.5-3 1.6-3.3.5-.8-31.9-16.9-33.9-16.9-.8 0-2 1.2-2.7 2.7zM544 305.8c0 3 0 3 6.8 3.6 15.2 1.4 27.1 2.8 33.6 4.2 7.5 1.6 8.9 1 8.4-3.1-.3-1.8-1.9-2.3-13.3-4.2-7.1-1.2-18.1-2.5-24.2-2.9l-11.3-.7v3.1zM503.8 305.7c-5.4.8-14.6 2.7-20.5 4.2-9.5 2.3-10.8 2.9-10.5 4.6.7 4.4.8 4.5 8 2.5 7.3-2 25.7-5.4 35.5-6.6 3.1-.3 5.7-.9 5.7-1.3 0-.3-.3-1.6-.6-2.9-.8-2.7-3.1-2.7-17.6-.5zM386 310.2c-2.5 1.7-6.2 4.4-8.3 5.9l-3.8 2.7 2.3 2.7 2.4 2.7 8.2-5.7 8.2-5.6-1.7-3c-1-1.6-2-2.9-2.3-2.9-.3.1-2.5 1.5-5 3.2zM724 312.7l-2.2 2.8 5.9 5.3c3.2 2.9 7.9 7 10.4 9.2l4.6 3.9 2.7-2.8 2.7-2.8-10.1-8.9c-5.5-4.9-10.4-9-10.9-9.2-.5-.2-1.9 1-3.1 2.5zM410 318.4c-10.9 6.4-24.5 15.9-24.5 17.1 0 .5.7 2 1.6 3.3l1.7 2.3 8.3-5.9c4.6-3.2 11.8-7.8 15.9-10.2 4.1-2.4 7.6-4.5 7.8-4.6.4-.2-2.7-6.4-3.1-6.4-.1 0-3.6 2-7.7 4.4zM336.5 324.5l-10 9.4 3 3 3 3 9.7-9.6 9.7-9.5-2.2-2.9c-1.2-1.5-2.4-2.8-2.7-2.8-.3 0-5 4.2-10.5 9.4zM614.1 318c-.9 2.6-.8 3.2.7 3.7 8.6 2.9 21.7 8.5 31.1 13.4 10.5 5.4 11.5 5.7 12.7 4.1.7-.9 1.4-2.2 1.4-2.9 0-1.5-21-12.2-34.1-17.3-5.7-2.2-10.4-4-10.5-4-.1 0-.7 1.4-1.3 3zM439 325.6c-10.3 4.9-32 17.4-32 18.5 0 .4.8 1.6 1.8 2.7 1.7 2.1 1.7 2.1 11.7-4 5.5-3.3 15.1-8.4 21.3-11.4 6.1-3 11.2-5.6 11.2-6 0-1.4-2.2-4.4-3.3-4.4-.7 0-5.5 2.1-10.7 4.6zM530 322.7c-2.5.1-9.6.8-15.7 1.4l-11.3 1.1v2.8c0 1.4.2 2.9.5 3.1.2.3 5.5-.1 11.7-.8 6.2-.6 17-1.2 24.1-1.3H552v-2.9c0-2.1-.6-3-2.2-3.5-2.3-.6-11-.5-19.8.1zM713.1 328.8l-2 2.8 7.6 6.8 7.6 6.8 2.6-2.6 2.5-2.6-5.9-5.2c-10.6-9.5-10-9.3-12.4-6zM587.5 329.4c-.3.9-.7 2.2-.9 3-.3.9 2.5 2.1 9.7 4 5.6 1.5 15.2 4.8 21.2 7.3 14.8 6 14.9 6 16.3 2.8 1.2-2.5 1.1-2.6-5.6-5.6-7.7-3.5-30.9-11.4-36.4-12.4-3-.6-3.9-.4-4.3.9zM749.7 335.7l-2.7 2.9 6.2 7c3.5 3.8 7.6 8.5 9.1 10.3l2.8 3.4 2.9-2.8 2.9-2.8-5.2-6-9.2-10.5-4-4.4-2.8 2.9zM691 336.5c-1.3 1.4-2.2 2.6-1.9 2.8 3.3 2.4 13.3 10.8 20.2 17.1l8.8 7.9 2.5-2.5 2.5-2.5-6.8-6.4c-6.6-6.2-21.7-18.9-22.5-18.9-.3 0-1.5 1.1-2.8 2.5zM347 341.9l-7.5 6.9 2.8 2.9 2.7 2.8 7.1-7.2 7.2-7.1-1.9-2.6c-1.1-1.4-2.1-2.6-2.4-2.6-.3 0-3.9 3.1-8 6.9zM463.5 336c-1.1.5-6.1 2.7-11.2 4.8-5.1 2.2-13.7 6.5-19.2 9.6l-10.1 5.7 1.6 2.5c.9 1.3 2 2.4 2.4 2.4.4 0 3.4-1.6 6.6-3.6 6.7-4 21-11 29.9-14.4 3.3-1.3 6.1-2.4 6.3-2.6.2-.1 0-1.3-.4-2.8-.6-2.7-2.4-3.2-5.9-1.6zM318.8 342.8c-1.9 2-6.1 6.8-9.2 10.7l-5.6 6.9 2.7 2.3c1.6 1.2 3.1 2.1 3.5 2 .3-.1 4.5-4.8 9.1-10.3l8.6-10.2-2.8-2.6-2.7-2.6-3.6 3.8zM516.3 343.7c-1.6.3-2.3 1.1-2.3 2.9 0 2.1.4 2.4 3.9 2.4 2.1 0 5.9-.3 8.5-.6 4-.6 4.6-1 4.6-3 0-2.3-.3-2.4-6.2-2.3-3.5.1-7.3.4-8.5.6zM551 345.4c0 2.6 1.7 3.1 12.5 3.8 3.6.3 4 .1 4.3-2.3.3-2.4-.1-2.7-4.4-3.3-2.6-.3-6.4-.6-8.5-.6-3.5 0-3.9.3-3.9 2.4zM484.2 350.2c-7.1 2-7.3 2.1-6.7 4.7.4 1.4.7 2.7.8 2.8.2.2 14.9-3.9 15.6-4.4.6-.4-.9-5.3-1.7-5.2-.4 0-4 1-8 2.1zM677.5 350.6c-.9 1.4-1.5 2.7-1.3 2.8 7.2 5.4 17.6 14.2 25.6 22l10.3 10 2.2-2.2 2.1-2.2-6.9-7.1c-6.8-6.9-19.4-17.9-26.6-23.2l-3.6-2.7-1.8 2.6zM588.7 349.7c-.4.3-.7 1.4-.7 2.4 0 1.2 1.8 2.3 6.9 3.8 7.7 2.3 9.1 2.5 9.1 1.2 0-.5.3-1.6.6-2.5.4-1.1-1-2-6.1-3.5-7.2-2.2-8.8-2.5-9.8-1.4zM356.4 360.2c-3.9 4-9.7 10.4-12.9 14.1l-5.8 6.8 2.6 2.6 2.6 2.6 2.8-3.4c4.8-5.8 17.9-20.3 20.7-22.8l2.6-2.5-2.2-2.3c-1.2-1.3-2.4-2.3-2.7-2.3-.4 0-3.8 3.3-7.7 7.2zM377.9 366.9c-5.2 4.9-12.9 12.9-16.9 17.6l-7.4 8.7 2.5 1.9 2.4 1.9 4.9-5.8c2.7-3.1 10.3-11 16.9-17.4 11.8-11.6 12-11.8 10.2-13.8-1-1.1-2.1-2-2.4-2-.3 0-4.9 4-10.2 8.9zM745.8 360.3l-2.8 2.2 6.1 7.5c3.4 4.1 6.3 7.7 6.5 7.9.5.6 5.4-2.8 5.4-3.8 0-.7-11.9-16.2-12.3-16.1-.1.1-1.4 1.1-2.9 2.3zM771.2 362l-2.3 1.9 7.2 10.3c4 5.7 7.6 10.7 8 11.2 1.1 1.2 7-2.6 6.4-4.2-1.1-3.1-14.7-21.2-15.8-21.2-.7.1-2.2.9-3.5 2zM448.7 364.6c-6.3 3.2-6.7 3.6-5.6 5.7.7 1.2 1.3 2.4 1.5 2.5.2.3 12.6-6.1 14.2-7.4.8-.6-1-4.4-2.1-4.4-.7.1-4.2 1.7-8 3.6zM623.2 363.5c-1 2.2-.7 2.6 6.1 6.4 6.5 3.6 7.3 3.8 8.5 2.3 2.1-2.8 1.4-3.7-6.2-7.4l-7.3-3.7-1.1 2.4zM521.5 362.7c-8.9 1-9.5 1.3-9.5 4 0 2.6 0 2.6 6.1 1.9 3.4-.3 7.3-.6 8.5-.6 2 0 2.4-.5 2.4-3 0-3.2-.1-3.2-7.5-2.3zM548.8 364.5c-.6 3.1-.5 3.2 8.8 3.9 6.8.6 7.2.5 7.8-1.6.3-1.3.2-2.6-.2-2.9-.4-.4-4.1-1-8.3-1.4l-7.6-.6-.5 2.6zM663.5 364.6c-1.6 2.5-1.6 2.6.4 4.1 6.6 4.6 15.7 12.5 24.3 20.9l9.6 9.6 2.7-1.8 2.6-1.7-8.8-8.9c-8.1-8.3-16.5-15.5-25.4-22.2l-3.6-2.6-1.8 2.6zM323.9 367.3c-1.4 1.7-3.7 4.8-5.2 6.8l-2.7 3.5 2.9 2.2 2.9 2.1 5.5-7.1 5.5-7.2-2.3-1.8c-3.1-2.4-3.6-2.3-6.6 1.5zM298.7 367.8c-2.1 2.4-13.7 20.5-13.7 21.4 0 1.2 6.2 4 7 3.1 1.1-1.3 14-21.3 14-21.8 0-.2-1.3-1.3-2.9-2.4-2.7-1.9-2.9-2-4.4-.3zM484 370.8c-4.1 1.4-7.6 2.6-7.8 2.7-.1.1.2 1.4.7 2.8l1 2.6 7.6-2.5c5.3-1.8 7.5-3.1 7.5-4.2 0-3.8-1.4-3.9-9-1.4zM584.7 370.2c-.4 1.2-.5 2.4-.3 2.5.2.2 3.7 1.4 7.9 2.7 6.4 2 7.7 2.1 8.1.9 1.2-3.1.4-4-6.2-6.1-8.5-2.7-8.8-2.7-9.5 0zM385.3 387.2c-8.6 8.8-23.3 26.3-23.3 27.9 0 .4 1.1 1.4 2.4 2.2 2.3 1.6 2.5 1.5 8.7-6.6 3.5-4.5 10.7-12.7 16-18.2 9.7-10 9.7-10 7.9-12.3-1-1.2-2-2.2-2.2-2.2-.2 0-4.4 4.2-9.5 9.2zM417.1 385.1l-6.3 5.1 2 2.1 2.1 2 5.3-4.3c2.9-2.4 5.7-4.7 6.1-5.1.9-.7-.9-4.9-2.1-4.9-.4.1-3.6 2.4-7.1 5.1zM737.5 382c-1.8 1.9-1.7 2.1 2.3 7.7 2.3 3.2 7 10.2 10.4 15.5 3.5 5.4 6.8 9.8 7.4 9.8.7 0 2.2-.8 3.3-1.8l2.2-1.7-4.2-6.5c-8-12.5-17.2-25-18.4-25-.7 0-2 .9-3 2zM535.4 382.4c-1.4 3.7.2 4.6 8.3 4.6 4.3 0 11.7.6 16.5 1.3l8.7 1.4.6-2.5c.3-1.3.4-2.6.2-2.8-.5-.6-14.2-2.2-24.5-2.9-7.8-.6-9.3-.4-9.8.9zM619 383c-.6 1.1-.9 2.4-.6 2.8.2.4 3.4 2.3 7.1 4.2 6.5 3.4 6.7 3.5 8.1 1.6.8-1.1 1.1-2.3.7-2.7-.9-.8-13.3-7.9-13.9-7.9-.2 0-.8.9-1.4 2zM655.3 383c-1.1 1.7-.6 2.4 4.9 7 6.2 5 6.3 5 8.2 3 1.1-1.1 1.8-2.1 1.5-2.3-5.3-4.5-12.1-9.7-12.7-9.7-.4 0-1.3.9-1.9 2zM450.2 386.2c-4 2.3-7.2 4.4-7.2 4.7 0 .3.7 1.4 1.5 2.4 1.3 1.8 1.7 1.7 8.4-2.3 6.6-3.8 7-4.3 6-6.3-.7-1.2-1.2-2.3-1.3-2.4-.1-.1-3.4 1.6-7.4 3.9zM500 386.5c-18.5 5.2-21.4 6.8-19.1 10.4.7 1.1 2.5.8 10.2-1.8 5.2-1.7 12.3-3.7 15.8-4.5 3.4-.8 6.5-1.6 6.7-1.8.2-.2.1-1.4-.3-2.6-.7-2.8-2.4-2.7-13.3.3zM791.5 389.7c-1.6.9-3.1 1.7-3.3 1.8-.2.2 11.3 22.9 12.3 24.3.2.2 1.9-.5 3.8-1.4l3.6-1.7-5.4-10.6c-7.4-14.5-7.3-14.4-11-12.4zM591.3 391.8c-.3.9-.8 2-1 2.4-.2.4 1.5 1.5 3.9 2.5 2.4.9 9.2 4.1 15.3 7.1 10.2 5 11 5.2 12.2 3.6.7-1 1.3-2.1 1.3-2.4 0-.8-19.2-10.5-25.8-13-5-1.9-5.3-1.9-5.9-.2zM275.7 405.8c-7.6 14.8-7.6 14.8-3.2 16.2 2 .7 3.7 1 3.8.8 3.9-7.4 11.8-24 11.6-24.2-.2-.2-1.8-1.1-3.6-2l-3.1-1.6-5.5 10.8zM773 396.7c-1.4.9-2.7 1.8-2.9 1.9-.7.6 9.5 17.4 10.5 17.4.7 0 2.1-.8 3.3-1.8l2.1-1.7-4.6-8c-2.5-4.4-4.9-8.3-5.3-8.7-.4-.4-1.8 0-3.1.9zM300.2 402.2c-4.9 8.4-7.2 12.7-7.2 13.7 0 .6 1.3 1.7 2.9 2.6l3 1.5 4.6-8.8 4.6-8.7-2.1-1.7c-3-2.4-3.5-2.3-5.8 1.4zM728.1 400.9l-2.3 1.8 6.1 9c3.3 5 8.8 14.3 12.2 20.7 3.3 6.4 6.6 11.6 7.3 11.6.7 0 2.1-.6 3.1-1.4 1.7-1.2 1.5-1.9-4-12.2-5.5-10.4-17.7-29.8-19.3-30.8-.4-.2-1.8.3-3.1 1.3zM526.8 401.7c-4.4.4-4.8.6-4.8 3 0 2.5.1 2.6 5.3 1.9 2.8-.3 8.7-.6 13-.6 7.5 0 7.7 0 7.7-2.5s-.1-2.5-8.2-2.3c-4.6.1-10.4.3-13 .5zM649.6 403.1c-1.4 2-1.1 2.4 4.7 7.4 6.2 5.3 6.2 5.3 8.2 3.4 2-2 2-2-3-6.5-7.3-6.4-8.1-6.8-9.9-4.3zM556.6 402.7c-.3.3-.6 1.4-.6 2.3 0 1.2 2.7 2.2 12.2 4.3 6.7 1.4 12.5 2.4 13 2.1.4-.3.8-1.3.8-2.3 0-1.5-1.9-2.2-10.2-4-14.6-3.2-14.4-3.1-15.2-2.4zM419.6 408.6c-5.9 5.4-6 5.5-4 7.4 1.9 1.9 2 1.8 8.2-3.7 6-5.3 6.2-5.6 4.6-7.4-.9-1.1-2-1.9-2.3-1.9-.3.1-3.3 2.6-6.5 5.6zM319.1 408.3c-5.3 9.6-13.9 26.3-14.5 28.3-.5 1.6 0 2.3 1.9 3.2 1.4.7 3 1.2 3.4 1.2.5 0 2.5-3.6 4.4-7.9 2-4.4 5.9-11.9 8.7-16.7l5.1-8.8-2.3-1.8c-3.3-2.5-4-2.3-6.7 2.5zM450.9 408.8c-3.6 2.6-9.6 7.1-13.3 10.1l-6.8 5.4 2.1 2 2 2 6.8-5.5c3.7-3 9.8-7.6 13.5-10.2 6.1-4.3 6.6-4.9 5.5-6.7-.6-1-1.6-1.9-2.2-1.9-.5.1-4 2.2-7.6 4.8zM508.5 404.7c-1.1.3-6.1 1.8-11.2 3.4-8.1 2.6-9 3.2-8.6 5 .4 1.5 1.2 1.9 2.7 1.6 1.7-.4 18.3-5 22.3-6.2.6-.2.9-1.3.6-2.4-.5-2.1-1.8-2.4-5.8-1.4zM390.1 411c-4.4 5-5.1 6.3-4.1 7.5 2.1 2.5 3.5 1.8 8.8-4.4 4.9-5.6 5-5.9 3.3-7.5-1-.9-2-1.6-2.3-1.6-.3 0-2.9 2.7-5.7 6zM683.8 407.1c-2.6 1.5-2.3 2.5 2.9 8.7 2.6 3.2 4.9 5.9 5 6.1.2.3 1.3-.4 2.4-1.6l2.1-2-5.2-6.2c-2.8-3.3-5.2-6.1-5.3-6.1-.1 0-1 .5-1.9 1.1zM589.7 411.7c-1.9 1.8.3 3.6 10.4 8.7a287 287 0 0 0 11.5 5.6c.2 0 .8-.9 1.4-1.9.9-1.7-.1-2.5-9.9-7.5-11.1-5.7-12.3-6.1-13.4-4.9zM336.2 418.7c-5 8.5-10.5 19.5-14.8 29.5-3.3 7.7-3.3 7.8-1.3 8.9 1.1.6 2.6.8 3.3.6.6-.3 3.1-5 5.5-10.6 2.4-5.5 7.1-15 10.6-21.1l6.2-10.9-2.3-1.6c-1.3-.8-2.5-1.5-2.8-1.5-.2 0-2.2 3-4.4 6.7zM474 418.1c-3 1.6-8.3 4.8-11.8 7.1-5.9 3.9-6.2 4.2-4.6 5.9 1.6 1.7 1.9 1.7 7.3-2 3.1-2.1 8.4-5.3 11.8-7.1 5.3-2.9 6-3.7 5.2-5.2-1.3-2.3-1.4-2.3-7.9 1.3zM640 420.1c-1.4 1.8-.7 2.7 10.3 14.1 11.7 12 11.8 12.1 13.8 10.2 1.9-2 1.9-2.1-8.7-13.2-12.3-13-13.3-13.7-15.4-11.1zM806.8 420.2c-1.6.5-2.8 1.3-2.8 1.8 0 .9 9 24.2 9.5 24.8.4.4 7.5-1.8 7.5-2.2 0-1.4-9.9-25.1-10.6-25.2-.5-.1-2.1.2-3.6.8zM531.2 423.2c.3 2.1.9 2.3 8.1 2.6 7.7.3 7.7.3 7.7-2.3 0-2.5-.1-2.5-8.1-2.5-7.8 0-8 .1-7.7 2.2zM721.2 425.6l-2.2 1.5 3.1 5.2c6.4 11.1 11.3 21.5 16.8 35.9.9 2.5 1.3 2.6 4 1.7l3-1.1-2.3-6.1c-4.9-12.9-17.9-38.7-19.5-38.7-.4 0-1.7.7-2.9 1.6zM263.9 431.8c-3 7.9-6.9 19.4-6.9 20.3 0 1 6 3 7.1 2.3.5-.3.9-1 .9-1.5s1.9-6 4.1-12c2.3-6.1 3.8-11.4 3.3-11.8-.5-.4-2.1-1.2-3.6-1.9-2.6-1.1-2.7-1-4.9 4.6zM619.3 428.9c-1.1 1.8-.6 2.5 5 7 3.4 2.7 7.7 6.5 9.6 8.5 3.3 3.4 3.6 3.5 5.3 1.9 1.8-1.6 1.7-1.8-.9-4.6-2.7-2.8-16.8-14.7-17.5-14.7-.2 0-.9.9-1.5 1.9zM675.7 428.8c-1.6 1.7-1.4 2.2 2.9 8 2.5 3.4 4.9 6.2 5.3 6.2.4 0 1.5-.6 2.5-1.3 1.6-1.1 1.3-1.8-3.1-8-2.6-3.6-5.1-6.7-5.4-6.7-.3 0-1.3.8-2.2 1.8zM395.6 435.5c-2.5 3.4-4.6 6.7-4.6 7.2 0 .8 4 3.7 4.4 3.1.1-.2 2.3-3.2 4.8-6.8l4.6-6.5-2.3-1.7c-2.2-1.6-2.3-1.6-6.9 4.7zM485.2 434.1c-5.3 2.8-6 3.4-5.1 5 .5 1.1 1.2 1.9 1.4 1.9.3 0 3.4-1.5 7-3.2 4.3-2.1 6.5-3.8 6.3-4.8-.5-2.5-3.1-2.2-9.6 1.1zM368.5 441.3c-4.1 7.4-4.2 8.3-1.5 9.7 2.1 1.1 2 1.2 7.5-8.4 2.7-4.7 2.7-5 .9-6.3-1-.7-2.1-1.3-2.5-1.3-.5 0-2.4 2.9-4.4 6.3zM445.4 438.4c-2.2 1.9-6.2 6-8.8 9.1-4.5 5.2-4.7 5.8-3.3 7.2 1.5 1.5 2.4.8 10.5-7.8 6.6-6.9 8.7-9.7 8-10.7-1.5-1.7-2-1.6-6.4 2.2zM706.5 437.2c-1.1.6-2.2 1.2-2.3 1.4-.5.4 7.2 14.4 7.9 14.4.3 0 1.4-.6 2.4-1.4 1.9-1.3 1.9-1.5-.9-6.7-4.6-8.6-4.9-8.9-7.1-7.7zM771.8 437.2c-1.6.5-2.8 1.3-2.8 1.7 0 .5 1.3 3.9 2.8 7.7 1.6 3.8 4.4 11.4 6.2 16.9 1.8 5.5 3.4 10.3 3.7 10.7.2.4 1.7.2 3.4-.4 2.7-.9 2.9-1.3 2.3-4.2-1.2-5.9-11.5-33.6-12.4-33.5-.3 0-1.7.5-3.2 1.1zM793 437.3c-1.4.6-2.6 1.2-2.8 1.3-.1 0 1.1 3.9 2.8 8.5 1.7 4.6 3.2 8.9 3.5 9.6.6 1.6 6.5-.4 6.5-2.2 0-2-6.2-18.5-6.9-18.4-.3 0-1.7.5-3.1 1.2zM281.1 442.2c-2.5 6.6-5.4 16.8-5 17.3.3.2 1.9.7 3.5 1 2.9.6 2.9.5 6-8.9l3.2-9.5-3.1-1c-3.9-1.4-3.6-1.5-4.6 1.1zM520.5 442.6c-9.1 1.8-9.4 1.9-8.8 4.2.4 1.9.7 1.9 5.6.5 2.9-.8 11.3-1.7 18.7-2.1 11.7-.6 13.5-.9 13.8-2.5.3-1.5-.7-1.7-11-1.6-6.2 0-14.4.7-18.3 1.5zM409.8 449.5c-2.9 4.1-6.9 10.5-8.8 14.1-3.4 6.4-3.5 6.6-1.6 8 1.1.8 2.2 1.4 2.5 1.4.3 0 1.9-2.6 3.6-5.8 1.6-3.1 5.6-9.5 8.7-14.1 4.3-6.4 5.5-8.8 4.6-9.8-2-2.5-3.8-1.3-9 6.2zM338.2 458.7c-5.5 13.9-10.7 31.6-9.8 33.9.3.8 1.6 1.4 2.9 1.4 2.1 0 2.6-1 5.5-11.5 1.8-6.3 5.1-15.8 7.3-21.2 5.5-13.3 5.4-12.7 2.4-14.1-1.4-.7-2.7-1.2-2.9-1.2-.2 0-2.6 5.7-5.4 12.7zM570 448c0 1.1.6 2 1.3 2 .6 0 4.1 1.4 7.5 3 6.3 3 8.2 3.1 8.2.6 0-1.4-12.8-7.6-15.5-7.6-.8 0-1.5.9-1.5 2zM611.2 447.7c-.8 1.3.2 2.6 4.7 6.5 6.2 5.3 6.4 5.4 8 3.4.9-1-.1-2.4-4.3-6.5-5.9-5.5-7-6-8.4-3.4zM644 452.5c-1 1.2-.6 2.2 1.8 5.3 1.7 2.1 5.1 6.9 7.5 10.5 4 6.1 4.5 6.6 6.2 5.3 1.8-1.3 1.8-1.5-.7-5.7-3.7-6.3-11.6-16.9-12.7-16.9-.5 0-1.4.7-2.1 1.5zM819 452.1c-1.3.6-2.6 1.2-2.8 1.4-.2.2 1.1 6.3 2.9 13.5l3.4 13 3-.6c1.7-.3 3.4-.9 3.8-1.4 1.3-1.1-5.6-27.1-7.1-26.9-.4 0-1.8.5-3.2 1zM479.4 461.4c-7.4 5.7-19.4 18.2-19.4 20.3 0 3.4 2.9 1.6 10.4-6.4 4.6-4.8 10.6-10.4 13.5-12.3 4.7-3.2 6.1-5.9 3.6-6.6-.5-.2-4.2 2.1-8.1 5zM696.3 459.1c-3 1.1-2.9 1.8.8 9.2 3.8 7.5 3.3 7 5.8 6.2 2.7-.8 2.6-1.7-1.2-9.7-2.9-6-3.4-6.5-5.4-5.7zM254.5 460.3c-1.2 3.2-5.5 22.5-5.5 24.4 0 1.6.6 2.3 1.9 2.3 1.1 0 2.6.3 3.5.6.9.3 1.8 0 2-.7 1.5-4.9 5.7-25.1 5.3-25.5-.2-.3-1.9-.9-3.6-1.4-2.3-.6-3.3-.5-3.6.3zM422.2 466.7c-2.2 3.8-5.1 9-6.4 11.6-1.9 4.1-2 4.9-.8 5.7 2.4 1.6 2.8 1.2 5.6-4.3 1.4-2.8 4.2-7.8 6.1-11 1.9-3.2 3.4-5.9 3.2-6-.2-.2-1.1-.8-2-1.5-1.4-1.1-2.2-.3-5.7 5.5zM377.7 466.4c-3.9 8.5-4.1 9.3-1.8 10.5 1.1.6 2.2 1.1 2.4 1.1.6 0 7.1-15 6.6-15.4-.2-.2-1.4-.6-2.6-1-1.8-.6-2.5.1-4.6 4.8zM521 462.5c-7 1.7-15 5.1-15 6.4 0 2.1 2.2 2 9.4-.4 4.2-1.4 9.6-2.8 12.1-3.2 3.5-.4 4.5-1 4.5-2.4 0-2.3-2.9-2.4-11-.4zM676.5 463.2c-1.1.6-2.1 1.2-2.3 1.3-.1.1 1.5 4 3.7 8.6s5 11.4 6.3 15.1c1.9 5.6 2.7 6.8 4.5 6.8 1.2 0 2.4-.4 2.7-.9.8-1.3-2.9-11.5-8.2-22.3-4.3-8.9-4.9-9.6-6.7-8.6zM444.5 468.5c-5 6.9-5 7.1-2.7 8.4 1.6.9 2.5.1 6.5-5.2 4.1-5.6 4.4-6.3 3-7.5-.9-.6-1.9-1.2-2.2-1.2-.3 0-2.4 2.5-4.6 5.5zM560.7 463.7c-1.8 1.7-.3 3.3 4.6 4.8 9.2 3 19.6 9.5 27.8 17.2 4.1 4 4.7 4.2 5.9 2.7 1.5-1.7 2.1-1-9.2-10.6-5.3-4.5-14.8-9.9-22.2-12.7-6.5-2.4-6.1-2.3-6.9-1.4zM761.3 464c-1.3.5-2.3 1.2-2.3 1.4 0 .3 1.4 5.6 3.1 11.7 1.7 6.2 4.1 16.6 5.4 23.3l2.2 12.1 2.9-.3c1.6-.2 3-.5 3.2-.6 1.3-1.3-10-48.7-11.7-48.5-.3 0-1.6.4-2.8.9zM291.7 473.7c-3.1 11.8-6.2 27.2-5.5 27.8.2.3 1.8.8 3.5 1.1l3 .6 1.7-8.9c1-4.8 2.9-13.2 4.3-18.6 1.4-5.4 2.3-10 2.1-10.2-.3-.3-1.8-.8-3.5-1.1l-3-.6-2.6 9.9zM607.2 469.2c-.8 1.1.1 2.7 3.9 7.2 5.9 6.9 9.6 12.2 13.4 19.3 3 5.6 3.2 5.8 5.4 4.4 1.1-.7.6-2.2-2.4-7.5-4.4-7.9-10.9-16.8-15.8-21.4-2.7-2.6-3.6-3-4.5-2zM352.6 476.7c-1.4 4.2-2.5 7.8-2.3 7.9.1.1 1.3.5 2.7.9 2.4.6 2.7.2 5.2-7.4l2.6-7.9-2.2-.6c-1.1-.3-2.4-.6-2.8-.6-.3 0-1.8 3.5-3.2 7.7zM722.3 471.1l-2.2.8 2.6 7.9c2.2 6.6 2.9 7.8 4.5 7.4 1-.2 2.1-.8 2.4-1.3.6-1-3.5-14.7-4.5-15.3-.3-.2-1.6 0-2.8.5zM484.8 482.7c-8.1 7.8-11.5 12.5-16.5 22.5-2.7 5.6-3.2 7.3-2.1 7.9 2.1 1.4 2.3 1.2 4.9-4.3 4.2-9 9.9-17.1 17.1-24 6.3-5.9 7.8-8.8 4.6-8.8-.5 0-4.1 3-8 6.7zM310 482.1c-2.7 10-7 36.9-7 43.9 0 .5 1.6 1 3.5 1 3.4 0 3.5-.1 3.5-4.3 0-6.1 2.6-23.4 5.1-33.8 1.1-5 1.9-9.2 1.7-9.4-.1-.2-1.5-.6-3-1-2.5-.6-2.8-.4-3.8 3.6zM532.7 480.7c-2.1 2.1-.1 2.8 8.1 2.9 9.3.1 17.6 2.1 25.3 5.9 4.4 2.3 5.9 2.3 5.9.3 0-1.5-12.4-6.8-19.6-8.3-7.1-1.5-18.6-2-19.7-.8zM662.9 481c-1.5.9-1.3 2 2.2 10.7 2.1 5.4 3.9 10.6 3.9 11.5 0 2.2 1.4 3 3.5 2.2 1.2-.5 1.5-1.4 1.1-3.4-.7-4-7.7-22-8.5-22-.3 0-1.3.5-2.2 1zM805.2 480.7c-1.7.3-2.1.9-1.7 2.6.3 1.2 1.1 5.6 1.8 9.7 1.2 7.4 1.3 7.5 4.5 7.8 2 .2 3.4-.2 3.7-1 .2-.7-.3-5.3-1.3-10.3-1.8-9.3-2.1-9.8-7-8.8zM513.2 486.7c-11.3 5.6-26.5 20.8-23 22.9.7.5 2.1-.6 3.7-2.7 4.9-6.7 13.4-13.8 20.7-17.4 4.1-2 7.4-4.3 7.4-5.1 0-2-.6-1.8-8.8 2.3zM268.1 488.9c-.6 2.8-1.4 7.6-1.7 10.6l-.7 5.5h3.7c2 0 3.6-.4 3.6-.9 0-.4.7-4.8 1.5-9.6.9-4.8 1.4-8.9 1.2-9.1-.2-.2-1.7-.7-3.4-1-3-.6-3.1-.5-4.2 4.5zM825.6 485.7c-1.5.4-1.7 1.1-1.2 4.1.3 2.1 1.1 8.1 1.8 13.4l1.2 9.8h7.9l-.7-7.2c-.4-4-1.2-10.3-1.8-14-1.2-7.2-1.6-7.5-7.2-6.1zM645.3 489.1l-2.2.8 2.3 5.3a212 212 0 0 1 3 7.1c.3 1.1 1.3 1.7 2.3 1.5 2.4-.5 2.1-4.5-.9-10.7-2-4.4-2.5-4.8-4.5-4zM408.1 497.2c-3 9.4-5.1 18-4.5 19 1.2 1.9 4.2.7 4.8-2 .4-1.5 1.8-6.9 3.3-12.1 2.1-7.8 2.3-9.5 1.2-10.2-2.3-1.5-2.7-1.1-4.8 5.3zM388.6 492.8c-1.4 2.3-6.6 26.9-6.6 31.4 0 1.3.8 1.8 2.9 1.8 2.8 0 2.9-.2 3.6-6.6.4-3.6 1.7-11 3-16.3 1.7-7.1 2-9.8 1.2-10.3-1.6-1-3.5-1-4.1 0zM246.2 500.7c-.6 4.3-1.4 10.6-1.7 13.9l-.7 6.2 4.1.4c2.3.2 4.1.1 4.1-.2 0-.3.7-6.3 1.5-13.4.8-7.1 1.4-13 1.3-13.2a42 42 0 0 0-3.9-.9l-3.6-.7-1.1 7.9zM708.3 493.8c-1.9 1.2 1.5 16.2 3.6 16.2 3.8-.1 4.1-1.3 2.3-9-1.7-7.4-3.1-9-5.9-7.2zM366.1 500.7c-2.6 12.2-2.8 11.3 2.1 11.7 1.2.1 5-14.9 4-15.9-.3-.3-1.5-.5-2.8-.5-1.8 0-2.4.8-3.3 4.7zM580.2 497.2c-.8.8.1 2.6 3.5 6.7 5.5 6.6 10.8 17.7 11.8 24.4.7 4.8 2 6.6 3.6 5 1.9-1.9-4.3-20.1-9.3-27.2-4.5-6.2-8.5-10-9.6-8.9zM789.1 499.7c-2 .4-2.2.9-1.7 3.3.3 1.6 1.1 10 1.7 18.7.6 8.7 1.5 16.2 1.9 16.6.4.4 1.9.5 3.4.1 2.5-.6 2.6-.8 2.6-8.3 0-7-1.1-19.5-2.5-27.9-.3-1.7-1.1-3.1-1.8-3.1-.7.1-2.3.4-3.6.6zM531.2 501.6c.2.8.6 1.5 1.1 1.5.4-.1 2.7-.1 5.2-.1 3.3 0 4.5-.4 4.5-1.5 0-1.2-1.3-1.5-5.6-1.5-4.5 0-5.5.3-5.2 1.6zM751.2 503.7c-2.2.4-2.3.8-1.8 5.1.3 2.6.9 13.6 1.2 24.4l.7 19.8H758v-10.8c-.1-14.9-2.5-39.4-3.9-39.1-.3.1-1.7.4-2.9.6zM344.1 512.5c-1.4 9.9-1.5 9.5 1.7 9.5 2.8 0 2.9-.1 3.9-7.8.5-4.2 1-7.8.9-7.9-.1-.1-1.3-.4-2.7-.8-2.6-.6-2.6-.6-3.8 7zM446.6 505.8c-1.1 1.8-4.7 17.2-5.2 22.2-.2 3-.7 7.6-1 10.2-.4 4.6-.4 4.8 2.1 4.8 2.4 0 2.5-.2 2.5-6.8 0-5.5 1.7-15.4 4.7-27.8.5-2.1-2.1-4.2-3.1-2.6zM730.5 513.7c.9 9.1 1.3 10.3 3.6 10.3 2.8 0 3.3-2.1 2.3-9.8-.9-6.4-1-6.7-3.7-7l-2.9-.3.7 6.8zM423 516.9c-.6 3.1-1.3 6.6-1.5 7.8-.4 1.6.1 2.3 1.6 2.8 2.7.9 2.7.8 4-6.1.5-3.2 1.2-6.6 1.5-7.5.3-1.2-.3-1.8-2-2.1-2.4-.5-2.6-.1-3.6 5.1zM612.5 514c-.3.5.2 3.8 1.1 7.2 1.9 6.9 2.5 25.1 1.1 33-.8 4.4-.7 4.8 1.2 4.8 2.8 0 3.6-4.6 3.6-19.5 0-16.7-3.8-30.6-7-25.5zM672.4 517.2c.3 2.4.9 8.2 1.3 13 .6 8.4.7 8.8 2.9 8.8 2.1 0 2.4-.5 2.4-4.2 0-2.3-.5-8.1-1.1-13-1.1-8.4-1.3-8.8-3.7-8.8-2.3 0-2.4.2-1.8 4.2zM693.6 516.7c-1.7.4-1.8 1.2-1.2 7.1.3 3.7.6 11.3.6 16.9V551H699.3l-.6-15.8c-.5-15-1.1-19.3-2.6-19.1-.3.1-1.4.3-2.5.6zM504.1 521.4c-2.4 4.9-2.6 6.6-.8 6.6.7 0 2.3-2 3.5-4.5 2.6-5.4 2.6-5.1.8-5.8-1-.4-2.2.8-3.5 3.7zM571 518c0 2.1 4.3 9 5.6 9 2 0 1.8-1.6-.8-6.1-2-3.6-4.8-5.3-4.8-2.9zM483.6 519.9c-1.5 2.3-3.6 14.3-3.6 20.4 0 7 2.6 19.7 4.1 19.7 1.7 0 1.8-1.9.3-10.1-1.6-9-1.2-16.9 1.2-25.3.8-2.7 1.4-5.1 1.4-5.3 0-.7-2.9-.2-3.4.6zM533.2 520.1c-4.5 1.3-12.9 9.6-11.3 11.2.9.9 1.9.3 4.2-2.1 4.2-4.5 6.7-5.9 11.7-6.7 2.6-.4 4.2-1.2 4.2-2.1 0-1.6-3.7-1.7-8.8-.3zM829.2 519.9c-1.1.6-1.2 3.5-.6 14l.7 13.1H837v-7.9c0-4.3-.3-10.6-.6-14-.6-5.8-.8-6.1-3.3-6.1-1.4 0-3.2.4-3.9.9zM549 523.4c0 .7 1.1 2.1 2.4 2.9 3 2 6.6 9.4 6.6 13.5 0 3.7-2.3 9.8-4.7 12.4-1.3 1.4-1.4 2.1-.5 3 .6.6 1.3 1 1.5.7 6.4-7.9 8.1-15 5.7-22.4-2.2-6.5-11-14.7-11-10.1zM401.6 528.7c-.3 2.1-.6 8-.6 13 0 9.3 0 9.3 2.5 9.3s2.5-.1 2.5-9.3c0-5 .3-10.9.6-13 .6-3.4.5-3.7-1.8-3.7-2.2 0-2.6.6-3.2 3.7zM634.5 539.7c0 8.2-.3 16.7-.8 19-.6 3.9-.5 4.3 1.2 4.3 1.1 0 2.2-.8 2.5-1.8 1.5-4.9 2.6-20.7 2-28-.6-7.5-.8-8.2-2.8-8.2-2 0-2.1.4-2.1 14.7zM812.2 525.8l-3.3.3.3 10 .3 9.9h7.5v-9.9c0-5.5-.3-10.1-.7-10.3-.5-.2-2.3-.2-4.1 0zM243.4 532.5c-.3 2.5-.3 8.9.1 14.1l.7 9.6 3-.6c1.7-.3 3.4-.6 3.9-.6s.9-6.1.9-13.5V528h-3.9c-3.9 0-4 0-4.7 4.5zM322.4 531.5c-.6 3.5 1 32.4 2.4 41.5.5 3.5 1.2 4.6 2.7 4.8 3.9.5 4.5-.9 3.4-7.3-.6-3.3-1.3-14.1-1.7-24l-.7-18-2.7-.3c-2.4-.3-2.8.1-3.4 3.3zM283 540.2c0 6.2.3 15 .7 19.6l.6 8.3 3.6-.3c2-.2 3.5-.8 3.4-1.4-.1-.6-.5-9.3-.9-19.3l-.7-18.1H283v11.2zM714.3 529.7c-.9.3-1.3 3-1.3 8.4v7.9h3c2.9 0 3-.1 3-4.8 0-10.2-1.2-13-4.7-11.5zM263 540v10h8v-20h-8v10zM362 540.5v8.6l2.7-.3c2.6-.3 2.6-.3 2.6-8.3-.1-7.8-.2-8-2.7-8.3l-2.6-.3v8.6zM772.9 534.7c-1.3.3-1.7 2.8-2.3 14.6-.3 7.8-1.3 18.5-2.1 23.7-.8 5.2-1.3 9.6-1.1 9.8.2.1 1.6.4 3.2.5 2.7.2 2.8 0 4.1-7.3 1.4-8.1 3.5-39.9 2.7-41.2-.5-.8-1.8-.9-4.5-.1zM519 541.7c.1 6.4 7.1 15.9 13.7 18.4 2.7 1 12.6 1.2 13.6.3 1.7-1.7-.7-2.9-5.2-2.6-9 .7-17.1-5.8-18.6-14.8-.8-4.7-3.5-5.6-3.5-1.3zM654.6 544.7c-.3 2.1-.6 5.7-.6 8 0 3.9.2 4.3 2.4 4.3 2.2 0 2.4-.4 2.9-7.3.5-7.1 0-8.6-2.9-8.7-.6 0-1.4 1.7-1.8 3.7zM460 544.4c0 8.6 5.4 26.4 11.1 36.2 2.6 4.7 3.3 5.3 4.9 4.4 1.8-1 1.7-1.4-1.6-6.9-4.5-7.6-7.9-17.7-9.4-28-1-6.8-1.5-8.1-3.1-8.1-1.3 0-1.9.7-1.9 2.4zM342.4 551.2c.4 4.5.8 8.4 1 8.6.2.1 1.6 0 3.1-.4 2.1-.5 2.5-1.1 2.1-2.8-.3-1.1-.6-4.7-.6-7.9V543H341.7l.7 8.2zM597 544.7c0 .5-.7 3.8-1.4 7.4-1.7 7.7-5.2 15.3-10.7 22.6-3.1 4.2-3.6 5.3-2.5 6.2 1.1.9 2.1.2 4.8-3.6 7.6-10.5 10.9-18.2 12.3-28.1.6-4.4.4-5.2-.9-5.2-.9 0-1.6.3-1.6.7zM732.5 545.2c-.2.7-.5 4.6-.8 8.5l-.4 7.3h2.7c2.5 0 2.8-.4 3.4-4.6.3-2.6.6-6.4.6-8.5 0-3.5-.3-3.9-2.5-3.9-1.4 0-2.7.6-3 1.2zM789.6 554.2c-.7 9.7-.4 10.8 4 10.8 2.7 0 3.4-2.3 3.4-11.6 0-6.6-.2-7.2-2.2-7.8-4.3-1.1-4.5-.8-5.2 8.6zM672.7 559.2c-2.1 14.8-2.1 13.5.3 14.1 1.6.4 2.1-.3 3-5 1.3-6.2 3-17 3-19.6 0-1.1-.8-1.7-2.3-1.7-2.3 0-2.4.6-4 12.2zM381.7 548.7c-.6 1 1.8 19.2 3.6 26.8 1 4.3 1.9 6.1 3.1 6.3 3.5.7 3.7-1.2 1.7-11.9-1.1-5.7-2.3-13-2.6-16.2-.6-5.2-.9-5.7-3-5.7-1.3 0-2.6.3-2.8.7zM305.6 549.8l-2.8.4.6 8.1c.8 9.8 3.1 24.6 5.2 33.9 1.5 6.6 1.6 6.8 4.2 6.2 1.5-.4 2.9-.8 3.1-1 .2-.2-.4-3.6-1.3-7.6-2.2-9.8-4.6-27.1-4.6-33.3 0-6.1-.7-7.1-4.4-6.7zM828.5 554.4c-.4 1.8-2.6 25.9-2.3 26.1.2.1 1.9.5 3.9.9 3.6.6 3.6.6 4.3-3.1.3-2.1.9-8.4 1.2-13.9l.7-10.1-3.8-.5c-2.1-.2-3.8 0-4 .6zM571.8 559.5c-2.6 4.2-2.6 5.5-.3 5.5 1.2 0 5.5-7 5.5-8.9 0-2.5-2.7-.8-5.2 3.4zM503.6 556.8c-.3.5.7 2.6 2.1 4.8 3.4 5.1 3.2 4.9 4.3 3.8.7-.7.3-2.4-1.2-5.2-2.2-4-4.1-5.2-5.2-3.4zM403 561.1c0 4.4 5.2 23.9 6.3 23.9 3.4-.1 3.7-1.5 1.8-8.6-1.1-3.8-2.3-9.2-2.8-11.9-.7-4.1-1.2-5.1-3.1-5.3-1.7-.3-2.2.2-2.2 1.9zM244.6 567.7c.4 3.2 1.2 9.4 1.8 13.8l1.2 8 3.3-.2c1.8 0 3.5-.4 3.8-.7.6-.5-1.2-19.4-2.3-24.4-.4-1.8-1.1-2.2-4.4-2.2h-4l.6 5.7zM425.1 565.9c-1.2.8-1.2 1.9.4 7.6 1.7 6.5 3.6 8.8 5.6 6.8 1.1-1.1-2.2-14.5-3.7-15-.5-.1-1.5.1-2.3.6zM710.6 568.2c-1.8 8.4-2.6 13.1-2.3 13.4.2.2 1.4.5 2.7.6 2.2.3 2.6-.3 3.6-4.7.7-2.8 1.3-6.5 1.3-8.3.1-2.8-.2-3.2-2.4-3.2-1.7 0-2.6.6-2.9 2.2zM366.2 568.7c-1.8.4-2.3 1-1.9 2.6.3 1.2 1.1 4.8 1.8 7.9 1 5 1.5 5.8 3.5 5.8 1.3 0 2.5-.3 2.7-.8.6-.9-2.6-16.2-3.3-16.1-.3.1-1.6.4-2.8.6zM445.5 568.9c-1.3 2.2 9.2 23.9 14.8 30.5 2.7 3.2 3.5 3.6 4.4 2.4 1-1.1.5-2.4-2.3-6.4-4-5.5-10.5-18-12.3-23.7-1.2-3.5-3.3-4.8-4.6-2.8zM489.1 569c-3.5 2.1 13.4 19.5 24.1 24.7 8.4 4.1 11.8 5 11.8 3.1 0-.8-3.1-2.8-7.3-4.6-9.2-4.1-17.5-10.6-23-18.1-3-4.2-4.7-5.7-5.6-5.1zM807.6 574.2c-.3 1.8-1.1 6.2-1.7 9.7-.5 3.4-.9 6.4-.7 6.6.2.1 1.7.6 3.5.9 3.5.8 3.3 1.2 5.3-11.4 1.4-9.1 1.4-9-2.5-9-3.1 0-3.5.3-3.9 3.2zM688.9 576.4c-1.7 6.9-3 10.8-6.2 19.3-1.7 4.6-2.9 8.5-2.6 8.7.2.2 1.4.6 2.5 1 2 .6 2.5-.1 5-6.6 2.9-7.7 7.4-22.4 7.4-24.4 0-.6-1.1-1.4-2.5-1.6-2.2-.5-2.6-.1-3.6 3.6zM269.1 574.8l-3.4.3.7 5.5c.3 2.9 1.1 7.6 1.7 10.3 1 4.9 1.1 5 4.2 4.4 1.8-.3 3.3-.7 3.5-.8.2-.2-2.6-18.3-3.1-19.5-.1-.3-1.7-.4-3.6-.2zM535 579.3c0 1.5.7 1.8 5.2 1.5 3.8-.2 5.4-.7 5.6-1.9.2-1.2-.8-1.5-5.3-1.5-4.6.1-5.5.4-5.5 1.9zM349.3 579.8c-1.6.2-2.3 1-2.3 2.5 0 1.7 2.9 13.6 3.5 14.5.1.1 1.4-.2 2.8-.7l2.5-1-1.9-7.3c-2.4-9-2-8.4-4.6-8zM666 586.2c-1.3 3.5-3.6 8.9-5.2 12-2.7 5.6-2.7 5.8-.9 6.8 1.1.5 2.2 1 2.4 1 .7 0 7.4-15.1 8.8-19.8 1.1-3.7 1-4.5-.2-5.3-2.3-1.4-2.6-1.2-4.9 5.3zM727 585.2c-.6 2.4-1.5 5.9-2 7.8-.7 2.4-.6 3.6.3 4.2 2.8 1.8 4.2.2 6.1-7.1 1.6-6.2 1.7-7.4.5-8.2-2.7-1.7-3.8-.9-4.9 3.3zM596.6 590.5c-6.7 7.6-13.7 13-22.4 17.4-5.6 2.8-7.3 4.7-5.6 6.4 1.1 1 12.5-5.2 20.1-10.9 8.4-6.5 16.7-15.8 15.9-17.9-.9-2.4-1.8-1.8-8 5zM619.3 593.2c-2.6 4-7.8 10.4-11.6 14.2-6 6.1-7.8 9.6-4.9 9.6.5 0 4.2-3.5 8.4-7.8 11.7-12.1 18.4-23.2 13.9-23.2-.5 0-3.1 3.3-5.8 7.2zM566.2 590.5c-7.8 4.1-17.2 6.5-25.2 6.5-4.9 0-6 .3-6 1.6 0 2.6 15.5 1.4 24.5-1.8 8.1-2.8 15.8-7.4 15-8.8-.9-1.4-1.2-1.3-8.3 2.5zM745 592.2c-1.8 7.3-8.2 25.9-11.8 33.9l-3 6.7 2.4 1.1c1.4.6 2.7 1.1 3 1.1 2.3 0 18.1-44.7 16.3-46.4-.2-.2-1.6-.7-3-1.1-2.5-.6-2.7-.4-3.9 4.7zM824.6 588.7c-.3 1-.8 3.6-1.1 5.8-.6 3.7-3 13.8-4.1 17.6-.3 1.2.6 1.9 3.5 2.7 4.6 1.1 4 2 6.5-9.3 2-9.3 3.5-16.9 3.3-17.1-.1-.1-1.9-.4-3.9-.8-3-.5-3.7-.3-4.2 1.1zM783.5 597.2c-1.5 6-4.1 15.1-8.1 27.9-.3 1.2.5 2 2.7 2.8 1.8.6 3.3 1 3.4.9 1.6-1.8 11.1-36.5 10.3-37.3-.2-.3-1.8-.8-3.5-1.1l-3-.6-1.8 7.4zM413.8 591.7c-1 .2-1.8.8-1.8 1.3 0 3.2 10.8 23 12.6 23 .6 0 1.6-.6 2.2-1.3.8-.9.3-2.6-2-6.2-1.7-2.8-4.4-7.8-6-11.3-1.5-3.4-2.9-6.1-3.1-6.1-.1.1-1 .3-1.9.6zM291.3 593.7c-1.3.2-2.3.9-2.3 1.5 0 3.3 9.4 34.4 10.9 36.1.4.4 2.1.3 3.7-.3l3.1-1.1-3.2-9.2c-1.8-5.1-4.2-13.4-5.5-18.5-1.3-5-2.9-9.1-3.4-9.1-.6.1-2.1.4-3.3.6zM640.4 595.7c-1 1.6-2.8 4.5-4 6.5l-2.4 3.7 2.1 1.1c2.4 1.3 3.1.6 7.5-7.4 2.1-3.9 2.4-5 1.3-5.7-2.2-1.3-2.7-1.1-4.5 1.8zM251.8 595.7c-1.6.2-2.8 1-2.8 1.6 0 1.6 5.8 24.6 6.5 25.7.3.4 2.1.3 4.1-.3 2.9-.9 3.4-1.4 3-3.1-.4-1.2-1.8-7.2-3.3-13.4-1.5-6.1-3.2-11.1-3.8-11.1-.5.1-2.2.4-3.7.6zM699 607.6c-1.8 4.1-3.1 7.6-2.9 7.8.2.2 1.4.8 2.6 1.5 2 1 2.3.6 5.3-6.5 1.7-4.2 3-7.7 2.8-7.9-.2-.1-1.2-.7-2.4-1.3-1.9-1-2.3-.5-5.4 6.4zM396.6 603.3c-1.7 1.3-1.6 1.7 1.9 8.7 3.6 7.1 9.5 16.7 12.3 20.2 1.1 1.4 1.8 1.5 3.3.5 2.6-1.6 2.5-2-2-8.5-2.1-3.1-5.7-9.4-8-14-2.3-4.5-4.5-8.2-4.9-8.2-.5 0-1.6.6-2.6 1.3zM375.8 604.2c-1.6 1.2-1.5 1.9 1.3 8.3 1.7 3.8 3.2 7.1 3.4 7.4.3.2 1.6-.1 3-.7l2.4-1.1-3.3-7.3c-1.9-4-3.8-7.4-4.3-7.5-.5-.2-1.6.2-2.5.9zM496.7 604.7c-1.4 1.3-.6 2.3 3.7 4.8 9.6 5.6 26.2 10.5 35.6 10.5 3.2 0 4-.4 4-1.9s-1.1-1.9-6.7-2.4c-9.5-.8-17.4-3.1-27-7.7-9-4.4-8.7-4.3-9.6-3.3zM758.5 614.8c-2.1 5.9-6.2 15.8-9.1 22.1-3 6.3-5.4 11.7-5.4 12.1 0 .8 5.1 3.3 5.6 2.7 2.1-2.1 18.4-42.1 18.4-45.2 0-.2-1.3-.8-2.9-1.3l-2.9-1-3.7 10.6zM336.8 611.7c-2.4.6-2.3.7 1.6 10.6 5.1 12.5 16.7 34.7 18.3 34.7.4 0 4.4-2 5.1-2.5.1-.1-2.2-4.4-5.3-9.6-3-5.2-7.8-14.9-10.6-21.6-2.9-6.8-5.7-12.2-6.3-12.2-.6.1-1.9.3-2.8.6zM651.9 614.2c-1.2 1.8-4.7 6.4-7.7 10.1-5.1 6.5-5.3 7-3.7 8.5 1.5 1.6 1.9 1.4 5.1-2.3 1.9-2.2 5.5-6.9 8-10.4 3.5-5 4.2-6.6 3.3-7.7-1.7-2.1-2.5-1.8-5 1.8zM448.7 614.3c-1.6 1.1-1.2 1.8 4.1 7 5.1 5 6 5.6 7.1 4.3 1.1-1.3.5-2.4-3.4-7.1-2.6-3-5.1-5.5-5.4-5.5-.4 0-1.5.6-2.4 1.3zM796.5 622.9c-1.5 4.7-3 9.1-3.2 9.7-.3.9 4.4 3.4 6.3 3.4.4 0 6.6-19.1 6.3-19.4-.2-.2-1.8-.8-3.5-1.3l-3.1-1.1-2.8 8.7zM359 616c-1.3.8-.9 2 2.2 8.4 3.6 7.2 3.9 7.5 6.2 6.5l2.4-1.1-3.3-7.2c-3.4-7.1-4.8-8.4-7.5-6.6zM713.4 623.2c-3.4 6.8-3.5 7.2-1.8 8.5 2.7 2 3.2 1.7 5.9-3.8 4.5-8.9 4.7-9.5 1.9-10.8-2.3-1-2.6-.7-6 6.1zM278.4 619.3l-3.2.9 2.9 8.7c1.6 4.7 3.1 9.1 3.4 9.8.5 1.6 6.5-.3 6.5-2.1 0-1.1-5.9-18-6.3-18.2-.1 0-1.6.4-3.3.9zM483 619.5c-1 1.2-.2 2 4.2 4.8 2.9 1.9 6.7 4.1 8.3 4.9 5.1 2.7 20.6 7.8 21.6 7.2 2.4-1.4.5-3.4-4.8-4.9-6.4-1.9-17.6-6.9-23.9-10.9-3.6-2.2-4.3-2.4-5.4-1.1zM318.8 619.7c-1 .2-1.8.6-1.8.8 0 2.6 10.8 26 17.4 37.7 3.9 7 4.9 7.7 7.8 5.4 1.6-1.2 1.3-2.1-3.9-11.7-3.2-5.7-7.9-15.3-10.5-21.4-4.7-10.8-5.5-11.8-9-10.8zM813.5 632.2c-2.2 6.8-4 12.7-4 13.1 0 .5 1.5 1.5 3.3 2.3 3.8 1.5 2.9 2.7 8-11.7 4.7-13.5 4.7-13.5 1-14.8-1.7-.6-3.4-1.1-3.7-1.1-.3 0-2.4 5.5-4.6 12.2zM430.1 622.4c-1.3 1.6.7 4.3 10.8 14.8 5.1 5.4 5.6 5.6 7.3 4.2 1.6-1.5 1.2-2.2-7-11-4.8-5.2-9-9.4-9.3-9.4-.4 0-1.2.6-1.8 1.4zM663.4 630.7c-2.7 3.7-7.3 9.4-10.2 12.7-5.1 5.7-5.2 6-3.5 7.9 1.8 1.9 1.9 1.8 8-4.8 3.4-3.7 8.3-9.6 10.9-13.1 3.7-5.3 4.3-6.8 3.4-7.9-2.1-2.5-3.5-1.7-8.6 5.2zM260.1 629.1c-1.9.8-2.2 1.4-1.6 3.7 1.1 4.3 7.6 21.6 8.5 22.6.9.9 7-1.1 7-2.3 0-2.5-9.1-24.6-10.2-24.8-.7-.1-2.4.2-3.7.8zM571.8 630.1c-4.3 1.7-15.1 4-25 5.5-2.9.4-3.8.9-3.8 2.5 0 1.7.5 1.9 4.3 1.4 11.2-1.5 16.9-2.7 22.5-4.5 10.5-3.5 11.2-3.8 10.6-5.5-.8-1.9-2.7-1.8-8.6.6zM601.2 637.1c-5.5 3.5-6.1 4.2-5.2 5.9 1 1.9 1.3 1.9 3.8.6 1.5-.8 4.6-2.8 6.9-4.3 3.4-2.3 4-3.2 3.2-4.6-1.3-2.3-1.5-2.3-8.7 2.4zM681.1 639.7c-4.1 6.2-4.2 6.7-2.5 8 1 .7 2.1 1.3 2.4 1.3.9 0 9-11.7 9-12.9 0-.9-3.1-3.1-4.2-3.1-.2 0-2.3 3-4.7 6.7zM393.2 636.7l-2.1 1.8 4.5 6.2c2.5 3.5 4.9 6.3 5.3 6.3.4 0 1.5-.6 2.5-1.3 1.7-1.3 1.6-1.8-2.9-7.8-2.6-3.5-4.8-6.5-5-6.7-.1-.1-1.2.5-2.3 1.5zM629.6 639.9c-1.6 1.6-5.9 5.1-9.7 7.8-6.9 4.9-7.5 5.9-4.7 7.7 1.2.7 3.4-.5 10-5.6 10.5-8.3 11.4-9.3 9.8-11.3-1.7-2.1-2.2-1.9-5.4 1.4zM372.7 641.5c-1.8 1.3-1.7 1.7 2.4 7.7 2.3 3.5 4.4 6.5 4.6 6.7.2.3 1.2-.4 2.3-1.5 1.9-1.9 1.9-2-2.2-8.2-2.2-3.4-4.3-6.2-4.7-6.2-.3 0-1.4.7-2.4 1.5zM454.2 646.2c-.7.7-1.2 1.5-1.2 2 0 .4 4.8 3.9 10.7 7.8 9.8 6.5 10.9 7 12 5.4 1.5-2.1 1.7-3.4.4-3.4-.4 0-5.2-2.9-10.5-6.5s-9.8-6.5-9.9-6.5c-.2 0-.8.5-1.5 1.2zM491.6 646.6c-.9 2.4-.1 3.1 7 5.4 5.5 1.9 6.8 2 7.5.9 1.4-2.3.6-3-6.1-5.5-7.8-2.8-7.6-2.8-8.4-.8zM428.6 649.9c-1.6 1.7-1.4 2.1 4.1 7.1 3.2 2.9 9.1 7.8 13.1 10.8 6 4.5 7.5 5.2 8.7 4.2 2.5-2.1 1.7-3.4-5.1-8.5-3.7-2.7-9.3-7.3-12.4-10.2-3.2-2.9-6-5.3-6.2-5.3-.3 0-1.3.8-2.2 1.9zM694.5 654.6c-4.8 6.5-4.8 6.6-2.8 8.5 2.2 2.2 1.3 3 9.7-8.4l2.4-3.2-2.2-1.7c-2.3-1.6-2.4-1.6-7.1 4.8zM759.1 660.2c-2.8 5.1-7 12.4-9.5 16.3l-4.5 7 2.2 1.7c1.2 1 2.7 1.8 3.2 1.8 1 0 11.1-15.8 17.3-27.2l3.2-5.8-3-1.5c-1.6-.8-3.1-1.5-3.4-1.5-.2 0-2.7 4.2-5.5 9.2zM800.7 663.9c-3.1 6.6-5.7 12.2-5.7 12.5 0 .6 5.5 3.6 6.5 3.6.8 0 11.5-22.8 11.5-24.5 0-.7-.8-1.5-1.7-1.8-1-.2-2.5-.8-3.3-1.1-1.2-.5-2.9 2-7.3 11.3zM557 653.6c-.8.1-4.1.6-7.3.9-5.2.6-5.8.9-5.5 2.8.3 2.3 1.4 2.4 11.6 1.1 3.6-.4 4.2-.8 4.2-3 0-1.3-.3-2.3-.7-2.3-.5.1-1.5.3-2.3.5zM313.5 655.2c-1.1.6-2.2 1.2-2.4 1.4-1.1.9 19.1 33.4 20.7 33.4.4 0 1.8-.9 3.1-1.9l2.4-1.8-5-7.4c-2.7-4.1-7.2-11.3-9.9-16.1-2.7-4.9-5.3-8.8-5.9-8.8-.5.1-1.9.6-3 1.2zM779 664.8c-2.5 4.8-4.6 8.9-4.8 9.2-.3.7 4.3 3 5.8 3 .6 0 3-4 5.4-8.8l4.5-8.9-3.3-1.5-3.2-1.6-4.4 8.6zM600 660c-3 1.6-8.1 3.9-11.2 5.1-5.9 2.2-6.3 2.6-5.2 5.3.5 1.3 1.4 1.2 6.8-.8 5.2-2 16.3-7.2 17.4-8.1.6-.5-.9-4.5-1.6-4.5-.4.1-3.2 1.4-6.2 3zM272.5 661.2c-1.1.6-2.1 1.2-2.3 1.4-.7.5 12 24.4 13 24.4.5 0 2.2-.7 3.7-1.6l2.8-1.6-6.1-11.9c-6.2-12-7.1-12.9-11.1-10.7zM294.7 661.6l-2.8 1.5 4.2 7.7c5.6 10.4 6 10.8 9.3 8.7 1.5-1 2.5-2.1 2.4-2.4-1.8-3.9-9.3-17.1-9.7-17.1-.3.1-1.9.8-3.4 1.6zM657.7 666.7c-5.8 5.5-5.8 5.6-3.9 7.5 1.9 1.9 2 1.9 7.8-3.5l5.9-5.6-2-2-2-2-5.8 5.6zM483.6 663.7c-1 2.6-.7 3.1 3.7 4.8 4.5 1.9 18.7 6.5 20 6.5.4 0 .7-1.1.7-2.4 0-2-.7-2.5-4.4-3.5-2.5-.6-7.8-2.4-12-4-6.2-2.4-7.6-2.6-8-1.4zM416.6 664.9c-.9 1-1.6 2-1.6 2.3 0 .3 2.7 2.9 6.1 5.8 5.7 5 6.1 5.1 7.4 3.4.8-1.1 1.5-2.2 1.5-2.5 0-.3-2.6-2.9-5.9-5.7-5.6-4.9-5.9-5-7.5-3.3zM706 671.1c-3.5 4.4-10.7 12.5-16.1 17.9l-9.7 9.8 2.2 2.1 2.3 2.2 9.1-9.1c9.7-9.6 23.2-25.7 23.2-27.7 0-1-2.9-3.3-4.3-3.3-.2 0-3.2 3.6-6.7 8.1zM625 667.7c-3 2-9.4 5.7-14.1 8.3-7.9 4.1-8.6 4.7-7.8 6.8.5 1.2 1.1 2.2 1.4 2.2 1.9 0 26.1-13.6 29.3-16.5.6-.5-1.8-4.5-2.6-4.5-.4 0-3.2 1.7-6.2 3.7zM725 678.2a260.4 260.4 0 0 1-15.7 18.8l-8.2 8.7 2.3 2.2 2.3 2.2 8.1-8.6c7.9-8.3 23.2-27.7 23.2-29.4 0-.5-1-1.5-2.3-2.4-2.2-1.4-2.5-1.2-9.7 8.5zM394.7 670.8c-1.6 1.7-1.3 2.2 4.3 7.7 5 5 6.1 5.6 7.4 4.5.9-.7 1.6-1.8 1.6-2.4 0-1.2-10-11.6-11.1-11.6-.3 0-1.3.8-2.2 1.8zM569 671.1c-1.9.4-7 1.3-11.2 2-7.3 1.1-7.8 1.3-7.8 3.6 0 2.7-1 2.7 16.8-.4 8.5-1.5 9.2-1.8 9.2-4 0-2.5-1-2.7-7-1.2zM516 674.3c0 3.1 1.4 3.5 15.3 4.4l10.7.6v-2.5c0-2.5-.1-2.5-11.3-3.1-6.2-.3-12.1-.9-13-1.3-1.3-.5-1.7-.1-1.7 1.9zM669.5 682.4l-6 5.4 2 2.1 2 2 5.9-5.6c4.7-4.4 5.7-5.9 5-7.1-1.8-2.7-2.7-2.4-8.9 3.2zM474.5 682c-.4 1.2-.5 2.3-.3 2.5 1.6 1.6 28.2 10.5 31.5 10.5.6 0 1.3-1.1 1.5-2.5.5-2.2 0-2.6-5.1-4-3.1-.9-9.4-2.9-14.1-4.6-12.1-4.4-12.7-4.5-13.5-1.9zM353.5 683c-1.7 1.9-1.5 2.2 6.3 11.2 8.7 10.1 24.6 25.8 26.1 25.8.6 0 1.7-1 2.5-2.1 1.4-2 1-2.6-7.6-10.8-5-4.7-12.4-12.5-16.5-17.4-4.1-4.8-7.8-8.7-8.2-8.7-.4 0-1.6.9-2.6 2zM380.5 684c-1.8 2-1.8 2.2 3.1 7.1 11.6 12.1 28 26.1 29.8 25.6.5-.2 1.5-1.2 2.3-2.4 1.3-1.9.8-2.5-7.4-9.1a241 241 0 0 1-16.8-15.1c-4.4-4.5-8.2-8.1-8.6-8.1-.3 0-1.4.9-2.4 2zM590.9 684.7c-5.6 2.1-6.6 2.8-6.2 4.4.8 2.9 1.6 3 8.2.8 4.2-1.4 6.1-2.6 6.1-3.7 0-3.7-1.4-4-8.1-1.5zM789.5 685.3c-1 1.8-4.2 6.9-7.2 11.5-2.9 4.5-5.3 8.4-5.3 8.6 0 .2 1.4 1.3 3.2 2.4l3.2 2.1 3.2-4.7c6.7-10.1 11.4-18.4 10.9-19.3-.4-.5-1.9-1.6-3.4-2.3-2.6-1.4-2.8-1.3-4.6 1.7zM628.8 688.2c-6.2 3.7-6.7 4.2-5.6 6.2.6 1.1 1.2 2.3 1.4 2.4.4.5 14.4-7.9 14.4-8.7-.1-.8-2.6-4.1-3.1-4-.2.1-3.4 1.9-7.1 4.1zM445.2 687.2c-2.1 2.1-1.3 3.3 5.1 7.1 7.1 4.1 8.2 4.4 9.1 2.1 1.1-2.8.7-3.2-5.8-6.8-7.4-4.1-6.8-4-8.4-2.4zM289.5 691.1c-1.6 1.1-2.9 2.4-2.7 3 .5 1.8 14.2 21.9 15 21.9.6 0 3.6-1.8 6-3.6.3-.2-13.3-21.2-14.7-22.5-.3-.4-1.9.2-3.6 1.2zM556.8 692.5c-.3.3-6.7.6-14.2.7l-13.6.1V699l11.3-.1c11.1-.1 22.2-1 23.1-2 .3-.3.3-1.5-.1-2.7-.4-1.6-1.3-2.2-3.2-2.2-1.5 0-3 .2-3.3.5zM422.2 696.1c-.7 1.2-1.2 2.2-1 2.3 6.8 5 12.4 8.6 13.4 8.6 1.1 0 3.1-3.8 2.2-4.4-3.9-3-12.3-8.6-12.7-8.6-.4 0-1.2.9-1.9 2.1zM754.6 703.2l-6 8.1 2.3 1.8c1.3 1.1 2.7 1.9 3.1 1.9.9 0 12-14.6 12-15.9 0-.7-4.4-4.2-5.2-4.1-.2.1-3 3.7-6.2 8.2zM318.6 700.3l-2.8 2.3 6.1 7.7c3.4 4.2 6.5 7.7 6.9 7.7.4 0 1.8-.9 3.1-1.9l2.4-1.8-6.3-7.9c-3.4-4.3-6.3-8-6.4-8.1-.1-.1-1.4.8-3 2zM639.8 704.3c-3.7 2.3-6.7 4.4-6.7 4.7 0 .3.6 1.3 1.4 2.4 1.4 1.8 1.7 1.7 8.5-2.3 3.8-2.3 7-4.5 7-4.9-.1-.9-2.6-4.2-3.1-4.1-.2.1-3.4 2-7.1 4.2zM477.5 704.1c-.4 1.2-.3 2.5.2 2.9.9 1 14.4 5.2 14.9 4.7.2-.2.5-1.4.6-2.6.3-2.1-.5-2.6-6.6-4.7-8.5-2.9-8.3-2.9-9.1-.3zM592.3 704.7c-7.2 2.4-8.2 3.4-6.4 6.2.8 1.3 2.1 1.2 8.5-.9 4.2-1.3 7.6-2.6 7.6-2.9-.1-1.7-1.3-5.1-1.9-5-.3 0-3.9 1.2-7.8 2.6zM715.7 717.6 702 731.1l1.7 2.4c1 1.4 2.2 2.5 2.7 2.5s7.1-6.1 14.5-13.5l13.6-13.4-2.5-2.5-2.5-2.5-13.8 13.5zM350.2 709.3l-2.2 2.3 10.3 10c5.6 5.4 11.9 11.5 14 13.4l3.7 3.4 2.5-2.4 2.5-2.5-13.9-13.3C359.4 713 353 707 352.8 707c-.3 0-1.4 1-2.6 2.3zM513 713.8c0 3 0 3 7.5 3.7 8.1.7 9.5.4 9.5-2.5 0-2-1.4-2.4-11.2-3.5l-5.8-.6v2.9zM560.5 711.7c-11.6 1.3-11.5 1.3-11.5 3.9 0 2.1.4 2.4 3.9 2.4 2.1 0 5.9-.3 8.5-.6 4.3-.6 4.6-.9 4.6-3.5 0-1.7-.5-2.8-1.2-2.8-.7.1-2.6.4-4.3.6zM764.3 721.5l-8.1 10.3 2.8 2.7 2.8 2.7 8.2-9.9c4.5-5.4 8.4-10.4 8.7-11.1.5-1.2-3.4-5.2-5.2-5.1-.5 0-4.7 4.7-9.2 10.4zM454.2 715.5c-1.1 2.4-1 2.6 4.6 5.1 7.4 3.3 10.6 3.6 11 .8.2-1.7-.9-2.6-6.4-5-3.8-1.6-7.1-3-7.4-3.2-.4-.1-1.2.9-1.8 2.3zM308.6 719.5l-2.9 2.4 5.6 6.8c3.2 3.7 7.3 8.6 9.1 10.8l3.5 4 2.5-2.4c1.4-1.4 2.6-2.9 2.6-3.3 0-.8-3.4-4.9-14.6-17.5l-2.9-3.2-2.9 2.4zM605.9 720.7c-5.5 2.1-6.6 2.8-6.2 4.4.9 3.2 2 3.2 9.8.4 6.7-2.5 7.3-2.9 6.6-4.9-1.1-2.9-2.5-2.9-10.2.1zM643.2 724.5c-5.1 2.9-14.9 7.6-21.7 10.6-11.2 4.7-12.5 5.5-11.9 7.3.3 1.2.9 2.4 1.3 2.9 1 1 18.2-6.1 32-13.4 6.4-3.3 11.9-6.4 12.3-6.7.4-.4 0-1.9-1-3.3l-1.7-2.6-9.3 5.2zM681.5 722.6c-5.4 4.4-19.8 14-28.5 18.9-4.7 2.6-8.6 4.9-8.8 5-.3.3 1.5 4.4 2.4 5.4 1.2 1.4 40.2-23.8 41.1-26.6.2-.5-.4-1.9-1.4-3.1l-1.8-2.1-3 2.5zM489.5 728c-.9 3-.1 3.5 8 5.3 7.2 1.7 8.4 1.3 8.5-2.3 0-1.1-1.7-2-5.7-2.8-3.2-.7-6.8-1.5-8-1.8-1.6-.4-2.3 0-2.8 1.6zM405.4 731.8c-1.6 2.4-1.6 2.6.2 3.9 7.5 5.7 38.3 22.3 41.3 22.3.4 0 1.3-1.1 1.9-2.5 1.1-2.4.9-2.6-11-8.5-6.6-3.4-16.3-8.7-21.4-11.9l-9.3-5.9-1.7 2.6zM569 730.2c-3 .6-5.6 1.1-5.8 1.3-.2.1 0 1.4.3 2.7l.6 2.5 8.2-1.3c4.5-.8 8.3-1.4 8.3-1.4.1 0-.1-1.1-.4-2.5-.5-2.8-1.8-3-11.2-1.3zM724.7 736.4l-7.7 7.2 2.4 2.3 2.5 2.3 2.8-2c1.5-1.1 4.9-4.2 7.5-6.9l4.8-4.8-2.3-2.7-2.2-2.7-7.8 7.3zM445.5 732.9l-1.4 2.9 8.7 3.7c10.8 4.7 35 12.7 37 12.3.9-.2 1.9-1.5 2.3-3 .7-2.5.5-2.7-4.5-3.9-6.4-1.5-27.2-8.8-34.8-12.3L447 730l-1.5 2.9zM348.2 734.3c-1.2 1.3-2.2 2.6-2.2 2.8 0 .3 3.4 3.7 7.6 7.4l7.7 6.9 2.2-2.8 2.2-2.8-5.1-4.6c-2.8-2.6-6.3-5.7-7.7-7l-2.5-2.2-2.2 2.3zM526 735v3h8.5c8.3 0 8.5-.1 8.5-2.4 0-2-.6-2.4-4.6-3-2.6-.3-6.4-.6-8.5-.6-3.7 0-3.9.2-3.9 3zM741.8 746.4l-9.6 9.4 2.6 3.1 2.7 3.2 10-10 9.9-10-2.4-2.6c-1.3-1.4-2.6-2.5-2.9-2.5-.3.1-4.9 4.3-10.3 9.4zM331 745.5c-2.8 2.9-3.1 2.5 9.2 13.7l8.9 8.1 2.4-2.9c1.3-1.6 2.3-3.2 2.2-3.5-.3-.7-19.3-17.9-19.9-17.9-.2 0-1.5 1.1-2.8 2.5zM672.5 752.1c-4.4 2.8-10.9 6.6-14.5 8.4-9.9 5.1-10.4 5.6-8.9 8.8.7 1.5 1.6 2.7 2 2.7 1.2 0 13.2-6.5 24.2-13.2l9.7-6-1.7-2.9c-1-1.6-2-2.9-2.3-2.9-.3.1-4.1 2.3-8.5 5.1zM399.7 751.9l-1.7 2.9 10.3 6c5.6 3.3 13.3 7.5 17 9.4 6.7 3.2 6.9 3.3 8.3 1.4 2.4-3.4 1.6-4.5-6.3-8.5-4.3-2.1-11.6-6.2-16.3-9-4.7-2.8-8.7-5.1-9-5.1-.3 0-1.3 1.3-2.3 2.9zM562.5 750c-3.3.4-12.6.8-20.7.9l-14.8.1v7h10.3c9.6-.1 24.9-1.2 34.5-2.6 3.8-.6 4.2-.9 4.2-3.5 0-2.7-.2-2.9-3.7-2.8-2.1.1-6.5.5-9.8.9zM633 751.4c-1.4.8-7 3-12.5 5.1-5.5 2-10.1 3.8-10.3 4-.2.1 0 1.5.4 3 .6 2.3 1 2.6 3.3 2 3.9-1 23.5-8.6 24.5-9.6 1-.9-.8-5.9-2.1-5.9-.5.1-1.9.7-3.3 1.4zM690 764.1c-4.1 2.8-7.6 5.6-7.7 6.3-.2.6.5 2.1 1.5 3.3l1.7 2.1 7.7-5.1c4.2-2.9 8-5.5 8.4-5.9.7-.8-2.2-5.8-3.4-5.8-.4.1-4.1 2.3-8.2 5.1zM717 768.1c-5.8 4.5-10.6 8.5-10.8 8.9-.2.4.8 2 2 3.5l2.4 2.7 10.4-8.1c5.8-4.5 10.6-8.5 10.7-8.9.2-.4-.7-2-2-3.5l-2.2-2.8-10.5 8.2zM383.1 763.9l-2.1 2.9 7.8 4.9c4.2 2.7 8.2 5.3 8.9 5.7.8.4 1.8-.5 2.8-2.5.9-1.7 1.5-3.2 1.3-3.3-.4-.2-10.4-6.7-13.9-9-2.7-1.7-2.7-1.6-4.8 1.3zM469.6 763.6c-.4 1.5-.6 2.8-.4 3 .8.8 25.3 6.5 33.8 7.9 13.9 2.2 15 2.1 15-1.4v-2.8l-11.2-1.7c-6.2-1-16.6-3.1-23-4.7-6.4-1.6-12.1-2.9-12.6-2.9-.6 0-1.3 1.2-1.6 2.6zM357 767.7c-1.1 1.4-2 3-2 3.5 0 .4 4.8 4.4 10.8 8.8l10.7 8 2.2-2.8c1.3-1.5 2.3-3 2.3-3.3 0-.3-4.9-4.2-11-8.7l-10.9-8.1-2.1 2.6zM583 767.1c-5.8 1.4-29 3.9-36.2 3.9H540v2.9c0 1.7.3 3.2.8 3.4 2.4 1.4 46.4-3.3 48.4-5.2 1-.9-.3-6.1-1.6-6-.6.1-2.7.5-4.6 1zM615 778.6c-4.1 1.3-10.4 3.1-14 3.9-13.5 3.2-14 3.4-14 5.8 0 4.5.9 4.7 11.5 2.2 8.6-2 26.5-7.2 27.3-7.9.4-.5-2-6.6-2.6-6.5-.4 0-4.1 1.2-8.2 2.5zM458.3 780.4l-1 3.4 10.6 3.1c11.8 3.4 26.8 6.8 27.4 6.1.2-.3.7-1.9 1-3.6l.6-3.1-6.7-1.3c-5.4-1-20.9-5-29.3-7.6-1.1-.3-1.9.6-2.6 3zM689 787.2c-6.3 3.8-11.6 7.1-11.8 7.3-.5.5 3 6.5 3.8 6.5.7 0 22.2-12.9 23.2-13.8.3-.4-.4-2.1-1.5-3.8l-2.2-3.1-11.5 6.9zM649.8 786.3l-8.7 4.2 1.5 2.7c.8 1.6 1.9 2.8 2.4 2.8s4.8-1.8 9.4-3.9l8.5-3.9-1.2-3.1c-.6-1.7-1.6-3.1-2.2-3-.5 0-4.9 1.9-9.7 4.2zM422.1 786.7c-.7 1.4-.8 3-.4 3.4 1.7 1.7 17.7 7.9 18.4 7.2.4-.4 1-2 1.4-3.4.6-2.4.2-2.8-8.2-6.2-4.8-2.1-9.1-3.7-9.4-3.7-.3 0-1.1 1.2-1.8 2.7zM384.5 788c-.8 1.6-1.5 3.1-1.5 3.3 0 .6 12.1 7.8 18.8 11.1l5.2 2.6 2-3.2 1.9-3.2-3.7-2.1c-16.5-9.4-20.2-11.5-20.7-11.5-.2 0-1.1 1.3-2 3zM541.3 789.8l-19.3.2v7h19.4c10.7 0 19.6-.3 19.8-.8.2-.4.2-2.1-.1-3.7l-.6-3-19.2.3zM608.2 800.8l-9.4 2.6.6 3c.4 1.6.8 3.1 1 3.3.5.5 17.9-3.8 18.9-4.7.8-.7-.2-7.1-1.2-6.9-.3 0-4.8 1.3-9.9 2.7zM668.1 798.9c-.8.5-6 2.9-11.5 5.2-5.6 2.4-10.2 4.4-10.4 4.5-.2.1.5 1.8 1.5 3.8l1.8 3.5 11.5-5c6.3-2.8 11.9-5.5 12.4-6 1.1-1-1.2-6.9-2.8-6.9-.6 0-1.7.4-2.5.9zM464.6 802.6c-.4 1.5-.3 3 .1 3.4.4.4 4.8 1.7 9.7 2.9 9.5 2.3 10.6 2.1 10.6-2.5 0-1.9-1.2-2.4-8.5-4.3-10.7-2.7-11.1-2.6-11.9.5zM414.7 804.2c-.8 1.8-1.1 3.7-.7 4.1.4.5 6.1 3.1 12.6 5.7l11.9 4.9 1.2-2.2c2.4-4.3 1.7-5.1-10.4-10.2-6.5-2.8-12.1-5.1-12.5-5.3-.4-.2-1.4 1.2-2.1 3zM509 811.5c0 3.9.9 4.2 13 4.7l7.5.3.3-3.2c.4-3.8.1-3.9-12.5-4.7l-8.3-.5v3.4zM560.2 808.7l-6.3.4.3 3.2c.4 3.8 2.2 4.3 13.6 3.2l7.2-.7v-3.4c0-3.8 1.4-3.6-14.8-2.7zM637 812c-.9.4-6.2 2.2-12 3.9-5.7 1.7-10.5 3.3-10.7 3.4-.1.2.2 1.9.8 3.9l1 3.7 5.2-1.5c5.4-1.6 21-6.5 21.4-6.8.1-.1-.3-1.9-.9-3.9-1.2-3.8-2.1-4.3-4.8-2.7zM446.3 817.4c-.6 2-.8 3.8-.5 4 .4.2 4.8 1.5 9.7 2.9 18.4 5.3 16.8 5.3 17.9.1l.7-3.1-11.3-3.2c-16.5-4.9-15.2-4.8-16.5-.7zM593 823.7c-6.3 1.3-11.6 2.6-11.8 2.7-.2.2 0 2 .3 4 .8 4-.9 3.9 16.9.4 5.5-1 10.3-2.1 10.7-2.3.3-.3.4-1.9 0-3.7-.8-4.1-1.5-4.2-16.1-1.1zM479.6 824.6c-.3.9-.6 2.6-.6 3.8 0 2.1.9 2.4 13.1 4.4 7.3 1.2 13.6 1.9 14 1.6.5-.3.9-2 .9-3.9 0-3.1-.3-3.5-3.2-3.9-1.8-.3-7.3-1.3-12.3-2.1-11.1-1.9-11.2-1.9-11.9.1zM565 827.6c-1.4.2-6 .6-10.2.9l-7.8.7v3.3c0 1.9.4 3.6.8 3.9.9.5 24.8-1.1 26.8-1.8.6-.2.8-2 .6-4-.4-3.4-.6-3.6-4.1-3.5-2 .1-4.7.3-6.1.5zM513 831.7v4l10.7.6c18.2 1.2 17.3 1.3 17.3-3.3v-4h-4.2c-2.4 0-8.7-.3-14-.7l-9.8-.6v4z"/></svg>