<svg xmlns="http://www.w3.org/2000/svg" width="1440" height="1440" version="1.0" viewBox="0 0 1080 1080"><path d="M247.7 238.7c-1.6 1.7-1.1 2.3 10 13.5 11.5 11.6 11.7 11.7 9.8 13.8-1.8 2-1.8 2 3.8 2h5.7v-5.7c0-5.6 0-5.6-2-3.8-2.1 1.9-2.2 1.7-13.8-9.8-11.2-11.1-11.8-11.6-13.5-10zM307.9 240.6c-1.1 1.4-1 1.9.7 3.3 1.1.9 6.8 5.6 12.7 10.5l10.7 8.9-2 2.2c-1.1 1.2-2 2.3-2 2.6 0 .2 2.6.2 5.8-.1 5.4-.5 5.7-.6 6-3.4.2-1.6.1-4.4-.3-6.3l-.6-3.4-2 2.5-2 2.6-11.7-9.8c-14.1-11.9-13.7-11.6-15.3-9.6zM369 241.5c-.7.8-.9 1.8-.6 2.3.3.5 6.2 4.8 13.1 9.6 6.9 4.8 12.5 9 12.5 9.2 0 .3-.8 1.7-1.7 3.1-1.7 2.6-1.7 2.6.7 2 1.4-.3 4.2-.9 6.3-1.3 4.2-.7 4 .2 2.1-9.5l-.6-3.2-2.2 2.6-2.1 2.6-13.2-9.4c-10.8-7.7-13.4-9.1-14.3-8zM429.7 242.7c-1.9 1.8.4 3.8 12.8 10.9 7.4 4.2 13.5 8.1 13.5 8.6s-.5 1.8-1 2.9c-1.3 2.3-.7 2.4 5.5.7 4.9-1.3 5.1-1.7 3.3-8.5l-1.1-4.6-2.1 2.5-2.1 2.6-13.5-7.9c-13.9-8.2-14.2-8.3-15.3-7.2zM490 245.1c-1 1.7-.5 2.2 5.2 4.8 23.8 10.8 24 10.9 22.8 13-1.9 3.6-1.1 3.9 4.5 1.8 6-2.2 6-2 2.8-9.7l-1.4-3.5-1.5 2.7-1.4 2.7-6.3-2.8c-3.4-1.6-10.1-4.7-14.9-6.9-8.5-4-8.8-4-9.8-2.1zM829 246.9c0 1.7-.3 3.1-.7 3.1-.5 0-7.3.7-15.3 1.5s-15 1.5-15.7 1.5c-.6 0-.9.9-.6 2.1.6 2.1 1 2.1 8.7 1.5 4.5-.3 11.8-.9 16.3-1.2l8.2-.7.3 3.3.3 3.3 3.7-4.8c2.1-2.6 3.5-5.1 3.3-5.6-.3-.4-2.3-2.2-4.5-3.9l-4-3.2v3.1zM551.3 246.6c-.3.8-.2 1.9.3 2.3.5.4 7 2.9 14.4 5.6 7.4 2.6 13.9 5.1 14.3 5.5.4.4.3 1.9-.2 3.3-.6 1.5-.8 2.7-.5 2.7.7 0 10.4-5 10.4-5.4 0-.2-1.1-2.8-2.4-5.7l-2.4-5.4-1.3 3.1-1.4 3.1-14.5-5.3c-8-3-14.9-5.4-15.3-5.4-.4 0-1 .7-1.4 1.6zM768 247.7v3.3h-33v5h33v6.4l4-3.9c2.2-2.1 4-4.2 4-4.6 0-.3-1.8-2.6-4-5l-3.9-4.4-.1 3.2zM706.8 248.7c-.3 2.7-.4 2.8-6.8 2.8-3.6 0-11.1-.4-16.7-.8-10-.8-10.3-.8-10.3 1.2 0 2.3 1.5 2.7 14.5 3.6 4.4.3 10.4.8 13.3 1.2 5.3.5 5.4.6 5 3.4-.3 1.6-.2 2.9.1 2.9.3-.1 2.5-1.8 4.8-3.8l4.2-3.7-3.9-4.8c-3.9-4.8-3.9-4.8-4.2-2zM612.2 250.1c.3 2.2 1.2 2.5 12.8 4.6 6.9 1.2 14 2.5 15.8 2.8 3.1.6 3.3.8 2.7 3.6-.4 1.6-.4 2.9-.1 2.9 1.4 0 9.1-6.3 8.8-7.1-.1-.6-1.4-2.8-2.8-4.9-2.8-4.3-4.4-4.4-4.4-.4 0 1.9-.4 2.4-1.7 2-1-.3-7.2-1.4-13.8-2.6-6.6-1.1-13.3-2.3-14.8-2.6-2.6-.5-2.8-.3-2.5 1.7zM247.2 303.2c-1 1 1.3 3.8 10.5 13l11.7 11.7-2.4 2.6-2.3 2.5H277v-12.3l-2.3 2.1-2.3 2.2-11.4-11.5c-6.3-6.3-11.7-11.5-12-11.5-.3 0-1.1.5-1.8 1.2zM308.1 304.8c-.8 1.6.8 3.4 11.4 12.3l12.3 10.3-2.1 3-2.1 2.9 4-.6c2.1-.4 4.9-.7 6.2-.7 2 0 2.2-.5 2.2-5.4 0-6.2-1.1-7.7-3.4-4.4-1.4 2-1.7 2-3.3.6-15-12.8-23.4-19.8-23.8-19.8-.2 0-.9.8-1.4 1.8zM368.6 306.6c-.4.9-.5 1.8-.4 1.9.2.1 5.7 3.9 12.3 8.5 15.1 10.5 14.2 9.6 12.7 12.1-1.8 2.8-1.2 3.1 4.4 2.1l4.9-.8-.3-4.4c-.4-7-1-7.9-3.1-5.1l-1.8 2.4-13.1-9.1c-7.2-5.1-13.5-9.2-14-9.2s-1.3.7-1.6 1.6zM430.2 307.2c-.7.7-1.2 1.5-1.2 1.9 0 .4 5.6 3.9 12.4 7.9 17.2 9.9 16.3 9.1 14 12.5-1.9 2.8-1.9 2.9 0 2.2 1-.4 3.8-1.2 6.2-1.8 2.4-.6 4.4-1.4 4.4-1.6 0-.3-.7-3-1.6-6.1l-1.6-5.6-1.5 2.7c-.7 1.5-1.6 2.7-1.9 2.7-.2 0-5.8-3.1-12.3-6.9-16.5-9.6-15.6-9.2-16.9-7.9zM490.6 309.6c-.4.9-.5 1.8-.4 1.9.2.1 6.9 3.3 15 7l14.7 6.8-1.5 2.8c-.8 1.6-1 2.9-.5 2.9 1.8 0 10.1-3.9 10.1-4.8 0-.5-.7-3-1.6-5.7-1.5-4.4-1.8-4.6-3-3-.7 1-1.5 2.2-1.6 2.7-.2.5-6.7-2-14.5-5.6-7.8-3.6-14.6-6.6-15.1-6.6-.6 0-1.3.7-1.6 1.6zM830.4 311.2l.6 3.5-14.2 1.2c-18.2 1.5-18.8 1.6-18.8 4.2 0 2 .4 2.1 5.3 1.5 2.8-.3 8.8-.8 13.2-1.1 4.4-.3 9.5-.8 11.3-1.1 2.9-.4 3.2-.2 3.2 2 0 1.4.4 2.7.9 3 .8.6 7.1-6.6 7.1-8.1 0-.5-2.1-2.6-4.6-4.8l-4.7-3.8.7 3.5zM552 310.9c-.9 1.8-.7 2.2 1.2 3 1.3.4 8.2 3 15.3 5.6 7.2 2.6 13.1 4.9 13.3 5 .1.1-.2 1.4-.7 2.9-.6 1.4-.8 2.6-.5 2.6 1 0 10.4-4.2 10.4-4.7 0-.2-1-2.7-2.1-5.4-2-4.6-3.9-6.4-3.9-3.7-.1 4-1.6 3.9-15.1-1.1-7.4-2.7-14.2-5.2-15.1-5.6-1.1-.4-2 0-2.8 1.4zM769 312.2v3.8h-16.5c-15.8 0-16.5.1-16.5 2s.7 2 16.4 2h16.5l.3 3.6.3 3.5 4.4-4.5 4.4-4.4-4.6-4.9-4.7-4.8v3.7zM613.3 312.5c-.3.9-.3 1.8 0 2.1.2.3 7.3 2.3 15.7 4.6l15.2 4.1-.7 3.4-.6 3.3 5.1-3.1c2.7-1.7 5-3.3 5-3.5 0-.3-1.2-2.8-2.7-5.7l-2.6-5.2-1 3c-.5 1.6-1 3.1-1.1 3.2-.1.1-6.9-1.5-15.2-3.7-8.2-2.2-15.3-4-15.7-4-.4 0-1 .7-1.4 1.5zM708 313.7c0 1.8-.3 3.3-.7 3.3-.5 0-7.8-.7-16.2-1.5-12.3-1.2-15.7-1.2-16.3-.2-.4.6-.6 1.6-.5 2.2.2.5 7.6 1.6 16.5 2.4l16.1 1.5.3 2.9.3 3 4.2-3.4c2.3-1.9 4.2-3.6 4.2-3.9 0-.3-1.7-2.5-3.9-5l-3.9-4.5-.1 3.2zM247.7 367.8c-1.6 1.7-1.1 2.4 9.8 13.2l11.5 11.4-2.2 2.3-2.1 2.3H277v-12.4l-2.2 2.2-2.3 2.2-11.5-11.5c-11.1-11.1-11.7-11.5-13.3-9.7zM308.1 369.4c-1 1.1.6 2.9 8.1 9.2 5.1 4.2 10.8 9.1 12.5 10.8l3.3 3-2.2 2.3-2.1 2.3h2.4c1.3 0 4.1-.3 6.2-.6l3.7-.7v-5.3c0-5.7-1.3-7.6-3-4.4-.6 1.1-1.4 2-1.8 2-.4 0-6.2-4.5-12.7-10-6.6-5.5-12.3-10-12.6-10-.4 0-1.2.6-1.8 1.4zM369 370.5c-1.6 1.9-2.3 1.3 12.5 11.5 6.6 4.6 12.2 8.5 12.4 8.7.3.2-.2 1.6-1.2 3.2l-1.6 2.7 6-.9 6-1-.6-5.1c-.8-6.1-1.9-7.6-3.4-4.7-.7 1.2-1.6 2.1-2.1 2.1-.6 0-6.6-4.1-13.5-9-6.9-5-12.7-9-12.9-9-.2 0-.9.7-1.6 1.5zM429.9 372.1c-.6 1.2-.9 2.2-.7 2.3.2.2 6.5 3.8 14.1 8.1 7.5 4.2 13.7 8 13.7 8.4 0 .4-.7 1.7-1.6 2.9-1.8 2.6-1.7 2.6 5.2.6 4.3-1.2 5.4-1.9 5-3.2-.3-.9-1-3.7-1.6-6.2l-1.2-4.5-1.5 2.8c-.9 1.7-2 2.6-2.8 2.3-.8-.3-7.3-3.9-14.4-8-12.5-7.2-13.1-7.4-14.2-5.5zM490.6 373.6c-.4.9-.5 1.8-.3 2 .1.1 6.5 3.2 14.2 6.8 7.7 3.6 14.1 7 14.3 7.5.2.6-.2 1.9-.8 3-.6 1.2-.7 2.1-.3 2.1 2.2 0 10.3-3.5 10.3-4.5 0-.6-.7-3.3-1.6-6l-1.7-4.8-1.4 2.7c-1.7 3.3-1.4 3.4-18-4.5-6.9-3.2-12.9-5.9-13.3-5.9-.4 0-1.1.7-1.4 1.6zM830.5 376c.5 2.2.3 3-.7 3-.7 0-7.8.7-15.8 1.5s-14.8 1.5-15.2 1.5c-.5 0-.8 1-.8 2.1 0 2.1.3 2.2 8.3 1.5 27.2-2.1 24.7-2.1 24.7.2 0 3.6 1.7 3.4 4.9-.7 1.7-2.1 3.1-4.2 3.1-4.5 0-.8-7.3-7.5-8.3-7.6-.5 0-.6 1.3-.2 3zM552 375.8c0 1.5 3.1 3 14.8 7.3 14.9 5.5 15.4 5.9 13.7 10.2-.7 1.6-.1 1.5 4.6-.8 3-1.5 5.5-2.8 5.7-3 .1-.1-.9-2.6-2.2-5.6l-2.4-5.4-1.3 2.7c-.6 1.6-1.6 2.8-2 2.8-.4 0-6.9-2.3-14.4-5-7.5-2.8-14.3-5-15.1-5-.8 0-1.4.8-1.4 1.8zM769 376.8v3.2h-33v5h32.9l.3 3.1.3 3 4.3-4.3 4.2-4.4-4.5-4.4-4.5-4.4v3.2zM613.7 375.7c-.4.3-.7 1.4-.7 2.2 0 1.3 3.6 2.6 15.6 5.6l15.5 4-.6 3.4-.6 3.3 3.8-2.2c6.9-4.1 6.9-4.3 3.7-9.7l-2.8-4.8-1 2.7c-.5 1.6-1.4 2.8-1.9 2.8-.8 0-19.8-5-28.8-7.6-.8-.2-1.8-.1-2.2.3zM674.7 378.9c-.6 2.3-1.4 2 16.8 5.1 16.1 2.8 15.2 2.5 14.7 6.2l-.5 3.1 4.7-3.3c2.5-1.8 4.6-3.7 4.6-4.2 0-1.4-5.2-8.8-6.1-8.8-.5 0-.9 1.1-.9 2.5s-.6 2.5-1.2 2.5c-.7 0-7.4-1.1-14.8-2.5-16.3-3-16.6-3-17.3-.6zM247.2 432.2c-1 1 1.3 3.8 10.5 13l11.7 11.7-2.4 2.6-2.5 2.6 6-.3 6-.3.3-6 .3-6-2.3 2.2-2.4 2.3-11.4-11.5c-6.3-6.3-11.7-11.5-12-11.5-.3 0-1.1.5-1.8 1.2zM308 433.5c-.8.9-.9 1.9-.4 2.4.5.4 6.2 5.2 12.7 10.6 10.8 9 11.6 9.9 10.2 11.5-2.4 2.7-1.8 3.1 3.8 2.8l5.2-.3.3-5.8c.3-5.7-.5-7-2.8-4.2-.7.8-1.7 1.5-2.2 1.5-.5 0-6.3-4.5-12.8-10-6.5-5.5-12.1-10-12.3-10-.3 0-1 .7-1.7 1.5zM369.2 434.2c-.7.7-1.2 1.5-1.2 1.9 0 .4 5.6 4.7 12.5 9.5s12.8 9.1 13.1 9.6c.3.5-.2 2.1-1.1 3.5-1.7 2.5-1.7 2.6.6 2 1.3-.3 4.1-.9 6.2-1.3l3.9-.7-.7-5.1c-.9-6.7-1.4-7.3-3.4-4.2l-1.7 2.6-12.5-8.8c-15.6-11-14.4-10.3-15.7-9zM429.6 436.6c-.4.9-.5 1.8-.4 1.9.2.1 6.4 3.7 13.8 8s13.6 7.9 13.8 8.1c.2.1-.2 1.2-.8 2.4-.6 1.2-1 2.4-.7 2.6.6.6 9.6-1.6 10.2-2.5.5-.9-1.5-9.3-2.5-10.5-.5-.4-1.4.3-2.2 1.8l-1.3 2.5-13.7-7.9c-7.5-4.4-14.1-8-14.6-8-.6 0-1.3.7-1.6 1.6zM490.7 438.1c-.5 1.8.8 2.7 10.1 7.1 5.9 2.8 12.6 5.9 15 6.9l4.3 1.9-1.6 2.9-1.5 3 4.8-1.6c6.7-2.2 6.9-2.5 4.7-8.9l-1.9-5.5-1.5 2.9-1.6 2.9-14.5-6.8c-8-3.8-14.8-6.8-15.1-6.9-.4 0-.9.9-1.2 2.1zM830.3 439.7c.7 3.7.6 3.8-13.8 4.8-16.8 1.2-18.5 1.5-18.5 3.8 0 1.9.4 2 9.8 1.3 5.3-.4 12.7-.9 16.3-1.3l6.6-.6.7 3.3.6 3.3 3.5-4.4c1.9-2.4 3.5-4.7 3.5-5 0-.6-4.2-4.5-7.4-7-1.8-1.3-1.9-1.2-1.3 1.8zM551.7 439.9c-.4 1.7 1.4 2.6 14.2 7.2 8 2.9 15 5.5 15.4 5.9.4.4.3 1.9-.2 3.3-1 2.5-.9 2.6 1.4 1.7 3.6-1.4 8.5-4 8.5-4.5 0-1-4.5-9.5-5-9.5-.3 0-1 1.1-1.6 2.4l-.9 2.4-14.5-5.4c-8-2.9-15-5.3-15.6-5.4-.7 0-1.4.9-1.7 1.9zM613.5 439.8c-.3.3-.5 1.3-.5 2.2 0 1.3 3.2 2.5 15.3 5.7l15.2 4-.1 3.2-.2 3.1 4.9-2.7c2.7-1.4 4.9-2.9 4.9-3.3 0-.4-1.2-2.9-2.7-5.6l-2.7-4.8-1 3.1-1.1 3-15.7-4.2c-8.7-2.3-16-3.9-16.3-3.7zM769.6 442.4l-.7 2.9-9.7-.7c-5.3-.4-12.7-.9-16.4-1.3-6.4-.6-6.8-.5-6.8 1.5 0 2.4 1.5 2.8 14.5 3.7 4.4.3 10.4.8 13.3 1.2 5.3.5 5.4.6 5 3.4-.3 1.6-.2 2.9.1 2.9.3-.1 2.5-1.8 4.8-3.8l4.3-3.7-3.9-4.5-3.8-4.4-.7 2.8zM674.7 443c-.6 2.3-.7 2.3 14.8 5 18.7 3.2 17.2 2.6 16.7 6.2-.5 3.4-.3 3.4 5.6-1 1.7-1.3 3.2-2.9 3.2-3.4 0-1.3-5.3-8.8-6.2-8.8-.5 0-.8 1.1-.8 2.5 0 3.1-.1 3.1-17.6 0-7.6-1.4-14.2-2.5-14.5-2.5-.4 0-.9.9-1.2 2zM308.1 497.9c-.9 1.6.5 3.2 11.4 12.2l12.4 10.2-2.1 3-2.2 3 3.3-.6c1.9-.4 4.6-.7 6.2-.7 2.9 0 2.9-.1 2.9-6 0-6.3-.9-7.4-3.4-3.9-1.5 2.2-1.7 2-13.2-7.7-14.4-12.1-14.1-11.9-15.3-9.5zM246.1 498.4c-1 1.2 2.9 4.9 22.4 20.8l2 1.6-2.5 2.8-2.5 2.7 4.9-.7c2.7-.3 5.5-.6 6.2-.6 1 0 1.4-1.6 1.4-6 0-3.3-.3-6-.6-6s-1.4 1-2.4 2.2l-1.7 2.2-12.3-10.2c-6.7-5.6-12.5-10.2-13-10.2-.4 0-1.3.6-1.9 1.4zM368.6 499.5c-.6 1.5 2 3.7 17.7 14.5 7.3 5.1 8.9 7.1 6.7 8.5-2.4 1.5-.8 2.7 2.8 2.1 7.4-1.4 7.4-1.3 6.6-6.4-.9-6.3-1.4-6.9-3.4-4.2l-1.7 2.3-13.1-9.1c-7.2-5.1-13.5-9.2-14-9.2s-1.2.7-1.6 1.5zM430.2 500.2c-.7.7-1.2 1.5-1.2 1.9 0 .4 5.7 3.9 12.8 7.9 16.5 9.5 15.5 8.6 13.6 12.2-1.5 2.9-1.5 3 .1 2.4 1-.3 3.7-1.1 6.1-1.7 2.4-.6 4.4-1.4 4.4-1.6 0-.3-.7-3-1.6-6.1l-1.6-5.6-1.5 2.7c-.7 1.5-1.6 2.7-1.9 2.7-.2 0-5.8-3.1-12.3-6.9-16.5-9.6-15.6-9.2-16.9-7.9zM490.6 502.6c-.4.9-.5 1.8-.4 1.9.2.1 6.9 3.3 15 7l14.7 6.8-1.5 2.9c-1.5 2.9-1.5 3 .8 2.3 4.8-1.5 8.8-3.4 8.8-4.3 0-.5-.7-3-1.6-5.7-1.5-4.4-1.8-4.6-3-3-.7 1-1.5 2.2-1.6 2.7-.2.5-6.7-2-14.5-5.6-7.8-3.6-14.6-6.6-15.1-6.6-.6 0-1.3.7-1.6 1.6zM551.7 504.1c-.3 1.1 0 2.2.6 2.4 17.9 6.4 29.1 10.5 29.4 10.8.2.2-.1 1.6-.6 3.1-.6 1.4-.8 2.6-.5 2.6 1 0 10.4-4.2 10.4-4.7 0-1.3-4.4-10.3-5-10.3-.4 0-1.1 1.2-1.4 2.6-.5 1.9-1.1 2.4-2.4 1.9-4.1-1.6-29.1-10.5-29.5-10.5-.3 0-.7.9-1 2.1zM831 505.8v3.2h-16.5c-15.8 0-16.5.1-16.5 2s.7 2 16.5 2H831v6.5l4.2-4.3 4.3-4.2-4.3-4.2-4.2-4.3v3.3zM613.3 505.5c-.3.9-.3 1.8 0 2.1.2.3 7.3 2.3 15.7 4.6l15.2 4.1-.7 3.4-.6 3.3 5.1-3.1c2.7-1.7 5-3.3 5-3.5 0-.3-1.2-2.8-2.7-5.7l-2.6-5.2-1 3c-.5 1.6-1 3.1-1.1 3.2-.1.1-6.9-1.5-15.2-3.7-8.2-2.2-15.3-4-15.7-4-.4 0-1 .7-1.4 1.5zM769.5 506.9c-.6 2.9-.9 3.1-3.8 2.7-1.8-.3-6.8-.8-11.2-1.1-4.4-.3-10.4-.8-13.2-1.1-5.1-.6-5.3-.5-5.3 1.8 0 2.4.2 2.5 9.8 3.2 5.3.4 12.8.9 16.5 1.3 6.9.6 6.9.6 6.5 3.5-.3 1.5-.2 2.8.1 2.8.3 0 2.5-1.7 4.8-3.8l4.2-3.7-3.8-4.4-3.9-4.4-.7 3.2zM674.7 507.1c-.3 1.1-.2 2.1.1 2.3.4.2 7.8 1.6 16.4 3.1l15.7 2.8-.6 2.9c-.7 3.5-.1 3.5 5.2-.3l4.4-3.1-3.2-4.9c-1.8-2.7-3.5-4.9-3.9-4.9-.5 0-.8 1.4-.8 3 0 2.9-.2 3.1-3.2 2.5-30.1-5.4-29.6-5.3-30.1-3.4zM245.1 563.4c-1 1.2.6 2.7 9.1 8.7 18.3 12.8 17 11.6 15.1 14.6l-1.7 2.6 4.9-.7c2.8-.4 5.4-1.1 5.9-1.6s.5-3.4.1-6.6l-.7-5.7-2.1 2.7-2.2 2.7-13-9c-7.1-5-13.2-9.1-13.6-9.1-.4 0-1.2.6-1.8 1.4zM306.9 563.6c-.8 1-.9 1.8-.3 2.2.6.4 6.7 4.7 13.7 9.6 12.6 8.8 12.6 8.8 11 11.2-1.4 2.2-1.4 2.4.3 2.4 1.1 0 3.6-.3 5.7-.7l3.9-.6-.7-5.6c-.4-3.1-.9-5.8-1.1-6-.2-.2-1.2.7-2.2 1.9l-1.9 2.4-13.1-9.2c-7.3-5.1-13.3-9.2-13.6-9.2-.2 0-.9.7-1.7 1.6zM369 563.5c-1.6 1.9-2.3 1.3 12.5 11.5 6.6 4.6 12.2 8.5 12.4 8.7.3.2-.2 1.6-1.2 3.2l-1.6 2.7 6-.9 6-1-.6-5.1c-.8-6.1-1.9-7.6-3.5-4.6-.6 1.2-1.7 1.9-2.4 1.7-.7-.3-6.8-4.4-13.5-9.1-6.7-4.7-12.3-8.6-12.5-8.6-.2 0-.9.7-1.6 1.5zM430 565c-.9 1.7.3 2.7 11.7 9.4 7.1 4.1 13.5 7.9 14.3 8.4 1.2.8 1.2 1.2-.3 3.5-2.1 3.2-2.1 3.2 4.9 1.1 4.3-1.2 5.4-1.9 5-3.2-.3-.9-1-3.7-1.6-6.2l-1.2-4.5-1.5 2.8c-.9 1.7-2 2.6-2.8 2.3-.8-.3-7.3-3.9-14.4-8-12.2-7-13.2-7.4-14.1-5.6zM490.6 566.6c-.4.9-.5 1.8-.3 2 .1.1 6.5 3.2 14.2 6.8 7.7 3.6 14.1 7 14.3 7.5.2.6-.2 1.9-.8 3-.6 1.2-.7 2.1-.3 2.1 2.2 0 10.3-3.5 10.3-4.5 0-.6-.7-3.3-1.6-6l-1.7-4.8-1.4 2.7c-1.7 3.3-1.4 3.4-18-4.5-6.9-3.2-12.9-5.9-13.3-5.9-.4 0-1.1.7-1.4 1.6zM552 568c-.9 1.6-.7 2.2.7 2.7 1 .4 7.9 3 15.3 5.8 13.7 5.1 14.2 5.6 12.5 9.8-.7 1.6-.1 1.5 4.6-.8 3-1.5 5.5-2.8 5.7-3 .5-.4-4.1-10.5-4.8-10.5-.4 0-1.1 1.1-1.4 2.5-.4 1.4-1 2.5-1.4 2.5-.7 0-18.6-6.4-27.4-9.9-2.4-.9-2.9-.7-3.8.9zM831 569.8v3.2h-33v5h33v6.4l4-3.9c2.2-2.1 4-4.4 4-5 0-.6-1.8-2.9-4-5l-4-3.9v3.2zM613.4 569.5c-.4.9-.3 2 .2 2.4.5.4 7.6 2.6 15.7 4.7l14.8 3.9-.6 3.4-.6 3.3 3.8-2.2c6.8-4.1 6.9-4.2 3.7-10l-2.8-5.2-1 2.8c-.5 1.6-1 3-1.1 3.2-.2.3-21.7-5.1-29.8-7.4-1-.3-2 .1-2.3 1.1zM769.7 570.9c-.8 3.6 0 3.6-19.2 1.7-7.1-.7-13.3-1.1-13.7-.9-1.6.8-.8 4.3.9 4.3 2.7 0 24.4 2 28.2 2.6 3.1.5 3.3.8 2.7 3.5-.5 2.6-.3 2.8 1.2 2 .9-.5 3-2.3 4.6-4 3.2-3.3 3.2-3.2-2.2-10l-1.9-2.4-.6 3.2zM674.7 571.9c-.6 2.3-1.4 2 16.8 5.1 16 2.8 15.2 2.5 14.7 6.1l-.4 3 4.6-3.2c2.5-1.8 4.6-3.7 4.6-4.1 0-1.4-5.2-8.8-6.1-8.8-.5 0-.9 1.1-.9 2.5s-.6 2.5-1.2 2.5c-.7 0-7.4-1.1-14.8-2.5-16.3-3-16.6-3-17.3-.6zM244.7 628.7c-1.9 1.8.4 3.7 12.8 10.8 7.4 4.3 13.5 8.2 13.5 8.7s-.5 1.9-1.1 3c-1 1.9-.9 2 1.6 1.4 1.5-.4 4-1 5.6-1.3 3.2-.6 3.4-1.4 1.7-8l-1.1-4.6-1.9 2.2c-2.2 2.8-1.8 2.9-16.9-5.9-12.3-7.1-13.1-7.5-14.2-6.3zM306.2 629.7c-.9 1.4 1.1 2.9 12.6 9.5 7.4 4.3 13.8 8 14.1 8.3.3.3-.1 1.5-.8 2.6-.7 1.2-1 2.3-.8 2.5.4.4 9.7-1.5 10.5-2.2.6-.4-2.1-11.4-2.8-11.4-.4 0-1.2 1.1-1.8 2.4l-1.1 2.5-13.8-8c-7.6-4.3-14.1-7.9-14.5-7.9-.4 0-1.1.8-1.6 1.7zM368 629.5c-.7.8-1.1 1.7-.9 1.9.2.2 6.5 3.8 13.9 8.1 7.4 4.2 13.6 7.8 13.8 8 .2.2-.2 1.3-.8 2.5-.6 1.2-1 2.4-.7 2.6.7.7 9.6-1.7 10.3-2.7.5-.9-1.5-8.9-2.6-10.2-.3-.4-1.2.3-1.9 1.7l-1.3 2.4-13-7.5c-15.6-8.9-15.2-8.8-16.8-6.8zM429.6 629.6c-.4.9-.5 1.8-.4 2 .2.1 6.4 3.7 13.8 7.9 7.4 4.3 13.7 7.9 13.9 8.1.2.2-.4 1.5-1.3 2.9-1.9 3-1.2 3.1 5.4 1.1 2.5-.7 4.5-1.7 4.5-2.2-.1-2.9-1.8-9.5-2.5-9.9-.5-.3-1.4.4-2 1.5-.6 1.1-1.5 2-1.9 2-.5 0-6.8-3.4-14-7.5-7.1-4.1-13.4-7.5-14-7.5-.5 0-1.2.7-1.5 1.6zM490.7 631c-.4 1.7.7 2.6 7.1 5.6 4.3 2 11 5.2 15 7l7.2 3.5-1.5 2.9-1.5 3 5.2-2.1c2.9-1.1 5.5-2.3 5.7-2.5.3-.3-.4-3-1.4-6l-1.9-5.5-1.5 2.9-1.6 2.9-14.5-6.8c-8-3.8-14.8-6.8-15.1-6.9-.4 0-.9.9-1.2 2zM551.7 632.9c-.4 1.7 1.4 2.6 14.2 7.2 8 2.9 15 5.5 15.4 5.9.4.4.3 1.9-.2 3.3-1 2.5-.9 2.6 1.4 1.7 3.6-1.4 8.5-4 8.5-4.5 0-1-4.5-9.5-5-9.5-.3 0-1 1.1-1.6 2.4l-.9 2.4-14.5-5.4c-8-2.9-15-5.3-15.6-5.4-.7 0-1.4.9-1.7 1.9zM831 633.8v3.2h-33v5h33v6.4l4-3.9c2.2-2.1 4-4.4 4-5 0-.6-1.8-2.9-4-5l-4-3.9v3.2zM613.6 632.8c-.3.3-.6 1.3-.6 2.2 0 1.3 3.2 2.5 15.3 5.7l15.2 4-.1 3.2-.2 3.1 4.9-2.7c2.7-1.4 4.9-2.9 4.9-3.3 0-.4-1.2-2.9-2.7-5.6l-2.7-4.9-.9 3.2-.9 3.1-6.7-1.8c-21.3-5.9-25-6.8-25.5-6.2zM769.6 635.4l-.7 2.9-8.2-.7c-27.2-2.1-24.7-2.1-24.7.3 0 1.1.3 2.1.8 2.1.4 0 7.2.7 15.2 1.5 8 .8 15.1 1.5 15.9 1.5.9 0 1.2.9.9 3-.3 1.6-.2 3 .1 3 .3-.1 2.5-1.8 4.8-3.8l4.3-3.7-3.9-4.5-3.8-4.4-.7 2.8zM674.7 636c-.6 2.3-.7 2.3 14.8 5 18.7 3.2 17.2 2.6 16.7 6.2-.5 3.4-.3 3.4 5.6-1 1.7-1.3 3.2-2.9 3.2-3.4 0-1.3-5.3-8.8-6.2-8.8-.5 0-.8 1.1-.8 2.5 0 3.1-.1 3.1-17.6 0-7.6-1.4-14.2-2.5-14.5-2.5-.4 0-.9.9-1.2 2zM243.5 695.1c-.4 1.1-.5 2.2-.3 2.4.1.2 6.4 3.1 13.8 6.5s13.9 6.5 14.3 6.9c.4.4.3 2-.3 3.5-.9 2.5-.8 2.7 1.2 2 4.6-1.4 8.8-3.5 8.8-4.2 0-.5-.7-3-1.6-5.7-1.5-4.4-1.8-4.6-3-3-.7 1-1.5 2.2-1.6 2.7-.2.6-5.7-1.6-12.3-4.7-19.2-9.1-18.3-8.8-19-6.4zM305.5 695.1c-.4 1.1-.5 2.2-.3 2.4.1.2 6.4 3.1 13.8 6.6 7.4 3.4 13.9 6.5 14.3 6.9.5.4.4 1.8-.3 3-.6 1.2-1 2.3-.8 2.6.7.6 10.3-3.3 10.3-4.2 0-2.2-2.9-10.4-3.6-10.4-.5 0-.9.6-.9 1.2-.1 4-1.7 4-9.6.3-23.8-11.2-22.2-10.6-22.9-8.4zM367.5 695.2c-.4 1.1-.5 2.1-.3 2.3.2.2 6.6 3.3 14.3 6.9 7.7 3.7 13.9 7.2 13.9 7.9-.1.6-.5 2-.9 2.9-.6 1.6-.3 1.6 4.7-.1 5.9-2 6.1-2.7 3.2-9.6l-1.6-3.9-1.4 2.7c-.8 1.5-1.7 2.7-2 2.7-.2 0-2.8-1.2-5.7-2.6-2.9-1.5-9.3-4.6-14.4-7-8.8-4-9.2-4.1-9.8-2.2zM428.9 695.1c-.6 1.2-.9 2.2-.7 2.3.2.1 6.9 3.3 15 7l14.7 6.9-1.5 2.8c-.8 1.6-1.3 2.9-1.1 2.9.4 0 6.1-1.9 10.4-3.5 1-.3.9-1.4-.2-4.7-2.7-7.7-2.5-7.5-4.2-4.5-.8 1.6-2 2.6-2.6 2.4-.7-.3-7.4-3.5-14.9-7.1-13.3-6.3-13.8-6.4-14.9-4.5zM490.9 695.2c-.6 1.1-.9 2.1-.7 2.2.2.2 6.9 3.4 15 7.1l14.7 6.8-1.5 2.9c-1.5 2.9-1.5 3 .8 2.3 4.8-1.5 8.8-3.4 8.8-4.3 0-.5-.7-3-1.6-5.7-1.5-4.4-1.8-4.6-3-3-.7 1-1.5 2.2-1.6 2.7-.2.5-7-2.2-15.1-6.1-14.1-6.7-14.7-6.9-15.8-4.9zM551.7 697.1c-.3 1.1 0 2.2.6 2.4 17.9 6.4 29.1 10.5 29.4 10.8.2.2-.1 1.6-.6 3.1-.6 1.4-.8 2.6-.5 2.6 1 0 10.4-4.2 10.4-4.7 0-1.3-4.4-10.3-5-10.3-.4 0-1.1 1.2-1.4 2.6-.5 1.9-1.1 2.4-2.4 1.9-4.1-1.6-29.1-10.5-29.5-10.5-.3 0-.7.9-1 2.1zM831 698.8v3.2h-16.5c-15.8 0-16.5.1-16.5 2s.7 2 16.5 2H831v6.5l4.2-4.3 4.3-4.2-4.3-4.2-4.2-4.3v3.3zM613.3 698.5c-.3.9-.3 1.8-.1 2.1.5.4 8.6 2.7 27.2 7.5 3.5 1 3.8 1.2 3.2 4-.3 1.6-.3 2.9 0 2.9.8 0 9.4-5.1 9.4-5.6 0-.3-1.2-2.8-2.7-5.7l-2.6-5.2-1 3c-.5 1.6-1 3.1-1.1 3.2-.1.1-6.9-1.5-15.2-3.7-8.2-2.2-15.3-4-15.7-4-.4 0-1 .7-1.4 1.5zM769.5 699.8c-.6 3-.9 3.2-3.8 2.8-1.8-.3-6.8-.8-11.2-1.1-4.4-.3-10.4-.8-13.2-1.1-5.1-.6-5.3-.5-5.3 1.8 0 2.4.2 2.5 9.8 3.2 5.3.4 12.8.9 16.5 1.3 6.9.6 6.9.6 6.5 3.5-.3 1.5-.2 2.8.1 2.8.3 0 2.5-1.7 4.8-3.8l4.3-3.7-3.9-4.5-3.9-4.4-.7 3.2zM674.7 700.1c-.3 1.1-.2 2.1.1 2.3.4.2 7.8 1.6 16.4 3.1l15.7 2.8-.6 2.9c-.7 3.5-.1 3.5 5.2-.3l4.4-3.1-3.2-4.9c-1.8-2.7-3.5-4.9-3.9-4.9-.5 0-.8 1.4-.8 3 0 2.9-.2 3.1-3.2 2.5-30.1-5.4-29.6-5.3-30.1-3.4zM429.1 759.9c-.9 1.6.5 2.5 13.9 8.6 14.5 6.6 14.8 6.9 13.9 9.3-.5 1.4-.8 2.6-.6 2.8.5.5 9.6-2.6 10.1-3.4.2-.4-.5-3.1-1.6-6.1l-2.1-5.4-1.4 2.6c-.7 1.5-1.6 2.7-1.9 2.7-.3 0-6.8-2.9-14.6-6.5-7.7-3.6-14.1-6.5-14.3-6.5-.3 0-.9.8-1.4 1.9zM304.7 761.1c-.4 1.3-.5 2.4-.4 2.4.1.1 7.1 2.6 15.4 5.6 16.3 5.7 15.6 5.2 13.5 10.7-.3.9 1.6.3 4.9-1.3 3-1.5 5.5-2.9 5.7-3 .2-.2-.9-2.7-2.4-5.7-2.7-5.3-2.7-5.3-3.6-2.6-.5 1.6-1.3 2.8-1.8 2.8-.6 0-21.8-7.6-29.1-10.5-1.2-.4-1.8.1-2.2 1.6zM366.5 761.1c-.4 1.1-.5 2.2-.3 2.3.1.1 7 2.7 15.1 5.6l14.9 5.3-.6 2.9c-.3 1.6-.1 2.8.5 2.8 2 0 8.9-4.1 8.9-5.3 0-.6-1-3.2-2.2-5.7l-2.1-4.5-1 2.7c-.6 1.6-1.4 2.8-1.8 2.8-.5 0-5.2-1.6-10.6-3.6-21.4-7.9-20.1-7.5-20.8-5.3zM490.6 759.7c-.3.4-.6 1.4-.6 2.3 0 1.2 3.9 3 15 6.9 8.3 3 15 5.7 15 6.2 0 .4-.4 1.9-1 3.3l-.9 2.5 5.4-2.6c3-1.5 5.5-3.2 5.5-3.8-.1-.5-1.2-3-2.5-5.5l-2.3-4.5-1.1 2.7c-.6 1.6-1.5 2.8-2 2.8s-4-1.2-7.7-2.6c-17.9-6.8-22.2-8.2-22.8-7.7zM552 761c-1.3 2.4-1.5 2.2 16.3 8.5 14.6 5.2 14 4.7 11.9 10.3-.3.9 1.6.3 4.9-1.3 3-1.5 5.5-2.8 5.7-3 .5-.4-4.1-10.5-4.8-10.5-.4 0-1.1 1.1-1.4 2.5-.4 1.4-1 2.5-1.4 2.5-.7 0-18.6-6.4-27.4-9.9-2.3-.9-2.9-.7-3.8.9zM831 761.8v3.2h-33v5h33v6.4l4-3.9c2.2-2.1 4-4.4 4-5 0-.6-1.8-2.9-4-5l-4-3.9v3.2zM242.8 761.8c-.4 1.5 1.9 2.7 14.6 7.3 15.3 5.6 15.8 5.9 14.1 10.2-.7 1.6-.3 1.5 4.1-.4 2.7-1.1 5.3-2.4 5.7-2.8.4-.4-.3-3.2-1.7-6.1l-2.5-5.3-1.2 2.6c-.7 1.5-1.6 2.7-2 2.7-.4 0-6.9-2.3-14.4-5-7.5-2.8-14.3-5-15-5-.7 0-1.5.8-1.7 1.8zM613.4 762.5c-.4.9-.3 2 .2 2.4.5.4 7.6 2.6 15.7 4.7l14.8 3.9-.6 3.4-.6 3.3 3.8-2.2c6.8-4.1 6.9-4.2 3.7-10l-2.8-5.2-1 2.8c-.5 1.6-1 3-1.1 3.2-.2.3-21.7-5.1-29.8-7.4-1-.3-2 .1-2.3 1.1zM769.7 763.9c-.8 3.6 0 3.6-19.2 1.7-7.1-.7-13.3-1.1-13.7-.9-.5.2-.8 1.3-.8 2.4 0 1.5.7 1.9 3.3 2 1.7 0 9.1.6 16.2 1.2l13 1.2-.1 3.2-.2 3.3 2.7-1.9c1.4-1 3.4-2.8 4.5-4 2-2.2 1.9-2.6-3.2-9l-1.9-2.4-.6 3.2zM674.7 764.9c-.6 2.3-1.4 2 16.8 5.1 16 2.8 15.2 2.5 14.7 6.1l-.4 3 4.6-3.2c2.5-1.8 4.6-3.7 4.6-4.1 0-1.4-5.2-8.8-6.1-8.8-.5 0-.9 1.1-.9 2.5s-.6 2.5-1.2 2.5c-.7 0-7.4-1.1-14.8-2.5-16.3-3-16.6-3-17.3-.6zM490.7 824.7c-2 1.9.6 3.6 13.6 8.3 7.8 2.9 14.6 5.6 15 6 .4.4.3 1.9-.2 3.3-.6 1.5-.8 2.7-.5 2.7 1.2 0 10.4-5.1 10.3-5.8 0-.4-1.1-3-2.4-5.7l-2.3-5-1.1 3.1-1.2 3.1-14.5-5.3c-15.3-5.7-15.7-5.8-16.7-4.7zM831 826.8v3.2h-33v5h33v6.4l4-3.9c2.2-2.1 4-4.4 4-5 0-.6-1.8-2.9-4-5l-4-3.9v3.2zM242.5 827.1c-.4 1.1-.5 2.2-.3 2.4.1.1 6.6 1.9 14.3 4 7.7 2 14.8 3.8 15.7 4.1 1.4.4 1.5 1 .7 3.1-.5 1.4-.8 2.8-.5 3 .5.6 9.6-5 9.6-6s-2.9-6.8-4.3-8.6c-.9-1-1.3-.7-2.2 1.6l-1 3-15.5-4.3c-8.5-2.4-15.6-4.3-15.7-4.4-.1 0-.5.9-.8 2.1zM304.6 825.8c-.3.3-.6 1.3-.6 2.2 0 1.3 3.2 2.5 15.3 5.7l15.2 4-.1 3.2-.2 3.1 4.9-2.7c2.7-1.6 4.9-3.2 4.9-3.6 0-.5-1.2-2.9-2.6-5.4-2.7-4.4-4.3-4.5-4.4-.1 0 1.6-.5 1.5-6.7-.2-21.5-5.9-25.2-6.8-25.7-6.2zM366.6 825.7c-.3.4-.6 1.4-.6 2.3 0 1.3 2.7 2.4 12.3 4.9 19.8 5.2 18.9 4.8 18.2 8.3l-.7 3 5.1-2.8c2.8-1.6 5.1-3.2 5.1-3.5 0-.4-1.2-2.8-2.7-5.5l-2.8-4.9-.9 2.7c-.6 1.6-1.6 2.8-2.4 2.8-1.2 0-24.4-6-28.9-7.5-.6-.2-1.4-.1-1.7.2zM427.8 827.3c-.4 2.2.2 2.5 10.1 5.1 22.1 5.7 21.1 5.3 20.4 8.8-.7 3.4-1 3.5 6-.9l3.8-2.4-2.7-4.9c-2.6-4.8-4.4-5.7-4.4-2.1 0 1-.2 2-.5 2.3-.3.3-7.6-1.4-16.3-3.8l-15.8-4.4c-.1 0-.4 1-.6 2.3zM551.5 827.1c-.4 1.1-.5 2.2-.3 2.4.1.1 6.6 1.9 14.3 3.9 7.7 2 14.8 3.9 15.7 4.2 1.4.4 1.5 1 .7 3.1-.5 1.4-.8 2.8-.5 3 .2.2 2.7-1 5.5-2.7 5.6-3.5 5.6-2.3.4-10.7l-1.6-2.7-1.1 3-1.1 3.1-15.5-4.3c-8.5-2.4-15.6-4.3-15.7-4.4-.1 0-.5.9-.8 2.1zM613.6 825.8c-.3.3-.6 1.3-.6 2.2 0 1.3 3.2 2.5 15.3 5.7l15.2 4-.1 3.2-.2 3.1 4.9-2.7c2.7-1.6 4.9-3.2 4.9-3.7s-1.2-3-2.7-5.5l-2.7-4.6-.9 3.2-.9 3.1-6.7-1.8c-21.3-5.9-25-6.8-25.5-6.2zM769.6 828.4l-.7 2.9-8.2-.7c-27.2-2.1-24.7-2.1-24.7.3 0 1.1.3 2.1.8 2.1.4 0 7.2.7 15.2 1.5 8 .8 15.1 1.5 15.9 1.5.9 0 1.2.9.9 3-.3 1.6-.2 3 .1 3 .3-.1 2.5-1.8 4.8-3.8l4.3-3.7-3.9-4.5-3.8-4.4-.7 2.8zM674.7 829c-.6 2.3-.7 2.3 14.8 5 18.7 3.2 17.2 2.6 16.7 6.2l-.5 3.1 4.7-3.2c2.5-1.8 4.6-3.7 4.6-4.2 0-1.4-5.3-8.9-6.2-8.9-.5 0-.8 1.1-.8 2.5 0 3.1-.1 3.1-17.6 0-7.6-1.4-14.2-2.5-14.5-2.5-.4 0-.9.9-1.2 2z"/></svg>