<svg xmlns="http://www.w3.org/2000/svg" width="1440" height="1440" version="1.0" viewBox="0 0 1080 1080"><path d="M251.7 245.6c-.4.4-.7 2-.7 3.4 0 2.6-.3 2.8-5.1 3.2-5.6.6-9.2 2.8-12.7 7.9-2 2.9-2.3 4.4-2 10.4.5 10.6 5.4 15.8 15.9 17.2l3.9.6v11.4l-5.1.5c-5.6.6-9.2 2.8-12.7 7.9-2 2.9-2.3 4.4-2 10.4.5 10.6 5.4 15.8 15.9 17.2l3.9.6v13.4l-5.1.5c-5.6.6-9.2 2.8-12.7 7.9-2 2.9-2.3 4.4-2 10.4.5 10.6 5.4 15.8 15.9 17.2l3.9.6v11.4l-5.1.5c-5.6.6-9.2 2.8-12.7 7.9-2 2.9-2.3 4.4-2 10.4.5 10.6 5.4 15.8 15.9 17.2l3.9.6v13.4l-5.1.5c-5.6.6-9.2 2.8-12.7 7.9-2 2.9-2.3 4.4-2 10.4.5 10.6 5.4 15.8 15.9 17.2l3.9.6v11.4l-5.1.5c-5.6.6-9.2 2.8-12.7 7.9-2 2.9-2.3 4.4-2 10.4.5 10.6 5.4 15.8 15.9 17.2l3.9.6v12.4l-5.1.5c-5.6.6-9.2 2.8-12.7 7.9-2 2.9-2.3 4.4-2 10.4.5 10.6 5.4 15.8 15.9 17.2l3.9.6v12.4l-5.1.5c-5.6.6-9.2 2.8-12.7 7.9-2 2.9-2.3 4.4-2 10.4.5 10.6 5.4 15.8 15.9 17.2l3.9.6v12.4l-5.1.5c-5.6.6-9.2 2.8-12.7 7.9-2 2.9-2.3 4.4-2 10.4.5 10.6 5.4 15.8 15.9 17.2l3.9.6v11.4l-5.1.5c-5.6.6-9.2 2.8-12.7 7.9-2 2.9-2.3 4.4-2 10.4.5 10.6 5.4 15.8 15.9 17.2l3.9.6v13.4l-5.1.5c-5.6.6-9.2 2.8-12.7 7.9-2 2.9-2.3 4.4-2 10.4.5 10.6 5.4 15.8 15.9 17.2l3.9.6v11.4l-5.1.5c-5.6.6-9.2 2.8-12.7 7.9-2 2.9-2.3 4.4-2 10.4.5 10.5 5.4 15.8 15.9 17.2 3.5.5 3.8.8 4.1 4.2.3 3.3.6 3.6 3.3 3.6 2.7 0 3-.3 3.3-3.7.3-3.4.6-3.8 3-3.8 1.5 0 5-1.1 7.9-2.4 6.6-3.1 9.3-7.8 9.3-16.4 0-9.6-5.7-16.1-14.9-17l-5.1-.5v-5.8c0-5.8.1-5.9 2.8-5.9 1.5 0 5-1.1 7.9-2.4 6.6-3.1 9.3-7.8 9.3-16.4 0-9.6-5.7-16.1-14.9-17l-5.1-.5v-6.8c0-6.9 0-6.9 2.8-6.9 1.5 0 5-1.1 7.9-2.4 6.6-3.1 9.3-7.8 9.3-16.4 0-9.6-5.7-16.1-14.9-17l-5.1-.5v-5.8c0-5.8.1-5.9 2.8-5.9 1.5 0 5-1.1 7.9-2.4 6.6-3.1 9.3-7.8 9.3-16.4 0-9.6-5.7-16.1-14.9-17l-5.1-.5v-6.3c0-6.3 0-6.4 2.8-6.4 1.5 0 5-1.1 7.9-2.4 6.6-3.1 9.3-7.8 9.3-16.4 0-9.6-5.7-16.1-14.9-17l-5.1-.5v-6.3c0-6.3 0-6.4 2.8-6.4 1.5 0 5-1.1 7.9-2.4 6.6-3.1 9.3-7.8 9.3-16.4 0-9.6-5.7-16.1-14.9-17l-5.1-.5v-6.3c0-6.3 0-6.4 2.8-6.4 1.5 0 5-1.1 7.9-2.4 6.6-3.1 9.3-7.8 9.3-16.4 0-9.6-5.7-16.1-14.9-17l-5.1-.5v-5.8c0-5.8.1-5.9 2.8-5.9 1.5 0 5-1.1 7.9-2.4 6.6-3.1 9.3-7.8 9.3-16.4 0-9.6-5.7-16.1-14.9-17l-5.1-.5v-6.8c0-6.9 0-6.9 2.8-6.9 1.5 0 5-1.1 7.9-2.4 6.6-3.1 9.3-7.8 9.3-16.4 0-9.6-5.7-16.1-14.9-17l-5.1-.5v-5.8c0-5.8.1-5.9 2.8-5.9 1.5 0 5-1.1 7.9-2.4 6.6-3.1 9.3-7.8 9.3-16.4 0-9.6-5.7-16.1-14.9-17l-5.1-.5v-6.8c0-6.9 0-6.9 2.8-6.9 1.5 0 5-1.1 7.9-2.4 6.6-3.1 9.3-7.8 9.3-16.4 0-9.6-5.7-16.1-14.9-17l-5.1-.5v-5.8c0-5.8.1-5.9 2.8-5.9 1.5 0 5-1.1 7.9-2.4 6.6-3.1 9.3-7.8 9.3-16.4 0-9.6-5.7-16.1-14.9-17-4.7-.4-5-.6-5.3-3.6-.2-2.5-.8-3.2-2.8-3.4-1.4-.2-2.9 0-3.3.4zM251 270c0 12.5-.1 13-2.1 13-3.5 0-8.4-2.9-10.2-5.9-1.9-3.3-2.3-11.2-.6-14.2 1.4-2.8 6.8-5.9 10.2-5.9h2.7v13zm15.8-11c3.7 2.3 5.2 5.4 5.2 10.8 0 6.6-4.1 11.5-10.7 12.8l-3.3.6V257h2.8c1.5 0 4.2.9 6 2zM251 318c0 12.5-.1 13-2.1 13-3.5 0-8.4-2.9-10.2-5.9-1.9-3.3-2.3-11.2-.6-14.2 1.4-2.8 6.8-5.9 10.2-5.9h2.7v13zm15.8-11c3.7 2.3 5.2 5.4 5.2 10.8 0 6.6-4.1 11.5-10.7 12.8l-3.3.6V305h2.8c1.5 0 4.2.9 6 2zM251 368c0 12.5-.1 13-2.1 13-3.5 0-8.4-2.9-10.2-5.9-1.9-3.3-2.3-11.2-.6-14.2 1.4-2.8 6.8-5.9 10.2-5.9h2.7v13zm15.8-11c3.7 2.3 5.2 5.4 5.2 10.8 0 6.6-4.1 11.5-10.7 12.8l-3.3.6V355h2.8c1.5 0 4.2.9 6 2zM251 416c0 12.5-.1 13-2.1 13-3.5 0-8.4-2.9-10.2-5.9-1.9-3.3-2.3-11.2-.6-14.2 1.4-2.8 6.8-5.9 10.2-5.9h2.7v13zm15.8-11c3.7 2.3 5.2 5.4 5.2 10.8 0 6.6-4.1 11.5-10.7 12.8l-3.3.6V403h2.8c1.5 0 4.2.9 6 2zM251 466c0 12.5-.1 13-2.1 13-3.5 0-8.4-2.9-10.2-5.9-1.9-3.3-2.3-11.2-.6-14.2 1.4-2.8 6.8-5.9 10.2-5.9h2.7v13zm15.8-11c3.7 2.3 5.2 5.4 5.2 10.8 0 6.6-4.1 11.5-10.7 12.8l-3.3.6V453h2.8c1.5 0 4.2.9 6 2zM251 514c0 12.5-.1 13-2.1 13-3.5 0-8.4-2.9-10.2-5.9-1.9-3.3-2.3-11.2-.6-14.2 1.4-2.8 6.8-5.9 10.2-5.9h2.7v13zm15.8-11c3.7 2.3 5.2 5.4 5.2 10.8 0 6.6-4.1 11.5-10.7 12.8l-3.3.6V501h2.8c1.5 0 4.2.9 6 2zM251 563c0 12.5-.1 13-2.1 13-3.5 0-8.4-2.9-10.2-5.9-1.9-3.3-2.3-11.2-.6-14.2 1.4-2.8 6.8-5.9 10.2-5.9h2.7v13zm15.8-11c3.7 2.3 5.2 5.4 5.2 10.8 0 6.6-4.1 11.5-10.7 12.8l-3.3.6V550h2.8c1.5 0 4.2.9 6 2zM251 612c0 12.5-.1 13-2.1 13-3.5 0-8.4-2.9-10.2-5.9-1.9-3.3-2.3-11.2-.6-14.2 1.4-2.8 6.8-5.9 10.2-5.9h2.7v13zm15.8-11c3.7 2.3 5.2 5.4 5.2 10.8 0 6.6-4.1 11.5-10.7 12.8l-3.3.6V599h2.8c1.5 0 4.2.9 6 2zM251 661c0 12.5-.1 13-2.1 13-3.5 0-8.4-2.9-10.2-5.9-1.9-3.3-2.3-11.2-.6-14.2 1.4-2.8 6.8-5.9 10.2-5.9h2.7v13zm15.8-11c3.7 2.3 5.2 5.4 5.2 10.8 0 6.6-4.1 11.5-10.7 12.8l-3.3.6V648h2.8c1.5 0 4.2.9 6 2zM251 709c0 12.5-.1 13-2.1 13-3.5 0-8.4-2.9-10.2-5.9-1.9-3.3-2.3-11.2-.6-14.2 1.4-2.8 6.8-5.9 10.2-5.9h2.7v13zm15.8-11c3.7 2.3 5.2 5.4 5.2 10.8 0 6.6-4.1 11.5-10.7 12.8l-3.3.6V696h2.8c1.5 0 4.2.9 6 2zM251 759c0 12.5-.1 13-2.1 13-3.5 0-8.4-2.9-10.2-5.9-1.9-3.3-2.3-11.2-.6-14.2 1.4-2.8 6.8-5.9 10.2-5.9h2.7v13zm15.8-11c3.7 2.3 5.2 5.4 5.2 10.8 0 6.6-4.1 11.5-10.7 12.8l-3.3.6V746h2.8c1.5 0 4.2.9 6 2zM251 807c0 12.5-.1 13-2.1 13-3.5 0-8.4-2.9-10.2-5.9-1.9-3.3-2.3-11.2-.6-14.2 1.4-2.8 6.8-5.9 10.2-5.9h2.7v13zm15.8-11c3.7 2.3 5.2 5.4 5.2 10.8 0 6.6-4.1 11.5-10.7 12.8l-3.3.6V794h2.8c1.5 0 4.2.9 6 2zM308.8 296.2c-.3 3.1-.6 3.3-5.1 4-6.7.9-10.8 3.6-13.5 8.8-1.9 3.7-2.3 5.6-1.9 10.4.8 9.2 6.5 15 15.9 16.2l4.9.7-.3 6.6-.3 6.6-4.8.7c-6.7.9-10.8 3.6-13.5 8.8-1.9 3.7-2.3 5.6-1.9 10.4.8 9.2 6.5 15 15.9 16.2l4.9.7-.3 5.6-.3 5.6-4.8.7c-6.7.9-10.8 3.6-13.5 8.8-1.9 3.7-2.3 5.6-1.9 10.4.8 9.2 6.5 15 15.9 16.2l4.9.7-.3 6.6-.3 6.6-4.8.7c-6.7.9-10.8 3.6-13.5 8.8-1.9 3.7-2.3 5.6-1.9 10.4.8 9.2 6.5 15 15.9 16.2l4.9.7-.3 5.6-.3 5.6-4.8.7c-6.7.9-10.8 3.6-13.5 8.8-1.9 3.7-2.3 5.6-1.9 10.4.8 9.2 6.5 15 15.9 16.2l4.9.7-.3 6.1-.3 6.1-4.8.7c-6.7.9-10.8 3.6-13.5 8.8-1.9 3.7-2.3 5.6-1.9 10.4.8 9.2 6.5 15 15.9 16.2l4.9.7-.3 6.1-.3 6.1-4.8.7c-6.7.9-10.8 3.6-13.5 8.8-1.9 3.7-2.3 5.6-1.9 10.4.8 9.2 6.5 15 15.9 16.2l4.9.7-.3 6.1-.3 6.1-4.8.7c-6.7.9-10.8 3.6-13.5 8.8-1.9 3.7-2.3 5.6-1.9 10.4.8 9.2 6.5 15 15.9 16.2l4.9.7-.3 5.6-.3 5.6-4.8.7c-6.7.9-10.8 3.6-13.5 8.8-1.9 3.7-2.3 5.6-1.9 10.4.8 9.2 6.5 15 15.9 16.2l4.9.7-.3 6.6-.3 6.6-4.8.7c-6.7.9-10.8 3.6-13.5 8.8-1.9 3.7-2.3 5.6-1.9 10.4.8 9.2 6.5 15 15.8 16.2l4.9.7v3.8c0 3.7.2 3.9 3 3.9s3-.2 3-3.9v-3.8l4.9-.7c6.4-.8 11.1-4.1 13.9-9.6 4.5-9 1.5-19.6-6.8-23.7-2.4-1.3-6.1-2.3-8.2-2.3H315v-13.7l4.9-.7c6.4-.8 11.1-4.1 13.9-9.6 4.5-9 1.5-19.6-6.8-23.7-2.4-1.3-6.1-2.3-8.2-2.3H315v-11.7l4.9-.7c6.4-.8 11.1-4.1 13.9-9.6 4.5-9 1.5-19.6-6.8-23.8-2.4-1.2-6.1-2.2-8.2-2.2H315v-12.7l4.9-.7c6.4-.8 11.1-4.1 13.9-9.6 4.5-9 1.5-19.6-6.8-23.8-2.4-1.2-6.1-2.2-8.2-2.2H315v-12.7l4.9-.7c6.4-.8 11.1-4.1 13.9-9.6 4.5-9 1.5-19.6-6.8-23.8-2.4-1.2-6.1-2.2-8.2-2.2H315v-12.7l4.9-.7c6.4-.8 11.1-4.1 13.9-9.6 4.5-9 1.5-19.6-6.8-23.8-2.4-1.2-6.1-2.2-8.2-2.2H315v-11.7l4.9-.7c6.4-.8 11.1-4.1 13.9-9.6 4.5-9 1.5-19.6-6.8-23.8-2.4-1.2-6.1-2.2-8.2-2.2H315v-13.7l4.9-.7c6.4-.8 11.1-4.1 13.9-9.6 4.5-9 1.5-19.6-6.8-23.8-2.4-1.2-6.1-2.2-8.2-2.2H315v-11.7l4.9-.7c6.4-.8 11.1-4.1 13.9-9.6 4.5-9 1.5-19.6-6.8-23.8-2.4-1.2-6.1-2.2-8.2-2.2H315v-13.7l4.9-.7c6.4-.8 11.1-4.1 13.9-9.6 4.5-9 1.5-19.6-6.8-23.8-2.4-1.2-6.1-2.2-8.2-2.2-3.7 0-3.8-.1-3.8-3.5 0-3.2-.2-3.5-2.9-3.5-2.6 0-3 .4-3.3 3.2zm.2 21.9v13.2l-3.6-.6c-5-.8-8.3-3.2-10-7.2-3.8-9.3 1.5-18.4 10.9-18.5h2.7v13.1zm14.5-11.6c4.2 2 6 5.6 5.9 11.6-.1 5.7-2.4 9.6-6.9 11.5-7.4 3.1-7.5 3-7.5-11.6v-13h2.6c1.4 0 4.1.7 5.9 1.5zM309 368.1v13.2l-3.6-.6c-5-.8-8.3-3.2-10-7.2-3.8-9.3 1.5-18.4 10.9-18.5h2.7v13.1zm14.5-11.6c4.2 2 6 5.6 5.9 11.6-.1 5.7-2.4 9.6-6.9 11.5-7.4 3.1-7.5 3-7.5-11.6v-13h2.6c1.4 0 4.1.7 5.9 1.5zM309 416.1v13.2l-3.6-.6c-5-.8-8.3-3.2-10-7.2-3.8-9.3 1.5-18.4 10.9-18.5h2.7v13.1zm14.5-11.6c4.2 2 6 5.6 5.9 11.6-.1 5.7-2.4 9.6-6.9 11.5-7.4 3.1-7.5 3-7.5-11.6v-13h2.6c1.4 0 4.1.7 5.9 1.5zM309 466.1v13.2l-3.6-.6c-5-.8-8.3-3.2-10-7.2-3.8-9.3 1.5-18.4 10.9-18.5h2.7v13.1zm14.5-11.6c4.2 2 6 5.6 5.9 11.6-.1 5.7-2.4 9.6-6.9 11.5-7.4 3.1-7.5 3-7.5-11.6v-13h2.6c1.4 0 4.1.7 5.9 1.5zM309 514.1v13.2l-3.6-.6c-5-.8-8.3-3.2-10-7.2-3.8-9.3 1.5-18.4 10.9-18.5h2.7v13.1zm14.5-11.6c4.2 2 6 5.6 5.9 11.6-.1 5.7-2.4 9.6-6.9 11.5-7.4 3.1-7.5 3-7.5-11.6v-13h2.6c1.4 0 4.1.7 5.9 1.5zM309 563.1v13.2l-3.6-.6c-5-.8-8.3-3.2-10-7.2-3.8-9.3 1.5-18.4 10.9-18.5h2.7v13.1zm14.5-11.6c4.2 2 6 5.6 5.9 11.6-.1 5.7-2.4 9.6-6.9 11.5-7.4 3.1-7.5 3-7.5-11.6v-13h2.6c1.4 0 4.1.7 5.9 1.5zM309 612.1v13.2l-3.6-.6c-5-.8-8.3-3.2-10-7.2-3.8-9.3 1.5-18.4 10.9-18.5h2.7v13.1zm14.5-11.6c4.2 2 6 5.6 5.9 11.6-.1 5.7-2.4 9.6-6.9 11.5-7.4 3.1-7.5 3-7.5-11.6v-13h2.6c1.4 0 4.1.7 5.9 1.5zM309 661.1v13.2l-3.6-.6c-5-.8-8.3-3.2-10-7.2-3.8-9.3 1.5-18.4 10.9-18.5h2.7v13.1zm14.5-11.6c4.2 2 6 5.6 5.9 11.6-.1 5.7-2.4 9.6-6.9 11.5-7.4 3.1-7.5 3-7.5-11.6v-13h2.6c1.4 0 4.1.7 5.9 1.5zM309 709.1v13.2l-3.6-.6c-5-.8-8.3-3.2-10-7.2-3.8-9.3 1.5-18.4 10.9-18.5h2.7v13.1zm14.5-11.6c4.2 2 6 5.6 5.9 11.6-.1 5.7-2.4 9.6-6.9 11.5-7.4 3.1-7.5 3-7.5-11.6v-13h2.6c1.4 0 4.1.7 5.9 1.5zM309 759.1v13.2l-3.6-.6c-5-.8-8.3-3.2-10-7.2-3.8-9.3 1.5-18.4 10.9-18.5h2.7v13.1zm14.5-11.6c4.2 2 6 5.6 5.9 11.6-.1 5.7-2.4 9.6-6.9 11.5-7.4 3.1-7.5 3-7.5-11.6v-13h2.6c1.4 0 4.1.7 5.9 1.5zM593.8 296.2c-.3 3.1-.6 3.3-5.1 4-6.7.9-10.8 3.6-13.5 8.8-1.9 3.7-2.3 5.6-1.9 10.4.8 9.2 6.5 15 15.9 16.2l4.9.7-.3 6.6-.3 6.6-4.8.7c-6.7.9-10.8 3.6-13.5 8.8-1.9 3.7-2.3 5.6-1.9 10.4.8 9.2 6.5 15 15.9 16.2l4.9.7-.3 5.6-.3 5.6-4.8.7c-6.7.9-10.8 3.6-13.5 8.8-1.9 3.7-2.3 5.6-1.9 10.4.8 9.2 6.5 15 15.9 16.2l4.9.7-.3 6.6-.3 6.6-4.8.7c-6.7.9-10.8 3.6-13.5 8.8-1.9 3.7-2.3 5.6-1.9 10.4.8 9.2 6.5 15 15.9 16.2l4.9.7-.3 5.6-.3 5.6-4.8.7c-6.7.9-10.8 3.6-13.5 8.8-1.9 3.7-2.3 5.6-1.9 10.4.8 9.2 6.5 15 15.9 16.2l4.9.7-.3 6.1-.3 6.1-4.8.7c-6.7.9-10.8 3.6-13.5 8.8-1.9 3.7-2.3 5.6-1.9 10.4.8 9.2 6.5 15 15.9 16.2l4.9.7-.3 6.1-.3 6.1-4.8.7c-6.7.9-10.8 3.6-13.5 8.8-1.9 3.7-2.3 5.6-1.9 10.4.8 9.2 6.5 15 15.9 16.2l4.9.7-.3 6.1-.3 6.1-4.8.7c-6.7.9-10.8 3.6-13.5 8.8-1.9 3.7-2.3 5.6-1.9 10.4.8 9.2 6.5 15 15.9 16.2l4.9.7-.3 5.6-.3 5.6-4.8.7c-6.7.9-10.8 3.6-13.5 8.8-1.9 3.7-2.3 5.6-1.9 10.4.8 9.2 6.5 15 15.9 16.2l4.9.7-.3 6.6-.3 6.6-4.8.7c-6.7.9-10.8 3.6-13.5 8.8-1.9 3.7-2.3 5.6-1.9 10.4.8 9.2 6.5 15 15.8 16.2l4.9.7v3.8c0 3.7.2 3.9 3 3.9s3-.2 3-3.9v-3.8l4.9-.7c6.4-.8 11.1-4.1 13.9-9.6 4.5-9 1.5-19.6-6.8-23.7-2.4-1.3-6.1-2.3-8.2-2.3H600v-13.7l4.9-.7c6.4-.8 11.1-4.1 13.9-9.6 4.5-9 1.5-19.6-6.8-23.7-2.4-1.3-6.1-2.3-8.2-2.3H600v-11.7l4.9-.7c6.4-.8 11.1-4.1 13.9-9.6 4.5-9 1.5-19.6-6.8-23.8-2.4-1.2-6.1-2.2-8.2-2.2H600v-12.7l4.9-.7c6.4-.8 11.1-4.1 13.9-9.6 4.5-9 1.5-19.6-6.8-23.8-2.4-1.2-6.1-2.2-8.2-2.2H600v-12.7l4.9-.7c6.4-.8 11.1-4.1 13.9-9.6 4.5-9 1.5-19.6-6.8-23.8-2.4-1.2-6.1-2.2-8.2-2.2H600v-12.7l4.9-.7c6.4-.8 11.1-4.1 13.9-9.6 4.5-9 1.5-19.6-6.8-23.8-2.4-1.2-6.1-2.2-8.2-2.2H600v-11.7l4.9-.7c6.4-.8 11.1-4.1 13.9-9.6 4.5-9 1.5-19.6-6.8-23.8-2.4-1.2-6.1-2.2-8.2-2.2H600v-13.7l4.9-.7c6.4-.8 11.1-4.1 13.9-9.6 4.5-9 1.5-19.6-6.8-23.8-2.4-1.2-6.1-2.2-8.2-2.2H600v-11.7l4.9-.7c6.4-.8 11.1-4.1 13.9-9.6 4.5-9 1.5-19.6-6.8-23.8-2.4-1.2-6.1-2.2-8.2-2.2H600v-13.7l4.9-.7c6.4-.8 11.1-4.1 13.9-9.6 4.5-9 1.5-19.6-6.8-23.8-2.4-1.2-6.1-2.2-8.2-2.2-3.7 0-3.8-.1-3.8-3.5 0-3.2-.2-3.5-2.9-3.5-2.6 0-3 .4-3.3 3.2zm.2 21.9v13.2l-3.6-.6c-5-.8-8.3-3.2-10-7.2-3.8-9.3 1.5-18.4 10.9-18.5h2.7v13.1zm14.5-11.6c4.2 2 6 5.6 5.9 11.6-.1 5.7-2.4 9.6-6.9 11.5-7.4 3.1-7.5 3-7.5-11.6v-13h2.6c1.4 0 4.1.7 5.9 1.5zM594 368.1v13.2l-3.6-.6c-5-.8-8.3-3.2-10-7.2-3.8-9.3 1.5-18.4 10.9-18.5h2.7v13.1zm14.5-11.6c4.2 2 6 5.6 5.9 11.6-.1 5.7-2.4 9.6-6.9 11.5-7.4 3.1-7.5 3-7.5-11.6v-13h2.6c1.4 0 4.1.7 5.9 1.5zM594 416.1v13.2l-3.6-.6c-5-.8-8.3-3.2-10-7.2-3.8-9.3 1.5-18.4 10.9-18.5h2.7v13.1zm14.5-11.6c4.2 2 6 5.6 5.9 11.6-.1 5.7-2.4 9.6-6.9 11.5-7.4 3.1-7.5 3-7.5-11.6v-13h2.6c1.4 0 4.1.7 5.9 1.5zM594 466.1v13.2l-3.6-.6c-5-.8-8.3-3.2-10-7.2-3.8-9.3 1.5-18.4 10.9-18.5h2.7v13.1zm14.5-11.6c4.2 2 6 5.6 5.9 11.6-.1 5.7-2.4 9.6-6.9 11.5-7.4 3.1-7.5 3-7.5-11.6v-13h2.6c1.4 0 4.1.7 5.9 1.5zM594 514.1v13.2l-3.6-.6c-5-.8-8.3-3.2-10-7.2-3.8-9.3 1.5-18.4 10.9-18.5h2.7v13.1zm14.5-11.6c4.2 2 6 5.6 5.9 11.6-.1 5.7-2.4 9.6-6.9 11.5-7.4 3.1-7.5 3-7.5-11.6v-13h2.6c1.4 0 4.1.7 5.9 1.5zM594 563.1v13.2l-3.6-.6c-5-.8-8.3-3.2-10-7.2-3.8-9.3 1.5-18.4 10.9-18.5h2.7v13.1zm14.5-11.6c4.2 2 6 5.6 5.9 11.6-.1 5.7-2.4 9.6-6.9 11.5-7.4 3.1-7.5 3-7.5-11.6v-13h2.6c1.4 0 4.1.7 5.9 1.5zM594 612.1v13.2l-3.6-.6c-5-.8-8.3-3.2-10-7.2-3.8-9.3 1.5-18.4 10.9-18.5h2.7v13.1zm14.5-11.6c4.2 2 6 5.6 5.9 11.6-.1 5.7-2.4 9.6-6.9 11.5-7.4 3.1-7.5 3-7.5-11.6v-13h2.6c1.4 0 4.1.7 5.9 1.5zM594 661.1v13.2l-3.6-.6c-5-.8-8.3-3.2-10-7.2-3.8-9.3 1.5-18.4 10.9-18.5h2.7v13.1zm14.5-11.6c4.2 2 6 5.6 5.9 11.6-.1 5.7-2.4 9.6-6.9 11.5-7.4 3.1-7.5 3-7.5-11.6v-13h2.6c1.4 0 4.1.7 5.9 1.5zM594 709.1v13.2l-3.6-.6c-5-.8-8.3-3.2-10-7.2-3.8-9.3 1.5-18.4 10.9-18.5h2.7v13.1zm14.5-11.6c4.2 2 6 5.6 5.9 11.6-.1 5.7-2.4 9.6-6.9 11.5-7.4 3.1-7.5 3-7.5-11.6v-13h2.6c1.4 0 4.1.7 5.9 1.5zM594 759.1v13.2l-3.6-.6c-5-.8-8.3-3.2-10-7.2-3.8-9.3 1.5-18.4 10.9-18.5h2.7v13.1zm14.5-11.6c4.2 2 6 5.6 5.9 11.6-.1 5.7-2.4 9.6-6.9 11.5-7.4 3.1-7.5 3-7.5-11.6v-13h2.6c1.4 0 4.1.7 5.9 1.5zM537.7 343.7c-.4.3-.7 1.9-.7 3.5 0 2.6-.3 2.8-3.8 2.8-9.6 0-16.7 7.6-16.7 18 0 9.7 5.9 16.3 15.6 17.6l4.9.7V398h-3.8c-9.6 0-16.7 7.6-16.7 18 0 9.7 5.9 16.3 15.6 17.6l4.9.7V448h-3.8c-9.6 0-16.7 7.6-16.7 18 0 9.7 5.9 16.3 15.6 17.6l4.9.7V496h-3.8c-9.6 0-16.7 7.6-16.7 18 0 9.7 5.9 16.3 15.6 17.6l4.9.7V545h-3.8c-9.6 0-16.7 7.6-16.7 18 0 9.7 5.9 16.3 15.6 17.6l4.9.7V594h-3.8c-9.6 0-16.7 7.6-16.7 18 0 9.7 5.9 16.3 15.6 17.6l4.9.7V643h-3.8c-9.6 0-16.7 7.6-16.7 18 0 9.7 5.9 16.3 15.6 17.6l4.9.7V691h-3.8c-9.6 0-16.7 7.6-16.7 18 0 9.7 5.9 16.3 15.6 17.6l4.9.7v3.8c0 3.7.2 3.9 3 3.9s3-.2 3-3.9v-3.8l4.9-.7c5.4-.7 10.3-3.6 13.5-7.9 3-4.1 3-16.3 0-20.4-2.9-3.8-7.4-6.3-13.1-7.1l-4.8-.7-.3-5.6-.3-5.6 4.9-.7c5.5-.7 10.4-3.6 13.6-7.9 3-4.1 3-16.3 0-20.4-2.9-3.8-7.4-6.3-13.1-7.1l-4.8-.7-.3-6.1-.3-6.1 4.9-.7c5.5-.7 10.4-3.6 13.6-7.9 3-4.1 3-16.3 0-20.4-2.9-3.8-7.4-6.3-13.1-7.1l-4.8-.7-.3-6.1-.3-6.1 4.9-.7c5.5-.7 10.4-3.6 13.6-7.9 3-4.1 3-16.3 0-20.4-2.9-3.8-7.4-6.3-13.1-7.1l-4.8-.7-.3-6.1-.3-6.1 4.9-.7c5.5-.7 10.4-3.6 13.6-7.9 3-4.1 3-16.3 0-20.4-2.9-3.8-7.4-6.3-13.1-7.1l-4.8-.7-.3-5.6-.3-5.6 4.9-.7c5.5-.7 10.4-3.6 13.6-7.9 3-4.1 3-16.3 0-20.4-2.9-3.8-7.4-6.3-13.1-7.1l-4.8-.7-.3-6.6-.3-6.6 4.9-.7c5.5-.7 10.4-3.6 13.6-7.9 3-4.1 3-16.3 0-20.4-2.9-3.8-7.4-6.3-13.1-7.1l-4.8-.7-.3-5.6-.3-5.6 4.9-.7c5.5-.7 10.4-3.6 13.6-7.9 3-4.1 3-16.3 0-20.4-2.9-3.8-7.4-6.3-13.1-7.1-4.5-.7-4.8-.9-5.1-4-.3-2.6-.8-3.2-2.6-3.2-1.2 0-2.6.3-2.9.7zM537 368c0 12.4-.1 13-2 13-3.9 0-8.9-2.8-10.5-6-4.7-9.2.5-19.9 9.8-20h2.7v13zm14.5-11.6c5.9 2.5 8.1 9.9 5.1 17.1-1.7 4-5 6.4-10 7.2l-3.6.6V355h2.5c1.4 0 4.1.6 6 1.4zM537 416c0 12.4-.1 13-2 13-3.9 0-8.9-2.8-10.5-6-4.7-9.2.5-19.9 9.8-20h2.7v13zm14.5-11.6c5.9 2.5 8.1 9.9 5.1 17.1-1.7 4-5 6.4-10 7.2l-3.6.6V403h2.5c1.4 0 4.1.6 6 1.4zM537 466c0 12.4-.1 13-2 13-3.9 0-8.9-2.8-10.5-6-4.7-9.2.5-19.9 9.8-20h2.7v13zm14.5-11.6c5.9 2.5 8.1 9.9 5.1 17.1-1.7 4-5 6.4-10 7.2l-3.6.6V453h2.5c1.4 0 4.1.6 6 1.4zM537 514c0 12.4-.1 13-2 13-3.9 0-8.9-2.8-10.5-6-4.7-9.2.5-19.9 9.8-20h2.7v13zm14.5-11.6c5.9 2.5 8.1 9.9 5.1 17.1-1.7 4-5 6.4-10 7.2l-3.6.6V501h2.5c1.4 0 4.1.6 6 1.4zM537 563c0 12.4-.1 13-2 13-3.9 0-8.9-2.8-10.5-6-4.7-9.2.5-19.9 9.8-20h2.7v13zm14.5-11.6c5.9 2.5 8.1 9.9 5.1 17.1-1.7 4-5 6.4-10 7.2l-3.6.6V550h2.5c1.4 0 4.1.6 6 1.4zM537 612c0 12.4-.1 13-2 13-3.9 0-8.9-2.8-10.5-6-4.7-9.2.5-19.9 9.8-20h2.7v13zm14.5-11.6c5.9 2.5 8.1 9.9 5.1 17.1-1.7 4-5 6.4-10 7.2l-3.6.6V599h2.5c1.4 0 4.1.6 6 1.4zM537 661c0 12.4-.1 13-2 13-3.9 0-8.9-2.8-10.5-6-4.7-9.2.5-19.9 9.8-20h2.7v13zm14.5-11.6c5.9 2.5 8.1 9.9 5.1 17.1-1.7 4-5 6.4-10 7.2l-3.6.6V648h2.5c1.4 0 4.1.6 6 1.4zM537 709c0 12.4-.1 13-2 13-3.9 0-8.9-2.8-10.5-6-4.7-9.2.5-19.9 9.8-20h2.7v13zm14.5-11.6c5.9 2.5 8.1 9.9 5.1 17.1-1.7 4-5 6.4-10 7.2l-3.6.6V696h2.5c1.4 0 4.1.6 6 1.4zM822.7 343.6c-.4.4-.7 2-.7 3.4 0 2.6-.3 2.8-5.1 3.2-5.6.6-9.2 2.8-12.7 7.9-2 2.9-2.3 4.4-2 10.4.5 10.6 5.4 15.8 15.9 17.2l3.9.6v11.4l-5.1.5c-5.6.6-9.2 2.8-12.7 7.9-2 2.9-2.3 4.4-2 10.4.5 10.6 5.4 15.8 15.9 17.2l3.9.6v13.4l-5.1.5c-5.6.6-9.2 2.8-12.7 7.9-2 2.9-2.3 4.4-2 10.4.5 10.6 5.4 15.8 15.9 17.2l3.9.6v11.4l-5.1.5c-5.6.6-9.2 2.8-12.7 7.9-2 2.9-2.3 4.4-2 10.4.5 10.6 5.4 15.8 15.9 17.2l3.9.6v12.4l-5.1.5c-5.6.6-9.2 2.8-12.7 7.9-2 2.9-2.3 4.4-2 10.4.5 10.6 5.4 15.8 15.9 17.2l3.9.6v12.4l-5.1.5c-5.6.6-9.2 2.8-12.7 7.9-2 2.9-2.3 4.4-2 10.4.5 10.6 5.4 15.8 15.9 17.2l3.9.6v12.4l-5.1.5c-5.6.6-9.2 2.8-12.7 7.9-2 2.9-2.3 4.4-2 10.4.5 10.6 5.4 15.8 15.9 17.2l3.9.6v11.4l-5.1.5c-5.6.6-9.2 2.8-12.7 7.9-2 2.9-2.3 4.4-2 10.4.5 10.5 5.4 15.8 15.9 17.2 3.5.5 3.8.8 4.1 4.2.3 3.3.6 3.6 3.3 3.6 2.7 0 3-.3 3.3-3.8.3-3.3.6-3.7 3-3.7 1.5 0 5-1.1 7.9-2.4 6.6-3.1 9.3-7.8 9.3-16.4 0-9.6-5.7-16.1-14.9-17l-5.1-.5v-5.8c0-5.8.1-5.9 2.8-5.9 1.5 0 5-1.1 7.9-2.4 6.6-3.1 9.3-7.8 9.3-16.4 0-9.6-5.7-16.1-14.9-17l-5.1-.5v-6.3c0-6.3 0-6.4 2.8-6.4 1.5 0 5-1.1 7.9-2.4 6.6-3.1 9.3-7.8 9.3-16.4 0-9.6-5.7-16.1-14.9-17l-5.1-.5v-6.3c0-6.3 0-6.4 2.8-6.4 1.5 0 5-1.1 7.9-2.4 6.6-3.1 9.3-7.8 9.3-16.4 0-9.6-5.7-16.1-14.9-17l-5.1-.5v-6.3c0-6.3 0-6.4 2.8-6.4 1.5 0 5-1.1 7.9-2.4 6.6-3.1 9.3-7.8 9.3-16.4 0-9.6-5.7-16.1-14.9-17l-5.1-.5v-5.8c0-5.8.1-5.9 2.8-5.9 1.5 0 5-1.1 7.9-2.4 6.6-3.1 9.3-7.8 9.3-16.4 0-9.6-5.7-16.1-14.9-17l-5.1-.5v-6.8c0-6.9 0-6.9 2.8-6.9 1.5 0 5-1.1 7.9-2.4 6.6-3.1 9.3-7.8 9.3-16.4 0-9.6-5.7-16.1-14.9-17l-5.1-.5v-5.8c0-5.8.1-5.9 2.8-5.9 1.5 0 5-1.1 7.9-2.4 6.6-3.1 9.3-7.8 9.3-16.4 0-9.6-5.7-16.1-14.9-17-4.7-.4-5-.6-5.3-3.6-.2-2.5-.8-3.2-2.8-3.4-1.4-.2-2.9 0-3.3.4zM822 368c0 12.5-.1 13-2.1 13-3.5 0-8.4-2.9-10.2-5.9-1.9-3.3-2.3-11.2-.6-14.2 1.4-2.8 6.8-5.9 10.2-5.9h2.7v13zm15.8-11c3.7 2.3 5.2 5.4 5.2 10.8 0 6.6-4.1 11.5-10.7 12.8l-3.3.6V355h2.8c1.5 0 4.2.9 6 2zM822 416c0 12.5-.1 13-2.1 13-3.5 0-8.4-2.9-10.2-5.9-1.9-3.3-2.3-11.2-.6-14.2 1.4-2.8 6.8-5.9 10.2-5.9h2.7v13zm15.8-11c3.7 2.3 5.2 5.4 5.2 10.8 0 6.6-4.1 11.5-10.7 12.8l-3.3.6V403h2.8c1.5 0 4.2.9 6 2zM822 466c0 12.5-.1 13-2.1 13-3.5 0-8.4-2.9-10.2-5.9-1.9-3.3-2.3-11.2-.6-14.2 1.4-2.8 6.8-5.9 10.2-5.9h2.7v13zm15.8-11c3.7 2.3 5.2 5.4 5.2 10.8 0 6.6-4.1 11.5-10.7 12.8l-3.3.6V453h2.8c1.5 0 4.2.9 6 2zM822 514c0 12.5-.1 13-2.1 13-3.5 0-8.4-2.9-10.2-5.9-1.9-3.3-2.3-11.2-.6-14.2 1.4-2.8 6.8-5.9 10.2-5.9h2.7v13zm15.8-11c3.7 2.3 5.2 5.4 5.2 10.8 0 6.6-4.1 11.5-10.7 12.8l-3.3.6V501h2.8c1.5 0 4.2.9 6 2zM822 563c0 12.5-.1 13-2.1 13-3.5 0-8.4-2.9-10.2-5.9-1.9-3.3-2.3-11.2-.6-14.2 1.4-2.8 6.8-5.9 10.2-5.9h2.7v13zm15.8-11c3.7 2.3 5.2 5.4 5.2 10.8 0 6.6-4.1 11.5-10.7 12.8l-3.3.6V550h2.8c1.5 0 4.2.9 6 2zM822 612c0 12.5-.1 13-2.1 13-3.5 0-8.4-2.9-10.2-5.9-1.9-3.3-2.3-11.2-.6-14.2 1.4-2.8 6.8-5.9 10.2-5.9h2.7v13zm15.8-11c3.7 2.3 5.2 5.4 5.2 10.8 0 6.6-4.1 11.5-10.7 12.8l-3.3.6V599h2.8c1.5 0 4.2.9 6 2zM822 661c0 12.5-.1 13-2.1 13-3.5 0-8.4-2.9-10.2-5.9-1.9-3.3-2.3-11.2-.6-14.2 1.4-2.8 6.8-5.9 10.2-5.9h2.7v13zm15.8-11c3.7 2.3 5.2 5.4 5.2 10.8 0 6.6-4.1 11.5-10.7 12.8l-3.3.6V648h2.8c1.5 0 4.2.9 6 2zM822 709c0 12.5-.1 13-2.1 13-3.5 0-8.4-2.9-10.2-5.9-1.9-3.3-2.3-11.2-.6-14.2 1.4-2.8 6.8-5.9 10.2-5.9h2.7v13zm15.8-11c3.7 2.3 5.2 5.4 5.2 10.8 0 6.6-4.1 11.5-10.7 12.8l-3.3.6V696h2.8c1.5 0 4.2.9 6 2zM365.7 391.6c-.4.4-.7 2-.7 3.4 0 2.6-.3 2.8-5.1 3.2-5.6.6-9.2 2.8-12.7 7.9-2 2.9-2.3 4.4-2 10.4.5 10.6 5.4 15.8 15.9 17.2l3.9.6v13.4l-5.1.5c-5.6.6-9.2 2.8-12.7 7.9-2 2.9-2.3 4.4-2 10.4.5 10.6 5.4 15.8 15.9 17.2l3.9.6v11.4l-5.1.5c-5.6.6-9.2 2.8-12.7 7.9-2 2.9-2.3 4.4-2 10.4.5 10.6 5.4 15.8 15.9 17.2l3.9.6v12.4l-5.1.5c-5.6.6-9.2 2.8-12.7 7.9-2 2.9-2.3 4.4-2 10.4.5 10.6 5.4 15.8 15.9 17.2l3.9.6v12.4l-5.1.5c-5.6.6-9.2 2.8-12.7 7.9-2 2.9-2.3 4.4-2 10.4.5 10.6 5.4 15.8 15.9 17.2l3.9.6v12.4l-5.1.5c-5.6.6-9.2 2.8-12.7 7.9-2 2.9-2.3 4.4-2 10.4.5 10.5 5.4 15.8 15.9 17.2 3.5.5 3.8.8 4.1 4.2.3 3.3.6 3.6 3.3 3.6 2.7 0 3-.3 3.3-3.8.3-3.3.6-3.7 3-3.7 1.5 0 5-1.1 7.9-2.4 6.6-3.1 9.3-7.8 9.3-16.4 0-9.6-5.7-16.1-14.9-17l-5.1-.5v-6.3c0-6.3 0-6.4 2.8-6.4 1.5 0 5-1.1 7.9-2.4 6.6-3.1 9.3-7.8 9.3-16.4 0-9.6-5.7-16.1-14.9-17l-5.1-.5v-6.3c0-6.3 0-6.4 2.8-6.4 1.5 0 5-1.1 7.9-2.4 6.6-3.1 9.3-7.8 9.3-16.4 0-9.6-5.7-16.1-14.9-17l-5.1-.5v-6.3c0-6.3 0-6.4 2.8-6.4 1.5 0 5-1.1 7.9-2.4 6.6-3.1 9.3-7.8 9.3-16.4 0-9.6-5.7-16.1-14.9-17l-5.1-.5v-5.8c0-5.8.1-5.9 2.8-5.9 1.5 0 5-1.1 7.9-2.4 6.6-3.1 9.3-7.8 9.3-16.4 0-9.6-5.7-16.1-14.9-17l-5.1-.5v-6.8c0-6.9 0-6.9 2.8-6.9 1.5 0 5-1.1 7.9-2.4 6.6-3.1 9.3-7.8 9.3-16.4 0-9.6-5.7-16.1-14.9-17-4.7-.4-5-.6-5.3-3.6-.2-2.5-.8-3.2-2.8-3.4-1.4-.2-2.9 0-3.3.4zM365 416c0 12.5-.1 13-2.1 13-3.5 0-8.4-2.9-10.2-5.9-1.9-3.3-2.3-11.2-.6-14.2 1.4-2.8 6.8-5.9 10.2-5.9h2.7v13zm15.8-11c3.7 2.3 5.2 5.4 5.2 10.8 0 6.6-4.1 11.5-10.7 12.8l-3.3.6V403h2.8c1.5 0 4.2.9 6 2zM365 466c0 12.5-.1 13-2.1 13-3.5 0-8.4-2.9-10.2-5.9-1.9-3.3-2.3-11.2-.6-14.2 1.4-2.8 6.8-5.9 10.2-5.9h2.7v13zm15.8-11c3.7 2.3 5.2 5.4 5.2 10.8 0 6.6-4.1 11.5-10.7 12.8l-3.3.6V453h2.8c1.5 0 4.2.9 6 2zM365 514c0 12.5-.1 13-2.1 13-3.5 0-8.4-2.9-10.2-5.9-1.9-3.3-2.3-11.2-.6-14.2 1.4-2.8 6.8-5.9 10.2-5.9h2.7v13zm15.8-11c3.7 2.3 5.2 5.4 5.2 10.8 0 6.6-4.1 11.5-10.7 12.8l-3.3.6V501h2.8c1.5 0 4.2.9 6 2zM365 563c0 12.5-.1 13-2.1 13-3.5 0-8.4-2.9-10.2-5.9-1.9-3.3-2.3-11.2-.6-14.2 1.4-2.8 6.8-5.9 10.2-5.9h2.7v13zm15.8-11c3.7 2.3 5.2 5.4 5.2 10.8 0 6.6-4.1 11.5-10.7 12.8l-3.3.6V550h2.8c1.5 0 4.2.9 6 2zM365 612c0 12.5-.1 13-2.1 13-3.5 0-8.4-2.9-10.2-5.9-1.9-3.3-2.3-11.2-.6-14.2 1.4-2.8 6.8-5.9 10.2-5.9h2.7v13zm15.8-11c3.7 2.3 5.2 5.4 5.2 10.8 0 6.6-4.1 11.5-10.7 12.8l-3.3.6V599h2.8c1.5 0 4.2.9 6 2zM365 661c0 12.5-.1 13-2.1 13-3.5 0-8.4-2.9-10.2-5.9-1.9-3.3-2.3-11.2-.6-14.2 1.4-2.8 6.8-5.9 10.2-5.9h2.7v13zm15.8-11c3.7 2.3 5.2 5.4 5.2 10.8 0 6.6-4.1 11.5-10.7 12.8l-3.3.6V648h2.8c1.5 0 4.2.9 6 2zM651.7 391.7c-.4.3-.7 1.9-.7 3.5 0 2.6-.3 2.8-3.8 2.8-9.6 0-16.7 7.6-16.7 18 0 9.7 5.9 16.3 15.6 17.6l4.9.7V448h-3.8c-9.6 0-16.7 7.6-16.7 18 0 9.7 5.9 16.3 15.6 17.6l4.9.7V496h-3.8c-9.6 0-16.7 7.6-16.7 18 0 9.7 5.9 16.3 15.6 17.6l4.9.7V545h-3.8c-9.6 0-16.7 7.6-16.7 18 0 9.7 5.9 16.3 15.6 17.6l4.9.7V594h-3.8c-9.6 0-16.7 7.6-16.7 18 0 9.7 5.9 16.3 15.6 17.6l4.9.7V643h-3.8c-9.6 0-16.7 7.6-16.7 18 0 9.7 5.9 16.3 15.6 17.6l4.9.7v3.8c0 3.7.2 3.9 3 3.9s3-.2 3-3.9v-3.8l4.9-.7c5.4-.7 10.3-3.6 13.5-7.9 3-4.1 3-16.3 0-20.4-2.9-3.8-7.4-6.3-13.1-7.1l-4.8-.7-.3-6.1-.3-6.1 4.9-.7c5.5-.7 10.4-3.6 13.6-7.9 3-4.1 3-16.3 0-20.4-2.9-3.8-7.4-6.3-13.1-7.1l-4.8-.7-.3-6.1-.3-6.1 4.9-.7c5.5-.7 10.4-3.6 13.6-7.9 3-4.1 3-16.3 0-20.4-2.9-3.8-7.4-6.3-13.1-7.1l-4.8-.7-.3-6.1-.3-6.1 4.9-.7c5.5-.7 10.4-3.6 13.6-7.9 3-4.1 3-16.3 0-20.4-2.9-3.8-7.4-6.3-13.1-7.1l-4.8-.7-.3-5.6-.3-5.6 4.9-.7c5.5-.7 10.4-3.6 13.6-7.9 3-4.1 3-16.3 0-20.4-2.9-3.8-7.4-6.3-13.1-7.1l-4.8-.7-.3-6.6-.3-6.6 4.9-.7c5.5-.7 10.4-3.6 13.6-7.9 3-4.1 3-16.3 0-20.4-2.9-3.8-7.4-6.3-13.1-7.1-4.5-.7-4.8-.9-5.1-4-.3-2.6-.8-3.2-2.6-3.2-1.2 0-2.6.3-2.9.7zM651 416c0 12.4-.1 13-2 13-3.9 0-8.9-2.8-10.5-6-4.7-9.2.5-19.9 9.8-20h2.7v13zm14.5-11.6c5.9 2.5 8.1 9.9 5.1 17.1-1.7 4-5 6.4-10 7.2l-3.6.6V403h2.5c1.4 0 4.1.6 6 1.4zM651 466c0 12.4-.1 13-2 13-3.9 0-8.9-2.8-10.5-6-4.7-9.2.5-19.9 9.8-20h2.7v13zm14.5-11.6c5.9 2.5 8.1 9.9 5.1 17.1-1.7 4-5 6.4-10 7.2l-3.6.6V453h2.5c1.4 0 4.1.6 6 1.4zM651 514c0 12.4-.1 13-2 13-3.9 0-8.9-2.8-10.5-6-4.7-9.2.5-19.9 9.8-20h2.7v13zm14.5-11.6c5.9 2.5 8.1 9.9 5.1 17.1-1.7 4-5 6.4-10 7.2l-3.6.6V501h2.5c1.4 0 4.1.6 6 1.4zM651 563c0 12.4-.1 13-2 13-3.9 0-8.9-2.8-10.5-6-4.7-9.2.5-19.9 9.8-20h2.7v13zm14.5-11.6c5.9 2.5 8.1 9.9 5.1 17.1-1.7 4-5 6.4-10 7.2l-3.6.6V550h2.5c1.4 0 4.1.6 6 1.4zM651 612c0 12.4-.1 13-2 13-3.9 0-8.9-2.8-10.5-6-4.7-9.2.5-19.9 9.8-20h2.7v13zm14.5-11.6c5.9 2.5 8.1 9.9 5.1 17.1-1.7 4-5 6.4-10 7.2l-3.6.6V599h2.5c1.4 0 4.1.6 6 1.4zM651 661c0 12.4-.1 13-2 13-3.9 0-8.9-2.8-10.5-6-4.7-9.2.5-19.9 9.8-20h2.7v13zm14.5-11.6c5.9 2.5 8.1 9.9 5.1 17.1-1.7 4-5 6.4-10 7.2l-3.6.6V648h2.5c1.4 0 4.1.6 6 1.4zM765.8 394.2c-.3 3.1-.6 3.3-5.1 4-11.7 1.6-17.6 10.1-15.3 22.2 1.3 7 9.7 13.5 17.4 13.6h3.3l-.3 6.7-.3 6.8-4.8.7c-11.7 1.6-17.6 10.1-15.3 22.2 1.3 6.9 9.7 13.5 17.4 13.6h3.2l-.2 5.7-.3 5.8-4.8.7c-11.7 1.6-17.6 10.1-15.3 22.2 1.3 7 9.7 13.5 17.4 13.6h3.3l-.3 6.2-.3 6.3-4.8.7c-11.7 1.6-17.6 10.1-15.3 22.2 1.3 7 9.7 13.5 17.4 13.6h3.3l-.3 6.2-.3 6.3-4.8.7c-11.7 1.6-17.6 10.1-15.3 22.2 1.3 7 9.7 13.5 17.4 13.6h3.3l-.3 6.2-.3 6.3-4.8.7c-11.7 1.6-17.6 10.1-15.3 22.2 1.3 6.9 9.7 13.5 17.4 13.6 3.1 0 3.2.2 3.2 4s.2 4 3 4 3-.2 3-3.9c0-3.7.1-3.9 4-4.4 8.9-1.2 15.1-6.7 16.4-14.7.7-4.5-.7-10.9-3.1-14.6-2-3.1-9.1-6.4-13.6-6.4H772v-12.7l4-.6c8.9-1.2 15.1-6.7 16.4-14.7.7-4.5-.7-10.9-3.1-14.6-2-3.1-9.1-6.4-13.6-6.4H772v-12.7l4-.6c8.9-1.2 15.1-6.7 16.4-14.7.7-4.5-.7-10.9-3.1-14.6-2-3.1-9.1-6.4-13.6-6.4H772v-12.7l4-.6c8.9-1.2 15.1-6.7 16.4-14.7.7-4.5-.7-10.9-3.1-14.6-2-3.1-9.1-6.4-13.6-6.4H772v-11.7l4-.6c8.9-1.2 15.1-6.7 16.4-14.7.7-4.5-.7-10.9-3.1-14.6-2-3.1-9.1-6.4-13.6-6.4H772v-13.7l4-.6c8.9-1.2 15.1-6.7 16.4-14.7.7-4.5-.7-10.9-3.1-14.6-2-3.1-9.1-6.4-13.6-6.4-3.3 0-3.6-.2-3.9-3.3-.2-2.6-.8-3.3-3-3.5-2.4-.3-2.7.1-3 3zm.2 21.8c0 12.4-.1 13-2 13-6.8 0-13-6.3-13-13.3 0-7.4 5-12.6 12.3-12.7h2.7v13zm17.3-9c5.2 5.8 3 17.7-3.8 20.6-7.4 3.1-7.5 3-7.5-11.7v-13.2l4.3.6c3 .4 5 1.4 7 3.7zM766 466c0 12.4-.1 13-2 13-6.8 0-13-6.3-13-13.3 0-7.4 5-12.6 12.3-12.7h2.7v13zm17.3-9c5.2 5.8 3 17.7-3.8 20.6-7.4 3.1-7.5 3-7.5-11.7v-13.2l4.3.6c3 .4 5 1.4 7 3.7zM766 514c0 12.4-.1 13-2 13-6.8 0-13-6.3-13-13.3 0-7.4 5-12.6 12.3-12.7h2.7v13zm17.3-9c5.2 5.8 3 17.7-3.8 20.6-7.4 3.1-7.5 3-7.5-11.7v-13.2l4.3.6c3 .4 5 1.4 7 3.7zM766 563c0 12.4-.1 13-2 13-6.8 0-13-6.3-13-13.3 0-7.4 5-12.6 12.3-12.7h2.7v13zm17.3-9c5.2 5.8 3 17.7-3.8 20.6-7.4 3.1-7.5 3-7.5-11.7v-13.2l4.3.6c3 .4 5 1.4 7 3.7zM766 612c0 12.4-.1 13-2 13-6.8 0-13-6.3-13-13.3 0-7.4 5-12.6 12.3-12.7h2.7v13zm17.3-9c5.2 5.8 3 17.7-3.8 20.6-7.4 3.1-7.5 3-7.5-11.7v-13.2l4.3.6c3 .4 5 1.4 7 3.7zM766 661c0 12.4-.1 13-2 13-6.8 0-13-6.3-13-13.3 0-7.4 5-12.6 12.3-12.7h2.7v13zm17.3-9c5.2 5.8 3 17.7-3.8 20.6-7.4 3.1-7.5 3-7.5-11.7v-13.2l4.3.6c3 .4 5 1.4 7 3.7zM479.8 444.2c-.3 3.1-.6 3.3-5.1 4-6.7.9-10.8 3.6-13.5 8.8-1.9 3.7-2.3 5.6-1.9 10.4.8 9.2 6.5 15 15.9 16.2l4.9.7-.3 5.6-.3 5.6-4.8.7c-6.7.9-10.8 3.6-13.5 8.8-1.9 3.7-2.3 5.6-1.9 10.4.8 9.2 6.5 15 15.9 16.2l4.9.7-.3 6.1-.3 6.1-4.8.7c-6.7.9-10.8 3.6-13.5 8.8-1.9 3.7-2.3 5.6-1.9 10.4.8 9.2 6.5 15 15.9 16.2l4.9.7-.3 6.1-.3 6.1-4.8.7c-6.7.9-10.8 3.6-13.5 8.8-1.9 3.7-2.3 5.6-1.9 10.4.8 9.2 6.5 15 15.8 16.2l4.9.7v3.8c0 3.7.2 3.9 3 3.9s3-.2 3-3.9v-3.8l4.9-.7c6.4-.8 11.1-4.1 13.9-9.6 4.5-9 1.5-19.6-6.8-23.8-2.4-1.2-6.1-2.2-8.2-2.2H486v-12.7l4.9-.7c6.4-.8 11.1-4.1 13.9-9.6 4.5-9 1.5-19.6-6.8-23.8-2.4-1.2-6.1-2.2-8.2-2.2H486v-12.7l4.9-.7c6.4-.8 11.1-4.1 13.9-9.6 4.5-9 1.5-19.6-6.8-23.8-2.4-1.2-6.1-2.2-8.2-2.2H486v-11.7l4.9-.7c6.4-.8 11.1-4.1 13.9-9.6 4.5-9 1.5-19.6-6.8-23.8-2.4-1.2-6.1-2.2-8.2-2.2-3.7 0-3.8-.1-3.8-3.5 0-3.2-.2-3.5-2.9-3.5-2.6 0-3 .4-3.3 3.2zm.2 21.9v13.2l-3.6-.6c-5-.8-8.3-3.2-10-7.2-3.8-9.3 1.5-18.4 10.9-18.5h2.7v13.1zm14.5-11.6c4.2 2 6 5.6 5.9 11.6-.1 5.7-2.4 9.6-6.9 11.5-7.4 3.1-7.5 3-7.5-11.6v-13h2.6c1.4 0 4.1.7 5.9 1.5zM480 514.1v13.2l-3.6-.6c-5-.8-8.3-3.2-10-7.2-3.8-9.3 1.5-18.4 10.9-18.5h2.7v13.1zm14.5-11.6c4.2 2 6 5.6 5.9 11.6-.1 5.7-2.4 9.6-6.9 11.5-7.4 3.1-7.5 3-7.5-11.6v-13h2.6c1.4 0 4.1.7 5.9 1.5zM480 563.1v13.2l-3.6-.6c-5-.8-8.3-3.2-10-7.2-3.8-9.3 1.5-18.4 10.9-18.5h2.7v13.1zm14.5-11.6c4.2 2 6 5.6 5.9 11.6-.1 5.7-2.4 9.6-6.9 11.5-7.4 3.1-7.5 3-7.5-11.6v-13h2.6c1.4 0 4.1.7 5.9 1.5zM480 612.1v13.2l-3.6-.6c-5-.8-8.3-3.2-10-7.2-3.8-9.3 1.5-18.4 10.9-18.5h2.7v13.1zm14.5-11.6c4.2 2 6 5.6 5.9 11.6-.1 5.7-2.4 9.6-6.9 11.5-7.4 3.1-7.5 3-7.5-11.6v-13h2.6c1.4 0 4.1.7 5.9 1.5zM422.8 492.2c-.3 3.1-.6 3.3-5.1 4-6.7.9-10.8 3.6-13.5 8.8-1.9 3.7-2.3 5.6-1.9 10.4.8 9.2 6.5 15 15.9 16.2l4.9.7-.3 6.1-.3 6.1-4.8.7c-6.7.9-10.8 3.6-13.5 8.8-1.9 3.7-2.3 5.6-1.9 10.4.8 9.2 6.5 15 15.8 16.2l4.9.7v3.8c0 3.7.2 3.9 3 3.9s3-.2 3-3.9v-3.8l4.9-.7c6.4-.8 11.1-4.1 13.9-9.6 4.5-9 1.5-19.6-6.8-23.8-2.4-1.2-6.1-2.2-8.2-2.2H429v-12.7l4.9-.7c6.4-.8 11.1-4.1 13.9-9.6 4.5-9 1.5-19.6-6.8-23.8-2.4-1.2-6.1-2.2-8.2-2.2-3.7 0-3.8-.1-3.8-3.5 0-3.2-.2-3.5-2.9-3.5-2.6 0-3 .4-3.3 3.2zm.2 21.9v13.2l-3.6-.6c-5-.8-8.3-3.2-10-7.2-3.8-9.3 1.5-18.4 10.9-18.5h2.7v13.1zm14.5-11.6c4.2 2 6 5.6 5.9 11.6-.1 5.7-2.4 9.6-6.9 11.5-7.4 3.1-7.5 3-7.5-11.6v-13h2.6c1.4 0 4.1.7 5.9 1.5zM423 563.1v13.2l-3.6-.6c-5-.8-8.3-3.2-10-7.2-3.8-9.3 1.5-18.4 10.9-18.5h2.7v13.1zm14.5-11.6c4.2 2 6 5.6 5.9 11.6-.1 5.7-2.4 9.6-6.9 11.5-7.4 3.1-7.5 3-7.5-11.6v-13h2.6c1.4 0 4.1.7 5.9 1.5zM708.7 489.6c-.4.4-.7 2-.7 3.4 0 2.6-.3 2.8-5.1 3.2-5.6.6-9.2 2.8-12.7 7.9-2 2.9-2.3 4.4-2 10.4.5 10.6 5.4 15.8 15.9 17.2l3.9.6v12.4l-5.1.5c-5.6.6-9.2 2.8-12.7 7.9-2 2.9-2.3 4.4-2 10.4.5 10.5 5.4 15.8 15.9 17.2 3.5.5 3.8.8 4.1 4.2.3 3.3.6 3.6 3.3 3.6 2.7 0 3-.3 3.3-3.8.3-3.3.6-3.7 3-3.7 1.5 0 5-1.1 7.9-2.4 6.6-3.1 9.3-7.8 9.3-16.4 0-9.6-5.7-16.1-14.9-17l-5.1-.5v-6.3c0-6.3 0-6.4 2.8-6.4 1.5 0 5-1.1 7.9-2.4 6.6-3.1 9.3-7.8 9.3-16.4 0-9.6-5.7-16.1-14.9-17-4.7-.4-5-.6-5.3-3.6-.2-2.5-.8-3.2-2.8-3.4-1.4-.2-2.9 0-3.3.4zM708 514c0 12.5-.1 13-2.1 13-3.5 0-8.4-2.9-10.2-5.9-1.9-3.3-2.3-11.2-.6-14.2 1.4-2.8 6.8-5.9 10.2-5.9h2.7v13zm15.8-11c3.7 2.3 5.2 5.4 5.2 10.8 0 6.6-4.1 11.5-10.7 12.8l-3.3.6V501h2.8c1.5 0 4.2.9 6 2zM708 563c0 12.5-.1 13-2.1 13-3.5 0-8.4-2.9-10.2-5.9-1.9-3.3-2.3-11.2-.6-14.2 1.4-2.8 6.8-5.9 10.2-5.9h2.7v13zm15.8-11c3.7 2.3 5.2 5.4 5.2 10.8 0 6.6-4.1 11.5-10.7 12.8l-3.3.6V550h2.8c1.5 0 4.2.9 6 2z"/></svg>