<svg xmlns="http://www.w3.org/2000/svg" width="1600" height="533.33" version="1.0" viewBox="0 0 1200 400"><path d="M157 14.7c-50.5 118-52 252.1-4.3 370.3 4.9 12.1 6.2 14.6 8.1 14.8 1.2.2 2.2.2 2.2 0s-2.3-5.8-5.1-12.3c-11.3-26.8-22.7-65.7-28.3-96.5-13-71.2-9.2-147.7 10.5-217 4.6-16 13.4-40.8 20.9-58.3C167.4.8 167.6 0 165.5 0c-1.9 0-3.1 2.1-8.5 14.7zM184 200c0 132.7.3 200 1 200s1-67.3 1-200-.3-200-1-200-1 67.3-1 200zM197.2 1.1c.4.8 18 43.6 39.3 95.3l38.6 93.9-3 3.1c-7.1 7.4-6.6 18.3 1.2 24.6l2.1 1.7-3.1 7.4c-1.7 4.1-18.2 44.4-36.8 89.7-28.8 70.4-34.7 85.8-32.1 83.1.4-.3 51-123.6 69.1-168.2 4.7-11.4 6.5-14 6.5-9.5 0 4.8 3.1 30.7 4.5 38.4l1.5 8.1-38 65.3c-20.9 35.9-37.7 65.6-37.4 65.9.9.9.9.8 39.4-65.4l36.4-62.6 3.4 13.1 3.4 13.1-35.8 47.7c-19.6 26.2-36.8 49.2-38.2 51-1.6 2.1-2 3.2-1.1 3.2.8-.1 18-22.3 38.4-49.5 20.3-27.2 37.1-49.2 37.4-49 .3.4 10.1 26.5 10.1 27.1 0 .1-13.4 12.9-29.7 28.5-44 42.1-44.9 43-43.1 42.7.9-.2 14.2-12.2 29.5-26.8 15.3-14.6 31.5-30.1 36-34.3l8.1-7.8 8.3 16.7c6.6 13.4 7.9 16.8 6.8 17.5-.8.5-14.6 8.4-30.8 17.7-16.2 9.2-28.8 16.8-27.9 17 .9.2 15-7.4 31.5-16.8 25.8-14.8 29.9-16.8 30.8-15.4.6.9 4.2 6.6 8.2 12.6 4.2 6.5 6.6 11.1 6 11.4-.7.2-6.4 2.2-12.7 4.3-6.3 2.2-10.4 4-9 4 1.4.1 7.4-1.5 13.3-3.5 10.4-3.5 10.9-3.5 12.2-1.8 3.6 5.1 4.2 5.6 6.3 5.2l2.2-.3-2.6-3.8c-1.5-2-2.5-3.9-2.3-4.1.2-.2 11-3.8 23.9-8.1 12.9-4.3 24-8 24.7-8.2.7-.3 4.5 4.6 8.8 11.3 5.8 8.9 7.3 11.9 6.3 12.5-2.3 1.5 7.2 1 16.1-.8 7.8-1.5 8.4-1.5 9.3 0 1.3 2.4 3.1 2.1 2.3-.3-.3-1.1-.3-2 0-2 .4 0 13.8-2.5 29.7-5.5 15.9-3 29.1-5.5 29.2-5.5.2 0 2.9 3.4 6 7.5 4.9 6.5 7.6 9 7.6 7 0-.3-2.5-3.8-5.5-7.8s-5.1-7.3-4.7-7.4c.4-.1 18.7-3.6 40.7-7.8 22-4.1 41-7.7 42.2-8 1.8-.4 2.5.1 3.6 2.8 1.8 4.1 7.6 9.3 11.6 10.2l3.1.7v8.9c0 5.3.4 8.9 1 8.9s1-3.6 1-8.8v-8.7l5-1.8c5-1.8 9-5.8 10.5-10.5.4-1.5 1.2-2.1 2.3-1.8.9.2 19.9 3.9 42.2 8.2 22.3 4.2 40.7 7.8 40.8 8 .2.1-2.1 3.7-5.2 7.8-3.1 4.2-5 7.6-4.3 7.6 1 0 7.4-7.7 11.8-14.2.3-.5 13.6 1.6 29.6 4.6 15.9 3.1 29.3 5.6 29.7 5.6.4 0 .4.9.1 2-.8 2.4.3 2.6 2 .3 1.1-1.5 1.8-1.5 9.6 0 9.5 1.9 17.3 2.2 16.4.7-.9-1.4 13.5-23.2 14.9-22.7.6.3 11.8 4 24.9 8.2 13 4.3 23.7 8.2 23.7 8.8 0 .5-.9 2.1-2.1 3.5l-2.1 2.7 2.2.3c1.5.3 3.1-.6 4.9-2.8l2.6-3.1 8.9 3.1c5 1.6 10.4 3 12 2.9 2.1 0-.7-1.2-8.1-3.6-6.2-2-11.3-3.9-11.3-4.3 0-.3 3.4-5.7 7.5-11.9 4.1-6.3 7.5-11.8 7.5-12.2 0-.5.5-.9 1.1-.9.7 0 14.2 7.5 30.1 16.6 15.9 9.1 29.6 16.4 30.5 16.2.8-.2-12.2-8.1-29-17.7l-30.4-17.3 7.8-15.6c4.3-8.6 8-16.1 8.2-16.6.5-1.4 4.3 2.1 41.6 37.8 17.1 16.4 31.6 29.6 32.2 29.4.6-.2-12.5-13.4-29.2-29.3s-33.3-31.7-36.8-35.1l-6.4-6.1 4.9-13.6c2.7-7.5 5.2-13.7 5.6-13.7.3 0 17.1 22.1 37.2 49 31.8 42.5 38.6 51 38.6 48.5 0-.3-16.9-23.1-37.6-50.7l-37.7-50.2 3.2-12.5c1.8-6.9 3.4-12.7 3.5-12.9.2-.1 16.6 27.8 36.5 62 41.6 71.7 37.8 65.4 38.7 64.6.3-.4-16.1-29.6-36.6-65s-37.5-64.6-37.7-65c-.1-.3.6-5.7 1.6-12 1.1-6.2 2.4-16.9 3.1-23.8.6-6.9 1.5-12.8 1.9-13.2.4-.4 17 39.4 37 88.5 20 49 36.7 89.6 37.2 90.1s1.1.8 1.3.5c.3-.3-16-40.9-36.1-90.3l-36.7-89.9 2.7-1.9c3.9-2.9 5.7-6.9 5.7-13 0-5.6-1.6-9.1-5.8-12.5l-2.4-1.9L964 95.7C997.4 15 1004.4-2.8 1001.6.1c-.2.2-17.8 42.5-39.1 93.9-21.3 51.4-39 94.1-39.4 94.9-1.4 2.3-2-.1-3.1-12-.5-6.3-2-17.3-3.1-24.5l-2.2-13.2 23.8-41.3c13.1-22.8 31.2-54.1 40.1-69.7 9-15.5 15.8-28.2 15.1-28.2-.7 0-18.7 30.6-40.2 67.9-21.4 37.3-39.3 67.3-39.6 66.7-.3-.6-1.8-5.9-3.3-11.8l-2.8-10.6 41.6-55.9C972.3 25.6 990.5.3 989.9.1c-.6-.2-1.7.5-2.4 1.5-11.7 16.5-79.7 106.8-80.3 106.5-.8-.4-9.2-22.8-9.2-24.6 0-.6 19.4-19.6 43.1-42C964.8 19 983.7.4 983.1.2c-.6-.2-8.9 7-18.4 16-9.5 9.1-28.6 27.3-42.6 40.6l-25.4 24.1-7.9-16.1c-4.3-8.8-7.8-16.3-7.8-16.7 0-.4 18.6-11.2 41.2-24.1C944.9 11.1 962.8.4 961.9.2c-.8-.1-19.3 9.8-41 22.2-21.7 12.3-40 22.6-40.6 22.8-1.3.4-17.5-24.4-16.5-25.3.4-.4 14-4.9 30.2-10C910.6 4.6 922.3.4 920.9.2 919.6 0 905.7 4 890 9.1l-28.5 9.1-2-2.7c-1.1-1.6-3.9-5.2-6.3-8.1L849 2.1l4.2-1c3.9-.9 3.6-.9-3.2-.6-4.1.1-19.2 2.6-33.5 5.4-14.3 2.8-26.3 5.1-26.6 5.1-.3 0-2.3-2.5-4.3-5.5S781.5 0 780.9 0c-1.1 0-.8.6 3.4 6.8 1.6 2.4 2.7 4.5 2.5 4.6-.3.3-17.7 3.6-19 3.6-.4 0-2.6-3.4-4.9-7.5-2.4-4.1-4.7-7.5-5.1-7.5-1.4 0-.9 1.1 3.2 8.3 2.2 3.8 3.9 7.1 3.8 7.3-1.1 1-60.2 11.4-60.7 10.6-4.6-7-19.9-26.2-20.8-26.2-.7 0 3.3 6.1 8.8 13.6 5.6 7.4 10 13.7 9.8 13.8-.2.2-19.3 3.8-42.3 8.1-28.4 5.3-42.1 7.5-42.4 6.7-1.7-5.3-9.6-12.2-13.8-12.2H601V15c0-9.3-.4-15-1-15s-1 5.7-1 15c0 14.5-.1 15-2 15-4.6 0-11.4 5.7-13.3 11.2-.4 1-1.2 1.8-1.9 1.8s-17.7-3.1-37.8-6.9c-20.1-3.8-38.6-7.2-41.2-7.6-2.7-.4-4.8-1-4.8-1.3 0-.3 4.5-6.5 10-13.9 5.6-7.4 9.4-13.3 8.6-13.3-1 0-13.7 16.1-20.7 26.2-.4.6-59.6-9.8-60.8-10.8-.2-.2 1.5-3.5 3.8-7.4 4.4-7.8 4.5-8 3.2-8-.5 0-2.8 3.3-5.1 7.2-2.4 4-4.4 7.4-4.6 7.6-.2.4-15.7-2.5-18.2-3.3-.9-.4-.5-1.7 1.6-4.7 4.1-6.2 4.4-6.8 3.3-6.8-.6 0-2.7 2.5-4.7 5.5s-3.7 5.5-3.8 5.5c-.1 0-11.8-2.3-26.1-5.2C370.2 3 355.4.6 351.5.4c-3.8-.1-6.1 0-5 .2 4.7 1.2 4.7 1.3.3 6.7-2.4 3-5.2 6.6-6.3 8.1l-2 2.6L311 9C295.9 4 282.2.1 280.6.2c-1.8.2 8.1 3.8 26.8 9.7 17.3 5.5 29.5 9.9 29.2 10.5-1 2.7-15.9 25.1-16.5 24.9-.4-.1-18.4-10.3-40.1-22.8C258.3 10.1 239.8.1 238.9.2c-.9.2 16.9 10.9 39.6 23.8l41.2 23.5-7.9 16c-4.4 8.8-8.1 16.1-8.3 16.3-.2.2-10.1-9-22.2-20.5C226.6 7.2 218.9 0 217.8 0c-1.5.1 7.4 8.8 52.2 51.5 17.9 17 32.4 31.4 32.3 32-.2.5-2.4 6.9-5.1 14.2l-4.8 13.2L251 55.5C228.2 25 209 0 208.3 0c-1.1 0 17.4 25.3 67.4 92l16.1 21.5-3.3 12.9c-3.1 12.3-3.3 12.8-4.8 10.5-1.4-2.3-27.6-47.4-61.5-105.9C206.2 3.3 203.5-.9 202.6.1c-.3.2 14.2 25.6 32.1 56.4 17.9 30.8 36.4 62.8 41.2 71.1l8.7 15.2-1.7 10.3c-.9 5.7-2.2 16.2-2.9 23.4-1.1 12.7-1.4 14.4-2.5 13.3-.3-.3-18.1-43-39.4-94.9C216.7 43 198.7.4 198 .2c-.8-.3-1.1.1-.8.9zm185.3 6.5c13.8 2.6 25.3 4.9 25.7 5.3.4.4-2.6 5.7-6.7 11.8l-7.4 11.1L370 28c-13.3-4.3-24.8-8.1-25.6-8.4-1.2-.5-.1-2.5 4.7-8.6 3.4-4.4 6.7-8 7.3-8 .6 0 12.4 2.1 26.1 4.6zM851 11.1c3.4 4.4 6 8.2 5.8 8.4-.2.2-11.1 3.8-24.3 8.1-13.2 4.2-24.5 7.9-25.2 8.1-1.2.5-16.7-21.7-15.8-22.6.5-.4 48.7-9.8 51.6-10 .9-.1 4.4 3.4 7.9 8zM421.5 15c3.9.7 7.6 1.6 8.2 1.9 1.1.6-5.2 12.9-12.2 23.8l-1.4 2.1-9.6-3.1c-5.2-1.7-9.5-3.5-9.5-3.9 0-.5 3.3-5.7 7.3-11.8 4.7-7.2 7.7-10.8 8.7-10.6.8.3 4.7 1 8.5 1.6zm374.3 9.3c3.8 5.6 7.1 10.7 7.5 11.4.5.8-2.5 2.1-9.4 4.3-5.6 1.7-10.2 3-10.4 2.8-1.5-1.6-14.5-25.1-14.1-25.5.7-.8 18-4 18.9-3.5.4.2 3.8 4.9 7.5 10.5zm-302.8 5c0 .6-19.4 27.1-22 30.1-.5.4-10.9-2.4-23.2-6.4-12.2-3.9-23.8-7.6-25.5-8.1-1.8-.6-3.3-1.4-3.3-1.9 0-.9 12.4-22.5 14.1-24.6.9-1.2 59.9 9.5 59.9 10.9zm281 1.3c4 6.9 6.8 12.9 6.4 13.4-1.2 1-49.4 16.2-50.4 15.8-1.6-.6-23.2-30-22.5-30.6.7-.8 52.6-10.9 56.6-11.1 2.3-.1 3.4 1.3 9.9 12.5zm-406.2-1.3 25.2 8.2L381.4 55c-6.4 9.6-11.8 17.7-12 17.9-.2.3-42.5-23.2-44.3-24.6-.2-.1.1-1.5.8-3 1.8-3.9 15.2-24.3 16-24.3.3 0 12 3.7 25.9 8.3zm499.6 5.1c4.2 6.5 7.6 12.4 7.6 13 0 1.1-41.8 25.6-43.6 25.6-.9 0-22.7-32.4-23.2-34.4-.3-1.3 49.9-17.8 51-16.7.3.3 4.1 5.9 8.2 12.5zM506 31c12 2.1 74.4 14 74.7 14.3.2.2-3.4.9-7.9 1.6-17.2 2.6-40.1 11.2-56.2 20.9-3.7 2.3-7.5 4.2-8.3 4.2-2 0-33.5-10.1-34.6-11-.5-.5 4.4-7.8 10.8-16.4 8.4-11.2 12.2-15.5 13.4-15.2.9.3 4.5 1 8.1 1.6zm209.4 13.8c5.9 7.8 10.9 14.8 11.1 15.5.3.8-5.2 3-17.3 6.9l-17.7 5.7-3.5-2.2c-11.8-7.1-23.6-13.1-31-15.8-10.4-3.8-25.4-7.7-32.9-8.6-3.1-.3-4.9-.9-4.1-1.1 4-1.4 83.6-15.9 84.1-15.3.3.3 5.4 7 11.3 14.9zM406 41.6c4.7 1.5 8.6 2.8 8.8 2.9.3.3-21.3 37.9-23 40.2-.7.8-3.6-.4-10.6-4.4-5.3-3.1-9.8-5.7-10-5.8-.9-.8 23.9-36.4 25-36 .7.2 5.1 1.6 9.8 3.1zm411.3 14.9c6.5 9.6 11.7 17.7 11.7 17.9 0 .6-20.1 11.8-20.5 11.4-1.9-1.9-23.3-40.4-22.7-40.9.9-.9 16.1-5.7 18.3-5.8 1-.1 6 6.5 13.2 17.4zM451 56c9.1 2.9 16.8 5.4 17.2 5.7.4.2-7.3 11.2-17.2 24.3l-18 23.9-19.7-11.4c-10.9-6.2-19.7-11.7-19.6-12.2.1-.4 5.4-9.9 11.8-20.9l11.6-20.2 8.7 2.8c4.8 1.5 16.1 5.1 25.2 8zm344.1 10.9 11.8 20.5-20 11.4c-18.9 10.8-20.1 11.3-21.4 9.6-.7-1.1-8.7-11.8-17.8-23.9-9-12.1-16.3-22.2-16.1-22.4.7-.8 49-15.9 50.3-15.8.7.1 6.6 9.4 13.2 20.6zM346 62.6l21.9 12.5-13.6 20.4-13.6 20.4-16.8-16.1c-9.3-8.9-16.9-16.3-16.9-16.5 0-2.1 15.6-33.3 16.6-33.3.2 0 10.3 5.7 22.4 12.6zm237.8-10.1c.2 1.7-3.7 4-25.6 14.9l-25.8 12.9-8.5-2.8c-4.6-1.5-8.6-2.9-8.8-3.1-1.7-1.6 20-12.4 34.8-17.4 20.1-6.9 33.3-8.6 33.9-4.5zm46.3-1.1c8.7 1.6 29.9 8.5 37.4 12.3 2.7 1.4 8.1 4.4 11.9 6.6l6.9 4.1-9 3-9 2.9-26.2-12.8C627.8 60.4 616 54.3 616 53.9c0-4.2 2.2-4.6 14.1-2.5zm254.1 13.1c3.6 7.1 7 14.5 7.8 16.3l1.3 3.3-12.9 12.3c-7.1 6.7-14.7 13.9-17 15.9l-4.1 3.7-13.6-20.4-13.5-20.3 22.1-12.6c12.2-7 22.5-12.3 22.8-11.9.4.4 3.6 6.5 7.1 13.7zm-297.5-6.9c.2.6-6.6 7.7-15 15.7L556.2 88l-8.8-3c-4.9-1.7-9.6-3.3-10.4-3.6-1.5-.6 46.7-25.5 48.4-25 .6.1 1.1.7 1.3 1.2zm52.8 10.6C653 75 664 80.7 664 81c0 .3-4.5 2.1-10 3.9l-10.1 3.3-15.4-14.7C620 65.4 613 58.4 613 58c0-.7 1.1-2 1.7-2 .1 0 11.3 5.5 24.8 12.2zm-45.2-5.8 4.7 1.9v18.3c0 10.1-.3 18.4-.7 18.4-1.6.1-39.3-12.4-39.2-12.9.2-1 29.3-28.1 29.9-27.9.3.2 2.6 1.1 5.3 2.2zm32.1 12c8.1 7.6 14.4 14.1 14.1 14.4-.5.5-9.1 3.4-28.7 9.6l-10.8 3.4V64.1l4-1.1c2.1-.6 4.2-1.5 4.5-2.1.4-.5 1.1-.9 1.5-.7.4.2 7.4 6.5 15.4 14.2zm-136.5-5.9 17.2 5.6-5.8 4.3c-7.2 5.4-19.8 17.9-26.8 26.6-4.6 5.6-6.6 7.1-14.3 10.9l-9 4.4-7.7-4.5c-4.2-2.4-7.7-4.8-7.8-5.2 0-1.4 34.7-47.5 35.9-47.6.6 0 8.8 2.5 18.3 5.5zm257.2 18.6c9.9 13.2 17.9 24.2 17.7 24.3-.2.2-3.8 2.2-8.2 4.6l-7.9 4.3-8.9-4.4c-7.7-3.8-9.7-5.3-14.2-10.9-6.5-8-19.2-20.4-26.8-26.3l-5.6-4.4 17.1-5.6c9.5-3.1 17.5-5.6 17.9-5.6.4-.1 8.9 10.7 18.9 24zm-365.6-4.3c4.4 2.5 8.1 4.7 8.3 4.8.3.2-22.3 39.6-26.5 46.3l-1.5 2.4-9.4-9.4c-5.2-5.2-9.3-9.9-9.2-10.5.2-.7 6.1-9.9 13.3-20.7 11.8-17.7 13.2-19.4 15-18.5 1.1.6 5.6 3.1 10 5.6zm139.1-4.2c4.6 1.4 8.4 2.7 8.4 3 0 .6-49.2 24.5-49.6 24.1-1.2-1.2 29.9-29.7 32.3-29.7.3 0 4.3 1.2 8.9 2.6zm174.6 2.3c6.5 5 26.1 24.1 25.4 24.8-.2.2-11.5-5.1-25-11.9L671 81.5l7.7-2.7c4.3-1.4 8.3-2.7 8.9-2.7.6-.1 4 2.1 7.6 4.8zm149.3 16.3 13.6 20.3-9.8 9.2c-5.4 5.1-10 9.3-10.3 9.3-.7 0-27.5-46.2-27.5-47.5 0-1 17.2-11.2 19.2-11.4.7-.1 7.4 9 14.8 20.1zm-290.7-7.8c.2.3-11.2 11.5-30.8 30.2l-11.5 10.9-13.5 4.4-13.5 4.3-10.2-5.8-10.1-5.9 2.3-3.9c7.3-12.3 6.2-11.4 37.1-26.9l28.7-14.4 10.6 3.4c5.8 1.9 10.7 3.6 10.9 3.7zM697 96.8c29.7 14.8 29.8 14.9 36.7 27.1l2.3 3.9-10.1 5.7-10.1 5.8-14.2-4.7-14.1-4.6-20.5-19.7c-11.3-10.8-20.6-19.9-20.8-20.2-.3-.9 17.8-6.9 20.8-6.9 1.4 0 14.9 6.1 30 13.6zm-360.6 18.1 2.9 3.1-9.7 14.6c-5.4 8-9.9 14.4-10.2 14.2-2.4-2.5-23.4-31.4-23.4-32.4 0-1.3 6-18.7 8.5-24.7l1.6-3.8 13.7 12.9c7.5 7.2 15 14.4 16.6 16.1zm559.4-24.7c.7 1.8 2.9 7.9 4.8 13.5l3.6 10.1-12.1 16.1c-6.7 8.9-12.3 16.1-12.5 16.1-.2 0-4.5-6.3-9.6-14.1l-9.4-14 4-3.8c12.2-11.9 28.6-27.1 29.2-27.1.4 0 1.3 1.5 2 3.2zm-483 10.5 19 10.9-11.1 14.8-11.2 14.8-14.1 6.8-14.2 6.8-8.7-8.8-8.8-8.8 13.9-24.1c7.7-13.2 14.4-23.8 15-23.6.6.2 9.7 5.2 20.2 11.2zm408 10.5c7.1 12.3 13.5 23.4 14.2 24.8 1.3 2.3 1 2.8-7.5 10.6l-8.9 8.2-14.6-7.3-14.6-7.3-10.3-13.7c-5.6-7.5-10.1-14.1-9.9-14.6.2-.6 36.3-22.1 38.5-22.8.1-.1 6 9.9 13.1 22.1zM576.7 96.5c9.8 3.2 18.1 6 18.5 6.4.4.4-17.1 6.4-38.9 13.3-21.8 7-39.8 12.6-39.9 12.5-.5-.7 40.3-38.5 41.3-38.2.6.2 9.2 2.9 19 6zm86.3 12.7c10.4 10 18.8 18.3 18.6 18.5-.5.5-76.6-24-76.6-24.7 0-.7 34-11.8 36.7-11.9 1.6-.1 7.6 5 21.3 18.1zm-64 45.4c0 42.4-.2 49.5-1.4 49.1-1.9-.8-97.9-55.7-98.8-56.6-.4-.4 2.4-3.8 6.2-7.6l7-7 42.3-13.7c23.2-7.5 42.8-13.7 43.5-13.7.9-.1 1.2 10.4 1.2 49.5zm44.8-36.5c22.4 7.2 42.1 13.9 43.7 14.9 1.7 1.1 5.6 4.6 8.9 7.8l5.8 6-6.8 4c-16.7 9.7-93.5 53.2-93.9 53.2-.3 0-.5-22.3-.5-49.5 0-34.7.3-49.5 1.1-49.5.6 0 19.4 5.9 41.7 13.1zm-202.1-.9 7.4 4.2-16.7 8.4c-9.1 4.6-16.8 8.1-17 7.9-.4-.4 17.6-24.7 18.3-24.7.3 0 3.9 1.9 8 4.2zm331.3 4.5 9.3 12.4 2.8 3.8-16.1-7.8c-8.9-4.2-16.2-8.2-16.2-8.7-.1-.8 11.8-8.3 13.2-8.4.3 0 3.5 3.9 7 8.7zM463.8 120c-1.7 2.7-3.3 5-3.5 5-.2 0-1.8-.7-3.6-1.6l-3.1-1.7 6.4-3.3c3.6-1.8 6.6-3.3 6.7-3.4.1 0-1.2 2.2-2.9 5zm276.4-1.9 6.2 3.1-2.5 1.9c-1.3 1-2.9 1.9-3.5 1.9-.6 0-2.5-2.3-4.2-5-1.7-2.8-2.9-5-2.6-5 .2 0 3.2 1.4 6.6 3.1zm167.7 10c3.3 13.7 3.4 13-4.9 27.6-4.1 7.3-7.7 13.3-8 13.3-.3 0-3.6-4.7-7.3-10.4l-6.9-10.4 11.8-15.7c7.8-10.3 12-15.2 12.5-14.3.3.7 1.6 5.1 2.8 9.9zm-601 5.8C313 142 318 149 318 149.4c0 1-14.1 21.8-14.5 21.4-2.1-2.2-14.5-25.2-14.5-27 0-3.4 5.2-24.8 6.1-24.8.4 0 5.7 6.7 11.8 14.9zm50.3 10.5c-1.9 3.3-6.6 11.4-10.4 17.9l-6.9 11.8-9.5-12.5L321 149l10.1-15.1 10.1-15.2 9.8 9.8 9.8 9.8-3.6 6.1zM869 133.9c6 9.1 8.9 14.4 8.4 15.3-3.8 6.4-17.7 23.9-18.4 23.2-.5-.5-5.2-8.3-10.5-17.4l-9.6-16.5 9.8-9.2c5.4-5.1 10.1-9.3 10.4-9.3.3 0 4.8 6.3 9.9 13.9zm-413.5-8.8c2 1.2 3.4 2.7 3.1 3.3-.3.6-2.6 5.9-5.3 11.7l-4.7 10.6-26.1 8.3c-14.3 4.6-26.4 8.4-26.9 8.4-2.5.3-.8-3.1 6.9-13.5l8.6-11.4 19.2-9.7c10.6-5.3 19.7-9.7 20.4-9.7.6-.1 2.8.9 4.8 2zm314 7.7 19 9.7 8.8 11.9c4.9 6.5 8.5 12.2 8 12.6-.4.4-12.8-3.1-27.5-7.9l-26.7-8.5-1.7-4.6c-.9-2.5-3.2-7.6-5.1-11.4-1.9-3.7-3.2-7.1-2.9-7.4 1.6-1.5 6.3-4.1 7.6-4.1.8 0 10.1 4.4 20.5 9.7zM472.7 135c5.4 3 8.1 5.1 7.2 5.5-2.3.9-25.3 8.5-25.6 8.5-.4 0 1.6-5 4.9-12.3 1.7-3.7 3.5-6.7 4-6.7s4.7 2.2 9.5 5zm267.6.8c5.3 11.6 5.8 13.2 4.5 12.7-8.3-2.5-24.5-7.9-25.1-8.2-.9-.5 15-10.2 16.9-10.2.6-.1 2.3 2.5 3.7 5.7zM502 139.5c-3 3-5.9 5.5-6.5 5.5-.5 0-2.6-1-4.5-2.2l-3.5-2.1 9.5-3.3c5.2-1.8 9.7-3.3 10-3.3.2-.1-2 2.4-5 5.4zm201.5-2.2 9.9 3.3-4.6 2.6-4.5 2.5-6.1-5.9c-3.3-3.2-5.7-5.8-5.3-5.8.4 0 5.1 1.5 10.6 3.3zm-332.1 10.6 7.9 7.9-18.2 9.1c-9.9 5-18.1 8.8-18.1 8.5 0-1.1 19.2-33.4 19.9-33.4.3 0 4.2 3.6 8.5 7.9zm475.1 7.6c4.8 8.2 9.1 15.8 9.6 16.8.7 1.1-5.5-1.5-17.3-7.4l-18.3-9.2 8.5-7.8c4.6-4.3 8.5-7.7 8.6-7.6.1.1 4.1 6.9 8.9 15.2zm-356.9-10.9c2.5 1.5 4.2 3 3.7 3.4-.4.4-11.6 11-24.8 23.5-13.1 12.5-24.1 22.2-24.3 21.6-1-3.1 3.9-28.3 7.4-37.7l1.5-4 14.2-4.6c7.8-2.5 15-4.6 16-4.7 1-.1 3.9 1.1 6.3 2.5zm243 2.1 14.3 4.6 2 6.1c2.9 8.9 4.1 13.7 5.6 23.4 2.7 16.5 3.9 16.7-17.6-3.9-10.6-10.1-21.9-20.9-25.2-24l-6.1-5.6 4.5-2.6c2.4-1.5 5.3-2.7 6.3-2.7s8.3 2.1 16.2 4.7zm-333.3 8.2c-3.7 5-7 9.1-7.3 9.1-.3 0-2.3-1.8-4.4-3.9l-3.9-4 10.9-5.4c6-3 11-5.4 11.2-5.2.2.2-2.7 4.4-6.5 9.4zm406.5-4.1 11.2 5.7-4.5 4.5c-2.4 2.4-4.6 4.2-4.8 3.9-2.9-3.3-14.5-19.9-14-19.8.5 0 5.9 2.6 12.1 5.7zm108.1 8.7c1 7.7 2.2 17.4 2.5 21.6.5 7.5.5 7.7-1.8 8.3-1.3.3-3.1.8-3.8 1.1-1 .4-3.6-2.6-8-9.3l-6.6-9.9 7.6-13.1c4.2-7.2 7.7-13 7.8-12.9.2.1 1.2 6.5 2.3 14.2zm-181.4 16.1c19.7 18.8 23 22.4 23.3 25.1l.3 3.3h-74.8c-67.8-.1-74.6-.2-72.3-1.6 1.4-.8 23.2-13.4 48.5-27.8l46-26.3 3 2.7c1.7 1.4 13.4 12.5 26 24.6zm-431.8-5c1.5 3 1.4 3.2-4.1 11.6l-5.7 8.5-4-1.1-4-1 .6-7.1c.9-9.5 3.4-29.7 4.1-31.5.4-1.3 9 12 13.1 20.6zm241.8 4.1c24.7 14.1 46.4 26.5 48 27.5 2.9 1.7.8 1.8-72.1 1.8h-75.1l.6-3.5c.5-2.9 4.4-7.1 25.6-27.4 13.8-13.2 25.7-24 26.5-24 .7-.1 21.7 11.5 46.5 25.6zM887 161c3.5 5.2 6.3 9.9 6.3 10.5 0 1.7-8.4 15.5-9.4 15.5-1.8 0-23-11.1-22.7-11.9 1-2.5 18.4-24.8 18.9-24.3.4.4 3.5 5 6.9 10.2zm-558.6 1.5c4.8 6.4 8.9 12.1 9.2 12.8.4 1.1-21.1 12.7-23.5 12.7-.5 0-2.8-3.4-5.1-7.4l-4.1-7.5 7.3-11c4-6.1 7.4-11.1 7.4-11.1.1 0 4.1 5.2 8.8 11.5zm117.1-1c-2.9 10-5.5 25.3-5.5 32 0 4.4-.4 5.5-3 8l-2.9 2.8-5.3-4.9c-2.9-2.6-11.2-10.5-18.5-17.4l-13.2-12.6 25.2-8c13.9-4.5 25.3-8.1 25.4-8 .1.1-.9 3.7-2.2 8.1zm332.3-.2 25.4 8.2-18 17.3c-9.9 9.4-18.4 17.2-18.9 17.2s-2.1-1.3-3.6-2.8c-2.2-2.3-2.7-3.7-2.7-7.9 0-8.1-4.3-30.2-7.5-38.6-.4-.9-.6-1.7-.4-1.7.2 0 11.8 3.8 25.7 8.3zm-391 1 4.2 4.3-2.2 2.1c-1.4 1.2-10.6 4.7-22.2 8.4l-19.8 6.3-2.4-2.9c-1.3-1.7-2.4-3.2-2.4-3.5 0-.8 37.3-18.8 39-18.9.9-.1 3.5 1.8 5.8 4.2zm451.7 4.6c10.2 4.9 18.5 9.3 18.5 9.8-.1.4-1.1 2.1-2.4 3.6l-2.3 2.9-20.4-6.6c-11.2-3.7-20.9-7.4-21.6-8.3-1-1.3-.5-2.2 3.5-5.9 2.6-2.4 5-4.3 5.5-4.4.4 0 9 4 19.2 8.9zm-422 23.8 14 13.3H365l11.9-15.9c8.4-11.1 12.8-16.2 14.8-16.9 3.3-1.1 2.8-1.4 24.8 19.5zm406-2.7 11.6 15.5-16 .3c-8.9.1-23.2.1-31.9 0l-15.7-.3 17.5-16.7c17-16.1 17.6-16.6 20.2-15.5 1.7.8 7.2 7.1 14.3 16.7zm10.1-9.1c8.7 2.8 16.5 5.4 17.2 5.6.8.3-1.1 3.6-5.5 9.5-3.7 4.9-7.1 9-7.4 9-.4 0-4.6-5.3-9.4-11.8-4.9-6.4-10-13.2-11.4-15.1-1.8-2.4-2.1-3.3-1-2.9.9.3 8.7 2.9 17.5 5.7zm-458.2 9.3c-5.9 7.9-11 14.7-11.4 15.1-.5.5-4-3.3-7.9-8.5-4.3-5.7-6.5-9.5-5.8-9.8 5.8-2.2 32.6-10.8 34-10.9 1.2-.1-1.4 4.2-8.9 14.1zm527.5-4.8 5.9 8.9-2.2 2.4-2.3 2.5-8.2-4.1c-4.4-2.3-8.1-4.4-8.1-4.7 0-1.4 7.6-14.4 8.3-14.1.4.1 3.4 4.2 6.6 9.1zm-594.5-1.5c2 3.2 3.6 6.4 3.6 7 0 .6-3.1 2.6-6.9 4.5l-6.8 3.5-2.2-2.3c-1.1-1.2-2.1-2.6-2.1-3 0-.8 9.9-15.6 10.5-15.6.2 0 2 2.6 3.9 5.9zm554.4 0c1.2 2.1 2.2 4.1 2.2 4.4 0 .3-2-.1-4.5-1-2.5-.8-4.5-1.7-4.5-2 0-.7 3.5-5.2 4.1-5.3.3 0 1.5 1.7 2.7 3.9zm-519-.1c1.5 2.3 1.3 2.5-5.7 4.7l-2.3.7 2.3-4.1c2.5-4.5 3.4-4.7 5.7-1.3zM883 190c0 2.1-3.1 2.1-9.2.1-5.3-1.8-6.6-2.7-8.5-6.1-1.3-2.1-2.3-4.1-2.3-4.5 0-.3 4.5 1.7 10 4.5s10 5.5 10 6zm-547-9.5c0 .3-1.1 2.2-2.4 4.3-2 3.1-3.4 4.1-9.5 6-6.7 2.2-9.1 2.2-9.1.2 0-.6 4.4-3.2 9.8-5.9 9.6-4.9 11.2-5.6 11.2-4.6zm16.6 14.2 6.6 8.8-8.6.3c-4.7.1-12.4.1-17 0l-8.4-.3 3.9-6.7c3.6-6.2 4.3-6.8 9.6-8.6 3.2-1.1 6.1-2.1 6.5-2.1.4-.1 3.7 3.8 7.4 8.6zm508-6.7c5.7 1.9 6.2 2.4 9.8 8.6 2.1 3.6 3.6 6.8 3.3 7-.2.3-7.9.3-17.1.2l-16.7-.3 6.3-8.7c3.5-4.8 6.8-8.8 7.4-8.8.5 0 3.7.9 7 2zm41 10.7c-.2.2-10.5-3-16.3-5.2-.7-.2-1-1.1-.7-1.9.5-1.2 2.2-.7 8.9 2.7 4.7 2.2 8.3 4.2 8.1 4.4zM314 193c0 .5-3 1.8-6.7 3.1-10.3 3.3-10.4 3.3-2.3-.9 7.1-3.8 9-4.2 9-2.2zm13.4 2.7c-5.2 9-4.5 8.6-7.2 4.2-1.3-2.3-2-4.5-1.6-4.9.7-.6 8.6-3.4 11.2-3.9.2-.1-.9 2-2.4 4.6zm547.9-3.1c2.6.9 4.7 1.9 4.7 2.2-.1.4-.9 2.2-1.9 4.1l-1.8 3.5-2.7-4.3c-2.9-4.5-4.1-7.1-3.4-7.1.3 0 2.5.7 5.1 1.6zm18 6c12.5 4 11.6 5.4-3.3 5.4-6.6 0-12-.2-12-.6 0-1.5 4.6-8.3 5.5-8l9.8 3.2zM318 200l2 4h-10.4c-13.3 0-14.3-1.4-3.7-5.2 4.2-1.4 8.2-2.7 8.8-2.7.7-.1 2.2 1.7 3.3 3.9zm122 3c0 .5-.5 1-1.1 1-.5 0-.7-.5-.4-1 .3-.6.8-1 1.1-1 .2 0 .4.4.4 1zm321.5 0c.3.5.1 1-.4 1-.6 0-1.1-.5-1.1-1 0-.6.2-1 .4-1 .3 0 .8.4 1.1 1zM321 206.5c0 .7-4.9 8.5-5.3 8.5-.3 0-13.7-4.5-16.4-5.5-.7-.2-1-1.1-.7-2 .5-1.2 2.6-1.5 11.5-1.5 6 0 10.9.2 10.9.5zm32.9 9c-4 5.3-7.7 9.4-8.3 9.2-.6-.3-3.7-1.3-6.9-2.3-6.4-2-7.1-2.6-11.6-10.7l-3.2-5.7H361l-7.1 9.5zm77.1-9c0 .5-8.2 8.4-28.5 27.7l-7.1 6.7-3.7-1.1c-3.2-1-5.4-3.4-15-16.2-6.2-8.3-11.6-15.7-12.1-16.4-.6-.9 6.3-1.2 32.8-1.2 18.5 0 33.6.2 33.6.5zm9 1.5c0 1.1-.2 2-.3 2-.2 0-1.2-.9-2.2-2-1.8-1.9-1.7-2 .3-2 1.5 0 2.2.6 2.2 2zm156.5-1.1c-.6.5-23.2 13.5-50.4 29L496.8 264l-7.3-6.8c-4.1-3.7-15.9-14.8-26.3-24.7-17.1-16.3-18.9-18.4-19.3-21.8-.3-2.1-.3-4 0-4.3.2-.2 34.9-.4 77-.4 44.3 0 76.1.4 75.6.9zm159.7-.4c.2.3.2 2.2-.1 4.4-.6 3.6-2.6 5.9-24.7 26.8-13.2 12.5-25 23.6-26.1 24.6-2 1.8-3.1 1.2-51.4-26.3-27.2-15.5-49.8-28.6-50.3-29.1-.6-.5 28.4-.9 75.5-.9 42.1 0 76.8.2 77.1.5zm7.8-.2c0 .2-.9 1.2-2 2.2-1.9 1.8-2 1.7-2-.3 0-1.5.6-2.2 2-2.2 1.1 0 2 .2 2 .3zm70.4.9c-.5.7-5.2 7.2-10.6 14.4-9.7 13-9.9 13.1-15.7 14.9-3.6 1.1-6.4 1.4-7.3.9-.9-.5-8.7-7.8-17.4-16.2L767.5 206h33.8c26.8 0 33.7.3 33.1 1.2zm38.6-.2c0 .5-1.2 2.9-2.6 5.3-2.5 4.1-3.3 4.6-11.2 7.1-4.6 1.6-8.7 2.4-9.1 1.9-1.4-1.5-9.7-12.8-10.5-14.1-.6-.9 3-1.2 16.3-1.2 10.3 0 17.1.4 17.1 1zm25-.6c0 .6-16 5.9-16.4 5.5-.6-.8-2.6-4.8-2.6-5.3 0-.3 4.3-.6 9.5-.6s9.5.2 9.5.4zm-19.8 3.5c1.6 3 1.6 3-1.4 4-5.3 1.9-5.8 1.4-3.5-2.9 1.2-2.2 2.4-4 2.7-4 .3 0 1.2 1.3 2.2 2.9zm-549.6 8.8c-.1.1-2.5-.5-5.4-1.3l-5.2-1.5 2.3-3.9 2.2-3.9 3.2 5.2c1.7 2.8 3.1 5.3 2.9 5.4zm44.8 3.9c5.8 7.6 10.4 14 10.2 14.1-.2.2-33.7-10.5-34.2-11-.2-.2 2.6-4.3 6.2-9.1s6.8-8.6 7-8.3c.2.2 5.1 6.6 10.8 14.3zm63.8-11.9c2.2 2.1 2.8 3.6 2.8 6.9 0 5.4 3.5 25.7 5.3 30.9.8 2.2 1.7 5.2 2 6.7l.7 2.6-10.3-3.2c-5.6-1.8-16.9-5.5-25.1-8.1l-14.8-4.9 17.3-16.8c9.6-9.2 17.8-16.7 18.3-16.8.6 0 2.3 1.2 3.8 2.7zM598 305.4c-.7.7-5.1-.3-13.8-3.1-7-2.3-26-8.5-42.2-13.8l-29.5-9.6-7.3-6.7-7.3-6.7 50.3-28.6 50.3-28.6.3 48c.1 31.9-.1 48.4-.8 49.1zm102.5-40.3c.5.6-.6 2.5-3 4.9-3.9 4-5.5 4.6-49.3 19-25 8.3-45.8 15-46.3 15s-.9-19.5-.9-47.9v-47.9l49.3 28c27 15.4 49.6 28.5 50.2 28.9zm82.5-41.6c8.7 8.3 15.5 15.3 15.2 15.6-1.1 1-44.3 15.1-44.8 14.6-.2-.2 0-1.7.6-3.3 1.9-4.9 4.9-20.5 5.6-28.9.5-6.7 1.1-8.4 3.2-10.8 1.4-1.5 3-2.6 3.5-2.4.5.1 8 7 16.7 15.2zm59.9-8.4c2.9 3.9 4.9 7.5 4.4 7.9-.9.8-28.5 10.1-28.9 9.7-.4-.3 18-24.7 18.6-24.7.3 0 2.9 3.2 5.9 7.1zM902 210c0 1.5-2 3-8 6l-8 4-1.5-3c-1.2-2.4-1.3-3.1-.3-3.5 6.1-2.3 15.5-5.4 16.6-5.4.6-.1 1.2.8 1.2 1.9zm-587.6 7.1c.6.5.3 1.1-.6 1.4-1.4.6-15.8-5.8-15.8-6.9 0-.7 15.3 4.5 16.4 5.5zm587.5 10.1-6.1 9-4.4-7.3-4.3-7.4 8.1-4.1 8.1-4.1 2.3 2.4 2.4 2.4-6.1 9.1zM305 217.5c3.9 1.9 7 3.8 7 4.1 0 1-7.4 13.4-8.1 13.4-.3 0-3.1-3.8-6.2-8.4l-5.5-8.3 2.1-2.2c1.2-1.1 2.5-2.1 2.9-2.1.5 0 4 1.6 7.8 3.5zm577.4 0c.9 1.3 1.6 2.7 1.6 3 0 .2-4.9 3-11 6-6 3-11 5.2-11 4.8 0-.3 1.6-3.4 3.6-6.8 3.2-5.4 4.3-6.4 8.3-7.8 6.3-2.1 6.6-2 8.5.8zm-395.6 40c3.9 3.7 7.2 7.1 7.2 7.4 0 .4-1.8 1.7-4 3l-4 2.3-16.5-5.3-16.5-5.3-2.5-8c-2.9-9.6-5-19.7-6-28.6l-.8-6.5 17.9 17.1 25.2 23.9zm-162.5-37.8c5 1.4 6.3 2.2 8.4 5.6 1.3 2.1 2.2 4.1 2 4.4-1 .9-18.7-8.7-18.7-10.2 0-1.9 1-1.9 8.3.2zm430.7 7.4c-1.4 10.2-5.7 27-7.3 28.5-.7.7-9 3.8-18.6 6.9-13.8 4.6-18 5.6-20 4.9-1.4-.5-2.6-1.5-2.6-2.1 0-1.4 48.4-47.7 49.1-47 .3.3 0 4.2-.6 8.8zm-459.4 23.4-7.4 12.7-1.1-5.4c-1-4.8-4.1-31-4.1-34.9 0-1 1.4-1.9 3.8-2.5l3.7-.9 6.2 9.2 6.2 9.2-7.3 12.6zm619.2-29.8c2.6.6 2.6 0 .7 17.8-1.7 16.3-3.4 25.1-4.5 23.9-.4-.5-3.8-6.1-7.5-12.5l-6.6-11.7 6.3-9.6c4.5-6.9 6.7-9.4 7.8-9 .8.4 2.5.9 3.8 1.1zm-51.9 4.5c-1.7 2.9-3.4 5.7-3.9 6.1-.4.5-2.2-1-3.9-3.2-2.4-3-2.9-4.2-1.9-4.6 3-1.1 10.4-3.3 11.5-3.4.7-.1-.1 2.1-1.8 5.1zm-524.6 9.5c.4.6-15 22.3-17.7 25-.6.6-14.6-20.3-14.6-21.8 0-.6 1.9-4.4 4.2-8.4l4.1-7.4 11.8 5.9c6.4 3.3 12 6.3 12.2 6.7zm1.3-10.1c2.7.9 5.1 1.8 5.3 2 .2.2-.7 1.7-1.9 3.4-1.8 2.5-2.5 2.9-3.7 1.9-1.4-1.2-5.7-8.9-5-8.9.2 0 2.6.7 5.3 1.6zm550.3 5.5c2.2 4 4.1 7.6 4.1 8 0 .5-3.3 5.8-7.2 11.8l-7.2 10.8-9.3-12.3c-5.1-6.8-9.3-12.7-9.3-13.1 0-.9 21.8-12.1 23.6-12.2.6-.1 3 3.1 5.3 7zm-36.1-.5c1.9 2.5 3.2 4.7 3 4.9-.1.1-9 4.6-19.7 10l-19.4 9.7-4.5-4.5-4.5-4.5 3.3-4.6c3.2-4.4 3.6-4.6 19.4-10 8.9-3 16.8-5.5 17.6-5.5.8 0 3 2 4.8 4.5zm-484.9 4.7c15.8 5.3 18.6 6.6 20 9 1.6 2.7 1.6 2.8-2.9 6.6l-4.5 3.9-19.2-9.7c-10.6-5.2-19.3-9.9-19.3-10.2 0-1.6 4.3-5.9 5.8-5.8.9 0 10 2.8 20.1 6.2zm-7.6 11.3 19.2 9.7-8.9 8.4c-4.9 4.6-9.3 8-9.7 7.6-1.2-1.3-20.8-35.3-20.3-35.3.2 0 9.1 4.3 19.7 9.6zM810 240c-2.4 3.4-3.2 3.6-5 1.5-1-1.2-.8-1.6 1.1-2.3l3.9-1.5c.8-.3 1.6-.6 1.8-.6.2-.1-.6 1.2-1.8 2.9zm45.7-2.3c-.3.5-4.6 8-9.7 16.8-5 8.8-9.4 16.2-9.6 16.4-.4.4-15.6-13.8-16.2-15.1-.2-.4 7.7-4.8 17.5-9.7 19.3-9.8 18.6-9.4 18-8.4zm12.8 11.5c5 6.7 9.1 12.5 9.3 12.9.4 1-19 30-19.8 29.7-.4-.2-5.1-4.4-10.5-9.5l-9.8-9.2 10.3-18c5.8-10 10.7-18.1 11-18.1.3.1 4.6 5.5 9.5 12.2zm-516.9 8.9 9.2 15.7-7.2 6.9c-3.9 3.8-8.3 7.9-9.7 9.1l-2.6 2.2-9.6-14.5c-5.3-8-9.7-14.8-9.7-15.1 0-.4 3.9-6 8.7-12.6 8.6-11.7 8.8-11.9 10.3-9.7.8 1.2 5.6 9.3 10.6 18zm-44.2 19.4c-6.4 8.6-11.9 15.3-12.1 15.1-.7-.7-6.3-22.9-6.3-25.1 0-1.1 3.4-7.8 7.6-14.9l7.6-12.8 7.4 11.1L319 262l-11.6 15.5zm597.1-22.1 6.9 11.9-3.3 13.4c-1.9 7.4-3.7 13.1-4.1 12.6-2.6-2.7-22.3-29.9-22.4-30.8-.1-.6 3-5.8 6.9-11.7 5.9-8.9 7.1-10.3 8.1-8.9.6.9 4.1 6.9 7.9 13.5zm-511.1-12.2c-.3.5-1.2.4-2-.3-1.9-1.6-1.8-1.8.6-1.2 1.1.3 1.7.9 1.4 1.5zm410.4 0 2.1 2.3-8.2 11.2-8.2 11.1-21.1 10.8-21.2 10.7-3.6-2.2c-2-1.3-3.6-2.5-3.6-2.7 0-.2 1.7-3.9 3.9-8.2 2.1-4.2 4.6-10 5.6-12.7 1-2.8 2.2-5.4 2.7-6 .8-.9 45.8-16.2 48.4-16.4.6-.1 2 .9 3.2 2.1zm-364.9 13.9c9.1 3 10.5 3.7 11.4 6.2.5 1.6 2.9 7 5.4 12l4.4 9.1-2.3 1.8c-1.3 1-3.1 2-4 2.3-1 .4-10.2-3.7-22.7-9.9l-21-10.6-7.4-9.7c-9.2-12.3-9.1-12.1-7.8-13.7 1.2-1.4 6.5.1 44 12.5zm376.1-1.7c-1.1.9-21 10.6-21 10.1 0-.3 3-4.6 6.7-9.5l6.8-9 3.9 4c2.2 2.1 3.8 4.1 3.6 4.4zm-416.1 1.1c3.3 4.4 5.8 8.1 5.6 8.3-.1.2-4.9-2-10.5-4.8l-10.3-5.1 3.4-3.5c1.8-1.9 3.9-3.3 4.6-3.2.7.2 3.9 3.9 7.2 8.3zm21 28.4 12.1 16-19.4 11C402 318 392.9 323 392.4 323c-.9 0-28.4-47-28.4-48.6 0-.5 4.2-4.8 9.2-9.5l9.3-8.6 12.7 6.3 12.7 6.4 12 15.9zm406.9-19.6 8.3 8.3L821 298c-7.8 13.5-14.3 24.6-14.4 24.8-.4.3-35.7-19.7-37.4-21.3-1.1-1 .7-4 9.9-16.4l11.2-15.2 12.6-6.4c6.9-3.5 13.3-6.4 14.1-6.4.9-.1 5.3 3.6 9.8 8.2zm-79.8-5.7c0 .3-2.4 5.7-5.4 11.9l-5.4 11.4-11.1-6.2c-6.1-3.4-11.1-6.4-11.1-6.7 0-.6 29.7-10.8 31.8-10.9.6-.1 1.2.2 1.2.5zm-276.6 7.7 13 4.3-9.1 5.2c-5 2.9-9.4 5.2-10 5.2-.8 0-5.8-9.2-9-16.8-1.3-3.1-1.3-3.3.4-2.8 1 .3 7.6 2.5 14.7 4.9zm-140.1 11.9 9.6 14.6-16.6 15.8c-12.6 12.1-16.7 15.4-17.4 14.3-1.4-2.2-9.1-24.2-9.2-26.4-.1-1.7 23.1-34.1 23.8-33.3.2.2 4.6 6.9 9.8 15zM892 281l12 15.9-4.6 12.8c-2.5 7-4.8 13.6-5.1 14.6-.6 2-1.5 1.3-21.6-17.9l-12.8-12.3 9.5-14.5c5.2-8 9.8-14.6 10-14.6.3 0 6 7.2 12.6 16zm-390.3-9.4c3 2.6 5.2 4.8 5 5-.3.3-10.8-3-16.7-5.2-1.1-.4-.5-1.1 2-2.4 1.9-1.1 3.7-1.9 3.9-2 .2 0 2.8 2.1 5.8 4.6zm203.7-4c2.3.9 2 2.1-.8 2.8-1.3.3-3.2.9-4.3 1.3-1.5.5-1.3.1.6-2 1.4-1.5 2.6-2.7 2.7-2.7.1 0 .9.3 1.8.6zm17.8 10.2 11.7 6.9-3.2 4.9c-7.7 11.6-6.5 10.8-36.1 25.6l-28 14-10.8-3.3c-5.9-1.9-10.8-3.6-10.8-3.9 0-.3 10.6-10.6 23.7-23 23.1-21.9 23.8-22.5 31.2-25.1 4.2-1.6 8.3-2.8 9.1-2.8.8 0 6.8 3 13.2 6.7zm-291.1 3.3c20.4 10.2 19.6 8.7 7.9 15.1l-6.5 3.6-10.2-13.9c-5.6-7.6-10-13.9-9.8-13.9.3 0 8.7 4.1 18.6 9.1zm351.7-5.9c-1.4 1.8-6 8.1-10.4 13.9l-8 10.6-7-4.1c-3.8-2.2-7.1-4.5-7.3-5-.2-.7 32.7-18.2 34.8-18.5.2-.1-.8 1.4-2.1 3.1zm-284.6 1.6 11.6 3.7 21.2 20 21.1 20-11.5 3.7-11.5 3.8-26.8-13.6c-28.6-14.5-28.9-14.6-36.1-26.5l-2.1-3.5 9.7-5.7c5.3-3.1 10.4-5.6 11.2-5.6.8-.1 6.7 1.6 13.2 3.7zm350 9.9 7.7 7.8-13 20c-7.2 11-13.5 20.4-13.9 20.8-.9 1-21-10.2-21-11.6 0-.5 6.2-11.6 13.7-24.7l13.7-23.8 2.6 1.8c1.4 1 6 5.4 10.2 9.7zm-472.7 14.2c7.4 12.8 13.5 23.4 13.5 23.6 0 .2-2.6 1.8-5.7 3.5-3.2 1.8-7.7 4.3-9.9 5.7l-4.2 2.3-11.9-18.2c-6.6-10.1-12.8-19.6-13.8-21.2l-1.9-2.8 9.5-8.8c5.1-4.9 9.7-8.5 10.2-8.1.4.4 6.8 11.2 14.2 24zm295.5-6.8c-9.1 8.8-19.3 18.5-22.8 21.6l-6.3 5.6-20.6-6.6c-19.7-6.4-22.2-7.3-21.2-8 .8-.5 85.4-28.5 86.4-28.6.6 0-6.4 7.2-15.5 16zm-108.5 3.4c14.9 4.8 27.4 9 28 9.3.5.3-7.4 3.3-17.5 6.7l-18.5 6.2-8.5-7.8c-4.7-4.3-13.7-12.8-20-18.8l-11.5-11 10.5 3.3c5.8 1.8 22.7 7.3 37.5 12.1zm-99.1-6.4c1.5 2.2 2.5 4.3 2.3 4.6-.3.2-3.1-.9-6.3-2.5l-5.8-2.9 3-1.6c1.6-.9 3.2-1.6 3.5-1.7.4 0 1.9 1.8 3.3 4.1zm277.7-2.2 2.3 1.9-5.3 2.6c-2.9 1.5-5.5 2.5-5.8 2.3-.6-.6 4.7-8.7 5.7-8.7.4 0 1.8.8 3.1 1.9zm-279.5 7.4c7 3.6 9 5.3 14.6 12.2 6 7.4 17.4 18.3 25.8 24.6l3.4 2.6-18.4 6.1c-10.1 3.4-18.4 6.1-18.5 5.9-.1-.1-7.9-10.5-17.4-23.1-9.4-12.6-17-23-16.8-23.2 1.3-1.3 16.5-9.4 17.7-9.3.8 0 5.1 1.9 9.6 4.2zm293.3.3c8.1 4.6 8.2 4.7 6.6 7-4 6.2-33.6 45.4-34.2 45.4-.9 0-35.6-11.3-36.3-11.8-.3-.2.3-.8 1.2-1.3 7.1-4 26.1-22.3 33.6-32.3 2-2.8 16.9-11.4 19.8-11.5.6-.1 4.8 2 9.3 4.5zm-401.4 19c7.2 10.8 13.1 20.1 13.2 20.8.2.6-9.5 6.6-21.5 13.3-20 11.3-21.8 12.2-23 10.5-1.6-2.1-14.9-29.1-15.4-31.2-.2-1 6.1-7.7 16.2-17.3 9.1-8.6 16.7-15.7 17-15.7.3 0 6.4 8.9 13.5 19.6zm522.3-2.6c8.4 8 15.2 15.1 15.2 15.8 0 1.7-15 32.1-16.2 32.8-1.4.9-43.9-23.7-43.6-25.1.2-.7 6.1-10 13.3-20.8 11.1-16.6 13.2-19.3 14.6-18.3.9.6 8.4 7.6 16.7 15.6zm-426.4 12.5c9.3 12.4 16.7 22.7 16.5 22.9-1.6 1.4-50.3 16.6-50.9 16-.5-.5-5.8-9.4-11.9-19.9-7.5-13-10.6-19.2-9.8-19.7 10.8-6.5 37.5-21.6 38.2-21.7.6-.1 8.6 10 17.9 22.4zm335.7-11.8c10.4 6 18.9 11.1 18.9 11.5 0 1.1-23.2 40.8-23.8 40.8-2 0-49.3-15.8-49.4-16.5-.1-1.1 33.6-46.4 34.6-46.5.5 0 9.3 4.8 19.7 10.7zm-259.3 14.8c.2.2-3.3 1.5-7.7 3l-8.1 2.6-6.2-4.7c-7.6-5.8-17.9-15.5-22.1-20.7-2.9-3.8-2.6-3.7 20.4 7.8 12.9 6.5 23.5 11.9 23.7 12zm190.3-19.6c-6.7 8.4-27.6 26.1-30.9 26.1-2.1 0-15.2-4.3-15.2-5 0-.4 47.5-24.7 48.8-24.9.2-.1-1 1.6-2.7 3.8zm-119.7-.3c1.4.5 1.6 3.2 1.6 20 0 18.9-.1 19.4-2 19.4-1.2 0-3.4.7-5.1 1.5-1.7.9-3.5 1.2-4.3.8-.7-.4-8-7.2-16.1-14.9l-14.8-14.1 19.4-6.6c10.7-3.6 19.5-6.6 19.6-6.6.1-.1.8.2 1.7.5zm25.1 8.1c9.4 3 17.3 5.8 17.8 6.2.4.4-5.8 7-13.9 14.6l-14.5 13.8-3.5-1.6c-1.9-1-4.4-1.7-5.4-1.7-1.9 0-2-.8-2-19.1v-19l2.3.7c1.2.3 9.9 3.1 19.2 6.1zm-52 20.4c8.8 8.4 16.1 15.6 16.3 16 1.2 3.1-5.6.5-28.4-10.9l-25.8-12.9 10.5-3.6c5.7-1.9 10.6-3.6 10.9-3.6.3-.1 7.7 6.7 16.5 15zm83.8-10.1c5.3 1.7 9.7 3.3 9.7 3.5 0 .3-10.9 5.9-24.1 12.6-21.3 10.6-27.9 13.1-26.7 10 .4-1.1 30.1-29.1 30.8-29.1.3 0 4.9 1.4 10.3 3zm169.9 8.5c2.1 1.1 3.8 2.2 3.8 2.5 0 .3-5.3 8.4-11.8 18.2l-11.7 17.6-9.5-3c-5.2-1.6-9.9-3.3-10.3-3.7-.4-.4 4.5-9.9 10.9-21l11.6-20.1 6.7 3.7c3.6 2 8.3 4.6 10.3 5.8zm-421.9 9.7c5.8 10.1 10.7 18.9 10.9 19.7.2.9-2.5 2.3-8.2 4.2-4.6 1.6-8.9 2.9-9.6 2.9-1.5 0-23.9-33.8-23-34.7 1.2-1.3 17.1-10.1 18.2-10.2.6-.1 5.9 8.1 11.7 18.1zm154.8-1.7c21.2 10.7 27 13.9 26.7 15.3-.3 1.4-1.3 1.6-5.3 1.4-7.8-.6-26-5.5-38-10.4-10.5-4.2-24.7-11.8-26-13.8-.4-.6 11.3-5.2 15.3-6 .1 0 12.4 6.1 27.3 13.5zm125.8-6.9c1.8.6-1.8 3-13.3 8.6-10.8 5.4-22.2 9.5-34.1 12.3-13.4 3.2-18.9 3.5-19.3 1.3-.3-1.4 5.3-4.5 25.5-14.6l25.7-12.9 7.1 2.3c3.8 1.3 7.6 2.7 8.4 3zM514.5 341c6.4 4.4 22.3 12 31.4 15.2 10.1 3.5 27.5 7.8 31.6 7.8 1.7 0 3.6.4 4.4.9 1.6 1.1 3.3.7-46.4 10.1-20.3 3.9-37.6 7.2-38.3 7.5-.7.3-6.5-6.5-13.8-16.3l-12.6-16.7 18.9-6.1c10.3-3.3 19.3-5.9 19.8-5.6.6.3 2.8 1.8 5 3.2zM381 355.5c6 9 11 16.8 11 17.2 0 .5-11.3 4.5-25 8.9l-25 8.1-2.3-3.1c-1.3-1.7-5.1-7.5-8.5-12.8l-6.1-9.7 21.7-12.5c11.9-6.9 22-12.5 22.4-12.5.4-.1 5.7 7.3 11.8 16.4zm327.5-10.9c9.3 3.1 17.3 6 17.8 6.3.4.4-4.5 7.7-10.9 16.2-9.5 12.6-11.9 15.3-13.7 15.1-3.6-.6-80-15.3-82.6-15.9-2.4-.6-2.4-.7-.5-1.4 1.2-.4 4.7-1 8-1.4 15.1-1.9 45.3-13.2 58-21.9 2.1-1.4 4.5-2.6 5.4-2.6.8 0 9.1 2.5 18.5 5.6zM853 352c10.7 6.1 19.9 11.5 20.4 12 .9.9-9.5 18.4-14.1 23.7l-2.8 3.1-24.5-8c-13.5-4.4-24.7-8.2-24.9-8.4-.2-.2 4.8-8.3 11.3-17.9 9.9-14.9 11.9-17.4 13.4-16.6.9.5 10.5 5.9 21.2 12.1zm-371.5 14.9c8 10.7 11.1 15.7 10.3 16.2-2.3 1.1-56.8 11.1-58.1 10.6-1.5-.6-16.2-25.6-15.4-26.3 1.1-1.1 50.3-17.1 50.9-16.5.4.3 5.9 7.6 12.3 16zm273.2-7.3c13.1 4.2 24.2 8 24.7 8.4 1.2 1.2-13.3 26-15.2 26-1.6 0-53.5-9.8-56.4-10.6-1.4-.4.6-3.6 9.9-16 6.3-8.5 11.9-15.4 12.4-15.4s11.5 3.4 24.6 7.6zm-333.5 18.1c3 5.4 6.5 11.4 7.7 13.5l2.2 3.6-4.8 1c-2.6.6-7 1.3-9.8 1.7l-5 .6-6-9.2c-3.3-5-6.8-10.4-7.8-11.9l-1.8-2.8 8.8-3c4.8-1.7 9.3-3.1 9.8-3.1.6-.1 3.6 4.3 6.7 9.6zm371.8-5.6c5.2 1.8 9.6 3.3 9.8 3.4.2.2-3.1 5.5-7.3 11.8l-7.6 11.4-4.7-.8c-10-1.9-15.2-3.1-15.2-3.5 0-.9 14.5-25.4 15-25.4.3 0 4.8 1.4 10 3.1zM1014 200c0 132.7.3 200 1 200s1-67.3 1-200-.3-200-1-200-1 67.3-1 200zM1036.7 10.2a480.14 480.14 0 0 1 41.3 194.3c0 61.7-11 119.9-33.3 176-4 9.9-7.4 18.4-7.6 18.8-.2.5.7.7 2 .5 2-.3 3.2-2.4 8-14.3 47.7-118.3 46.5-251.8-3.3-368.8-6.3-14.6-7.5-16.7-9.4-16.7-2.2 0-2.2.3 2.3 10.2z"/></svg>
