<svg xmlns="http://www.w3.org/2000/svg" width="1600" height="533.33" version="1.0" viewBox="0 0 1200 400"><path d="M162.5 3c-.8 1.6-1.5 3.1-1.5 3.4 0 .6 11.2 5.7 11.6 5.3.2-.2 1.5-2.9 2.9-6L178 0h-7c-6.7 0-7 .1-8.5 3zM199 .4c0 .6 8.7 5.6 9.8 5.6.7 0 3.2-4.2 3.2-5.5 0-.3-2.9-.5-6.5-.5s-6.5.2-6.5.4zM231.3 7.2c-4.4 8.2-13.3 27-13.3 28.1 0 .8 8.5 4.7 10.1 4.7.5 0 .9-.5.9-1.1 0-.6 4.2-9.6 9.4-20L247.9 0h-12.7l-3.9 7.2zM267.7 7.7c-9.2 16-27.8 55.8-26.5 56.7.8.6 9.2 3.5 9.3 3.3.1-.1 2.1-4.9 4.5-10.7 5-12.3 17.3-37.2 22.8-46.2C285-.9 284.9 0 278.1 0h-5.9l-4.5 7.7zM315 .4c0 .2 1.1 1.1 2.5 2 2.3 1.5 2.5 1.5 3.5-.4 1-1.8.8-2-2.5-2-1.9 0-3.5.2-3.5.4zM349 .9c0 1.3 6.2 6.1 7.2 5.5.4-.3 1.7-1.8 2.8-3.4l2.1-3h-6c-3.4 0-6.1.4-6.1.9zM400.8 1.2c.9.9 1.5.9 2.4 0 .9-.9.7-1.2-1.2-1.2s-2.1.3-1.2 1.2zM431.2 6.1c-7.7 6.4-7.9 7.1-3.3 11.3 2 1.8 2.1 1.7 9.4-4.5 4-3.5 9.1-7.8 11.3-9.6l3.9-3.2h-7.1l-7-.1-7.2 6.1zM487 5.8c-12.2 7.4-22 14.1-22 15 0 1.3 3.1 5.2 4.1 5.2.5 0 5-2.7 9.8-6 4.9-3.2 13.3-8.2 18.6-11.1 6.9-3.7 9.5-5.6 9.1-6.6-.3-.8-.6-1.7-.6-1.9 0-.2-2.1-.4-4.7-.4-4 0-6.3 1-14.3 5.8zM692.5 3.9c4.4 2.1 11.3 5.7 15.4 8s7.5 4 7.6 3.9c2.4-3.5 3.5-5.4 3.5-6 0-.4-3.8-2.7-8.4-5.2C702.5.1 702.1 0 693.4 0l-8.9.1 8 3.8zM841.6 4.4l3.7 4.5 2.8-2c3.8-2.6 4.3-3.7 2.9-5.4-.8-1-3.2-1.5-7.2-1.5h-5.9l3.7 4.4zM916 .6c0 .3 2.4 4.7 5.4 9.7 5.1 8.8 17 31.3 17.8 33.8.3.8 1.8.6 5.1-.9l4.8-2.1-5.2-10.3c-2.8-5.7-7.6-14.9-10.7-20.6L927.5 0h-5.7c-3.2 0-5.8.3-5.8.6zM761.1 6.1l-2.4 3.1L770.1 20c6.3 5.9 14.6 14.6 18.4 19.3 3.9 4.7 7.3 8.6 7.7 8.6.3.1 2-1.1 3.7-2.5 3.7-3.1 4.1-2.2-8.5-16.6-8.5-9.6-25.6-25.9-27.2-25.7-.4 0-1.8 1.4-3.1 3zM1031.3 5.6c-2.9 1.4-5.3 2.9-5.3 3.2 0 .4 1.6 4.6 3.6 9.2 3 7.1 6.1 15.1 11.5 29.7l.8 2.1 5.8-2.1c3.2-1.1 5.9-2.1 6.1-2.2.7-.5-16.2-42.6-17-42.4-.2 0-2.7 1.2-5.5 2.5zM586 11v4h25v-2.4c0-1.3.3-3.1.6-4 .5-1.4-1-1.6-12.5-1.6H586v4zM892.7 14.5l-3.7 2.6 2.7 4.7c1.5 2.6 3.7 6.3 4.9 8.3 4.7 7.5 14.9 29 20.5 42.9 3.2 8 6.1 14.4 6.4 14.3.3-.1 2.3-.8 4.5-1.4 2.2-.7 4-1.7 4-2.3C932 77 900.4 12 897.2 12c-.4 0-2.4 1.1-4.5 2.5zM151.5 29.7c-7.4 20-10.4 29.2-9.7 29.7 1.6.8 11.4 3.8 11.6 3.5.2-.2 1.6-4.2 3.1-8.9s4.7-13.6 7.1-19.8c2.4-6.3 4.4-11.8 4.4-12.3 0-.9-5.5-3.5-9.6-4.5-2-.5-2.6.5-6.9 12.3zM728 20c-1.2 1.7-2.1 3.2-1.9 3.4 5.5 3.9 18.1 14.6 23.7 20l7.2 7.1 2.7-2.8 2.7-2.7-5.4-5.6c-4.8-4.9-22.3-19.7-25.7-21.7-.7-.4-2 .5-3.3 2.3zM819.2 19.8l-3.2 2.7 7.6 10.2c4.2 5.7 8.2 10.3 8.8 10.3.6 0 2.4-1 3.9-2.3l2.8-2.2-7.4-10.1c-4.1-5.6-7.9-10.4-8.4-10.7-.4-.3-2.3.7-4.1 2.1zM367.3 29.2c-10.4 14.2-10 13.2-5.7 15.9l3.8 2.3 1.7-2.5c1-1.3 4.5-6.2 7.9-10.7 3.4-4.6 6-8.5 5.8-8.6-.2-.1-1.6-1.2-3.2-2.4s-3.2-2.2-3.5-2.2c-.4 0-3.4 3.7-6.8 8.2zM514.5 26.6c-14.1 7.1-13.7 6.8-11.7 10.4.9 1.6 2 3 2.3 3 .3 0 5.4-2.5 11.3-5.6 8.5-4.5 10.6-5.9 10.1-7.3-.4-.9-1-2.4-1.2-3.4-.3-.9-.8-1.7-1.2-1.7-.3.1-4.6 2.1-9.6 4.6zM444 38.3c-5.2 5.1-11.8 12-14.7 15.3l-5.2 6.1 2.2 2.2c1.3 1.1 2.8 2.1 3.4 2.1.6 0 2.8-2.1 4.9-4.8 2.2-2.6 8.5-9.2 14.2-14.7L459 34.4l-2.7-2.6-2.8-2.7-9.5 9.2zM322.2 40.8c-3.4 5.9-6.2 11.2-6.2 11.8 0 .9 7 4.9 7.5 4.2 1.1-1.5 12.5-22 12.5-22.5 0-.8-5.6-4.3-6.9-4.3-.4 0-3.5 4.9-6.9 10.8zM973.9 33.1l-4.6 2 6.3 16.2c3.5 8.9 8.2 22.1 10.5 29.4l4.2 13.1 5.1-1.5c2.8-.8 5.3-1.7 5.5-1.9 1.3-1.3-19.5-58.5-21.5-59.1-.5-.1-3 .7-5.5 1.8zM867.4 34l-3.2 2 6.3 11.1c3.4 6 6.5 11.2 6.7 11.5.3.3 2.2-.3 4.2-1.3 2.6-1.2 3.5-2.2 3.1-3.2-1.6-4.2-12.1-22.1-13-22.1-.5 0-2.4.9-4.1 2zM1008 33.6c-1.9.8-3.6 1.6-3.8 1.8-.4.5 9.8 28.8 10.8 30 .5.4 3.1.1 5.8-.8l5-1.7-2.8-8.2c-8.3-24.2-8.2-24.1-15-21.1zM181.5 40.7c-2.3 5.9-9.5 27.8-9.5 28.8 0 1.2 9.6 4.3 10.4 3.4.2-.2 2.5-6.7 5.1-14.4 2.6-7.7 5-14.5 5.2-15.1.4-1.1-6.4-4.4-9.1-4.4-.8 0-1.7.8-2.1 1.7zM579.5 40.1c-3.8.5-11.3 1.9-16.5 3.2-9.5 2.3-9.5 2.3-9.2 5.2.2 1.7.5 3.1.6 3.3.2.1 3.7-.6 7.7-1.7 12.9-3.5 30.2-5.4 42.2-4.6l10.7.7V39l-14.2.1c-7.9.1-17.4.5-21.3 1zM389.9 52C382.7 62.3 369 85.3 369 87.1c0 .5 6.5 3.9 7.5 3.9.2 0 2.3-3.5 4.6-7.8 5.6-10.1 13.1-22 19.6-30.9l5.2-7.1-3.4-2.6c-1.8-1.4-3.6-2.6-3.8-2.6-.3 0-4.2 5.4-8.8 12zM648.2 49.9c-1 2.9-1 2.9 5.1 5.1 3.4 1.3 9.2 3.8 12.9 5.6 3.7 1.9 7 3.4 7.2 3.4.3 0 1.2-1.3 2-2.9 1.5-2.7 1.4-2.9-1.2-4.1-5.7-2.7-23.4-10-24.2-10-.4 0-1.3 1.3-1.8 2.9zM715.2 49.9l-2.1 2.9 9.5 8.3 9.5 8.2 2.7-2.6 2.6-2.6-5.9-5.4c-9.2-8.3-13.2-11.7-13.7-11.7-.2 0-1.4 1.3-2.6 2.9zM280 52.5c-1.1 2.5-2.9 6.6-4.1 9.2-6.1 14-16.5 45.7-19.3 58.9-.7 3.1-.6 3.2 4 4.3 2.5.7 4.8 1 5.1.8.2-.3 1.9-6.3 3.8-13.3 3.8-14.9 11.4-36.8 17.4-50.2 2.2-5.1 4.1-9.7 4.1-10.1 0-.8-7-4.1-8.6-4.1-.2 0-1.4 2-2.4 4.5zM768.6 57.4l-2.9 2.4 6 7.8C775 72 780.1 79.3 783 84c6.7 10.7 6.4 10.4 8.6 9.1 4.8-2.7 4.9-2.4-1.5-12.6-5.2-8.2-17.7-25.6-18.4-25.5-.1.1-1.5 1.1-3.1 2.4zM1050.1 57.6c-2.4.7-4.5 1.5-4.7 1.7-.2.2.5 3.5 1.6 7.3a1093 1093 0 0 1 5.6 20.9c2 7.7 3.7 14.1 3.9 14.3.2.2 3-.2 6.4-.9 7-1.3 6.9 1 1.5-19.4-7.5-28.9-6.1-26.5-14.3-23.9zM506 69.2c-8.8 6.2-25.2 21.7-32.1 30.5l-5.1 6.3 2.4 2 2.3 2 4-4.8c7.6-9.2 24.1-24.8 32.3-30.7 7.6-5.4 8.1-6 6.9-7.9-.8-1.1-1.8-2.1-2.3-2.3-.5-.2-4.3 2-8.4 4.9zM851.8 69.1c-2.1 1.1-3.8 2.1-3.8 2.3 0 .9 11.1 23.6 11.6 23.6 1 0 7.4-2.9 7.4-3.4 0-1.1-9.2-21.4-10.3-22.9-1.1-1.4-1.6-1.4-4.9.4zM137.1 73.7c-1.1 3.8-7.4 31.2-8.6 37-.7 3.4-1 3.2 8.6 4.8l3.6.7 1.2-6.4c.7-3.4 2.8-13.1 4.8-21.3 2-8.3 3.5-15.2 3.5-15.5-.1-.5-9-2.9-10.9-3-.7 0-1.7 1.7-2.2 3.7zM410.3 79.3c-5.2 8.3-15.3 26.8-15.3 28 0 .6 5.4 3.7 6.4 3.7.3 0 2.4-3.7 4.7-8.3 2.3-4.5 6.8-12.6 10.2-18.1l6-9.8-2.4-1.9c-1.3-1-2.8-1.9-3.4-1.9-.5 0-3.3 3.7-6.2 8.3zM574.8 73c-9.1 1.9-19.2 5-26.5 8.1-4.1 1.7-4.2 1.9-3.1 4.4 1.4 3.1 1.5 3.1 13.8-1.3 4.7-1.7 12.7-3.9 17.8-4.9 5.1-1 9.3-2.2 9.2-2.6v-3.2c0-2.9.1-2.9-11.2-.5zM338.9 76.7c-2.8 6.4-7.9 18.5-7.9 19 0 1 7.3 3.4 8 2.6.5-.4 3-5.9 5.8-12.1l5-11.3-2.9-1.4c-4.4-2.3-5.7-1.8-8 3.2zM819.5 75.7c-1.6.8-3.1 1.7-3.3 1.8-.2.2 1.7 4.3 4.1 9.1 4.8 9.7 12.4 27.7 15.2 36.2 1.3 3.9 2.1 5.2 3.2 4.8.8-.4 2.6-.9 3.9-1.2 1.3-.3 2.4-1.2 2.4-1.8 0-5.6-19.4-50.7-21.8-50.6-.4.1-2 .8-3.7 1.7zM445.1 84.6c-3.9 5.3-7.1 9.9-7.1 10.3 0 .4 1.3 1.7 2.9 2.9l2.9 2.1 3.7-5.7c2.1-3.1 5.5-7.8 7.7-10.4l3.8-4.6-2.9-2.1c-1.6-1.2-3.1-2.1-3.4-2.1-.3 0-3.7 4.3-7.6 9.6zM632.2 77.9l-1 3 6.6 2c8.5 2.6 23.4 9.8 31.5 15.3 3.4 2.3 10.1 7.9 14.8 12.5l8.6 8.3 2.2-2.4 2.1-2.3-8.7-8.4c-12.5-12-27.4-21.3-43.8-27.4-10.4-3.9-11.2-3.9-12.3-.6zM957.6 76.6c-2.2.8-4.1 1.5-4.2 1.7-.2.2 1.4 5.9 3.5 12.7 4.8 15.5 9.5 35.8 11.9 51.5l1.8 12 4.5-.3c2.4-.2 4.7-.7 5.1-1 2.4-2.4-15.1-78.4-18-78.1-.4 0-2.5.7-4.6 1.5zM198.6 90.8c-3.9 15.1-9.6 42.1-9.6 45.9 0 1.5.6 2.3 1.8 2.3.9 0 3.3.3 5.3.6l3.6.6 2.8-14.3c1.5-7.9 4.5-21.1 6.6-29.2 2.2-8.2 3.9-15.4 3.9-16.1 0-1.2-6.1-3.6-9.2-3.6-1.1 0-2.5 3.9-5.2 13.8zM297.1 96.5c-2.6 7.3-4 13-3.5 13.5s2.5 1.1 4.4 1.5l3.5.6 4.1-12.5 4.2-12.5-2.7-.9c-1.4-.6-3.3-1.3-4.1-1.6-1.3-.5-2.5 1.9-5.9 11.9zM708.5 86c-1.8 2-1.8 2.1 2.7 6.8 10.1 10.5 19.6 23.9 26.3 37.1 3.4 6.8 3.6 7 6 5.9 1.4-.6 2.5-1.5 2.5-2 0-1.5-6.9-14.7-11.4-21.6C727.9 101.7 713 84 710.9 84c-.3 0-1.4.9-2.4 2zM894 88.1c-1.3.5-2.6 1.2-2.8 1.4-.2.1 1.5 5.9 3.8 12.8l4.2 12.4 3.9-.9c4.9-1.3 4.9-2 .1-15.8-3.8-10.9-4.6-11.7-9.2-9.9zM515.7 101.5c-8.9 7.5-16.6 16.2-23.4 26.4-6.1 9.2-14.7 27.1-13.5 28.2.4.4 1.7 1 2.9 1.3 1.9.6 2.6-.4 7.2-9.9 8-16.9 17.8-29.8 30.8-40.7 7.1-5.9 7.2-6 5.6-8.4-.8-1.3-1.9-2.4-2.4-2.4-.4 0-3.7 2.5-7.2 5.5zM229.5 100c-.7 1.1-5.1 20.5-6.9 30-2.3 12.5-4.4 28.2-5.2 39.2l-.7 9.8h5.2c3.9 0 5.1-.4 5.1-1.5 0-10.7 5.9-49.6 10-65.7 1.1-4.2 2-8.3 2-9 0-1.5-8.7-4.1-9.5-2.8zM1030 103.4c-2.5.7-4.4 1.7-4.4 2.2.7 4.1 5.6 30.9 5.8 31.1.1.1 2.4-.1 5.1-.5l5-.8-.1-3.9c-.1-6.6-4.6-29.5-5.8-29.4-.6.1-3.1.7-5.6 1.3zM587 105.7v2.8l11.2-.3c16.5-.5 30.6 2.9 45.2 10.9 5.6 3.1 6 3.1 7.2 1.4.8-1.1 1.4-2.2 1.4-2.5 0-1-18.7-9.6-24.5-11.3-10.4-3.1-14.7-3.7-27.4-3.7H587v2.7zM798.3 104c-1.3.5-2.3 1.3-2.3 1.9 0 .5 2.2 6.3 4.9 13s5.7 15.1 6.7 18.7l1.9 6.6 3.4-.6c1.8-.3 3.6-.7 3.8-1 1.4-1.4-13.2-39.6-15.1-39.5-.6 0-2.1.4-3.3.9zM560.7 111c-14.5 6.3-30.4 19.1-39.4 31.8-4.3 6-4.5 6.4-2.7 7.7 1.1.7 2.2 1.1 2.5.7.4-.4 3.4-4.2 6.8-8.4 9.6-12.3 22.1-21.6 37.1-27.9 6.8-2.8 6.3-2.4 5.5-4.8-.8-2.7-1.6-2.6-9.8.9zM159.1 123.1c-1.2 7.4-2.5 14.8-2.8 16.6l-.5 3.1 5.7.7c3.1.4 5.7.6 5.8.4.8-1.2 5.3-31.5 4.8-32.1-.3-.4-2.9-1-5.7-1.3l-5.1-.7-2.2 13.3zM1063.2 111.2c-4.2.8-5.2 1.3-4.8 2.6.8 2.3 4.4 27.1 5.2 35.4l.7 6.8h3.2c1.8 0 4.7-.3 6.5-.6l3.2-.7-.6-6.6c-2-20.1-5.3-38.1-6.9-38-.7.1-3.6.6-6.5 1.1zM769.3 117.2c-1.3.6-2.3 1.4-2.3 1.8 0 .4 1.3 3.6 2.9 7.1 1.5 3.5 3.4 8.2 4.1 10.4.7 2.2 1.6 4.3 1.9 4.8 1 1 7.1-1.2 7.1-2.6-.1-2.8-8.9-22.2-10.1-22.4-.8-.1-2.4.3-3.6.9zM389.7 120.8c-1.2 2.1-6.9 20.9-8.7 28.5-2.7 11.8-2.6 12.3 1.2 13.1 1.7.3 3.3.4 3.5.2.3-.2 1.5-5.1 2.8-10.8 1.3-5.6 3.7-14.5 5.3-19.6 1.7-5.1 2.6-9.4 2.2-9.7-2.1-1.3-6-2.3-6.3-1.7zM353.2 128.4c-3 10.4-6 24.2-7.8 36.3-1.7 11.8-1.6 12.3 4.3 12.3 3.1 0 3.2-.1 3.8-5.8 1.1-8.9 5.3-29.9 7.9-38.9l2.3-8.2-4.2-1.4-4.3-1.5-2 7.2zM872.7 124.2c-2.9.8-3.6 1.4-3.2 2.7.3 1 1.6 6.6 3 12.6 1.3 5.9 2.6 11 2.9 11.2.7.7 8.6-.7 8.6-1.5-.1-1.1-3.8-17.6-5-22.1-.6-2.3-1.4-4.1-1.8-4-.4.1-2.4.6-4.5 1.1zM125.6 127.7c-1.2 7.8-3.5 29-3.8 35.3l-.3 6.5 6.2.3 6.1.3.6-5.3c2.1-20 3.7-33.7 4.2-35.9.5-2.5.2-2.7-4.3-3.3-2.6-.4-5.5-.9-6.5-1.2-1.2-.4-1.7.4-2.2 3.3zM320 128.6c0 .5-1.1 6.2-2.5 12.8-1.4 6.5-2.3 12.1-2.1 12.4.7.7 8.6 2 8.6 1.4 0-.2 1.2-6.1 2.6-12.9 1.4-6.9 2.4-12.7 2.2-12.9-.9-.8-8.8-1.6-8.8-.8zM664 130.5c-1 1.2-.2 2.7 5 8.7 11 13 18.3 27.9 21.1 43.2 1.1 5.9 1.5 6.6 3.6 6.6 2.9 0 2.9-1.7.4-12.5-4-16.3-11.6-30.4-23.4-43.3-4.4-4.7-4.9-4.9-6.7-2.7zM1003.2 133.7l-4.3.4.6 4.2c1.9 14.4 3.5 31.2 4.1 43.9l.7 14.8h5.3c2.9 0 5.5-.4 5.8-.9.8-1.3-1.3-33.9-3.2-49.1-1.9-14.7-1.3-14-9-13.3zM592.5 134.7c-6.7.8-7.6 1.3-7.3 3.6.3 2.4.7 2.4 12.1 1.2 5.2-.6 5.7-.9 5.7-3.1 0-2.1-.4-2.4-3.7-2.3-2.1.1-5.1.4-6.8.6zM941 140.9c-4.2.7-4.2.1-1.6 21.6 1.2 9.6 1.9 22.7 2 36.2l.1 21.3h4.7c4.3 0 4.8-.2 5.4-2.7 1.1-4.1-.3-43.4-2.1-57.8-2-17.1-2.5-19.5-3.9-19.4-.6.1-2.7.4-4.6.8zM284.5 145.3c-.4 2-1.6 10.5-2.9 20.3-.5 3.7-.3 4.2 1.7 4.8 4.5 1.2 6.6.7 7.1-1.7 1.4-7.3 3.2-23.3 2.7-23.8-.3-.4-2.3-.9-4.3-1.2-3.3-.5-3.9-.3-4.3 1.6zM446.6 151.3c-5 16.3-7.6 32.3-7.6 45.8v7.9h2.9c3.3 0 3 1.1 4.6-20.2.7-9.5 2.7-19.8 5.9-30.8 1.4-4.6 2.4-8.5 2.3-8.5-.1-.1-1.4-.6-2.9-1.3l-2.8-1.1-2.4 8.2zM908 146.6c-1.4.4-1.3 1.8 0 13.2l1.6 12.7h8.9l-.4-5c-.1-2.8-.8-8.6-1.5-13-1.1-7.9-1.1-8-4.1-8.2-1.6 0-3.7.1-4.5.3zM410.1 164.4c-2.7 14.3-2.7 14.2 1 15 3.9.8 4.9.1 4.9-3.2 0-1.5.9-6.8 1.9-11.7 1-5 1.7-9.2 1.6-9.3-.2-.2-1.9-.7-3.8-1.2l-3.5-.8-2.1 11.2zM717.1 156.9c-1.1.7-.9 2.6 1.2 10.7 5 19 5.8 38.6 2.3 55.1-1.4 6.6-1.1 7.3 3.3 7.3 2.6 0 4.2-8.5 4.8-26 .6-15.6-.8-26.8-4.9-40.8-2.1-7.2-3.3-8.4-6.7-6.3zM814.2 156.9c-1.2.7-1.1 3 .2 13.7.9 7.1 1.9 16.4 2.2 20.8l.6 7.8 3.5-.5c2-.4 3.7-.8 3.9-.9.5-.6-1.6-25.9-2.9-33.8-1.1-6.9-1.4-7.5-3.7-7.8-1.4-.1-3.1.2-3.8.7zM848.6 161.7l-3.8.4.6 4c1.4 8.8 2.7 35.9 2.1 43.1l-.6 7.8h8.9l.7-7.4c1-10.7-1.7-48.9-3.4-48.4-.3.1-2.3.3-4.5.5zM650.3 163.1c-1.6 1.6 5.5 15.7 8 15.8 3.1.2 3-2.7-.5-9.6-3.4-6.8-5.3-8.4-7.5-6.2zM541.5 170c-4 8-4.3 9.6-1.6 10.3 1.6.4 2.7-.9 6-7.4 3.7-7.4 3.9-8 2.1-8.9-1-.5-2.1-1-2.4-1-.3 0-2.2 3.1-4.1 7zM507.2 171.2c-3.3 10.3-4.2 16.2-4.2 29 0 11.3 2.4 26.7 4.8 30.5 1.1 1.7 5.5.4 4.8-1.4-3.2-8.3-4.1-14.7-4-29.8 0-14.3.3-16.9 2.6-24.5 1.5-4.7 2.6-8.5 2.5-8.6-.1-.1-1.2-.4-2.4-.8-1.9-.6-2.3 0-4.1 5.6zM589 167.5c-5.7 1.9-13.6 7.8-17.5 13.3-2.9 4.3-2.9 4.4-1.1 5.8 2.7 1.9 2.8 1.9 5.7-2.9 4.3-7.1 14-12.6 22.7-12.7 3.8 0 4.2-.2 4.2-2.5s-.3-2.5-4.7-2.4c-2.7 0-6.8.7-9.3 1.4zM1065.8 166.7c-.2.5-.2 10.6 0 22.5l.3 21.8h6.3c6.1 0 6.4-.1 6.9-2.7.6-3.1-.2-36.5-.9-40.1-.4-2-1-2.2-6.4-2.2-3.2 0-6 .3-6.2.7zM614.1 171.8c-.8 1.5-.1 2.6 4.1 6.2 6.6 5.7 10 12.9 10.1 21.4.1 7.6-1.5 12.4-6 18.3-3.2 4.1-3.3 4.7-1.9 6.1 1.4 1.4 1.8 1.4 4.1-.8 5.6-5.3 9.5-14.9 9.5-23.6 0-9.4-5.7-20.8-13.3-26.4-4.8-3.5-5.3-3.6-6.6-1.2zM375.7 183.2c-.9 10.4-.9 29.6-.1 32.5.5 1.7 1.4 2.3 3.3 2.3 1.4 0 3.1-.4 3.6-.8.6-.4 1-8.9 1.1-21.5l.1-20.7h-7.4l-.6 8.2zM753.5 197.7c-.1 17.1-.5 24.7-1.7 30.3-.9 4.1-1.5 7.6-1.4 7.7.1.2 1.6.6 3.3.9l3 .6 1.8-10.9c2-11.7 2.6-35.6 1.2-45.6-.8-5.3-1-5.7-3.5-5.7h-2.7v22.7zM1035.3 185.7c.4 5.4.7 12.8.7 16.5v6.8h11v-33h-12.3l.6 9.7zM120.1 202.4c.2 12.3.6 22.6.9 22.9.3.2 3.2.2 6.6 0l6-.5-.3-22.2-.3-22.1-6.6-.3-6.6-.3.3 22.5zM248.3 206.7c.5 22.3 2 40.6 4.3 51.7.6 2.7.8 2.8 5.2 2.2 2.5-.3 4.7-.8 4.9-1 .3-.2-.3-5.3-1.1-11.3-2.4-16.8-3.6-33.3-3.6-51.1V181h-10.3l.6 25.7zM184.4 207.2c.3 13.9.9 28.2 1.3 31.7l.6 6.3 5.3-.4c3-.3 5.6-.7 5.8-.9.2-.2 0-5.1-.4-10.9-.5-5.8-.9-19.6-1-30.8V182h-12.3l.7 25.2zM882.2 182.7l-3.3.4.3 13.2.3 13.2 4.3.3 4.2.3v-14c0-10.7-.3-14.1-1.2-13.9-.7 0-2.8.3-4.6.5zM152.5 191c-.4 4.4-.4 12.1 0 17l.7 9H164v-34h-10.8l-.7 8zM311 198.9c0 6.6.3 12.6.6 13.5.4 1.1 1.9 1.6 5 1.6h4.3v-27H311v11.9zM973 204.2c0 16.8-1.3 33.3-4 51.2-1.1 7.1-1.9 13.1-1.7 13.3.2.1 2.4.6 5 .9 5.3.8 4.7 1.9 7.1-14.1 1.9-12.7 3.3-29.7 4.1-49.8l.7-15.7H973v14.2zM566.3 203.9c1 11.2 8.7 21.9 19.5 26.9 4.7 2.2 7.1 2.7 13.7 2.7 9.8 0 11.4-.6 10.8-3.8-.5-2.3-.8-2.4-4.1-1.6-9.9 2.3-18.4-.3-26.4-8.1-5.8-5.6-8.8-12.3-8.8-19.2 0-2.4-.4-2.8-2.6-2.8-2.7 0-2.7.1-2.1 5.9zM784.9 207.7c0 3.2-.3 8.8-.7 12.5l-.8 6.7 3.4.6c1.9.3 3.6.4 3.9.2.5-.6 2.3-17 2.3-22 0-3.7 0-3.7-4-3.7h-4l-.1 5.7zM470.7 207.7c2 22.7 7.6 40.1 19.1 60 3.8 6.6 4.6 7.1 7.6 4.8 1.7-1.3 1.6-1.8-3.3-10.2-9.1-15.9-14.2-31.1-16.3-49l-1.2-10.3h-6.4l.5 4.7zM280 210.7c0 3.8.3 9.8.7 13.5l.6 6.8h9l-.6-9.8c-.4-5.3-.7-11.4-.7-13.5V204h-9v6.7zM691.7 207.7c-.3 1.5-.9 5-1.2 7.7-1.7 13-9.8 30.7-18.9 41.8-5.4 6.6-5.5 6.6-3.5 8.4 2.4 2.1 2 2.5 11-10.1a83 83 0 0 0 13.2-26c2.2-7.1 5.2-22.4 4.5-23-.2-.1-1.3-.6-2.5-.9-1.8-.6-2.2-.2-2.6 2.1zM910.6 210.2c-.3 2.4-.7 8.4-1 13.5l-.6 9.1 4.1.7c2.2.4 4.3.5 4.5.2.6-.5 2.7-25.8 2.2-26.2-.2-.1-2.2-.5-4.5-.9l-4.2-.6-.5 4.2zM1003.3 223.2l-.9 15.4c.1.1 2.6.4 5.8.7l5.6.5.6-8.6c.3-4.8.7-11.9.8-15.7l.3-7-5.6-.3-5.6-.3-1 15.3zM815.6 219.7c-.4 4.8-1.6 13.5-2.7 19.3-2.5 13.8-2.5 13.6 1.3 14.4 1.7.3 3.3.4 3.6.1.9-.8 5-24.4 5.7-32.9.8-8.6.3-9.6-4.6-9.6-2.6 0-2.6.2-3.3 8.7zM343.5 218.2c1.9 16.9 2.8 23.3 4.6 32.3 1.1 5.5 2.5 11.7 3 13.8 1 3.8 1.1 3.9 4.7 3.2 2-.4 4-1 4.4-1.3.4-.4-.4-5.2-1.8-10.7-2-8.6-3.9-20.3-6-38.3l-.5-4.2h-9l.6 5.2zM216.9 215.7c-.8 4.9 2.2 34.7 5.2 50.8 2.3 12.9 5.5 27.5 6.2 28.1.2.3 2.6 0 5.2-.7 4-1 4.6-1.5 4.1-3.3-4-14.8-9-46.6-10.2-65l-.7-10.6h-4.8c-2.7 0-5 .3-5 .7zM1065.5 229.7c-.4 4.9-1.3 14.6-2 21.8-.8 7.1-1.1 13.3-.7 13.6 1.1 1 12.2 2 12.2 1.2 0-.5.7-6.4 1.4-13.3.8-6.9 1.8-16.6 2.1-21.6l.7-9.1-3.2-.7c-1.8-.3-4.7-.6-6.5-.6h-3.3l-.7 8.7zM651.7 230.5c-4.3 7-4.4 7.5-2.7 9 1.7 1.5 2 1.4 4.3-1.7 2.3-3.1 6.7-11.1 6.7-12.2 0-.3-.8-1-1.9-1.5-1.6-.9-2.4-.1-6.4 6.4zM541.1 225.9c-1.1.7-.8 1.8 1.3 5.7 1.5 2.7 3.8 6.2 5.1 7.9 2.3 2.7 2.6 2.8 4.1 1.4 1.5-1.5 1.2-2.2-2.7-8.8-4.2-7.1-5.2-7.8-7.8-6.2zM378.7 230.7c-1.1.3-1.6 1.1-1.3 2.1.3.9 1.2 5.5 2.1 10.2.9 4.7 3 13.3 4.6 19.1l3.1 10.7 3.4-1.1c1.9-.6 3.4-1.5 3.4-2.2 0-.6-1.1-4.9-2.5-9.7-2.3-7.9-4.3-16.7-5.9-26.1-.7-3.8-1.9-4.3-6.9-3zM126.3 235.7c-4.3.4-4.3.5-4.3 4.3 0 4 3.5 33.1 4.6 38.3.6 2.8.6 2.8 6.2 2.1 3.2-.3 6-.9 6.3-1.3.4-.3-.2-6.5-1.2-13.6-1-7.2-2.1-16.9-2.5-21.8-.6-8-.8-8.7-2.8-8.5-1.2.1-4 .3-6.3.5zM415.5 240.7c-4.5 1-4.5.9-2.6 7.5 5.8 19.8 5.2 18.9 10.5 16.8l2.5-.9-2.3-6.8c-1.3-3.7-2.9-9.2-3.5-12.1-.7-2.8-1.6-5.1-1.9-5.1-.4.1-1.6.3-2.7.6zM874 252.7c-1.2 6.5-2.5 12.3-2.7 13-.5 1.1 7.4 3.9 8.4 3 .7-.7 5.7-25.6 5.2-26.1-.2-.2-2.2-.7-4.5-1l-4-.7-2.4 11.8zM319.2 246c-1.8.4-3.5.9-3.7 1.2-.6.5 4.5 24.2 5.4 25.1 1.2 1.2 8.1-.3 8.1-1.7 0-.6-1.1-6.5-2.5-13.1s-2.5-12.1-2.5-12.3c0-.3-.8-.2-4.8.8zM447.8 245.7c-1 .2-1.8.8-1.8 1.3 0 1.7 9.2 23.7 12.2 29 4.9 8.9 15.9 25 17.1 25 .6 0 1.9-.7 2.8-1.6 1.8-1.6 1.6-2-3.5-9.3-7-9.8-15.1-25.1-19.2-36-3.1-8.4-4-9.4-7.6-8.4zM517.7 246.2c-2.4 1.3-2.2 2.2 2.5 9.1 10.8 16.1 28.9 29.8 48 36.3 6.7 2.2 6.7 2.2 7.4.2.8-2.5 0-3.2-5.1-4.8-16.8-5.3-35.3-19.3-46.5-35.1-3.8-5.5-4.9-6.5-6.3-5.7zM1032.4 253.7c-.3 2.7-1.4 9.7-2.4 15.8-1.2 7.5-1.4 11.2-.7 11.7 1.2.7 9.7 2.1 10.2 1.6.2-.2 1.4-7.4 2.7-16.1 2.6-17.8 2.6-17.7-4.9-17.7h-4.2l-.7 4.7zM840.5 259.2c-2.2 8.8-9.4 30.2-12.9 38.1l-2.5 5.7 4 2.1c2.3 1.1 4.2 1.9 4.4 1.7 1.3-1.6 10.3-26.4 12.9-35.6 5.5-19.3 5.5-17.6-.5-18.7l-3.6-.7-1.8 7.4zM160.5 256.7c-1.6.3-3.3.8-3.7 1.1-.6.6 3.5 28.3 4.7 31.8.2.8 1.9.8 6 .1 4.8-.9 5.6-1.3 5.2-2.9-.3-1.1-1.6-8.4-2.8-16.3-2.6-15.9-1.9-14.8-9.4-13.8zM592 260.9c0 .5-.2 1.6-.6 2.4-.7 1.9 5.7 2.9 13.1 2.1 4.9-.6 5.5-.9 5.5-3 0-2.3-.2-2.4-9-2.4-4.9 0-9 .4-9 .9zM290.8 264.3c-4.4 1.1-4.5 1.2-1.8 12 3.9 15.3 3.7 15 7.9 14.2 1.9-.4 3.9-.9 4.2-1.1.6-.3-5.3-25-6.1-25.7-.3-.2-2.2.1-4.2.6zM805.9 267.6c-.6 1.6-2.4 6.3-3.9 10.5-1.6 4.3-4.7 11.4-7 16l-4.2 8.2 2.4 1.8c1.2 1 2.9 1.9 3.6 1.9 2.4 0 18.2-37.4 16.5-39.1-.4-.4-2-1.1-3.5-1.4-2.4-.6-2.9-.3-3.9 2.1zM903.6 267.1c-.3.8-1.7 5.9-3.1 11.4-1.4 5.5-2.8 10.7-3 11.5-.4 1.2.7 1.9 3.7 2.7 2.4.6 4.4 1 4.6.9.7-.7 6.6-25.5 6.2-25.9-.3-.3-2.2-.8-4.2-1.2-2.8-.5-3.9-.4-4.2.6zM696.2 276.2a124.14 124.14 0 0 1-41.8 33.8c-4.9 2.3-9 4.4-9.2 4.5-.8.6 1.1 5.5 2.2 5.5 2.2 0 20.7-9.9 27.3-14.6 8.5-6.1 20-16.9 26.5-25.1 2.8-3.5 4.9-6.5 4.7-6.6-.2-.1-1.4-1-2.5-2-2.1-1.8-2.2-1.7-7.2 4.5zM732.2 279.4c-6.1 10.2-15.4 21.9-24.9 31.2-8.7 8.5-9.3 9.4-8.1 11.3.7 1.2 1.8 2.1 2.4 2.1.6 0 5.5-4.4 10.9-9.8 10.1-9.9 18.4-20.3 25.1-31.3 3.5-5.9 3.6-6.3 1.9-7.5-3-2.2-3.8-1.7-7.3 4zM647.5 278.5c-11.3 7.6-26.8 12.3-43.7 13.2-11.7.6-11.8.6-11.8 3.1v2.5l12.3-.6c18.3-.8 31.2-4.8 46.8-14.3 5.3-3.2 5.7-3.7 4.6-5.5-1.6-2.5-2.3-2.4-8.2 1.6zM929.3 290.5c-4.4 16-10.4 32.9-17.2 48.3-2.3 5.1-4.1 9.6-4.1 10 0 .5 2 1.8 4.4 2.9l4.4 2.2 5.5-12.7c6.5-15 8.7-21 13.3-35.5 4.9-15.7 7.6-26.9 6.7-27.7-.4-.4-2.6-1.2-4.8-1.7l-4-1-4.2 15.2zM1060.6 275.9c-.2.3-1.1 4.6-2.1 9.6-1.5 8.3-5.9 27.9-7.1 31.6-.3 1.3.6 1.9 4.3 2.8 2.7.7 5.5 1.4 6.4 1.7 1.4.4 2.1-1.5 4.3-10.8 2.6-11 6.6-31 6.6-32.7 0-1-11.9-3.1-12.4-2.2zM993 293.7c-1.8 7.6-5.6 21.1-8.5 30l-5.2 16.1 5.1 2c2.8 1.1 5.4 1.7 5.8 1.3 1.8-1.8 16.8-54.7 16.8-59.4 0-.9-1.5-1.7-3.7-2.1-2.1-.4-4.5-.9-5.4-1.2-1.3-.3-2.2 2.1-4.9 13.3zM395.5 283.7c-1.6.8-3.2 1.7-3.4 1.9-.5.5 11.7 24.5 15.9 31.2l4 6.3 3-1.6c1.6-.9 3-2 3-2.5s-2-4.3-4.5-8.4c-2.5-4-6.8-12.2-9.6-18-2.8-5.8-5.1-10.6-5.2-10.6-.1.1-1.5.8-3.2 1.7zM758.4 295.6l-6.2 10.4 2.5 2c1.4 1.1 2.9 2 3.4 2 1 0 12.9-19.9 12.9-21.5 0-1.1-4.2-3.6-5.8-3.4-.4 0-3.5 4.7-6.8 10.5zM196.8 287.2l-3.6 1 3.9 15.1c2.2 8.4 6.2 22.1 9.1 30.5 5.6 16.8 4.6 15.8 12.6 12.5 1.9-.8 3.2-1.9 2.9-2.7-2.6-6.8-12-37.5-14.2-46.4-3-12.4-2.8-12.1-10.7-10zM135 290.4c-5.3 1.1-5.5 1.3-5.2 4.1.3 3.1 9.1 39.5 9.8 40.7.3.5 11.4-1.9 12.2-2.7.2-.1-1.2-6.3-3.1-13.6-1.9-7.4-4.3-17.1-5.2-21.7-1-4.5-2.1-8.1-2.4-8.1-.3.1-3.1.7-6.1 1.3zM861 299.3c-.5 1.2-2.9 6.8-5.3 12.3l-4.4 10.2 3.4 1.6c1.8.9 3.8 1.6 4.2 1.6.8 0 8.9-17.5 10.5-22.6.5-1.7 0-2.3-3.4-3.7-4-1.5-4.1-1.5-5 .6zM368.3 301.6c-1.8.8-3.3 1.6-3.3 1.9 0 2.9 15.5 31.1 22.9 41.6l4.8 6.8 3.6-2.5 3.6-2.4-7-10.8c-3.8-5.9-9.9-16.4-13.5-23.5-3.6-7-6.8-12.7-7.2-12.6-.4 0-2.2.7-3.9 1.5zM334 303.3c-1.4.6-2.6 1.2-2.8 1.3-.5.3 8.8 21 10.3 23 1.3 1.8 1.5 1.8 5 .1 2-1 3.5-2.1 3.3-2.6-.2-.4-2.5-5.8-5.2-11.9-5.2-11.7-5.7-12.2-10.6-9.9zM529.7 304.9l-1.6 2.8 7.6 4.4c16.3 9.3 36.5 15.5 54 16.6l10.3.6v-6.1l-7.7-.7c-20.5-1.6-39.2-7.5-55.9-17.3l-5.1-3-1.6 2.7zM955.1 314.2c-5.1 15.7-11.6 31.8-19.1 47.5-7.3 15.2-7.3 14.6-1.2 17.7l3.3 1.7 7.3-15.3c9.3-19.4 19.8-46.3 22-56.4.6-2.9.4-3.3-2.5-4.3-6-2.1-6.2-1.8-9.8 9.1zM272 315.6c-1.9.8-3.6 1.6-3.8 1.8-.2.2 1.8 5.7 4.3 12.2 5.6 14.1 15.7 34.8 24.4 49.6l6.2 10.7 4-2.6c2.1-1.4 3.9-2.9 3.9-3.3 0-.4-2.9-5.9-6.5-12.1-8.4-14.6-17-32.3-22.6-46.6-2.4-6.2-4.8-11.3-5.4-11.3-.5.1-2.6.8-4.5 1.6zM778.3 322.8c-3.3 4.8-8.8 12.1-12.2 16.2-3.3 4.1-6.1 7.8-6.1 8.1 0 .3 1.2 1.6 2.6 3l2.5 2.4 1.7-2.2c.9-1.2 4.2-5.2 7.3-9 10.2-12.4 17-22.9 15.6-24-4.7-3.8-5-3.7-11.4 5.5zM452.4 319.3l-2.7 2.4 8.8 9.7 8.8 9.7 2.8-2.7 2.9-2.7-5.3-5.6c-2.8-3.1-6.7-7.3-8.4-9.4-1.8-2-3.5-3.7-3.7-3.7-.3 0-1.7 1-3.2 2.3zM308.8 321.8c-2.1 1-3.8 2-3.8 2.4 0 1.1 10.9 23.8 11.4 23.8 1.2 0 7.6-3.4 7.6-4.1 0-.7-11.1-24-11.3-23.8-.1 0-1.9.8-3.9 1.7zM1019 320.2c0 .2-2.3 7-5 15.3-2.7 8.2-4.6 15.2-4.2 15.6.4.3 2.8 1.3 5.4 2.2l4.7 1.5 4.4-13.6c2.5-7.6 4.8-14.7 5.1-15.9.6-1.8.2-2.5-1.6-3.2-2.9-1.1-8.8-2.4-8.8-1.9zM880.2 334.2c-2.9 6.2-5.2 11.6-5.2 12 0 .8 5.4 3.8 6.8 3.8.8 0 3-4.1 8.8-16.8l3.4-7.3-3.5-1.5c-1.9-.7-3.8-1.4-4.3-1.4s-3.2 5.1-6 11.2zM508.3 327.2c-2.3 3-2 3.7 3.1 7.1 12.8 8.5 32.4 17.4 46 20.8 4 1 5 1 5.7-.2 2.1-3.4.9-4.4-9.4-7.7-11.8-3.8-25.7-10.2-36.1-16.7-8.1-5-8-5-9.3-3.3zM177 328.2c-1.9.5-3.9 1.3-4.4 1.8-.7.7 7.1 25.5 9.5 30.2.8 1.5 1.3 1.6 5.4.1 2.5-.8 4.7-1.9 5-2.4.9-1.3-9.6-30.9-10.9-30.8-.6 0-2.7.5-4.6 1.1zM243.6 328.6c-2.2.8-4.1 1.6-4.3 1.7-.5.5 8.3 21.8 14.2 34.4 3.1 6.5 8.6 17.1 12.2 23.5 6.6 11.6 6.7 11.8 10.2 11.8 2 0 4.3-.6 5.3-1.3 1.4-1.2 1-2.4-4.9-12.7-7.8-13.7-18.5-35.7-23.8-49.3-2.1-5.3-4.1-9.7-4.4-9.6-.3 0-2.4.7-4.5 1.5zM1044.6 340.7c-2 6.5-5.2 15.9-7 21l-3.4 9.1 6 2.2c3.3 1.2 6.1 2 6.3 1.8.4-.5 11.1-31.7 12.8-37.5l1.6-5.2-5.4-1.5c-2.9-.9-5.7-1.6-6.2-1.6-.6 0-2.6 5.3-4.7 11.7zM422.1 332.4l-2.2 2.4 5.7 6.8c3.1 3.8 9.6 10.8 14.3 15.6l8.5 8.8 2.8-2.7 2.7-2.6-10.2-10.7c-5.6-5.8-11.8-12.7-13.7-15.3-1.9-2.5-4-4.7-4.6-4.7-.6 0-2.1 1.1-3.3 2.4zM800.3 345.4c-4.5 6.1-12.2 15.7-17.1 21.2l-9.1 10.1 2.8 2.7c1.5 1.4 3 2.6 3.3 2.6 3 0 34.8-39.1 34.8-42.7 0-.4-1.5-1.8-3.3-2.9l-3.4-2.2-8 11.2zM660 341.9c-7.2 4.1-33 10.6-47 11.7-4.4.4-8.2 1-8.4 1.3-.2.3-.2 1.8.1 3.3.5 2.6.7 2.7 5.7 2.1 19.6-2 31.1-4.5 46.1-10 8.7-3.2 9.1-3.6 7.7-6.8-1.2-2.7-1.9-2.9-4.2-1.6zM148.8 344.2l-5.6 1.9 3.4 10.2c6.3 18.6 11.8 31.7 13.4 31.6.8 0 3.6-1 6.2-2.2l4.6-2.2-3.4-8.3c-1.8-4.6-5.2-13.6-7.5-20s-4.5-12-4.8-12.3c-.3-.4-3.1.2-6.3 1.3zM699.3 355.9c-5.7 3.6-10.3 7-10.3 7.6 0 .5.9 2.1 1.9 3.4l1.8 2.4 6.4-3.8c8-4.8 14.9-9.7 14.9-10.4-.1-.3-1.1-1.8-2.3-3.2l-2.2-2.6-10.2 6.6zM828.1 360.7l-7.3 10.6 2.9 2.3c4.4 3.7 3.5 4.4 13.5-10l6.1-8.9-2.9-2.4c-1.6-1.2-3.4-2.3-3.9-2.3-.6 0-4.4 4.8-8.4 10.7zM361.7 356.3l-2.9 2.2 5.9 8.1c3.2 4.5 6.7 9.4 7.9 10.9l2.1 2.8 3.6-2.7 3.5-2.7-7.6-10.5c-4.2-5.7-8.1-10.4-8.7-10.4-.5 0-2.3 1-3.8 2.3zM745.5 360.6c-2.7 2.5-10.1 8.3-16.3 13l-11.2 8.6 1.7 2.9c1 1.6 2 2.9 2.4 2.9 2.5 0 32.9-24.5 32.9-26.5 0-.6-1-2.1-2.2-3.2l-2.3-2.1-5 4.4zM329.7 363.3l-3.8 2.3 7.1 10.7c3.9 5.9 7.3 10.7 7.6 10.7 1.1 0 6.4-4.2 6.4-5 0-.8-12.8-21-13.3-21-.1 0-1.9 1-4 2.3zM461.2 371.3c-1.2 1.3-2.2 2.6-2.2 3 0 1.7 32.6 23.7 35.2 23.7.8 0 4.2-6 3.6-6.4-.2-.2-4.2-2.6-8.9-5.4-4.8-2.9-11.3-7.1-14.5-9.5-11.2-8.2-10.7-8-13.2-5.4zM521.5 372c-.8 1.6-1.5 3.1-1.5 3.3 0 1.1 23.9 10.1 24.7 9.3.2-.2.6-1.9 1-3.9.5-3.4.5-3.5-4.8-5.2-3-1-8-2.8-11.1-4.1-3.2-1.3-6-2.4-6.2-2.4-.3 0-1.2 1.3-2.1 3zM419.4 377.1l-2.9 3.1 5 4.5c2.8 2.4 7.8 6.9 11.2 9.9l6.1 5.5 7.2-.3 7.1-.3-6.3-4.8c-3.5-2.7-10.2-8.4-15-12.8-4.7-4.3-8.8-7.9-9-7.9-.2 0-1.7 1.4-3.4 3.1zM855.7 376.2c-.2.7-3.4 5.2-7.1 10.1-3.6 4.8-6.6 9.1-6.6 9.6 0 1.4 4.1 4.1 6.1 4.1 1.6 0 14.1-15.7 15.5-19.4.3-.8-.9-2.2-2.9-3.5-4-2.5-4.3-2.5-5-.9zM956.8 389.5l-5.6 10.5h13.3l4.3-8.1c2.4-4.4 4.2-8.2 4-8.4-.8-.7-8.8-4.5-9.5-4.5-.4 0-3.3 4.8-6.5 10.5zM1026.2 389.4c-2.3 5.2-4.2 9.7-4.2 10 0 .3 3.1.6 6.9.6h6.8l2.8-6.3c1.5-3.4 2.9-6.7 3.2-7.3.3-.9-9.3-6.4-11.1-6.4-.1 0-2.1 4.2-4.4 9.4zM622 384.1c-2.5.4-6.8.8-9.6.8-2.8.1-5.3.3-5.5.6-.3.2-.3 2.1-.1 4.1l.4 3.6 5.7-.6c21.3-2.2 20-1.8 19.4-6.4-.6-3.5-1.4-3.7-10.3-2.1zM233.3 386.2l-4.2 2.1 3 5.9 2.9 5.8h6.5c3.6 0 6.5-.2 6.5-.4 0-1.6-8.4-15.6-9.3-15.5-.7 0-3.1 1-5.4 2.1zM990.2 393.5 987 400h13l1.9-3.8 2-3.9-4.7-2.4c-2.6-1.3-4.9-2.5-5.2-2.6-.3-.2-2 2.6-3.8 6.2zM695 394.6l-10.5 5.3 8.8.1c6.9 0 9.6-.4 12.7-2 2.2-1.1 4-2.5 4-3 0-1.9-2.4-6-3.4-5.9-.6.1-5.8 2.6-11.6 5.5zM168.7 395.8c-3.3 1.5-5.5 3-5.1 3.4.8.9 14.4 1.1 14.4.3 0-.7-3-6.5-3.3-6.5-.1.1-2.8 1.3-6 2.8zM203.5 396.8l-5 2.7 6.4.3c3.5.2 6.5.1 6.8-.1.5-.6-1.8-5.7-2.6-5.7-.3.1-2.8 1.3-5.6 2.8zM797 397.5l-2.3 2.5h9.6l-2.3-2.5c-1.3-1.4-2.4-2.5-2.5-2.5-.1 0-1.2 1.1-2.5 2.5zM508.6 398.6c-.4 1 .3 1.4 2.9 1.4 4.3 0 4.4-.5.6-1.8-2.3-.8-3.1-.7-3.5.4zM877.5 399c-.4.6.5 1 2 1s2.4-.4 2-1c-.3-.5-1.2-1-2-1s-1.7.4-2 1z"/></svg>