<svg xmlns="http://www.w3.org/2000/svg" width="1600" height="533.33" version="1.0" viewBox="0 0 1200 400"><path d="M84.8 3.7c1.9 2.1 4.9 6.7 6.6 10.3 2.8 5.8 3.1 7.5 3.1 15.5-.1 12.2-2.8 19-10.4 26.5-5.9 5.8-71.9 48.3-79.6 51.2-3.9 1.5-4 1.7-4.3 6.7-.2 2.8-.1 5.1.2 5.1.2 0 5.8-3.4 12.3-7.5 6.4-4.2 12.8-7.8 14-8.1 3.6-.9 7.3.4 10.5 3.8l2.8 3v37.3l-20 13C3.7 171.1 0 173.9 0 175.8v2.2l3.8-2.3c2-1.3 27.5-17.6 56.7-36.2 37.1-23.6 54.1-33.9 56.6-34.2 4.8-.7 10.3 2 12.9 6.2 1.8 2.9 2 4.9 2 19.6v16.4L98.9 169c-21.4 13.9-33.8 22.6-35.1 24.5-2.7 4.3-2 11.8 1.5 15.2 1.4 1.4 16.8 11.9 34.4 23.3l31.8 20.7.3 15.9c.3 17.4-.2 19.9-5 23.9-3.4 2.9-10.2 3.4-14.6 1.1-1.5-.8-27.2-17-57-36C25.3 238.6.6 223 .4 223c-.2 0-.4.9-.4 2 0 1.5 5.1 5.3 20 15.1l20 13.1V290l-2.8 3.1c-2.1 2.3-3.9 3.2-7.2 3.6-4.2.4-5.2 0-17.3-7.6L-.1 281l.3 5.1c.3 5 .4 5.1 4.8 6.8 2.5 1 20.3 11.8 39.5 24 38.5 24.4 43.6 28.5 47.6 38.8 1.8 4.5 2.3 7.8 2.4 14.8 0 8.1-.3 9.7-3.1 15.5-1.7 3.6-4.7 8.2-6.7 10.2l-3.5 3.8h3.7c2.9 0 6.7-2 19.3-10.2 8.8-5.7 16.3-11.4 17.2-12.9 2.4-4.1 2.1-11.2-.6-14.4-1.3-1.4-16.9-12.2-34.8-23.9-31.5-20.5-32.5-21.3-32.2-24.2.6-4.7 6.2-14.2 10.4-17.6 8.5-6.7 21.7-8.8 31.5-5 7.1 2.8 77 47.7 82.5 52.9 14.5 14.1 14 38.2-1.1 52l-3.5 3.3h3.7c2.9 0 6.6-2 19.4-10.4 15-9.9 17.3-12 18.8-17.4.9-3.2-1.1-8.4-4.3-11.4-1.5-1.4-16.8-11.7-33.9-22.8L146 317.7v-3.9c0-7.9 7.7-18.5 16.6-22.9 5.7-2.7 14.6-3.5 20.4-1.6 5.9 1.8 85.4 52.4 90.2 57.4 9.3 9.6 12.1 25.6 6.6 37.6-1.6 3.3-4.9 7.9-7.8 10.7l-5.1 5h3c2.2 0 7.6-2.9 19-10.4 16.4-10.7 19.1-13.4 19.1-19.1 0-7.1-1.6-8.4-36.6-31.2L238 317.5v-4.1c0-9.8 5.7-18.6 15.2-23.3 7-3.5 14.7-4.1 21.5-1.7 6.2 2.2 87.2 54.1 92.5 59.3 6.4 6.3 9.1 12.8 9.2 22.3.1 11.6-5.1 21.1-15.4 28.2l-2.5 1.7h3.5c2.7.1 6.4-1.8 17.5-9.1 18.2-11.9 19.7-13.3 20.2-19.5.3-3.5-.1-5.6-1.5-7.8-1.2-2-13.3-10.4-35-24.5L330 317.5l.1-5.5c0-6.5 1.7-11.7 5.4-16.5 5.8-7.8 17.1-11.8 26.2-9.6 6 1.5 92.5 56.2 99.5 62.9 6.3 6.1 9 12.6 9 21.6 0 11.4-4.5 19.4-14.6 26.2l-5.1 3.4h3.4c2.6 0 6.9-2.3 18.3-9.6 18.3-11.9 20.2-13.9 19.6-21.2-.3-3.6-1.1-6-2.6-7.4-1.1-1.1-16.6-11.6-34.4-23.2l-32.3-21.2-.3-5.6c-.4-7.5 1.1-12.7 5.1-18 5-6.6 10.7-9.3 19.2-9.3 5.2.1 8 .6 11.2 2.3 4.9 2.6 92.3 58.3 97 61.8 1.7 1.3 4.6 5.3 6.3 8.8 2.5 5.1 3.1 7.5 3.1 12.8 0 11.1-4.1 18.1-14.9 25.3l-6.7 4.5h3.7c3.1 0 6.6-1.9 19-10.1 8.4-5.5 16-11 16.9-12.2 3.8-5.1 3-12.4-1.8-16.9-1.6-1.4-16.9-11.7-34-22.9L515 317.6V308c0-8.9.2-9.9 2.9-14.3 4.1-6.4 9.5-9.7 16.9-10.4 3.4-.3 7.4 0 9.6.7 3.9 1.2 102.5 63.6 106.3 67.2 7.3 6.8 9.5 20.6 4.9 30.3-2.7 5.8-5.7 8.8-14.5 14.4l-6.4 4.1h3.6c2.9 0 6.8-2.1 19.7-10.5 16.5-10.8 19-13.3 19-19.6 0-6.3-2.1-8-36.6-30.6L607 317.5v-10.3c0-8.1.4-11 1.9-14 4.7-9.1 15.8-14 24.7-11 4.1 1.5 106.9 66.3 111.1 70.1 3.9 3.5 7.3 11.6 7.3 17.1 0 11.2-3.7 16.8-16.3 24.9-8.1 5.2-8.2 5.2-4.8 5.5 2.8.3 5.7-1.2 18.9-10 9.2-6.1 16.3-11.5 17.4-13.3 2.3-3.8 2.3-9.2-.1-13-1.2-2-12.8-10.1-34.9-24.5L699 317.5v-11.2c0-6.1.5-12.4 1.1-14 3.5-9.3 16.1-14.7 25.3-10.9 6.8 2.8 111.2 69.8 114.7 73.6 8.3 9 7.8 23.3-1.2 31.6-1.9 1.7-7 5.3-11.3 8-7.6 4.7-7.8 4.9-4.7 5.2 2.6.3 5.9-1.4 18.2-9.4 8.2-5.3 16.1-11 17.4-12.6 3.1-3.6 3.3-9.9.6-14.3-1.2-2.1-12.3-9.9-35-24.5L791 317.5l.2-13.6c.3-13.2.4-13.7 3.2-17.3 4.2-5.6 8.1-7.6 14.7-7.6 6.5 0 .8-3.3 76.9 45.2 52.4 33.5 52.6 33.7 53.7 43.9 1 10.4-3.2 16.2-19.7 26.5-8.4 5.3-8.4 5.4-4.9 5.4 3 0 6.7-2 19.5-10.4 13.8-9.1 16.1-11 17.7-14.5 2.2-5.1 1.1-10.5-3-14.2-1.6-1.4-16.9-11.7-34-22.9L884 317.7V287l3.5-3.9c4.6-5.1 11.2-6.9 17.1-4.8 4 1.4 119 74.2 123.3 78.1 5.2 4.6 7.3 12.9 4.9 19.7-2 5.8-4.5 8.2-16.8 15.9-11.4 7.2-11.7 7.5-8.5 7.8 2.8.3 5.8-1.4 19.7-10.5 14.9-9.9 16.4-11.2 17.7-14.9 1.3-3.7 1.3-4.6-.3-8.7-1.9-4.9.6-3.2-53.3-38.2l-15.3-9.9v-15.4c0-14.1.2-15.8 2.2-19 2.8-4.5 9.6-7.6 14.7-6.7 5.1.9 127.4 78.7 130.8 83.2 3 4 4.1 11.3 2.4 16.5-1.5 4.6-5.6 8.2-18.6 16.4-10.5 6.6-10.8 6.9-7.7 7.2 2.8.3 5.9-1.3 19.2-10.2 16.2-10.7 19-13.5 19-19.1 0-7.2-1-8-36.4-31.1l-33.6-21.9V301c0-18.8.8-21.2 7.5-24.4 7.1-3.4 8.1-2.9 55.2 27.2 24.1 15.3 49.5 31.6 56.6 36 11.8 7.6 12.7 8 12.7 5.8 0-2-3.2-4.5-19.9-15.2l-20-12.9V299c-.1-20.4.2-21.5 6.1-24.6 4.6-2.4 8.3-1.2 21.2 7.1 6.5 4.1 11.9 7.5 12.2 7.5.2 0 .4-2.2.4-4.9 0-4.9 0-4.9-4.4-6.4-3.9-1.3-58.8-35.5-73.9-46-19.7-13.7-22.4-42.1-5.5-58.4 5.8-5.6 76-50.1 80.4-50.9 3.4-.6 3.4-.7 3.4-6 0-3-.2-5.4-.4-5.4-.3 0-5.7 3.4-12.2 7.5-12.9 8.3-16.6 9.5-21.2 7.1-5.9-3-6.2-4.2-6.2-24.4V82.9l20-13.1c16.6-10.9 20-13.5 20-15.4 0-2.2-1-1.7-12.7 5.8-7.1 4.4-32.5 20.7-56.6 36-47.1 30.1-48.1 30.6-55.2 27.2-6.7-3.2-7.5-5.6-7.5-24.4V82.5l33.4-21.8c35-22.8 36.6-24.1 36.6-31.2 0-5.6-2.8-8.4-19-19.1-13.3-8.9-16.4-10.5-19.2-10.2-3.1.3-2.8.6 7.7 7.2 12.9 8.1 16.3 11 18.1 15.3 2.8 6.5.8 15.9-4.2 20.4-4 3.6-123.3 78.7-126.7 79.8-6 2-13-.7-16.9-6.6-1.5-2.4-1.8-5-1.8-18.4V82.3l19.2-12.4c52.7-34 53.7-34.9 49.4-45.4-1.2-2.8-4.5-5.4-17.6-14-13.1-8.6-16.8-10.5-19.8-10.5h-3.7l8 5.1c14.5 9.2 17.1 11.1 19.3 14.5 4.7 7.2 3.6 17.9-2.6 23.6-4.9 4.6-122.2 78.7-125.6 79.3-5.3 1-11-1.1-15-5.5l-3.6-4V82.3L915.3 62c17.1-11.2 32.4-21.5 34-22.9 4.7-4.3 5.4-12.3 1.5-17.3-.7-.9-8.2-6.2-16.6-11.7-12.5-8.2-16-10.1-19-10.1-3.7 0-3.6.1 4.8 5.4 16.5 10.3 20.7 16.1 19.7 26.5-1.1 10.4-.5 9.9-62.2 49.3-30.8 19.7-57.8 36.7-60.1 37.8-7.3 3.6-15.9 2.4-21.1-3.2-4.2-4.5-5.3-8.9-5.2-21.5V82.5L824.2 61c22.6-14.6 33.7-22.4 34.9-24.5 2.7-4.4 2.5-10.7-.6-14.3-1.3-1.6-9.2-7.3-17.4-12.6-12.4-8-15.6-9.7-18.2-9.4-3.2.3-2.9.5 5.5 5.8 13.2 8.2 17.6 14.3 17.6 24.5 0 5.6-4 13.5-8.6 17.1-5.8 4.6-108.2 69.4-112 71-9.1 3.8-19.7-.5-24.5-9.8-1.5-3-1.9-5.9-1.9-15V82.5L732.1 61C766.6 38.6 769 36.6 769 29.9c0-5.9-3-8.9-19.2-19.7-13.2-8.8-16.1-10.3-18.9-10-3.4.3-3.4.3 4.6 5.4 9.4 6.1 11.7 8.3 14.4 14.4 4.4 9.7 1.4 22.5-6.7 28.8-7.7 5.9-105.7 67.6-109.6 68.9-9.1 3.2-20.2-1.9-25-11.4-1.2-2.3-1.6-6-1.6-13.5V82.5l31.8-20.7c17.5-11.5 33-22.1 34.5-23.6 3.5-3.7 4.4-8.7 2.4-13.5-1.3-3.1-4.1-5.3-17.7-14.2C645.1 2.1 641.2 0 638.3 0c-3.6 0-3.6 0 3.9 4.9 11.6 7.5 15.8 14.3 15.8 25.3 0 7.5-2.3 13-7.3 18-3.1 3.1-89.9 59.1-102.2 66-11.3 6.2-25.8 2-31.5-9.3-1.6-3-2-5.9-2-13.2v-9.3l31.3-20.3c17.1-11.2 32.4-21.5 33.9-22.9 4.2-3.9 5.4-8.5 3.4-13.6-1.5-3.9-3.1-5.3-17.6-15C552.8 1.9 549.4 0 546.3 0h-3.8l6.7 4.5c10.8 7.2 14.9 14.2 14.9 25.1 0 7.7-3 15.2-8.2 20.2-4.8 4.7-98.2 64.2-102.7 65.4-5.4 1.5-13.6.3-18.8-2.7-8.3-4.9-13-14.7-12.2-25.5l.3-4.4L455 61.4c20.9-13.7 33.3-22.4 34.8-24.5 3.1-4.5 3-10.8-.3-14.7-1.4-1.7-9.2-7.3-17.3-12.6C460.8 2.3 456.5 0 453.9 0h-3.4l5.1 3.4c10.1 6.8 14.7 15.3 14.6 27.1-.1 8.2-3 14.9-9 20.7-5 4.7-87.1 57.6-95.1 61.1-17.2 7.7-36.2-5.3-36.1-24.7v-5.1L363.2 61c22.2-14.4 33.7-22.5 35-24.5 2.5-4.1 2.3-9.5-.4-13.5-1.3-1.8-8.7-7.4-17.5-13.2C368 1.7 364.6-.1 362.1.2l-3.1.3 5.4 4.2c4.1 3.1 6.2 5.8 8.7 10.9 6.4 13 4 27.1-6.3 37.1-4.8 4.6-86.2 56.9-91.8 58.9-1.9.7-6.2 1.3-9.6 1.4-14.6.1-27.4-12.2-27.4-26.4v-4.1l32.8-21.4c18-11.7 33.5-22.4 34.5-23.7 2.6-3.5 3.1-8.4 1.3-12.7-1.3-3.1-4-5.4-17.5-14.2C277.3 2.8 272.2 0 269.9 0h-3.1l5 4.7c7.4 6.9 10.6 14.5 10.7 24.8 0 6.7-.5 9-2.8 14a42.8 42.8 0 0 1-6.5 9.8c-3.8 3.9-81.9 54.2-88.2 56.8-1.9.8-6.6 1.4-10.5 1.4-8.2-.1-14.7-2.8-20.3-8.3-4.3-4.3-8.2-12.5-8.2-17.3v-3.6L177.3 62c17.1-11.1 32.4-21.4 33.9-22.8 4.3-3.9 5.4-8.5 3.4-13.7-1.6-4-3.1-5.3-17.7-14.9C183.8 1.9 180.3 0 177.2 0h-3.7l3.1 2.5c4.4 3.4 8.9 10.9 10.9 17.9 3.5 12.1-.5 26.3-9.7 35.3-4.3 4.1-73.8 49-81.3 52.4-6.1 2.8-18.5 2.6-25.1-.5-6.5-3-12-8.5-15-15-4.5-9.7-6.3-7.8 30.1-31.6 17.9-11.7 33.4-22.4 34.5-23.8 2.8-3.5 2.7-11-.2-14.8-1.2-1.5-9-7.2-17.2-12.6C91.5 1.9 87.9 0 84.9 0h-3.6l3.5 3.7zm132.4 104.9c1.4.8 3.6 2.9 4.7 4.7 1.9 3.1 2.1 4.9 2.1 18.9v15.4l-33.4 21.8c-28.3 18.4-33.7 22.2-35.1 25.3-2 4.1-1.5 9.5 1.2 13.1 1 1.3 16.4 11.9 34.3 23.6l32.5 21.2.3 15.5c.2 13.9 0 15.7-1.8 18.7-3.1 5.1-7.6 7.4-13.5 6.9-4.6-.3-9.6-3.2-66-39.2-33.5-21.4-62-39.6-63.2-40.4-3.3-2.3-6.3-9.1-6.3-14 0-5.1 3-11.2 6.7-13.9 14.2-10 123.3-78.5 126.1-79.1 4.1-.9 7.3-.5 11.4 1.5zm87.2-.5c2.7.7 5.7 2.4 7.7 4.5l3.4 3.5.3 15.8.3 15.8-32.7 21.4c-18 11.8-33.7 22.7-34.8 24.2-2.6 3.5-2.7 10.1-.3 13.8 1 1.4 16.5 12.2 34.7 24l32.9 21.4.1 15.1c0 14.1-.2 15.3-2.2 18.4-4.3 6.2-12.8 8.7-19.5 5.8-2.3-1-41.7-25.9-115.5-73-4.3-2.8-8.6-6.4-9.8-8.2-4.5-7.4-3.3-18.1 2.8-23.8 1.5-1.5 22.5-15.2 46.7-30.5 24.2-15.4 50.5-32.2 58.5-37.3 12.7-8.2 19.4-11.8 22.3-12 .5 0 2.8.5 5.1 1.1zm97.1 4.3c6 4.6 7.5 9.1 7.4 23.1v12l-32.5 21c-17.8 11.5-33.4 22-34.5 23.2-3 3-3.7 10.6-1.5 14.7 2.1 3.7-.7 1.8 37.4 26.5l31.2 20.3v12.1c0 13.5-1.7 18.9-7 22.7-4.2 3-12 4.5-15.9 3.2-4.8-1.7-118.3-74.1-120.8-77.1-3.7-4.3-5.6-10.5-5.1-16.2 1-10 .8-9.9 62.3-49.1 30.8-19.7 57.8-36.7 60-37.8 5.8-3 14-2.4 19 1.4zm90.8 1.2c6.8 4.7 8.7 9.7 8.7 22.9v11L467.8 169c-21.6 14-33.8 22.5-35 24.5-2.7 4.2-2 11.8 1.5 15.2 1.3 1.4 16.8 11.9 34.3 23.3l31.9 20.8v12.4c0 11.8-.1 12.7-2.7 16.5-4.9 7.4-17 10.8-24.5 7-6.5-3.4-109.9-69.8-112.7-72.5-8-7.4-8.8-20.7-1.8-29.9 1.5-2.1 22.1-15.9 57.4-38.4 30.2-19.3 56.3-35.7 58.1-36.5 5-2.3 12.9-1.3 18 2.2zm89.5.3c8.5 4.4 11.2 10.1 11.2 23.8v9.8l-33.4 21.8c-28.3 18.4-33.7 22.4-35.1 25.4-2 4.2-1.5 9.5 1.3 13.2 1 1.3 16.4 11.9 34.2 23.6l32.5 21.1.3 8.9c.4 12-.3 14.9-4.6 19.7-6.4 7.1-15.8 9.7-23.6 6.4-5.3-2.2-105.7-66.4-109.4-69.9-7.5-7.2-9.5-18.8-4.7-28.3 1.4-2.8 3.5-6 4.8-7.1 3.6-3.3 106.7-68.5 110.6-70 4.4-1.6 10.8-1 15.9 1.6zm93.2 2.5c2.2 1.4 5.2 4.5 6.7 6.8 2.5 3.7 2.8 5.2 3.1 14.2l.4 10.1-31.4 20.4c-17.2 11.2-32.4 21.3-33.7 22.5-5.3 4.7-6.1 12-2 17.6 1 1.4 16.4 11.9 34.3 23.5l32.5 21v9.3c.1 10.9-1.5 15-7.9 20.4-7.7 6.7-15.8 7.4-25.2 2.5-8.9-4.8-98.7-62.3-102.2-65.5-4.7-4.4-7.6-11.7-7.6-19.2 0-7.9 2.3-13.5 7.7-18.5 4-3.7 96.8-63.4 103.8-66.7 5.8-2.8 16.1-2 21.5 1.6zm88.3 0c9.4 4.1 14.7 13.3 14.7 25.5 0 5.6 0 5.6-4.8 8.5-20.4 12.8-60.2 39.3-62.4 41.7-2.2 2.3-2.8 3.9-2.8 7.7 0 8.4-1.7 7 51.9 41.7l18.3 11.9-.4 7.5c-.3 5-1.2 9-2.6 11.7-2.4 4.7-8.1 10-12.8 12-4.7 2-14.1 1.7-18.9-.5-6.5-3-95.7-60-99.3-63.4-5.5-5.2-8.4-12.4-8.4-20.6 0-8.6 2.6-14.8 8.7-20.4 3.1-2.9 60.3-39.8 92.9-60 10.1-6.2 17.2-7.2 25.9-3.3zm90.2 1c9.7 4.1 16.5 14.2 16.5 24.5v5.6L836.8 169c-21.7 14.1-33.8 22.5-35 24.5-2.6 4.1-2 11.6 1.2 15 1.3 1.4 16.9 12 34.8 23.6l32.4 21.2-.4 6.6c-.8 10.2-5.8 18-14.8 22.7-5.1 2.7-17.2 2.6-22.5-.3-8.5-4.4-91.2-57.7-94.3-60.6-8.5-8.1-11.1-22.7-6-33.8 1.5-3.2 4.5-7.2 7.4-9.8 5.3-4.8 84.7-55.8 92.9-59.7 5.9-2.8 15.6-3.2 21-1zm92 2c9.5 4.4 16.5 14.4 16.5 23.6v4.5l-33.6 21.9c-35.6 23.3-36.4 23.9-36.4 31.4 0 6 3.5 8.9 37 30.7l32.5 21.1.3 4.7c.6 9-6.5 19.6-16.1 23.8-6.7 3-15.4 3.1-21.7.2-4.9-2.1-82.1-50.8-88.3-55.6-15-11.6-16.5-34.8-3.1-48 4.1-4 87.9-57.7 92.9-59.5 5.4-1.9 14.5-1.4 20 1.2zm91.8 1.5c9 4.4 16.7 15 16.7 23.2v3.6l-28.2 18.4c-37.5 24.4-36.8 24-39.2 27.2-2.8 3.9-2.8 10.3.1 14.2 1.2 1.7 16 11.9 34.7 24l32.5 21v4c.1 8.9-9.1 20.7-18.6 23.9-5.7 2-14.7 2.1-19.9.2-4.5-1.5-80.7-49.8-87.1-55.1-8.3-6.9-12.9-21.5-10.3-32.6 3.2-13.7 5.4-15.6 53.4-46.1 22.6-14.4 42.9-26.7 45.1-27.5 5.5-1.8 15.4-1 20.8 1.6zm90.1 1.1c6.7 2.6 13 8.5 16.2 15.3 4.5 9.8 6.3 7.9-30.1 31.7-17.9 11.6-33.4 22.3-34.5 23.7-2.5 3.2-2.7 10.4-.3 14.4 1.2 1.9 12.6 10 34.5 24.2 37 24 35.4 22.2 30.2 32.4-6.5 13.1-21.8 19.9-35.9 16.1-4.4-1.2-28.8-16.2-76.7-47.2-14.1-9-19.1-17.5-19.2-32.1-.1-8.2.2-9.6 3.1-15.5 1.8-3.6 5.1-8.4 7.5-10.7 5-4.8 75.1-49.7 81.8-52.4 6.3-2.5 16.5-2.4 23.4.1zM1189 .4c0 .4 9.9 6.6 10.6 6.6 1.4 0 0-4.1-1.8-5.4-1.9-1.4-8.8-2.3-8.8-1.2zM1193.6 396.3l-5 3.2 3.3.3c3.9.4 8.1-2.1 8.1-4.8 0-2.6-.5-2.5-6.4 1.3z"/></svg>