<svg xmlns="http://www.w3.org/2000/svg" width="1600" height="533.33" version="1.0" viewBox="0 0 1200 400"><path d="M1 2c0 1.7.3 1.9 1.8 1.1 1.6-.9 2.9.7 10 12.2 4.4 7.3 8.4 13.9 8.7 14.7.4 1.2-2.2 3.5-9.5 8.4-5.5 3.7-10.2 7.2-10.6 7.7-1.8 3 1.6 1.4 11.4-5.4l10.9-7.4L31 45.4c4.1 6.6 8 13.1 8.8 14.3 1.3 2.1 1.1 2.4-4.2 5.8-3 1.9-5.9 3.5-6.4 3.5S25 66.1 21 62.5c-7.9-7.1-10-8.1-13-6.5-3.9 2.1-2.5 6.2 8.6 25.3 10.7 18.5 14 22.7 17.5 22.7 1.1 0 6.7-2.7 12.6-6 5.8-3.3 10.8-6 11.2-6 1 0 6 8.3 5.5 9.1-.7 1.2-30.2 20.9-31.2 20.9-1.3 0-11.7-15.5-21.6-32-4.7-8-9-15.2-9.5-16-.7-1-1 2.5-1 10.3L0 96.1l7.4 11.7c4.1 6.4 9 13.9 10.9 16.7l3.4 5-10.8 7.3C.1 144 0 144.1 0 148c0 4 .7 4.9 2.6 3 .7-.7 5.5 3.7 15.2 14 7.8 8.3 14.2 15.4 14.2 15.8-.1.9-14.2 12-16.1 12.6-.9.4-3.8-3.4-8.4-11-4.8-8-7.1-10.9-7.3-9.6-.2 1.2 2.5 6.6 6.2 12.6 3.6 5.9 6.6 10.8 6.6 10.9 0 .1-2.9 2.5-6.5 5.2-7.9 5.9-8.1 7.5-3 19.5 1.9 4.5 3.5 8.7 3.5 9.3 0 .6-1.2 2.4-2.7 3.9-2.9 3.1-1.7 3.7 2.2 1.2 2.4-1.5 2.5-1.5 3.4.7.5 1.3 1.6 4 2.4 5.9l1.5 3.4-4.9 5.4c-4.6 5-6.1 8.2-4 8.2.5 0 1.8-1.5 3-3.3 1.1-1.8 3.1-4.3 4.4-5.5l2.4-2.3 2.1 4.8c3.3 7.6 3.5 7.2-6.1 11.3-9.5 4-12.5 6-9.1 6 1.6 0 2.7 1.5 4.9 6.5 1.5 3.6 3.1 6.5 3.6 6.5 1.4 0 1.1-1.5-1.6-7.6-1.4-3.1-2.5-6-2.5-6.4 0-1.2 14.1-6.3 14.9-5.4 1.2 1.4 5.1 11.1 5.1 12.8 0 1.4-15.5 16-23 21.7-1.9 1.5-3.2 3-2.8 3.4 1.1 1.2 7.5-3.6 18.1-13.5 5.8-5.5 9.7-8.5 10-7.7.3.6 2.1 4.9 4.1 9.4l3.5 8.3-2.7.5c-12.4 2.4-35.6 14.4-33 17.1.3.3 3.4-1.3 6.8-3.6 8.5-5.4 16.1-8.9 22.5-10.3 4.6-.9 5.5-.8 7 .7 2.2 2.2 14.7 31.6 14.1 33.1-.4 1.1-34.8 22-37.4 22.7-.6.2-3.6-1.7-6.7-4.1-3.1-2.4-5.8-4.1-6.1-3.8-1 1 1 3.4 6.2 7.5l5.5 4.4 19.5-11.6c10.7-6.4 19.9-11.6 20.3-11.6.6 0 4.1 6.3 4.1 7.4 0 .4-40.5 30.7-42.7 32-.7.4-3.6-.7-6.6-2.4-5.7-3.2-6.7-3.5-6.7-2.1 0 .5 2.3 2.3 5.1 4.1l5.2 3.1-3.1 2.2c-1.8 1.2-3.2 2.8-3.2 3.4 0 1.9.9 1.6 4.6-1.2 1.8-1.4 3.6-2.5 4.1-2.5.4 0 7.3 3.8 15.3 8.5 8.7 5.1 15.6 8.5 17.2 8.5 1.6 0 2.8-.2 2.8-.3 0-.2-7-4.6-15.5-9.7-8.6-5.1-15.8-9.6-16-10-.5-.7 37.2-29.6 39.9-30.6 2.1-.8 13.9 28.2 16.1 39.6 1.7 9 2.8 12 4 10.8.3-.2-.4-5.1-1.6-10.7-1.1-5.7-1.9-10.4-1.7-10.5.9-.8 8.8-5.6 9.2-5.6.2 0 .7 1.7 1.1 3.7 1.6 8.9 9.1 23.3 12 23.3 1 0 .4-1.6-2.1-5.7-3.5-5.4-7.4-14.7-7.4-17.7 0-.8 4.5-4.1 10-7.2 5.5-3.2 10-6.4 10-7.1 0-.7-.2-1.3-.4-1.3s-4.9 2.7-10.4 5.9l-10 5.9-1.8-3.9c-.9-2.2-1.5-4.1-1.3-4.3 1-.8 37.5-16.6 38.4-16.6.6 0 3.9 3.3 7.4 7.2 6.2 7.1 17.3 17.5 21.8 20.5 2.1 1.4 2.1 1.6.6 4.9-.9 1.9-2 3.4-2.4 3.4-.4 0-6.5-4.6-13.6-10.1-7-5.6-13.3-10.4-14-10.6-1.3-.5-20.3 10.1-21.5 12.1-1.6 2.3-.7 5.3 2.4 8.2 5.8 5.5 20.8 16.6 21.8 16.2.6-.2-1.9-2.4-5.4-5.1-8.8-6.4-17.6-14.6-17.6-16.3 0-.7 4.2-3.8 9.4-6.9 9.9-5.9 10-5.9 15-2.1 1.7 1.4 1.7 1.6-.8 4.9-3.4 4.4-4.2 8.7-2.3 12.3 1.9 3.7 19.6 13.7 23.3 13.2 2-.2.8-1.2-6.6-5.1-12.1-6.5-15-9-15-13.2 0-3.2 3.2-8.5 5.1-8.5 1.4 0 18.9 14 18.9 15.1 0 .5.5.9 1.1.9.6 0 4.3 2.5 8.2 5.5 6.7 5.3 10.8 6.7 12.3 4.4.4-.6-.1-.9-1.3-.7-1.3.2-4.9-1.9-9.6-5.6l-7.6-6 2-3.9c1.8-3.5 2.2-3.7 3.7-2.4.9.8 7.7 5.6 15 10.6 12.4 8.4 17.2 10.7 17.2 8 0-.6 3.4-5.3 7.6-10.5l7.5-9.4 4.9 2.5c2.7 1.4 5.4 3.4 6 4.4 1.2 2.3 1.4 6.2.3 6-2-.3-2.4.2-1.4 1.5 1 1.2.9 2-.4 4-1.5 2.2-1.5 2.6-.2 2.6.8 0 2-.7 2.7-1.5 1.2-1.4 1.5-1.4 3.6 0 4.2 2.7 6.2 1.7 2.2-1.1-3.1-2.2-3.7-3.2-3.6-6 .1-4-2.4-8-6.4-10.2-6.2-3.5-6.3-3.6-3.6-6.6l2.3-2.8 5.3 4.2c4 3.2 5.1 4.7 4.7 6.1-.4 1.3-.2 1.9.8 1.9.9 0 1.7-.5 1.9-1 .2-.6 5.7 3 12.2 8 6.5 5 12.5 9 13.4 8.8 1.2-.2-.1-1.7-4-4.7-3.2-2.4-5.8-4.6-5.8-4.8 0-.3 2.3-4.3 5.1-8.9 6.1-9.9 6.1-12.3-.1-15.4-7.1-3.6-9.7-2.7-16 5.7-2.4 3.2-4.5 6-4.6 6.2-.2.2-2.9-1.5-5.9-3.8-4.9-3.7-5.5-4.5-4.3-5.9 1.4-1.9 14.7-18.2 15.8-19.5 1.2-1.4 17.7 15.1 25.3 25.2 4 5.3 9.4 13.3 12.2 17.8 4.4 7.3 5.3 8.3 7.8 8.3 1.8 0 3.6-.9 4.7-2.3l1.9-2.2 1.6 2.2c1.4 2 2.5 2.3 8.6 2.3 3.8 0 6.9-.3 6.9-.6s-4.1-6.2-9-13.2l-9-12.7 3.3-3c17.6-15.9 50.8-43.6 55-45.8 6.9-3.6 14.3-4.8 26.9-4.5l10.3.3v54.4l2.6 2.6c1.6 1.7 4.1 2.9 6.7 3.2 4.8.6 4.8.6 3.2 11.7-.6 3.8-.8 7.2-.5 7.5 1.2 1.1 2.3-2.4 3-8.9.4-3.7 1-7.2 1.5-7.9.6-1 5.9-1.1 27.1-.2 14.5.7 29.7 1.4 33.7 1.7l7.2.6v7.4c0 5.9.3 7.4 1.5 7.4s1.5-1.5 1.5-7.7v-7.6l15.2.6c8.3.4 17.7.7 20.8.7h5.7l1.3 5.9c.7 3.2 1.6 6.4 2.1 7.2 1.4 2.4 2.1.2 1.1-3.7-.6-2.2-1.3-5.1-1.6-6.6l-.6-2.8h44v5c0 4.7-.1 5-2.6 5-3.3 0-2.7 2.1.8 3.1 1.5.4 19.8.7 40.7.8l38.1.2v-14.2l6.3.6c3.4.2 11.5.8 18 1.1l11.7.6v5.9c0 3.3.4 5.9 1 5.9s1-2.7 1-6v-6.1l6.3.3 6.2.3.3 5.7c.4 7.4 2.2 7.6 2.2.3V389h7.8c4.2 0 10.1.3 13 .7l5.4.6-.4 4.9c-.2 3.3.1 4.8 1 4.8s1.2-3.1 1.2-12.3c0-6.7.4-12.8.9-13.5.6-1 2.2-1.2 6.5-.7l5.6.7v12.9c0 12 .9 16.1 2.4 10.7.3-1.3.6-14.1.6-28.6V343h6.4c3.6 0 6.7.3 6.9.8.3.4.1 13-.4 28.1-.6 15-.7 27.6-.4 27.9.3.3.8.2 1.2-.2.7-.7 2-29.3 2.2-48.9l.1-7.8 5.8.3 5.7.3-.3 12.5c-.1 6.9-.5 19.6-.8 28.2-.4 10.2-.3 15.8.4 15.8 1.6 0 2.2-5.5 2.2-21.4 0-8.3.3-19.5.7-24.9l.6-9.7H766v49.6l-6.2 3.1c-5.5 2.8-5.9 3.2-3.4 3.2 1.6.1 4.4-.8 6.2-2l3.4-2.1v2.1c0 1.2.6 2.1 1.5 2.1 1 0 1.5-1 1.5-2.9 0-2.5.7-3.1 4.9-5 2.7-1.1 5.2-2.1 5.5-2.1.3 0 .6 2.2.6 5 0 3.8.4 5 1.5 5s1.5-1.2 1.5-5.1v-5.1l13.3.7c7.2.4 16.4 1 20.2 1.4l7 .6.3 3.7c.4 4.8 2.2 5 2.2.3V393h5.8c3.1 0 16 .7 28.6 1.5 20.8 1.2 23 1.5 25.1 3.5 2 1.8 3.2 2 10.9 1.8l8.7-.3-12.1-10.4c-6.7-5.6-12-10.4-11.8-10.6 2-1.9 55.2-37.5 55.8-37.3.5.2 31.4 38.6 42.2 52.5.6.8-.3 2-2.9 3.7-3.6 2.5-3.7 2.6-1.2 2.6 1.5 0 3.2-.7 3.9-1.5 1.6-1.9 3.9-1.9 4.6 0 .4.8 1.5 1.5 2.7 1.5 2 0 2 0-.2-2.4l-2.2-2.3 4.8-3.5c8.1-5.9 17.4-12 17.7-11.6.2.1 3.4 4.6 7.1 9.8 3.7 5.2 6.9 9.7 7.1 9.9.1.1.8.1 1.4-.1.7-.2 0-1.9-1.7-4.3-1.6-2.2-5-7-7.6-10.6l-4.7-6.6 9.3-6.2c5.1-3.3 9.6-6.1 9.9-6.1.4 0 5.9 7.6 12.4 17 6.4 9.3 12.3 17 13 17 .8 0-2.1-5.1-6.8-12l-9.6-13.8c-1.1-1.7-.1-2.6 10.9-10.2 6.8-4.6 12.4-7.9 12.9-7.4s5 6.7 9.9 13.8l9.1 12.9-11.8 8.1c-7.7 5.3-11.1 8.2-9.9 8.4 1.5.3 23.8-14.4 34.9-23l3.7-2.9 3 4.4 3 4.5-11.2 7.7c-13.6 9.5-13.6 9.5-11.1 9.5 1.2 0 7-3.4 13-7.6l10.8-7.6 1.9 2.3c2.2 2.7 2.9 1.8-7.8 9.4-7.2 5.1-2.8 4.5 4.7-.7l6.2-4.1 2.8 3.3c2 2.5 2.4 3.6 1.5 4.2-.7.5 0 .8 2 .8 1.7 0 3.3-.4 3.5-.8.5-1.4 20.1-14.1 20.9-13.6.4.2 1.3 3 2 6 1.2 5.2 1.1 5.8-.6 7-1.7 1.3-1.3 1.4 3.8 1.4 5.4 0 5.7-.1 5.7-2.4 0-1.6 1.1-3.2 2.9-4.5l2.8-2 3.2 4.4c1.8 2.5 3.9 4.5 4.7 4.5.9 0 .2-1.7-2.2-5-2-2.8-3.5-5.2-3.3-5.4 5.1-3.9 5-4 9.5 2.9 2.4 3.5 4.8 6.6 5.4 7 2.6 1.6 1.9-.8-1.9-6.4-2.3-3.3-4.4-6.7-4.7-7.5-.4-1 2.3-3.4 8.5-7.5 5-3.4 9.4-6.1 9.9-6.1s3.8 4.1 7.3 9.2c4 5.7 6.5 8.5 6.7 7.5.2-.9-2.4-5.5-5.7-10.1l-6-8.5 5.9-4.2c3.3-2.3 6-4.8 6-5.5 0-2-.5-1.8-6.9 2.6-6.5 4.4-6 4.5-11-2.7l-2.2-3.2 10.1-6.7c5.5-3.7 10-7.3 10-8.1 0-1.6.3-1.8-11 5.7-4.7 3.1-9 6-9.7 6.3-1 .6-6.1-5.9-5.2-6.7.2-.2 6.1-4.2 13.2-9 7-4.8 12.7-9.4 12.7-10.2 0-1-5.2 2-14 8l-13.9 9.6-5.8-8.2c-3.2-4.5-11.5-16.4-18.5-26.3-8.2-11.6-12.3-18.4-11.7-19 .6-.5 15-10.5 32.2-22.1 17.3-11.7 31.4-21.9 31.5-22.8.3-1.2-3.9 1.2-12 6.7-24.7 16.9-54 36.7-54.3 36.7-.5 0-16.7-23.3-17.1-24.5-.2-.5 18.6-13.6 41.6-29 35.4-23.6 44.7-30.5 41.5-30.5-.2 0-19.5 12.8-42.9 28.5l-42.4 28.5-10.6-15.1c-5.9-8.4-10.5-15.3-10.4-15.4.2-.1 24.2-16.5 53.3-36.5 29.2-19.9 53.2-36.4 53.4-36.6.1-.1.1-.8-.1-1.4-.1-.5-29 18.6-64.1 42.6-35.1 24-64 43.5-64.1 43.3-.2-.2-1.9-2.8-3.9-5.8l-3.6-5.5 17.7-8.6c21.8-10.7 33.2-17.2 53.3-30.5 16.8-11.1 31.1-22 42.5-32.1 6.1-5.5 7.1-6 8.1-4.6 1 1.5 1.2 1.4 2.2-1.1.7-1.9 1.8-2.7 3.5-2.7 4 0 8.6-1.2 8.6-2.3 0-.6-2-.7-5.2-.3l-5.3.6 5.3-5 5.2-5.1v-8.5c0-4.6-.3-8.4-.7-8.4-.4 0-3.4 2.9-6.8 6.5-4.6 4.9-6.7 6.5-8.8 6.5-2.2 0-6.9-4-23.8-20.2l-21.2-20.2 8.3-3.8 8.2-3.8 14 13.3c7.7 7.2 15.4 14 17.1 14.9 3.8 2 14.1 2.5 13.5.6-.3-.8-2-1.1-4.5-1-2.4.2-5.5-.3-7.3-1.3-3.2-1.7-30-26.2-30-27.5 0-.7 25-13 26.6-13 .5 0 4.1 5.5 7.9 12.1 4.7 8.1 7.1 11.5 7.3 10.2.2-1.1-2.2-6.3-5.3-11.6-3.1-5.4-5.8-10.4-6.1-11.1-.4-1 1.3-2.4 5.5-4.6 3.4-1.6 6.1-3.5 6.1-4 0-.6-.2-1-.4-1-.6 0-21 9.8-60 28.9-16 7.8-29.5 14-30.1 13.7-.7-.2-2.6-2.2-4.3-4.4l-3.2-4 6.5-2.8c3.6-1.6 6.5-3.5 6.5-4.2 0-.8-.4-1.2-.8-1-.4.1-3.8 1.6-7.5 3.2s-6.8 2.7-7 2.5c-.1-.2-2.4-3-5-6.1l-4.8-5.7 4-2c2.2-1.2 4.2-2.5 4.6-3.1 1-1.6-2.3-1.1-6.4 1l-3.9 1.9-12.4-14.4c-6.7-8-12.4-14.8-12.6-15.3-.1-.4 2.4-2.2 5.7-4l5.9-3.2 11.3 10.7c6.3 5.8 11.6 10.8 11.8 11 .2.1-.1.9-.7 1.6-1.5 1.8-.4 2.9 1.7 1.8 1.2-.7 3.9 1.2 11.5 8.3l9.9 9.2 34.1-18.3c18.8-10 34.5-18.8 35-19.5.8-1.4-8.8-17.8-10.5-17.8-1.7 0-.8 2.1 3.8 9 2.8 4.3 4.3 7.4 3.7 8-.8.8-41 22.4-59 31.7l-7.2 3.7-8.3-7.9c-4.6-4.3-8.4-8.2-8.4-8.7s2.3-2.2 5-3.8l5-2.9 8.8 8.1c4.8 4.4 9.1 7.7 9.5 7.4.3-.4-3.1-4.4-7.6-8.8-4.5-4.5-8.1-8.2-8-8.3.2-.2 7.2-4.4 15.6-9.5 14.2-8.5 15.6-9.1 17.8-8 1.3.8 2.4 1.6 2.4 2 0 .3-5.2 4.2-11.5 8.5-10.7 7.3-13.1 9.5-10.4 9.5.6 0 6.3-3.6 12.6-8.1l11.5-8.1 5.9 5.8c3.2 3.2 6.2 5.5 6.6 5.1.4-.4-1.9-3.4-5.1-6.6-3.6-3.6-5.4-6.1-4.7-6.5 1.9-1.2 1.2-2.8-.9-2.1-2 .6-5-.9-5-2.6 0-.4 2.2-2 5-3.6 2.7-1.5 5-3.4 5-4.1 0-.6-.3-1.2-.6-1.2s-7.6 4.3-16.1 9.6l-15.6 9.5-10.8-10.7c-6-6-11.2-10.5-11.6-10.1-.4.4 3.9 5.4 9.5 11s10.2 10.5 10.2 10.9c0 .4-3.5 2.8-7.7 5.3l-7.7 4.7-3-3.3c-6.8-7.8-13.5-14.9-14-14.9-2 0 .4 3.6 7.3 11l7.9 8.6-3.9 2.2-3.9 2.3-10.3-9.7c-5.6-5.3-11-10.4-12-11.3-1.6-1.6-1.1-2.1 8.3-9.1 5.5-4.1 10-7.8 10-8.2 0-1.9-3-.3-11.6 6.2-5 3.8-9.6 7-10.1 7s-4-2.8-7.7-6.3l-6.9-6.2 13.1-8.3c7.2-4.5 13.4-8.7 13.7-9.2 1.8-2.9-2.6-.9-14 6.6-7.2 4.6-13.7 8.4-14.6 8.4-.9 0-2.3-.7-3-1.6-1.6-2-1.3-2.3 18.7-16.1 9.9-6.8 13.7-9.9 12.3-10.1-1.2-.2-8.1 4-18.1 11.1l-16.3 11.5-2.2-2.1c-2.9-2.6-4.3-1.4-1.7 1.4 1.6 1.8 1.6 2.2.4 2.9-.8.5-4.5 3-8.1 5.7-3.6 2.7-9.6 6.9-13.2 9.3-3.7 2.5-6.7 5.1-6.7 5.7 0 1.7 1 1.6 3-.2 1.5-1.4 2.1-1.1 6.5 3.6l4.7 5-2.1 2.3c-2.4 2.6-2.6 3.6-.7 3.6.7 0 2-1 2.8-2.2l1.5-2.2 3.4 3.9c2.7 3 3.4 4.7 3.4 7.9.1 5.2 17.3 40.5 21.3 43.7 3.6 2.8 5.9 2.3 21.7-4.3l12.9-5.4 3.8 4.3c2.1 2.5 3.8 4.6 3.8 4.9 0 .8-36.9 18.3-39.3 18.6-1.9.3-3.5-2.1-11.9-17.2-6.7-12.1-9.6-18.2-9.2-19.8.3-1.5 0-2.2-1-2.2-.8 0-3.1-2.8-4.9-6.3-1.9-3.4-10.8-19.4-19.7-35.5-8.9-16.2-15.8-29.7-15.4-30.1.5-.5 7.4-3.8 15.5-7.5 8-3.7 15.8-7.6 17.5-8.6l2.9-2h-26.2l-8.7 4c-4.7 2.2-9.2 4-10 4-.7 0-2.1-1.8-3.1-4s-2.4-4-3.2-4c-1.7 0-1.7.3.8 5.2 1.7 3.3 1.8 4.2.7 4.9-2.6 1.7-37.5 12.8-49.8 15.9-13.8 3.5-45 10-48 10-1.4 0-2.1-1.2-2.9-5.3-6-27.8-6.7-30.7-7.9-30.7-.8 0-1 .8-.7 2.2 3.3 14.5 7.3 34.3 6.9 34.7-.2.3-7.2.7-15.3.9l-14.9.4-.7-6.3c-.3-3.5-1.1-12-1.8-18.8-.9-8.9-1.6-12.6-2.6-12.9-1.1-.4-1.2.3-.8 2.9.4 1.9.9 7.3 1.3 12.1l.7 8.8h-6.2l-.3-7.8-.3-7.7-10.7-.3-10.8-.3V4c0-2.2-.4-4-1-4s-1 4.7-1 12v12h-24V1.1l5.3-.4c2.8-.2-17-.4-44-.3L712 .5v9.2l-12.2 3.2c-6.8 1.7-13.3 3.4-14.5 3.7-2.2.6-2.3.4-2.3-5.3V5.4l5.3-2.6c4.6-2.4 4.9-2.7 2.4-2.7-1.6-.1-3.8.4-4.9 1-1.4.8-2.3.8-3.1 0-2.1-2.1-2.7-1.1-2.1 3.3.4 2.5.3 11-.1 19l-.7 14.6h-22.9c-22.2 0-22.9-.1-22.9-2 0-2.3-.2-2.2 16.9-5 15.8-2.7 19.1-4.3 20.6-10 1-4.3-2.6-7.8-8.3-8.2l-4.7-.3-.3-6.3c-.2-4.6-.7-6.2-1.7-6.2-.8 0-1.5.4-1.5 1 0 .5-2.2 1-5 1-2.7 0-5-.5-5-1 0-.6-.4-1-1-1s-1 3.1-1 7.4c0 9.1-1.4 10.6-9.8 10.6-7.2 0-7.8-1.9-2.3-7.2 3.2-3.2 4.1-4.8 4.1-7.4 0-1.9-.4-3.4-1-3.4-.5 0-1 1.1-1 2.5 0 1.6-1.5 4.2-4 6.9-4.5 4.8-5 7.8-1.9 9.9 1.4 1.1 2.3 3.1 2.8 7.1l.8 5.6-3.1.5c-8.7 1.4-7.9 2.2-9.8-9.5-2.3-14.3-2.3-14 1.1-14s4.9-1.5 5.7-5.8c.5-2.5.3-3.2-.9-3.2-1 0-1.7 1.1-1.9 2.7-.4 3.8-4.7 3.9-6.5.3-.9-1.7-2.2-2.6-4.3-2.7l-3.2-.3 2.4 2.9c2 2.3 2.9 5.6 4.7 16.7 1.3 7.7 2.5 14.9 2.8 16.1.4 2 .1 2.3-2.3 2.3-2.7 0-3.5-1.1-10.4-13.2-4.1-7.2-7.7-13.6-7.9-14-.1-.5.5-1.8 1.5-2.9 2.2-2.4 1.3-3.4-1.6-1.9-2.4 1.3-2.3 1.4-4-1.9-1-1.9-1-2.5.1-3.3 1.3-.9-.6-.7-9.5.9-2 .4-2.7.2-2.2-.6S580.2 0 575.7 0h-6.4l-1.6 4.2c-.9 2.4-3.9 10.6-6.7 18.3-2.9 7.7-5.5 14.3-5.8 14.7-.8.8-23.8-2.4-33.7-4.7-15-3.4-20-4.8-20.8-5.4-.4-.4 0-6.5.9-13.4 1.5-11.5 1.5-15.1-.2-13.5-.3.4-1.3 5.8-2.1 12.1-.9 6.3-1.9 12-2.2 12.6-.7 1.1-17.7-3.6-23.3-6.5-2.8-1.5-6.5-7.6-8.7-14.7C464 .4 463.5 0 460.4 0c-4.1 0-4.1.6-1 8.3l2.4 5.8-2.1-.7c-1.2-.4-8.3-3.5-15.7-7.1L430.6-.1l-11.1.3-11 .3 5.2 3c2.9 1.6 5.3 3.4 5.3 3.8 0 .5-2.5 3.3-5.6 6.4l-5.7 5.5-4.3-4.3C401 12.5 399 10 399 9.2c0-1.7-8-9.2-9.7-9.2-1.6 0-1.6 1.2 0 3 .6.8 0 .4-1.5-.9-1.6-1.4-3.1-2.1-3.5-1.7-.5.5 2 3.4 5.5 6.7 6.7 6.1 7.4 8.6 3.2 10.9-1.7.9-2.4.3-5.2-4-1.8-2.7-3.9-5-4.6-5-1.5 0-1.3.4 3 6.7 1.5 2.3 2.8 4.4 2.8 4.6 0 .2-1.3.7-3 1-1.6.4-3 1.1-3 1.7 0 1.2 2.1 1.3 5.3.1 2-.8 2.6-.5 4.1 2l1.7 3-6.3 2.8-6.3 2.9-5.6-9.7c-3.1-5.3-7.5-12.9-9.8-16.9-2.3-3.9-4.8-7.2-5.6-7.2-.8 0-1.5.2-1.5.5 0 .2 2 3.8 4.5 8l4.4 7.5-15 7.5c-8.2 4.2-14.7 8-14.4 8.5.3.5 7.3-2.4 15.5-6.5l14.8-7.4 4.6 7.8c2.5 4.3 4.6 8 4.6 8.3 0 .3-1.2.9-2.6 1.2-4.4 1.2-25.6 13.8-24.6 14.8.5.5 5.5-1.8 11.8-5.5 6-3.6 12.3-6.8 14-7.1 3-.7 3.3-.4 6.9 5.4 2 3.3 4.1 5.8 4.5 5.5.5-.3.7-1.2.4-1.9-.9-2.4 14.3-12.2 24.6-15.6 9.3-3.1 20.7-2.5 30.9 1.8 9 3.8 9.6 4.3 8.1 7.2-.8 1.6-.9 2.5-.1 3.3.8.8 1.4.2 2.2-2.1.6-1.8 1.2-3.2 1.3-3.2.1 0 3.3 1.3 7.1 3 3.9 1.6 8.1 3 9.5 3 3.4 0 1.5-1.4-4.5-3.4-2.7-.9-6.4-2.5-8.1-3.4l-3.1-1.7 1.8-4.4c1.5-3.4 2.3-4.2 3.7-3.6 1.3.6 11.5 4.1 25.9 9 .8.3.6 1.4-.7 4-2.4 4.8-1.1 9 3.6 11.2l3.3 1.6-2.4 2.9c-1.3 1.5-2.9 4.3-3.6 6.2-.9 2.5-2 3.6-4.1 4-5.9 1.2-8.3-2.2-5.3-7.4a15 15 0 0 0 1.5-5.7c0-5.6-5.1-6.7-14.3-3.3-5.7 2.2-9.7 5.9-14.2 13.2-4.9 7.9-14.6 12.6-23.4 11.4-2.4-.3-4.5-.7-4.7-.9-.1-.1-3.4-6.7-7.3-14.6l-7.2-14.3-3.7.7C397.8 46.9 393 51 393 55.9c0 2.9 3.4 10.4 5.6 12.2 2.7 2.2 2.7 0 0-4.1-3.3-5-3.4-9.9-.3-12.7 1.9-1.8 8.7-4.7 9.3-4.1.1.2 5 9.9 10.8 21.6C428.8 89.6 429 90 426.8 91c-12.1 4.9-20.5 8-21.9 8-1 0-1.9.4-2.1.8-.1.4-3.4 2-7.3 3.4-3.8 1.4-16.4 6.3-28 10.8-29 11.3-41.6 16-43 16-1.1 0-7.5-9.8-7.5-11.4 0-.2 3-1.4 6.8-2.7 7.7-2.5 7.6-2.4 6.8-3.8-.4-.6-3.3-.1-7.8 1.5-3.9 1.3-7.2 2.3-7.3 2.1-.1-.1-2.1-3.7-4.4-7.9l-4.3-7.8 4.6-2.2c2.5-1.2 4.6-2.6 4.6-3.1 0-1-1.5-.7-6.7 1.4-2.1.9-3.6 1-4.2.4-1.4-1.5-21.3-37.6-20.9-38 .1-.1 3.1-1.7 6.5-3.4l6.2-3.1 10.2 14.6c9.2 13.1 10.1 14.8 9 16.6-1.2 1.9-1.1 2 1.1 1.5 2-.5 3.2.8 9.6 10.1 10.6 15.4 10 14.6 11.4 13.4.7-.5 11.7-5.5 24.3-11 12.7-5.5 28.7-12.5 35.7-15.7l12.6-5.7-.8-2.9c-1.6-5.6-7.4-18.9-8.2-18.9-1.4 0-.9 1.9 2.7 10.6 1.9 4.6 3.5 8.8 3.5 9.3 0 .4-11.4 5.8-25.2 11.9a3131 3131 0 0 0-35.2 15.6c-5.5 2.5-10.3 4.3-10.6 4.1-.8-.5-15-21.2-15-21.9 0-1 7.7-4.5 8.4-3.9.3.4 1.2-.1 1.9-1.1 1.1-1.5 2.1-.4 8.5 8.9 6.4 9.2 9.2 12.3 9.2 9.7 0-.4-3.2-5.2-7-10.7-6.5-9.2-6.9-10.1-5.3-11.3 4.2-3.1 31.6-16.3 32.8-15.8.8.3 1.9 1.4 2.4 2.5 1 1.8 0 2.6-10.9 9.2-6.6 4-12.3 7.6-12.6 8.1-1.7 2.7 1.7 1.3 12.8-5.2 6.8-4 12.6-7.4 12.9-7.6.4-.2 2.7 2.8 5.3 6.6 2.5 3.9 5.1 7 5.6 7 1.7 0 1.2-1-3.7-8.2-3.6-5.3-4.4-7.1-3.5-8 1.8-1.8 1.4-2.8-.9-2.5-1.2.1-2.7-.7-3.6-2-1.4-2.1-1.3-2.3 3.5-4.7 4.9-2.5 6.9-4.2 5.9-5.2-.2-.3-7.9 3.4-17 8.1l-16.6 8.6-9.1-13.5c-5-7.5-9.5-13.6-10.1-13.6-1.7 0-.6 2 8.1 14.9 4.4 6.6 8 12.4 8 12.8 0 .5-3.7 2.7-8.3 5l-8.4 4.1-5.7-9.9c-5.3-9.1-7.7-11.8-7.6-8.7.1.7 2.5 5.3 5.5 10.2 3 4.9 5.2 9.3 5 9.7-.6.8-7.6 4.2-7.9 3.7-1-1.2-19.4-27.5-19.9-28.4-.4-.7 3.5-3.9 9.8-8 5.8-3.8 10.5-7.5 10.5-8.2 0-.6-.2-1.2-.5-1.2s-5.3 3.1-11 7c-5.7 3.8-10.6 7-10.9 7-.5 0-12.6-16.6-12.6-17.3 0-.3 6.5-4.1 14.5-8.4 13.3-7.1 16.4-9.3 13.4-9.3-.6 0-7.2 3.3-14.7 7.2-7.5 4-13.9 7.4-14.3 7.6-.4.2-1.6-1-2.8-2.6l-2.1-3 15.1-9.2c11.2-6.9 15.3-9 16.2-8.1 1.7 1.7 3 1.3 2.4-.8-.3-1.2.1-2.2 1.1-2.6.8-.3 1.6-.4 1.7-.3 6.3 9.7 13.9 19.7 14.6 19.3.5-.3-2.3-5.3-6.1-11L317.1.2h-4.4c-3.5.1-4.4.4-4.1 1.7.3 1.2-3.8 4.1-14.7 10.5l-15.1 9-2-2.7c-2.4-3.4-4.6-2.5-2.3.9.9 1.4 1.3 2.8 1 3.3-.3.5-6.3 4.3-13.4 8.5-7 4.2-13.9 8.4-15.2 9.5-2.7 2.2-2.1 3.8.8 2.2 1.7-.9 2.4-.2 5.8 5.5l3.8 6.5-2.9 3c-3.2 3.3-1.3 4.1 2.2.9l2.1-2.1 3.1 4.8c2.6 4.3 2.9 5.4 2.5 10.3-.4 4.8.4 8.7 5.6 26.5 7.3 24.9 7.8 26.2 10.5 28 3.1 2.3 6.5 1.8 18.3-2.4 16.9-6 15.6-6 19.2.3 1.7 2.9 3.1 5.8 3.1 6.3 0 1.4-39.4 16.5-42 16.1-2.1-.3-3.1-2.7-9.9-23.2-5.4-16.3-7.2-23-6.3-23.3 1.8-.7 1.5-2.1-.5-2.5-1.3-.2-5.6-12-17.8-48.8L228.4.5l-7.2-.3-7.3-.3-17 11.6c-9.3 6.3-17.3 11.5-17.7 11.5-.4 0-1.9-5.2-3.2-11.5-1.6-7.6-2.9-11.5-3.7-11.5-.9 0-1.1.8-.8 2.2 1.4 5.4 5.3 23.3 5.2 23.4-.1 0-7.3 4.9-15.9 10.7-8.6 5.9-16.1 10.7-16.5 10.7-.5 0-2.1-2.4-3.5-5.4l-2.7-5.4L144 34c7.6-2.8 6.9-4.5-.8-1.9-5.4 1.9-5.7 1.9-7 .2-1.1-1.6-.3-2.2 8-6.1 5.1-2.4 11.2-5.2 13.6-6.3 3.8-1.6 5.7-3.9 3.3-3.9-.6 0-6.7 2.7-13.7 6-7 3.3-12.8 6-13 6-.2 0-1.5-2.3-2.9-5.1-2.2-4.2-2.4-5.5-1.6-8.2.5-1.8 1.4-5.8 1.9-9 .7-4.4.6-5.7-.4-5.7-.7 0-1.6 1.6-1.9 3.5-.3 1.9-.7 5.1-1 7-.3 1.9-.9 3.5-1.4 3.5-.4 0-2.2-3.2-4.1-7-3.7-7.6-4.8-8.2-10.3-5.4-4.1 2.1-4 2.1-3.2 3.3.4.7 2 .4 4.7-1 2.2-1.1 4.1-1.9 4.3-1.7 1.4 1.5 7.3 14.7 6.8 15.2-.4.3-1.7.6-3 .6-1.2 0-2.3.5-2.3 1 0 1.7 2.7 2.2 4.9 1.1 1.9-1.1 2.6-.2 9.6 13.8l7.5 15-9.3 6.4c-5 3.5-14.7 10-21.4 14.5l-12.1 8.1-3.2-5.5c-1.7-3.1-2.9-6.2-2.7-6.9.3-.6 8.5-6.3 18.2-12.5 11-7 17.2-11.7 16.7-12.2-.6-.6-7.7 3.4-18.8 10.5L91.5 62.9l-2.7-3c-1.5-1.6-3.2-2.9-3.9-2.9-2.4 0-18 9.2-19.5 11.5a5.4 5.4 0 0 0-.8 4.7c.9 3 7.5 12.7 10.3 15.2 1.1 1.1 2.1 2.5 2.1 3.2 0 1.7-9.9 7.9-10.9 6.8C64.6 96.7 45 64 45 63.2c0-.5 1.6-1.7 3.5-2.8 1.9-1 3.5-2.4 3.5-3.1 0-1.7-.7-1.6-3.8.5-1.5 1-3.2 2.2-3.9 2.5-.7.5-4.3-4.4-9.8-13.5l-8.7-14.2 2.2-1.8c1.3-1 2.7-1.7 3.1-1.6.4.2 2.5 2.7 4.6 5.7 4.4 6.3 7.5 8.8 12 9.7 2.7.5 3.7.1 6.4-2.5 2.7-2.8 3.1-3.7 2.5-6.9C55.9 30.8 35.6 0 33.3 0c-.8 0 2.3 5.4 8 13.7 5.2 7.6 10.2 15.2 11.1 17 1.9 3.8 2.1 8.4.4 10.1-1.7 1.7-6.4 1.5-9.2-.3-2.3-1.6-9.6-11.6-9.6-13.3 0-.5 1.8-2.2 4-3.7s3.7-3.1 3.4-3.6c-.6-1-1.3-.7-5.6 2.3-1.4 1-3 1.8-3.5 1.8s-3.5-4.1-6.7-9C20.3 6.8 18 4.3 18 7c0 .5 2.7 5.1 6 10.1l6.1 9.2-2.8 1.8c-1.5 1-2.9 1.6-3.2 1.4-.3-.2-4.4-6.9-9.1-14.9C7.4 1.6 6.2.1 3.8 0 1.6 0 1 .5 1 2zm230.3 13.2c2.6 7.9 4.7 14.9 4.7 15.5 0 1.1-6.2 5.7-9.4 6.9-.7.3-3.3-4.7-7.1-14.1-3.2-7.9-5.7-14.6-5.4-14.8C215.5 7.5 225.6 1 226 1c.3 0 2.7 6.4 5.3 14.2zM797 12.5V24h-15v-4.9c0-2.6-.3-7.5-.6-10.9l-.7-6.1 4.4-.4c2.4-.2 6.1-.4 8.2-.5L797 1v11.5zm-18-5.6c0 2.6.3 7.6.6 11l.7 6.1h-4.2c-4.1 0-4.1 0-4.1-3.8 0-2-.3-6.7-.6-10.4-.7-6.4-.6-6.6 1.7-7.1 5.8-1.1 5.9-1 5.9 4.2zm-187-.7 1.9 3.2-2.4 2.6c-3.5 3.7-8.3 13.7-9.7 20.2l-1.2 5.8H568l2.6-6.8c1.4-3.7 4.2-11.3 6.1-16.8l3.5-10.2h4c2.2-.1 4.3-.3 4.6-.6.9-1 1.1-.7 3.2 2.6zm132.6 9.7c-.1 12.3 0 13 2.3 15.5 4.5 4.8 7.6 4.9 27.4 1.1 3.6-.7 3.7-.7 3.7 2.4V38h-20c-17.4 0-20-.2-20-1.5 0-2.4-3-28.7-3.5-31.3-.5-2.1-.2-2.2 4.8-2.2h5.3v12.9zm28.8-11.3c.9.8 1.6 2.9 1.6 4.6v3.1l-8.2-.7C726.2 9.9 727 10.2 727 6.4V3h12.4c10 0 12.8.3 14 1.6zm15 3.1c.3 2.7.8 7.4 1.2 10.5l.6 5.8h-5.6c-3.1 0-5.6-.4-5.6-.9 0-1.9-2.1-16.6-2.6-18.4-.5-1.5.2-1.7 5.4-1.7h6l.6 4.7zM655 8c0 3.3-.3 4-2 4-2.6 0-2.6 2 0 2.7 1.9.5 2.1 1.2 1.8 6.6l-.3 6.1-10.3 1.9c-5.7 1.1-10.5 1.7-10.7 1.5-.3-.3-.8-2.5-1.1-5l-.6-4.6 4.3-.7c2.8-.5 5.3-1.8 7.2-3.7 2.7-2.7 2.9-3.3 2.4-7.9l-.6-4.9h9.9v4zm-221.2 6.8c6.4 3.3 14.3 6.9 17.5 8.2 3.1 1.3 5.7 2.7 5.7 3.2s-.7 2.4-1.5 4.4l-1.4 3.5-3.8-1.7c-14.7-6.3-23.8-7.7-34.2-4.9-7.5 1.9-11.9 4-21.4 10.1-3.7 2.4-7.1 4.4-7.5 4.4-.7 0-4.5-6.1-4-6.5 2.1-1.6 12.2-5.3 13.3-4.9.9.4 1.5 0 1.5-.8 0-2.3 8.4-7.7 10.3-6.7 1.7 1 3.4-.5 1.7-1.6-.9-.6 9.6-12.1 11.3-12.4.4 0 6 2.5 12.5 5.7zM216.5 24c2.6 6.3 5.1 12.5 5.6 13.7.7 1.9.2 2.7-3.5 5.3l-4.4 3 5.9 15.2c3.2 8.4 5.9 15.6 5.9 16 0 .4-1.8 1.7-3.9 2.8l-4 2-6.7-9.7c-3.7-5.4-6.9-10.6-7.2-11.6-.3-1-1.5-2.9-2.7-4.1-1.2-1.2-2.6-3-3.2-4.1-1.1-1.9-1.2-1.9-4.9-.2-2 1-4 1.4-4.3.9-.3-.5-2.1-3.2-4-6-3.1-4.9-5.1-6.5-5.1-4.2 0 .5 1.6 3.2 3.5 5.9 1.9 2.6 3.5 5.3 3.5 5.9 0 1.5-5.1 4.5-6 3.5-.4-.4-3-5.1-5.8-10.4l-5.1-9.6 20.1-13.6c11.1-7.6 20.5-13.4 20.8-13 .4.5 2.8 6 5.5 12.3zM845 17.5V24h-9.5c-8.9 0-9.5-.1-9.5-2s.5-2.1 6.8-1.8c3.8.2 6.9-.1 7.2-.7.3-.6-2.3-1.1-6.7-1.3l-7.3-.3V11h19v6.5zm-242.7 6.9c3.7 6.8 6.7 12.7 6.7 13 0 .3-5.8.6-13 .6h-12.9l.6-3.3c1.4-7.6 8.9-22.8 11.1-22.7.4 0 3.7 5.6 7.5 12.4zM713 12.7c0 .5.7 6.2 1.5 12.8.8 6.5 1.5 12.1 1.5 12.2 0 .2-7.6.3-16.8.3h-16.8l.4-8.8c.2-4.8.7-9 1.1-9.4.6-.7 25.5-7.6 27.9-7.7.6-.1 1.2.2 1.2.6zm32.3 1.2c5.4.5 10 1 10.2 1.3.3.2.7 3.5 1.1 7.4l.6 6.9-6.8 1.4c-11.1 2.3-15.8 2.5-19.3.7-3.7-1.9-4.7-5.3-4.3-13.5l.4-6 4.1.5c2.3.2 8.6.8 14 1.3zM402 17.2c1.7 1.2 3 2.5 3 3 0 .8-7 5.8-8.1 5.8-.4 0-1.4-1.2-2.3-2.6-1.7-2.4-1.6-2.6 1.1-5.3 1.5-1.6 2.9-2.9 3.1-3 .2 0 1.6.9 3.2 2.1zm267-.3c1.6 3-.4 7-4.5 8.6-6 2.6-6.5 2.2-6.5-4.5v-6h5c3.9 0 5.2.4 6 1.9zm336.4 10.5c2.6 4.5 4.6 8.7 4.6 9.3 0 1-8.3 7.3-9.7 7.3-.8 0-13.7-19-13.1-19.5.2-.1 3.2-1.4 6.8-2.8 3.6-1.4 6.6-2.6 6.7-2.6.1-.1 2.2 3.7 4.7 8.3zm-724.9.2c1.7 2.6 1.6 2.7-2.1 6.5-2.1 2.1-4.1 3.9-4.4 3.9-.4 0-1.6-1.8-2.8-3.9l-2.2-4 4.2-2.5c2.4-1.4 4.6-2.6 4.9-2.6.4 0 1.4 1.2 2.4 2.6zm489.9 0c.3.9.6 3.6.6 6V38h-4.9c-3.9 0-5.1-.4-5.5-1.8-.5-1.6-.9-7.8-.7-9.5.1-.4 2.3-.7 5-.7 3.5 0 5.1.4 5.5 1.6zm9.6 1.3c0 1.6.3 4.3.6 6 .6 3 .5 3.1-2.8 3.1-3.2 0-3.6-.3-4.2-3.1-.3-1.7-.6-4.4-.6-6 0-2.6.3-2.9 3.5-2.9s3.5.3 3.5 2.9zm9 3.1v6h-6V26h6v6zm66-1.5c0 2.4.3 5 .6 5.9.6 1.4-2.7 1.6-32 1.6H791v-5.3c0-3 .3-5.7.7-6.1.4-.3 14.8-.6 32-.6l31.3.1v4.4zM991.7 36l6.7 10.1-3.7 3c-3 2.5-3.5 3.4-2.7 4.9.8 1.5 0 2.4-5.5 6l-6.5 4.2-14.6-13.8c-9.2-8.7-14.1-14-13.3-14.3 4.7-1.7 30.6-9.9 31.6-10 .7-.1 4.3 4.4 8 9.9zm61.6-7.2c1.5 1.6 1.3 2-1.9 5.7l-3.4 4-2.5-3c-1.4-1.7-2.5-3.2-2.5-3.5 0-.8 6.3-4.9 7.6-4.9.6-.1 1.8.7 2.7 1.7zm-783.6 7.8 2.2 3.9-6.1 6.2-6.2 6.2-3.7-6.2-3.7-6.2 4.6-2.9c2.6-1.5 5.6-3.4 6.7-4.1 2.8-1.9 3.7-1.4 6.2 3.1zM1071 45c0 .3-2.6 2.1-5.7 3.9l-5.6 3.4-4.8-5.4c-2.7-3-4.9-5.8-4.9-6.4 0-.5 1.6-2.6 3.6-4.6l3.7-3.8 6.8 6.2c3.8 3.3 6.9 6.4 6.9 6.7zm-780.6-3.5c3.2 4.7 5.7 8.7 5.5 8.9-.9.8-10.9 5.6-11.7 5.6-.5 0-2.6-3.4-4.7-7.5l-3.9-7.5 3.9-4c2.2-2.2 4.2-4 4.5-4 .4 0 3.3 3.8 6.4 8.5zm-44.6 18.8c4.4 13.6 7.6 25 7.1 25.2-.4.3-10.7 4.5-22.8 9.4l-22 8.9-8.9-14.6c-5-8.1-10.7-17.6-12.8-21.1-4.2-7.3-4.4-7 5-11.8l4.9-2.5 1.8 2.3c2.5 3.2 2.4 3.4-1.7 5.9-4.5 2.8-3.6 3.9.9 1.2l3.5-2 7.1 10.4c4 5.7 7 10.8 6.7 11.3-.3.5-1.9 1.4-3.6 2.1-1.6.7-3 1.6-3 2.1 0 1.3 1.7 1.1 5.2-.7 2.6-1.4 3.2-1.4 4.5-.2 1.2 1.2.9 1.7-2.2 3.4-3.4 1.8-4.6 3.4-2.5 3.4.6 0 2.4-.7 4.1-1.6 2.9-1.4 3.1-1.4 4.9.8 2.2 2.8 3.7 1.9 1.8-1.2-1-1.8-1-2.4 0-2.7 2.1-.8 1.3-2.3-1.3-2.3-3.7 0-3-2.4 1.1-3.9 3.2-1.2 3.8-1.1 4.6.3 1.4 2.5 2.9 1.9 2.2-.8-.5-2.2 0-2.8 4.4-5 5-2.5 7.3-4.6 5.2-4.6-.6 0-3.3 1.2-6.1 2.6-2.8 1.4-5.2 2.4-5.3 2.2-.2-.2-2.8-6.9-5.8-15L217.2 47l2.8-2c1.5-1.1 3.2-2 3.7-2 .4 0 1.7 2.1 2.7 4.8 4.9 12 5.7 13.5 6.6 12.6.6-.6-.3-4-2.5-9.3-1.9-4.5-3.5-8.8-3.5-9.6 0-1.6 9.2-7.7 10.1-6.7.4.4 4.3 11.8 8.7 25.5zM631.3 36c.5 1.8 0 2-5.4 2-7.3 0-7.7-1.5-.6-2.8 2.8-.5 5.3-1 5.3-1.1.1 0 .4.8.7 1.9zm412.1.9c1.6 1.6 2.7 3.4 2.5 3.9-.2.6-2.6 3.3-5.3 6.2l-4.8 5.2-4.4-4.3c-3.7-3.6-4.2-4.5-3.1-5.6 1.6-1.6 11-8.2 11.8-8.2.3-.1 1.8 1.2 3.3 2.8zM496 40.1c0 1.1.5 1.9 1 1.9.6 0 1-.7 1-1.5s.1-1.5.3-1.5c.1 0 2.2.6 4.7 1.4 5.1 1.5 6.2 4.1 3.6 8-1.9 3-5.7 3.9-10.7 2.6-7.4-2-9.7-6.4-5.9-11.3 2.3-2.9 6-2.6 6 .4zm455.4 1.6c2.2 2 9 8.3 15 13.9l10.9 10.3-2.9 2.5c-3.7 3.2-2.3 4.7 1.7 1.7l3-2.2 6.7 5.9c3.7 3.3 7.5 6.9 8.5 8 1.7 1.9 1.7 2-2 4.2-4.7 2.8-2.6 4 2.2 1.4 4.5-2.4 5.8-1 2 2.1-3.9 3.1-2.6 4.3 1.8 1.6l3.4-2.1 2.3 2.5c1.3 1.4 2.2 2.7 1.9 2.9-.2.2-3.7 2-7.8 4.1l-7.4 3.7-5.9-5.9c-7.4-7.3-26.5-28.2-35.2-38.7-5-6-6.7-8.9-7.6-12.9-.8-3.9-.8-5.2.2-5.9 2.5-1.6 5.1-.7 9.2 2.9zm-5 37.3c4.2 21.7 7.8 40.4 8.1 41.6.4 1.8-.6 2.3-9.9 4.7-5.7 1.5-10.7 2.7-11 2.7-.3 0-.6-14.6-.6-32.4 0-36.3 0-36.1-7.1-37.2-1.9-.3-12.9.6-24.4 2.1-16.5 2.1-21 2.4-21.6 1.4-.9-1.4-2.3-10.8-1.8-11.4.2-.2 5.8-1.1 12.4-2 12.3-1.6 46.5-8.2 47.4-9 .2-.3.6-.4.7-.2.1.1 3.7 18 7.8 39.7zm77.1-19.2c5.8 10.6 10.5 19.6 10.5 20 0 .4-5.6 3.5-12.4 6.9l-12.4 6.2-2.6-2.8-2.7-2.9 3.5-2.2c2.9-1.8 3.5-2.6 3-4.5-.5-2 0-2.7 3.3-4.4 4.4-2.2 7.4-5.1 5.3-5.1-.7 0-3.4 1.3-6.1 3l-4.8 2.9-6.1-10.1c-3.3-5.5-6-10.1-5.8-10.2.2-.2 1.7-1.2 3.4-2.4 2.3-1.6 3.3-1.8 3.7-.9.3.6 1.9 3.1 3.6 5.5 5.4 7.3 5.4 3.5 0-4.4-2.8-4.2-4.9-7.7-4.7-7.9 2.7-2.7 9.5-7.1 10.1-6.6.4.4 5.4 9.4 11.2 19.9zM171.4 45.7c2.5 5.1 11.8 21.9 17.5 31.5l2.2 3.7-4.8.7c-2.6.4-5 1-5.3 1.3-.3.3-2.1 1.8-4.1 3.3l-3.6 2.7-8.3-12.5-8.2-12.4 3.3-9.6c3.1-8.9 6-14.4 7.8-14.4.4 0 1.9 2.6 3.5 5.7zm369.1 2.2 12 1.7.3 15.9.3 15.8-4.7-.7c-2.6-.3-5.7-.6-7-.6-2.4 0-2.4-.2-2.4-9.5 0-7.9-.3-9.8-1.9-11.4-1.1-1.1-6.9-3-15.3-5l-13.6-3.2 1.1-3.2c.5-1.8 1.1-3.7 1.3-4.3.1-.8 3-.5 9.1.8 4.8 1.1 14.2 2.7 20.8 3.7zm512.5.3c4.1 4.7 4.3 5.2 2.6 6.2-1.1.6-4 2.5-6.7 4.2l-4.7 3.2-3.1-3.2c-1.7-1.8-3.1-3.6-3.1-4.2 0-1.1 8.8-11.4 9.8-11.4.4 0 2.7 2.3 5.2 5.2zM277.3 51l3.7 7-7 3.5-7 3.5-2.3-3.7c-1.3-2.1-2.6-4.3-3-5-.6-1 9.8-12.3 11.3-12.3.3 0 2.2 3.2 4.3 7zm-119.1 2c-1.5 4.1-3.1 8.1-3.5 8.7-.6.9-4 1.3-11 1.3h-10.2l13.5-9c7.4-4.9 13.5-8.8 13.6-8.7.2.1-.9 3.6-2.4 7.7zm842.8-3.2c0 1.2-6.1 4.5-6.8 3.8-.8-.9 5-5.6 6-4.9.5.2.8.7.8 1.1zm-522.4 1.7c.4.8-.1 3.3-1 5.5s-1.6 5.1-1.6 6.5c0 3.1 4.1 5.9 7.5 5.2 2.5-.4 2.6-.4 1.9 4.2-.4 2.5-.7 4.6-.8 4.7 0 0-5 .8-11.1 1.7-12.8 1.8-31.1 6.2-37.2 8.8l-4.2 1.8-2.9-6.2-2.9-6.2 6.6-.6c10.5-.9 17.2-5.4 23.6-15.9 3.2-5.2 5.2-6.8 10.9-9.2 5.2-2.2 10.5-2.3 11.2-.3zM581.4 53c.3 1.6 1 3 1.6 3 .5 0 1-1.4 1-3v-3h57.7l1.2 8.7c.6 4.9 1.4 11.6 1.7 15l.7 6.3H628l1.1-2.6c1.2-3.2.1-4.7-1.5-2.1-3 5-1.4 4.8-32.9 5.4l-29.7.6V50h15.8l.6 3zm125.3 9.5c1.7 6.6 3.2 12.9 3.2 14.1.1 2.1-.3 2.1-30.6 2.7-16.9.3-30.9.4-31.1.2-.4-.3-4.1-25.7-4.2-28.3 0-1 6.3-1.2 29.8-1l29.7.3 3.2 12zm25.9 1.2 3 13.8-10.9.3c-6 .1-11.2.1-11.4-.2-.4-.3-7.1-25.9-7.3-27.4 0-.1 5.3-.2 11.8-.2h11.7l3.1 13.7zm12.8-8.5c3.2 11.3 5.6 20.9 5.6 21.8 0 .6-2.9 1-6.5 1s-6.5-.3-6.5-.6c0-.4-4-18.6-5.5-25.2-.5-2.1-.2-2.2 5.5-2.2h5.9l1.5 5.2zM847 59.4v9.4l-12.2.4c-6.8.2-12.4.4-12.4.4-.1-.1-.5-4.5-.9-9.9l-.7-9.7H847v9.4zm29.5-2.8 1.1 6.2-4.3.6c-7 .9-11.1 3.1-11.9 6.3-.4 1.5.1 10.8 1.2 20.5 1.1 9.8 1.6 17.8 1.2 17.8-.4 0-2.2-1.3-4-2.9l-3.3-2.9 1.2-14.8c.6-8.2 1.2-19.7 1.2-25.5.1-5.8.4-10.9.8-11.3.4-.4 4.1-.5 8.2-.4l7.5.3 1.1 6.1zM819 60.4v9.4l-9.7.6c-21.3 1.3-26.3 2.1-29.1 5l-2.7 2.7.2 16.4.2 16.5h-4.7c-8.3 0-8.9-.5-9.5-6.8-.5-4.5-1.1-6.1-3.2-7.8-2.2-1.7-3.4-5.2-8-23.2-3-11.7-5.5-21.5-5.5-21.7 0-.3 16.2-.5 36-.5h36v9.4zm-309.6-6.8c1.3.5 1.6 2.5 1.6 12V77h-23v-4.3c.1-5.3 2-10.7 5.4-15.1 2.2-3 3.3-3.5 7.4-3.9 2.6-.2 5.2-.4 5.9-.5.6-.1 1.8.1 2.7.4zm15 3.8c10.9 2.6 13.1 4.2 12.2 9-.3 1.6-.6 5-.6 7.7V79h-3.4c-6.2 0-6.6-.5-6.6-8.6 0-4.3-.4-7.4-1-7.4s-1 3.2-1 7.5c0 8.3.2 8.1-7.2 6.9l-3.8-.7V65.9c0-6 .3-10.9.8-10.9.4 0 5.2 1.1 10.6 2.4zm431.7 11.1c5.2 6 14.6 16.4 20.9 22.9 6.3 6.5 11.1 12.1 10.5 12.3-.5.2-1.7.8-2.5 1.3-2.4 1.5-.5 2.2 2.4.9 2.4-1.1 3-1 4.9 1 1.8 1.7 1.9 2.3.8 3-2.4 1.5-35.2 12.3-35.8 11.8-.3-.3-3.1-14.4-6.4-31.4-3.2-16.9-6.1-31.9-6.4-33.3-.8-3.1-1-3.3 11.6 11.5zm116.4 2.1c6.9 8 12.5 14.7 12.3 14.8-.1.2-4.5 2.5-9.5 5.1-8.6 4.5-11.1 6.5-8.1 6.5.6 0 5.2-2.2 10.3-4.9l9.1-4.9 4.7 5.3c2.6 3 4.7 5.7 4.7 6.2s-5.5 3.3-12.3 6.2c-8.8 3.7-13.3 5.2-15.7 4.9-3.5-.3-3.6-.5-13.2-19.8-9.7-19.3-10.9-23.1-8.5-26 1.5-2 10.9-8 12.3-8 .6 0 6.9 6.6 13.9 14.6zM19.9 64.5c6.4 6.2 6.5 6.5 4.6 7.9-2.6 1.9-1.1 3.4 1.7 1.7 1.9-1.2 2.4-1.1 4 .8 4.5 5.6 2.7 14.1-3 14.1-2.4-.1-3.5-1.5-10.4-13.6C12.5 68 9 61.1 9 60c0-3.8 4-2.2 10.9 4.5zm980.6 4c3 4.9 5.2 9.1 5 9.4-.2.3-2 1.5-4 2.5l-3.6 2-8.1-8.1-8-8 5.8-4.1c3.2-2.3 6.2-3.8 6.7-3.3.4.4 3.2 4.8 6.2 9.6zM86.4 61.6c2.3 2.2 2 3.9-.9 5.2-2.6 1.2-3.4 3.2-1.2 3.2.7 0 2.3-.7 3.5-1.6 1.3-.9 2.5-1.4 2.6-1.3.8 1.1 6.6 12.3 6.3 12.4C92 83 80.8 90 80.1 90c-1.5 0-11.8-12.8-13-16.1-1.3-3.7-.1-5.1 8.4-9.9 7.9-4.4 8.7-4.6 10.9-2.4zm207 18c5.9 10.7 10.7 19.6 10.5 19.8-.2.1-3.1 1.3-6.4 2.6-8.6 3.3-13.5 5.9-13.5 7 0 1.7 1.9 1.2 11.8-3.2 9.2-4 9.5-4.1 10.9-2.2 1.9 2.4 7.5 13.5 7.1 13.9-1.2 1-25.8 8.5-27.9 8.5-1.4 0-3.4-.9-4.3-1.9-2.2-2.4-14.7-44.2-14.9-49.7-.2-5.1 1.7-7.5 9.3-11.5 3-1.5 5.7-2.8 6-2.9.3 0 5.4 8.8 11.4 19.6zm635.7-16.9c.8.9 1.5 4.7 1.7 9.3l.4 7.7-10 1.2c-5.4.6-11.6 1.4-13.6 1.8l-3.6.6V73.1c0-11.1-.5-10.4 7.5-11.4 8.6-1.1 16.3-.7 17.6 1zm-27.4 7c-.4 3.8-.7 8.4-.7 10.4v3.7l-8.1.7c-6.1.6-8.3.4-8.9-.5-.7-1.2-3.4-16-3.2-17.7.1-.7 12.9-2.8 19.1-3.2 2.4-.1 2.4 0 1.8 6.6zM49.9 76.3c3.9 6.5 7.1 12.1 7.1 12.6 0 1.2-20.4 12.1-22.7 12.1-2.1 0-4.3-2-6.3-6-1.1-2-1-2.5.1-2.9.8-.2 2.6-1.7 4.1-3.2 3.4-3.4 3.7-8.2.8-13.9l-2-3.9 5.7-3.5c3.1-2 5.8-3.5 5.9-3.3.1.1 3.4 5.5 7.3 12zm103.6-9.6c-.3 1-2 7-3.7 13.4l-3.1 11.6 3.6 5.3c1.9 2.9 3.3 5.9 3 6.6-1.1 2.9 2 1.1 14.4-8 7.1-5.2 13-9.3 13.2-9 .7.7 3.8 31.9 3.2 32.5-1.2 1.3-33.6 6.3-46.5 7.1-3.7.3-4 .1-5.2-3.5-.7-2.1-.9-3.7-.3-3.7.5 0 .9-.5.9-1 0-.6-.6-1-1.3-1-.7 0-2-2.2-2.9-4.8-1.4-4.6-1.4-5 .4-6.1 2.3-1.4 1.5-3.1-1.1-2.4-1.4.3-2.2-.4-3.4-3.4-.8-2.1-1.3-4.1-1.1-4.5.2-.3 2.2-.9 4.3-1.3 2.2-.3 4.7-1.3 5.8-2.1 1.6-1.4 1.4-1.5-2.7-1-2.5.3-5.4.8-6.6 1.2-1.8.5-2.4-.4-5.2-8.7-1.7-5.1-3-9.4-2.9-9.5.1 0 3.3-2.2 7.2-4.8l7-4.6h11.8c10.9 0 11.9.1 11.2 1.7zm725.4 4.5c.6 2.9 1.5 7.4 2 10l.8 4.7-3.6.5c-12.5 1.9-12.9 1.9-13.4-.1-1.5-5.1-1.8-14.9-.5-16.6 1.4-1.9 6.1-3.4 11-3.6 2.4-.1 2.7.3 3.7 5.1zM164 78.9c6.7 10.2 7.7 13.1 4.7 13.1C167 92 155 73 155 70.3c0-1.3.4-2.3.9-2.3.4 0 4.1 4.9 8.1 10.9zm682.6-3.2c-.3 2.7-.8 8.3-1.2 12.5l-.6 7.8H822V72h7v5.7c0 3.2.4 6.4.9 7.2 1.5 2.4 2.2-.6 1.5-6.9-.6-5.6-.5-6 1.4-6 1.8 0 2.2.8 2.8 5 .4 3.2 1.1 5 2 5 1.3 0 1.3-1.5-.2-8.8-.4-2-.1-2.2 4.6-2.2h5.1l-.5 4.7zM819 84.4v12.4l-9.2.6c-5.1.3-13.8.8-19.4 1.1l-10.1.5-.6-8.1c-.7-9.3.7-14.4 4.6-15.8 1.3-.5 6.1-1.3 10.5-1.6l8.2-.8v3c0 5.2 1.2 12.3 2.1 12.3.5 0 .9-3.3.9-7.4v-7.5l3.8-.4c2-.2 4.9-.4 6.5-.5l2.7-.2v12.4zm-658.2 1.3 5.1 8.2-4.8 3.6c-2.7 1.9-5.1 3.5-5.4 3.5-.3 0-1.9-2.1-3.5-4.8l-3.1-4.7 2.1-8.3c2.4-9.6 2-9.7 9.6 2.5zM117 84.5c1.3 3.8 2.5 7.5 2.7 8.1.3.7-3 2-8.4 3.3-9.9 2.5-12.5 3.7-10.6 4.9 1.4.9 3.6 10 2.8 11.9-.3.8.1 2.1.9 2.8 1.6 1.6 3.1 10 2.1 11.6-.4.6-.1 1.6.7 2.2 1.3 1.1 3.8 9.7 3.8 13.1 0 1-13.8 4.2-14.5 3.4-.2-.2-3.3-10.9-7-23.8-4.4-15.2-6.4-23.9-5.9-24.8 1.4-2.1 29.8-21.1 30.5-20.4.4.4 1.7 3.8 2.9 7.7zm392.4-4.9c1.3.5 1.6 2.3 1.6 9.5V98h-5.1c-6.6 0-6.2 2.4.4 2.8l4.7.3V122h-12.9l-1.2-4.3c-.6-2.3-2.8-10.4-5-18.1-2.1-7.6-3.9-15.4-3.9-17.2V79h9.9c5.5 0 10.6.3 11.5.6zm-23.9 4.1c.5 3.1 2.8 11.8 6.2 23.5.5 1.6-.3 1.8-6.9 1.8h-7.5l-.7-8.3c-.3-4.5-1.2-10.8-2-13.9-1.5-6.5-1.4-6.6 5.6-6.7 4.7-.1 4.7-.1 5.3 3.6zm37.5 2.8c0 5.1.3 6.5 1.5 6.5s1.5-1.3 1.5-6c0-4.2.4-6 1.3-6 2.1 0 25 2.9 25.2 3.2.2.2 0 8.7-.3 19l-.5 18.8h-16.5l-.7-12-.7-12H513V80h10v6.5zm485-5.6c0 1.3-4.6 4.1-6.7 4.1-1.4-.1-1.2-.6 1.2-2.5 3-2.5 5.5-3.2 5.5-1.6zm-536.1 3.8c.5 2.1 1.2 5.2 1.6 6.8l.6 3.1-7 1.2c-10.9 1.8-23.8 6.9-26.3 10.3-3.5 4.8-9.5 3.4-15.7-3.6-5.1-5.9-4.6-6.5 9.3-11.3 10.2-3.5 32.9-10 35.8-10.2.4 0 1.2 1.7 1.7 3.7zm265.9 1.4c.7 2.9 1.1 5.3 1 5.5-.2.1-19.7-.2-43.3-.7-23.7-.4-43.8-.6-44.7-.3-1.5.5-1.8-.1-1.8-4V82l21.8-.3c11.9-.1 31.6-.3 43.8-.5l22.1-.2 1.1 5.1zm15.9.4c.7 2.7 1.3 5.5 1.3 6.1 0 1.1-11.9.7-13.2-.5-.3-.3-1.1-3-1.6-5.9l-.9-5.3 6.5.3 6.6.3 1.3 5zM931 89.9v8l-5.6 1.6c-7.1 2.1-7.5 1.6-7.2-8.5l.3-7.5 4-.6c9.1-1.4 8.5-1.8 8.5 7zm107-3.9c1.1 2.1 2 4.3 2 4.8 0 .9-19.7 9.2-21.9 9.2-1.6 0-6.1-3.8-6.1-5.2 0-.6 21.8-12.3 23.7-12.7.2-.1 1.2 1.7 2.3 3.9zm-839.5 6.7c7 11.4 7.3 11.9 4.6 12.8-3.6 1.1-2.4 2.8 1.4 2.1 3.1-.6 3.6-.4 4.9 2.3 1.6 2.9 1.6 3-1.7 4-5.1 1.7-20.1 5.1-20.4 4.7-.4-.4-2.9-21.9-3.5-30.1-.3-3.9-.2-4 3.2-4.6 1.9-.4 4-.7 4.5-.7.6-.1 3.7 4.2 7 9.5zm447.9-5.3c.8 5-1.7 11.6-4.3 11.6-2.7 0-19.3-2.8-19.8-3.4-.3-.3.5-3.2 1.8-6.5l2.4-6.1H645.8l.6 4.4zm-24.9 2.3-2.4 5.8-6.7-.3c-11.6-.6-12.5.1-15.8 13-1.3 4.9-2.3 6.8-3.5 6.8-.9 0-7.7-.9-15.1-2-7.4-1.1-13.6-2-13.7-2-.6 0-.3-20.9.3-23.9l.7-3.1h58.6l-2.4 5.7zm293.9-3.5c.3 1.3.6 5.3.6 9v6.6l-9.2 2.1c-17.9 4.1-18.8 4.1-19.3 1.7-1.1-4.7-3.3-17.1-3-17.4.2-.2 25.2-3.8 28.6-4.1.9 0 1.9.9 2.3 2.1zm-658.3 7.6 1.7 5.1-9.6 3c-5.3 1.6-15.3 4.6-22.2 6.6l-12.4 3.7-2.3-2.8c-1.2-1.6-1.9-3.2-1.5-3.5 1.2-1.2 42.7-17.8 43.6-17.5.5.1 1.7 2.5 2.7 5.4zm626.3 3.1c.9 4.9 1.6 9.4 1.6 9.9 0 1.5-6.6 3.2-12.6 3.2h-5.2l-.5-4.3c-.4-2.3-.9-6.7-1.3-9.9l-.6-5.6 6.8-.7c3.8-.4 7.4-.8 7.9-1 .6-.2 1.3-.4 1.6-.4.4-.1 1.4 3.9 2.3 8.8zm-209.9-2.5c2.2.9 4.5 2.4 5.2 3.4 1.6 2.7.5 33.2-1.3 33.2-.7 0-4.7-.7-8.8-1.6-7.4-1.7-7.5-1.7-8.8-5.8-1.6-4.9-6.5-8.6-11.5-8.6h-3.4l.6-4.8c1.7-13 2.5-15.3 5.8-16.8 4-1.8 16.6-1.3 22.2 1zm37.3 1.3c.4 2.6-.1 2.7-11 1.6-5.8-.5-6.8-.9-6.8-2.5 0-1.7.7-1.9 8.8-1.6 8.2.3 8.7.4 9 2.5zm336.2 8.2c0 .9-13.8 4.7-14.4 4-.2-.2-.6-2.7-1-5.4l-.6-5 5.2-2.1 5.3-2 2.8 4.8c1.5 2.6 2.7 5.1 2.7 5.7zm-357-4c0 9.7-1.2 18.1-2.5 18.1-.7 0-2.4-.9-3.8-2.1-2.6-1.9-2.6-2.3-2-9.4.5-6 .3-7.9-1.1-10L679 94h11v5.9zm42-2.9v3l-8.2-.6c-10.3-.7-10.8-.9-10.8-3.4 0-1.9.6-2 9.5-2h9.5v3zm25.5.2c3 1.6 3.5 2.8 3.5 8.1v4.9l-8.7-.7c-12.5-.9-16.4-1.5-16.8-2.8-.2-.7-.5-3.6-.8-6.6l-.4-5.4 10.6.8c5.8.3 11.5 1.1 12.6 1.7zm254.8 1.6 2.8 2.9-8.1 3.1c-4.5 1.8-8.7 3.2-9.4 3.2-1.4 0-5.2-3.7-4.5-4.4 1-.9 14.5-7.5 15.5-7.6.5 0 2.2 1.3 3.7 2.8zm-890.4.4c2.5 6.8 2.8 6.4-5.6 9.2-4.3 1.4-8.3 2.6-8.9 2.6-.9 0-3.7-9.1-2.9-9.8.5-.6 13-4 14.8-4.1 1-.1 2.1.9 2.6 2.1zm298.5.2c1.1 4.2 5.5 8.4 11.4 10.7 5.5 2.2 6.8 2.3 33.3 2l27.6-.2 2.1 8.3c4.5 16.9 8 37.2 10.7 61 .7 6.4.5 6.6-6.4 5.2-3-.6-3.1-.9-3.1-5.5 0-2.7-.4-4.9-1-4.9-.5 0-1 2.3-1 5.1 0 5 0 5.1-2.7 4.5-1.6-.3-6.6-.8-11.3-1.1-12.2-.9-14-1.3-14-3.6 0-1-.4-1.9-1-1.9-.5 0-1 1-1 2.1 0 2-.4 2.1-5.7 1.6-3.2-.4-10-.9-15-1.3l-9.3-.7-2-5.4c-1.1-2.9-2-6.3-2-7.5 0-1.2-.6-2.9-1.3-3.7-.8-.9-5.9-14.7-11.5-30.6-5.5-16-10.3-29.7-10.6-30.5-.5-1.2.7-2.1 5.1-3.7 7.5-2.8 8-2.8 8.7.1zm53.6-.5c0 1 .3 3.9.6 6.5l.7 4.6h-17.2c-19.3 0-20.4-.5-11.1-5.2 4.8-2.4 22.2-7.6 25.8-7.8.6 0 1.2.8 1.2 1.9zm142.6-.7c.3.4.3 1.6-.1 2.7-.5 1.7-1.5 2.1-4.9 2.1-5.5 0-10.6-1-10.6-2.1 0-.4.8-1.5 1.7-2.4 1.3-1.3 3-1.6 7.5-1.3 3.1.2 6 .7 6.4 1zm227.7 1.8c-.1.8-.4 4.6-.8 8.4l-.7 6.9-9.6-.6c-5.4-.3-19.2-1.1-30.9-1.8l-21.1-1.3-.6-2.9c-1.5-7.6-1.8-7.4 10.7-8.2 16-1 46.7-2.3 50.2-2.1 2 .1 2.9.6 2.8 1.6zm-210.6.6c5.4.8 9.8 1.6 9.9 1.7.1.1-.4 5.1-1.2 11.2-.7 6-1.3 11.8-1.4 12.9 0 1.7-.7 1.8-12.7 1.1-7.1-.4-12.9-.8-13.1-1-.1-.1.7-6.3 1.9-13.8 2.5-15.9.9-14.7 16.6-12.1zm395.3-.9c0 .5.7 5.5 1.5 11.2.8 5.8 1.2 10.8.8 11.2-.7.5-10.2 2.3-29.4 5.6-3 .5-3.2-.1-4.4-10.7l-.5-5.5 15.2-6.2c16.2-6.5 16.8-6.7 16.8-5.6zm110.2 2c1.5 1.5 2.8 3 2.8 3.4 0 .4-2.5 1.7-5.5 2.9l-5.5 2.2-1.9-2.3c-2.4-3-3.9-1.8-1.8 1.4l1.6 2.4-21.2 9.6c-18.5 8.3-24.5 11.7-20.8 11.7.5 0 10.5-4.4 22.2-9.7l21.2-9.7 3.8 4.4c2.2 2.5 3.8 4.9 3.6 5.3-.1.5-9.8 6-21.6 12.2-21.6 11.5-23.9 12.9-22.4 13.8.5.3 6.2-2.4 12.7-6 6.5-3.5 12-6.2 12.3-5.9.6.6 6.4 41.8 6 42.3-.2.1-5.9 1.4-12.8 2.8-6.8 1.4-13.4 2.7-14.5 3-1.9.4-3.7-2.4-16.2-25.3-7.7-14.1-14.2-26.3-14.4-27.1-.2-.8.6-1.7 1.7-1.9 1.1-.2 10.3-4.4 20.4-9.3 13.9-6.7 18.9-8.7 20.8-8.3 2.1.6 2.4.4 2-1.2-.5-1.6 1.3-2.8 11.1-7.6 6.4-3.1 12.1-5.7 12.6-5.7.6-.1 2.3 1.1 3.8 2.6zM87.3 123.2c3.7 12.7 6.5 23.3 6.3 23.5-.5.5-16 3.2-16.3 2.9-.4-.4-9.3-39.6-9.3-41 0-1.3 9.6-8.4 11.6-8.5.6-.1 4 10.3 7.7 23.1zm623.8-21.1c.5.8.9 2.2.9 3.3 0 1.7-.5 1.8-4.6 1.2-2.6-.3-7.1-.6-10-.6-5.4 0-5.4 0-5.4-3.1v-3.2l9.1.5c6.2.4 9.4 1 10 1.9zm-447.1 13c0 .4-2.6 1.1-5.7 1.4-3.2.4-6.6.9-7.6 1.2-1.6.4-1.8-.2-1.5-6.3l.3-6.8 5-1.7 5-1.7 2.3 6.6c1.2 3.6 2.2 6.9 2.2 7.3zm268-8.2c0 3.2.3 7.9.6 10.5l.7 4.6H513v-21h19v5.9zm196.1-4.9c4.8 0 4.9.1 4.9 3.1v3.1l-8.7-.7c-4.9-.4-8.9-.8-9-.9-.1 0-.5-1.4-.9-3l-.7-2.9 4.8.6c2.6.4 7 .7 9.6.7zM931 115v13.9l-3.7 1c-6.8 1.9-7.3 1.7-7.3-3.7 0-2.7-.3-8.9-.6-13.9l-.7-9 4.4-1c8.5-2 7.9-3 7.9 12.7zm-516.4 17.5c5.7 16 10.3 29.6 10.3 30.3.1 2.4-3.3.7-5.7-2.8-2.9-4.3-5.6-5.9-10.2-6-6.1 0-9-3-21.2-20.8-6.5-9.3-11.9-17.5-12-18.2-.3-1.2 24.7-12 27.1-11.7 1 .1 5.1 10.4 11.7 29.2zm201-26.3c.2.2 0 1.4-.3 2.7-.6 2.3-.9 2.3-8 1.8-4.1-.3-7.7-.8-8-1.1-.3-.2-.2-1.4.2-2.7.7-2.1 1.1-2.1 8.2-1.6 4.1.3 7.7.7 7.9.9zm300.8 2c.3 1.8.7 7.9.9 13.5.4 9.6.3 10.2-1.7 10.7-4.1 1-19.5 2.8-21.2 2.4-1.4-.2-2.2-2.7-3.9-12.1-1.5-8.2-1.8-12-1.1-12.2 2.6-.8 23.3-5.3 24.8-5.4 1.2-.1 1.9.9 2.2 3.1zm-669.6 11.5-.3 13.8-11.5.7c-6.3.4-13.6.9-16.2 1.2-4.5.5-4.8.4-4.8-1.9 0-3.4-1.8-4.1-2.2-.8-.3 2.7-.6 2.8-7.2 3.6-3.8.4-7 .6-7.1.5-.1-.2.1-4.2.3-9l.4-8.8 4.2-1c2.2-.6 12.7-3.5 23.1-6.4 10.5-3 19.6-5.4 20.3-5.5 1-.1 1.2 3 1 13.6zm617.9-8.2c.3.1 3.3 24.9 3.3 26.9 0 1.3-1.4 1.6-8.3 1.6h-8.3l2.3-16.3c1.2-8.9 2.2-16.5 2.2-17 .1-.4 2 .5 4.4 2 2.3 1.5 4.3 2.7 4.4 2.8zm187.6 1.3c1.6 2.9 2.7 5.5 2.5 5.6-.8.7-19.9 3.2-20.2 2.7-.2-.3-.7-2.7-1-5.3l-.7-4.7 4.3-1.1c2.4-.6 5.4-1.5 6.8-2 4.1-1.4 5.4-.7 8.3 4.8zm121 22c2.2 2.2 3.5 4.2 3 4.5-.6.3-13.1 1.8-18.4 2.2-1.2 0-25.3-28.9-24.4-29.2.6-.2 3.3-1.4 6-2.7l5-2.3 12.5 11.8c6.9 6.4 14.2 13.5 16.3 15.7zM127 113.5c.7 2.5 1.1 4.7.9 4.9-.7.6-16.4 5.6-17.5 5.6-.7 0-1.5-1.6-1.8-3.6-.4-1.9-.9-4.1-1.2-4.9-.4-.9 2.1-2.2 8.3-4.3 4.8-1.6 9.1-2.8 9.4-2.6.3.2 1.2 2.4 1.9 4.9zm583.2-4.5c2.4 0 2.8.4 2.8 2.8 0 1.5.4 4.2.9 6 1.1 3.8 1.7 3.7-12.1 2l-9.8-1.2v-10.9l7.7.7c4.2.3 8.9.6 10.5.6zM69.6 130.2c2.4 10.6 4.4 19.6 4.4 20 0 .5-2.5.8-5.5.8-4.6 0-5.8-.4-7.9-2.6-3.1-3.4-5.6-12.3-5.6-20.1 0-5.2.4-6.4 2.6-8.7 1.5-1.4 3.8-2.6 5.1-2.6 1.5 0 2.3-.5 2-1.3-.2-.6-1.5-1-2.8-.8-7 1-9.3 5.5-8.6 16.8.9 14.8 6.2 21.8 16.4 21.8h5.6l2.4 10.4c1.3 5.8 2.5 10.7 2.8 10.9 1.7 1.8 1.6-2.2-.4-10.8-1.2-5.5-2-10.4-1.7-10.9.6-.9 15.5-3.5 16.2-2.8.2.2 1.9 5.2 3.6 11.1 1.7 5.8 3.5 10.6 4 10.6 1.4 0 .9-3.1-2.1-13.2l-2.8-9.6 2.1-.6c1.1-.3 4.4-.8 7.3-1.2l5.2-.6 1 3.8c.6 2.2 1.3 5.8 1.7 8.2.6 4 1.9 6 3 4.9.3-.3-1.1-7.8-3.1-16.7-2-9-3.4-16.4-3.3-16.5.2-.1 6.8-.5 14.8-.8l14.6-.6 1.8 10.7c2.8 17.2 1.6 15.5 10.7 14.7 6.1-.5 8-.3 8.4.7.4 1.3 7.5 54.3 7.5 56.5 0 1.1 13.4 6.6 30 12.3 5.2 1.8 9.8 3.5 10.2 3.9.4.3.5 3.9.1 7.9l-.6 7.2h-3.2c-5.3 0-25.3-3.7-33.9-6.3l-8-2.4-8.8-32.4c-7.6-27.7-9.2-32.7-11.5-34.7-2.1-1.9-3.3-2.2-6.1-1.7-4.8.9-29.1 7.4-32.4 8.7-4.2 1.6-7.8 5.4-7.8 8.3 0 3.3 1.6 3.2 2.3-.3.6-2.8 3.2-4.9 7.7-6.2l2.7-.8 5.5 18.4c3 10.1 5.3 18.4 5.1 18.4-1.9 0-21.7-15.5-33.2-25.9-17.5-16-51.7-56-49.5-58 2.2-2.1 26.8-18 27.2-17.6.2.2 2.4 9.1 4.8 19.7zm662.2-19.6c1.3.4 2.2 1.4 2.2 2.7 0 1.8-.4 1.9-5.2 1.3-2.9-.3-6.9-.6-8.9-.6-2.8 0-3.8-.5-4.2-2-.5-1.9 0-2 6.6-2 4 0 8.2.3 9.5.6zm25.9 1.4h3.3v8.1c0 6.4-.3 8-1.3 7.6-.8-.3-5.9-1.1-11.3-1.8-5.4-.6-10.2-1.5-10.5-1.8-.4-.3-1-3.5-1.3-7l-.7-6.4 9.2.6c5.1.4 10.7.7 12.6.7zm128.8 1.2c.7 3.3 4.5 25 4.5 26 0 .4-4.5.8-9.9.8h-9.9l-.6-3.8c-.7-4-2.6-21-2.6-22.7 0-.6 2.7-1.2 6.2-1.3 3.4-.2 6.4-.5 6.7-.7.2-.3 1.5-.5 2.7-.5 1.6 0 2.5.7 2.9 2.2zm-274.7.4c1.4.3 2.2 1.2 2.2 2.5 0 1.5-.5 1.9-1.7 1.5-1-.3-4.5-.8-7.8-1.2-7-.8-7.6-1-6.9-2.9.5-1.3 7.5-1.3 14.2.1zm383.7 6.5c.4 4.4.5 8.2.3 8.4-.2.2-5.4 1.5-11.6 2.9-11.1 2.5-11.3 2.5-18 .8-7.2-1.8-8.2-2.5-8.2-5.8 0-1.7 1.6-2.5 10.8-5.3 5.9-1.8 13.9-4.6 17.7-6.1 3.9-1.5 7.3-2.9 7.6-2.9.4-.1 1 3.5 1.4 8zm-401.7-2.6c.2.1-.1 1.8-.6 3.6-.9 3.8.9 3.5-19.2 3.1l-10-.2v-4.8c0-2.7.2-5.1.5-5.4.5-.5 28.7 3 29.3 3.7zm184.6.1c.3 2.6.6 6.4.6 8.6v3.9l-4.7-.6c-11.1-1.5-10.3-.7-10.3-9.1V113h13.7l.7 4.6zm37.3-1.7c13.9.9 25.6 2.1 26 2.4.3.4 0 4.9-.8 10l-1.4 9.2-3-.3c-4.8-.5-48.7-6.2-52.2-6.8l-3.3-.6V114h4.8c2.6.1 16.1.9 29.9 1.9zM382 129.2c16.1 24 19 26.8 27 26.8 3 0 4.5 1.1 10.4 8.1.9 1 2.7 1.9 4 1.9 4.9 0 3.5 2-4 5.7-9.2 4.5-12.3 8-10.6 11.8 1.4 3.1 5.6 4.8 9.9 4 4.8-.9 4-2.5-1.1-2.5-5.2 0-8.1-2.1-6.7-4.9 1.5-2.6 3-3.7 10.3-6.9l6.5-3 1.9 5.6c1 3.2 2.1 6 2.4 6.4.3.4 6.1 1.1 13 1.7 19.4 1.7 19 1.6 19 5.6v3.5h-18.4c-13.8 0-18.6-.3-19-1.3-.5-1-.7-1-1.2 0-.4 1-4.4 1.3-15 1.3H396v-5.8c0-3.1-.5-6.4-1-7.2-.8-1.2-.1-1.6 4.3-2 7.3-.7 6.5-2.4-1.3-2.8l-6.5-.3-6.1-9.2c-3.4-5.1-11.6-17.2-18.2-26.9l-12.1-17.7 7.7-3c4.2-1.7 8.2-3 8.7-3 .6 0 5.3 6.3 10.5 14.1zm349.6-11.7c2 .4 4.2 5 3.1 6.2-.4.4-17-1.6-17.3-2-.1-.1-.4-1.5-.8-3l-.7-2.9 6.8.7c3.7.3 7.8.8 8.9 1zm-77.9 2.1c2.3 1.5 4.8 6.2 3.9 7.2-.3.2-3.5-.1-7.1-.8-6.4-1.2-6.5-1.3-6.5-4.4 0-1.8.3-3.6.7-4 1.1-1 6.2.1 9 2zM267 123.5c3.6 10.7 4.6 9.5-7.4 9.5H249v-12.8l6.3-1c9.4-1.5 9.8-1.4 11.7 4.3zm342.3-3.9c3.3.5 3.7.9 3.7 3.5v2.9h-8.4c-4.7 0-8.8-.5-9.1-1-.4-.6-.3-2.4 0-4.1.8-3.4.1-3.3 13.8-1.3zm79 .5c5.1 1.2 30.2 4.9 33.5 4.9 4.3 0 5.1 1.2 5.8 8.7l.7 7.1-6.9-1.3c-3.8-.7-14.4-2.8-23.6-4.5l-16.8-3.2v-7c0-6.3.2-6.9 1.8-6.3.9.4 3.4 1.1 5.5 1.6zm-557.9 4.1.6 2.8-9.7-.1h-9.8l8.5-3.3c4.7-1.8 8.8-3 9.1-2.7.4.3.9 1.8 1.3 3.3zm64.6 4.3c0 8.1-.1 8.5-2.2 8.5-3.4 0-6.8 1.1-6.8 2.1 0 .5 2 .9 4.5.9h4.5v3.9c0 2.1-.3 6.6-.6 10l-.7 6.1H181v-25h-10c-7.8 0-10-.3-10-1.4 0-.7-.3-2.8-.6-4.5-.6-2.9-.5-3.1 2.2-3.2 1.6 0 8.8-1.3 15.9-2.8 18.3-3.9 16.5-4.6 16.5 5.4zm864.3-3.3c1.4 2.4 2.4 4.4 2.2 4.6-.4.4-60.7 12.3-61 12-.2-.2-.5-2.7-.6-5.7l-.4-5.5 3.5-.9c4.7-1.2 47.8-8.5 51.1-8.6 2.1-.1 3.2.8 5.2 4.1zm-703.5 1.3c1.2 1.9 2.2 3.9 2.2 4.3 0 .5-2.5 1.8-5.5 3l-5.6 2-1.5-2.9c-.8-1.6-1.9-2.9-2.4-2.9-1.3 0-1.3 1.6.2 4 .7 1 1 2.1.8 2.3-.8.7-40.4 14.7-41.6 14.7-.5 0-1.5-1.8-2-3.9l-1.1-3.9 12.1-4.6c10.3-4 12.1-4.4 12.8-3.1 1.3 2.2 2.8 1.8 2.5-.6-.2-1.8 1.5-2.8 11.8-6.9 6.6-2.6 12.7-4.8 13.5-4.9.8 0 2.5 1.5 3.8 3.4zm177.2 1.4c0 1.5.3 4.9.6 7.5l.7 4.6H502l-.6-2.8c-.3-1.5-1-4.3-1.5-6.2-1.6-6.3-2.4-6 16.1-6h17v2.9zm19 4.6v7.5h-16v-5.3c0-2.8-.3-6.2-.6-7.5-.6-2.2-.5-2.2 8-2.2h8.6v7.5zm23.2-5.9 6.7.7-.6 9.6c-.3 5.3-.7 9.8-.9 10-.1.2-3.9 0-8.3-.4l-8.1-.7v-9.9c0-11.3-1.1-10.4 11.2-9.3zm164.3.5c7.4 1.1 7.5 1.2 7.5 4.1v3l-8.2-.7c-4.6-.4-8.3-.8-8.4-.9-.1 0-.4-1.6-.7-3.4-.8-3.7-1-3.7 9.8-2.1zm216.5 1.4c0 2.2-.4 2.5-3.3 2.5-1.8 0-7 1.1-11.5 2.4l-8.2 2.4v-2.4c0-1.8.8-2.5 3.8-3.3 2-.5 6.2-1.6 9.2-2.5 8.4-2.2 10-2.1 10 .9zm191.9 5.5c4 4.4 7 8 6.7 8-2 0-21.1 3.1-21.5 3.5-1.6 1.7 3.2 1.5 21.6-.9 25.9-3.4 25.8-3.4 25.8-1.9 0 .7-3 3.9-6.6 7.1-7.2 6.4-6.4 6.1-24.1 8.3-7.4.9-9.8 1.5-9.8 2.6s.8 1.3 2.8.9c5.2-1 19.4-2.7 19.8-2.3.2.2-4.9 4.3-11.3 9.2-9.6 7.3-12.7 9.1-17.6 10.2-3.3.8-6.1 1.3-6.2 1.1-.4-.5-5.5-39.3-5.5-42 0-2 1.1-3.1 5.9-5.7 3.2-1.7 6.6-3.1 7.4-3.1.8 0 1.7-.7 2.1-1.5 1.1-2.9 3.4-1.5 10.5 6.5zm-989 2.7c.7 5.4 1.4 11 1.7 12.5l.6 2.8h-7.1c-8 0-7 1.3-9.6-12.5-2.3-12.5-2.9-11.8 9.6-12.3l3.7-.2 1.1 9.7zm503.6-5.9 15 2.7.3 8c.2 4.4 0 9.5-.3 11.2-.6 3.2-.7 3.3-5.6 3.3h-5l.2-5.8c.1-3.1-.2-5.9-.7-6.2-.5-.3-1 2.4-1.2 5.9l-.3 6.4-5.2-.7c-2.9-.3-8.5-.6-12.6-.6h-7.4l.7-6.8c.4-3.7 1.2-10 1.8-13.9 1-6.7 1.2-7.2 3.2-6.8 1.1.3 8.9 1.8 17.1 3.3zm-65.2-2.1c.3.5.8 5.2 1.2 10.6l.7 9.8-6.8-.6c-3.8-.4-7.3-.8-7.9-1-.6-.1-.9-4-.7-9.9l.3-9.6h6.4c3.5 0 6.6.3 6.8.7zm26.6 1.3c7.4.6 14.1 1 14.8 1 .7 0 1.3 1 1.3 2.1 0 2.1-.3 2.1-6.7 1.4-13.3-1.6-13.6-1.3-12.6 9.4l.6 7.3-7.4-.6c-13-1.2-12.9-1.1-12.9-6 0-2.4-.3-7.1-.6-10.5l-.7-6.2 5.4.6c3 .3 11.5 1 18.8 1.5zm136.5.2c.1.2 0 3.1-.2 6.5l-.4 6.3H749v-14.3l5.6.6c3.1.3 5.7.7 5.8.9zm12.3 1.3 6.1.7.7 5.9c.8 7.1 2.5 6.9 2.5-.3v-5.1l4.8.7c28.1 3.9 41.7 5.6 43.9 5.6 1.7 0 2.3.4 1.8.9-1.8 1.7-69.1 19.9-70 18.9-.3-.3-.2-6.9.1-14.7.6-12.3.9-14.1 2.3-13.7.9.3 4.4.8 7.8 1.1zm224.3 1.7c0 1.3.3 4 .6 6 .6 3.4.4 3.8-1.4 3.8-2.8 0-5.2 1-5.2 2.2 0 .7 1.5.8 4 .4l4-.6v3.9c0 6.2-2.8 6-7.8-.5-2.3-3-6.5-7.1-9.4-9.1l-5.2-3.8 8.9-2.1c11.5-2.8 11.5-2.8 11.5-.2zm-66 .8c0 2-2 3.2-7.4 4.6-1.9.4-2.6.1-3.1-1.6-.8-2.6-.5-3 3.7-4 5.6-1.3 6.8-1.2 6.8 1zm134.9 3.5c1.3 2.5 2.2 4.7 2 4.9-.4.3-38.6 6.4-43.4 6.8-2.9.3-3 .1-3.3-4-.2-2.3-.2-4.2 0-4.2.2-.1 8.6-1.8 18.8-3.9 10.2-2.2 19.6-3.9 21-4 2-.1 3 .8 4.9 4.4zm-691 17.2 14.1 20.8-9.7.3c-5.3.1-10-.1-10.4-.5-1.3-1.5-21.1-37.4-20.8-37.7.8-.7 9.5-3.4 11.1-3.5 1.1-.1 6.4 6.9 15.7 20.6zM714.8 141c.2 0-.9 2.2-2.5 5-2.4 4.4-3.2 5-6 5-2.7 0-3.3-.5-4.3-3.5-.6-1.9-1.6-3.5-2.1-3.5-1.3 0-1.1 1.2.6 5.3.8 2 1.5 3.8 1.5 4 0 .3-2.7 4-6 8.3-4.6 5.9-7.1 8.3-10.3 9.6-7.1 2.9-6.8 3.3-6.2-11.5.3-7.2.8-15.9 1.1-19.3l.5-6 16.7 3.2c9.2 1.8 16.8 3.3 17 3.4zm203.2-4.5v2.5h-12.6c-8.1 0-12.3-.4-11.9-1 .3-.6 2.3-1 4.3-1.1 2 0 7.1-.6 11.2-1.3 4.1-.8 7.8-1.4 8.3-1.5.4 0 .7 1 .7 2.4zM46.3 160.4l5 5.8L49 168c-2.4 1.8-2.4 1.8-9.5-5.9-4-4.2-8.4-9.1-9.9-10.9-2.4-2.8-5.6-4.3-5.6-2.6 0 .3 4.4 5.2 9.8 11 5.3 5.7 9.8 10.8 10 11.3.1.4-1.7 2.4-4.2 4.4l-4.4 3.7L21 163.9c-7.9-8.2-14-15.2-13.6-15.6.3-.3 4.7-3.4 9.8-6.8l9.2-6.1 7.4 9.5c4.1 5.3 9.7 12.2 12.5 15.5zm225.3-21.8c.8 1.9 1.7 4.7 2 6.3l.6 2.7-25.4 1.7c-13.9 1-27.4 2-30 2.3l-4.8.5v-14l3.3-.6c3.2-.6 31.9-2.1 45.5-2.4l7.3-.1 1.5 3.6zm367.3-1c.2.1 0 3.5-.4 7.3l-.7 7.1h-5.7c-3.1 0-6.2-.4-6.8-.8-.7-.4-1.6-4.1-1.9-8.1l-.7-7.3 7.9.7c4.3.4 8.1.9 8.3 1.1zM747 149.9v13.9l-6.9 1.6c-3.9.9-7.2 1.6-7.5 1.6-.7 0-1.4-6.8-2.1-19.8l-.7-11.2H747v13.9zm-568-1c0 11.6-.1 12-2.2 12.3-2.8.4-3 2.2-.3 2.6 1.9.3 2 .9 1.7 20.1-.3 19.7-.3 19.9 2.1 22.7 2 2.3 3.2 2.7 7.3 2.7 2.7 0 5.2.5 5.6 1 .4.7 1.1.7 2 0 .7-.6 4.3-1.4 8.1-1.8l6.7-.7v6.3c0 3.5-.3 7.4-.6 8.6l-.6 2.2-9.6-3.4c-5.4-1.9-13.7-5-18.7-6.8l-9-3.4-.7-4.9c-1.9-13-8.2-59.4-8.5-63.6l-.5-4.7 4.4-.4c2.3-.2 6.2-.4 8.6-.5l4.2-.2v11.9zm32.6-7.2c-.3 2.1-.6 5.3-.6 7 0 3.1-.2 3.3-3.4 3.3-1.9 0-3.8.4-4.1 1-.4.6 1 1 3.4 1h4.1v15.7l-3.1.7c-1.7.3-4.9.6-7 .6H197v-4.4c0-3.7.3-4.5 2-4.8 2.7-.4 2.7-2.2 0-2.6-2-.3-2.1-.9-1.8-10l.3-9.7 3.5-.6c1.9-.4 5.2-.7 7.4-.8l3.9-.1-.7 3.7zm760.5.1c5.8 2.8 16 11.5 14.8 12.6-.6.7-26 4.6-29.3 4.6-1.4 0-4.5-1.5-6.9-3.3-2.4-1.7-7.5-5-11.5-7.2-3.9-2.2-7.2-4.3-7.2-4.6 0-.3 4.2-1.8 9.3-3.2 12.4-3.6 21.7-3.2 30.8 1.1zm-623.2 3.3c1.8 3.3 2.9 6.4 2.5 6.9-.5.4-11 5.2-23.3 10.5-15.9 6.8-22.6 9.3-23.1 8.5-1.1-1.8-3.4-15.9-2.7-16.6.7-.7 40.6-15.2 42.2-15.3.6-.1 2.5 2.6 4.4 6zm375.8-2.6c2.9.6 3.1 1 3.5 5.3.3 2.6.3 5 .2 5.3-.5.9-14.9-1.6-14.9-2.6 0-.6 1.1-2.9 2.4-5.3 1.6-2.8 3-4.1 4-3.8.9.3 3 .7 4.8 1.1zM836 158.6c-4 23.3-7.6 41.3-8.3 42-.3.3-3.4-1.7-6.9-4.5-6.5-5.3-8.2-6-9.1-3.7-.3.7-5.4 7.5-11.3 15-11.4 14.6-11.8 14.8-13 6.7l-.7-4.3-3.6.6c-7.9 1.5-21.7 3.6-23.3 3.6-.9 0-1.8-.9-2-2.2-.2-1.2-.9-2.3-1.7-2.6-1-.3-1.2.2-.8 2 .6 2.2.3 2.6-2.4 3.2-1.7.3-5.5.6-8.4.6h-5.3l-.5-3.8c-.2-2-.2-4 0-4.5.2-.4 2.6-.7 5.2-.7 9.3 0 31.1-5.2 41.8-10l6.1-2.8.6-6.8c.4-3.8.9-8.8 1.2-11.1.3-2.4.1-4.4-.6-4.8-1.4-.9-1.8.7-2.5 11.6l-.7 9.6-6.7 2.7c-13.2 5.2-32.8 9.6-42.7 9.6h-3l-2.4-15.8c-1.2-8.6-2.5-16.2-2.7-16.8-.2-.6 2.3-1.8 5.9-2.7 24.7-6.6 61.6-16.6 79.3-21.6 11.6-3.2 21.1-5.8 21.2-5.7.2.1-1 7.9-2.7 17.2zm183-13.1c0 2.5-.1 4.5-.2 4.5-.2 0-4 .6-8.5 1.4-8 1.3-8.2 1.3-8.7-.8-1.6-5.8-1.1-6.3 7.2-7.9 4.2-.8 8.3-1.5 9-1.6.8-.1 1.2 1.4 1.2 4.4zM534.2 149l.3 6h-14.7c-8.1 0-14.9-.3-15.1-.8-.3-.4-.8-3.1-1.2-6l-.7-5.2h31l.4 6zm17.8 18v24h-2.7c-3.6 0-38.5-3-39.8-3.4-.6-.2-1.6-5.9-2.3-12.7-.7-6.8-1.5-13.4-1.8-14.6l-.6-2.2 16.3-.3 16.4-.3-.3-3.5c-.1-1.9-.5-5.2-.8-7.3l-.6-3.7H552v24zm-253.1-15.3c1.4 8.7 13.9 74.5 14.8 78 .5 2.1.2 2.3-3.9 2.3h-4.5l-13.4-40.7-13.4-40.7 9-3.2c4.9-1.7 9.2-3.2 9.6-3.3.3 0 1.1 3.4 1.8 7.6zm637.4-1.5c9.4 5.4 15.1 9.7 13.6 10.2-1.2.4-26.9 4.3-93.2 14.3-5.9.9-10.9 1.4-11.1 1.2-.2-.2.4-4.7 1.4-9.9a430 430 0 0 0 2.5-14.3l.6-4.7 35.7-.1c19.6-.1 36.8-.4 38.2-.8 2.7-.8 5.1 0 12.3 4.1zm135.6-2.6c.6 1.5 1 2.9.7 3.1-.3.3-7.1 1.4-15.3 2.5-8.1 1.1-15 2.2-15.2 2.4-.3.3 0 .9.5 1.4.5.5 7 0 16.8-1.4l15.9-2.3 1.4 2.6c12.3 22.4 13.9 25.7 12.8 26.3-1.1.7-9 2.6-22.6 5.7l-3.7.8-1.7-13.3c-1-7.4-2.1-13.6-2.5-13.9-.4-.3-7.5.2-15.6 1-21.8 2.2-20 2.5-20.7-4.2-.3-3.2-.5-5.9-.3-6 .2-.2 9.7-1.7 21.2-3.4 11.5-1.6 21.4-3.1 21.9-3.4 2.9-1.1 5.3-.3 6.4 2.1zM760 153v6.9l-4.2 1.2c-2.4.6-4.6 1.3-5 1.6-.5.2-.8-3.4-.8-8.1V146h10v7zm-174.5-2.9c7.2.6 13.3 1.3 13.8 1.6.4.2.7 2 .7 4 0 3-.3 3.5-1.9 3-1-.2-9.1-1.7-18-3.3-15.5-2.7-16.1-2.9-16.1-5.2 0-2.3.3-2.4 4.3-1.8 2.3.3 10.1 1.1 17.2 1.7zm-306.6 10.1c1.9 5.7 3.6 10.9 3.8 11.5.4 1-3 1.3-15.1 1.3-13.1 0-15.6.2-15.6 1.5 0 1.2 2.7 1.5 16.2 1.7l16.1.3 5.8 17.3c4 11.9 5.4 17.4 4.6 17.7-1.2.4-23.8 3.5-25.8 3.5-.5 0-.9-6.8-.9-16.5V182h-8.8c-4.9 0-13-.3-18-.6l-9.2-.7V176c0-2.6.3-8.8.6-13.8l.7-9.2 3.1-.5c3.3-.6 25.6-2.1 34.1-2.4l5.1-.1 3.3 10.2zm339.8-6.6c1.9.3 3.4 1.2 3.7 2.2.3.9.8 7.2 1.2 13.9.5 9.9.9 12.3 2.1 12.3 1.2 0 1.4-.9.9-4.3-.3-2.3-.8-8.6-1.2-14-.8-10.8-1.3-10.2 7-9.1l4.6.7v7.3c0 6.1.4 7.7 2.3 9.9 2.5 3 9.2 4.8 14.5 3.8 5.3-.9 3.6-2.3-2.9-2.3-5.4 0-6.4-.3-9-2.9-2.5-2.6-2.9-3.7-2.9-8.5V157l8.8.1c4.8.1 13.4.4 19.1.8l10.5.6-.3 10.5c-.1 5.8-.4 10.6-.5 10.8-.2.2-60.6 12.2-68.7 13.6-2.6.5-2.7.3-3.3-5.2-.3-3.1-.9-10.3-1.2-16l-.7-10.3 2.5.6c1.5.4 2.9.2 3.3-.4.4-.7-.5-1.4-2.3-1.7-2.6-.5-3.1-1.1-3.4-4.5l-.4-3.9 6.6.5c3.6.4 7.9.8 9.7 1.1zm-389 13.6c-1.9 42.4-1.9 42 .3 45.6 1.1 1.8 3.2 3.7 4.8 4.3 1.5.6 9 1.1 17 1l14.2-.1v17h-5.7c-7.8 0-16-1.4-33.5-5.6l-14.8-3.6v-8.9c0-7.1.3-8.9 1.4-8.9 2.4 0 3-2.1.7-2.7-1.2-.3-2.1-1.3-2.1-2.4 0-1.5.7-1.9 4-1.9 2.2 0 4-.5 4-1 0-.6-1.8-1-4-1h-4v-5.3c0-3 .3-8.8.6-13.1l.7-7.6 3.8-.6c5.1-.8 5-2.4-.1-2.4h-4v-15.9l4.8-.4c2.6-.2 6.5-.4 8.6-.5l3.9-.2-.6 14.2zm487.3-13c3.8.7 7 1.5 7 1.8-.1.5-28.2 11.1-28.6 10.7-.1-.1 2.2-3.2 5.2-7 6-7.3 5.9-7.3 16.4-5.5zm302.4 1.9c.3 1.7.6 4.4.6 6 0 2.8-.2 2.9-4.7 2.9-2.7 0-6.4.3-8.4.6l-3.7.6-.7-5.2c-.4-2.8-.5-5.3-.2-5.6.7-.7 8.8-2.2 12.8-2.3 3.3-.1 3.7.2 4.3 3zm-661.6 4.6c2.2 3.8 4.9 8.7 6.1 11l2.1 4.3h-16v-10.4c0-10 .3-11.2 3.2-11.5.4-.1 2.5 2.9 4.6 6.6zm214.8-4.2c4.4.9 8.9 1.8 10.2 2.1 2.1.4 2.2.8 2.2 11.9 0 13.4.9 12.7-12.5 9.4l-8.5-2.1v-11.4c0-6.3.2-11.4.4-11.4s3.9.7 8.2 1.5zM348 166v10h-2.6c-1.4 0-2.3.4-1.9 1 .3.5 1.5 1 2.6 1 1.8 0 1.9.8 1.9 17.9v17.8l-5.2.7c-9.8 1.1-8.8 4-8.8-25.8v-26.3l6.8-3.1c3.7-1.7 6.8-3.1 7-3.1.1-.1.2 4.4.2 9.9zm652-7.8c0 1.2-.1 1.9-.3 1.7-.1-.2-.9-1.2-1.6-2.2-1.2-1.4-1.1-1.7.3-1.7 1 0 1.6.8 1.6 2.2zm-271 4.2v5.4l-4.2 1c-6.4 1.6-44.5 10.2-45.3 10.2-.4 0-.5-.7-.3-1.6.2-1.1 8.3-4.7 24.3-10.9 13.2-5.1 24.3-9.3 24.8-9.4.4-.1.7 2.3.7 5.3zm266.4 4.2c6.1 8.8 6.7 10.2 7.3 16l.6 6.4h-3.3c-2.1 0-4.9-1.2-7.9-3.3-2.5-1.8-10.8-7.7-18.3-13.1-7.6-5.4-13.8-10.1-13.8-10.5 0-.6 15.7-3.4 27.6-5 .5 0 4 4.2 7.8 9.5zm-396.2-4.8c1 1 3.2 29.6 2.5 31.5-.3.8-2.3 1.7-4.4 2-2.1.4-5.3.9-7 1.3l-3.3.6v-11l4.3.5c4.7.6 4.4-.6-.6-2.3-2.7-.9-3.2-1.6-3.1-4.2 0-1.8.1-7.1.2-11.8l.2-8.7 5.3.7c2.8.4 5.5 1 5.9 1.4zM194 167c0 4.7-.2 5-2.5 5-1.4 0-2.5.4-2.5 1 0 .5 1.1 1 2.5 1h2.5v12.7c0 7.1-.3 14.5-.6 16.5-.6 3.7-.8 3.8-4.9 3.8-3 0-4.7-.6-6.1-2.1-2.1-2.3-2.1-3.2-1.6-28.6l.2-13.2 3.8-.4c9.7-1 9.2-1.3 9.2 4.3zm780.5 8.7c16.4 11.7 19 13.9 17.2 14.5-1.2.4-16.1 2.5-33.2 4.8-17 2.2-50.3 6.8-73.9 10-23.5 3.3-43.6 6-44.6 6-1.6 0-1.5-1.1 1.1-14.3 1.6-7.8 3.3-15.1 3.8-16.3.8-1.7 2.6-2.3 12.2-3.7 43.6-6.3 93.6-13.8 94.4-14.1 2.5-1 4.7.2 23 13.1zm82.9-9.5c1 5.8 2.6 18.9 2.6 20.8 0 1.5-1.6 2.1-9.2 3.5-10.1 1.8-19 2.3-22.4 1.2-3-1.1-4.2-4.7-5-15.8l-.6-9.6 16.3-1.5c9-.8 16.7-1.6 17.1-1.6.4-.1.9 1.3 1.2 3zM331 190v26h-9c-4.9 0-9-.3-9-.8 0-.4-1.6-9.4-3.6-20-2.2-11.7-3.3-19.7-2.7-20.3.7-.7 22.9-10.7 24.1-10.9.1 0 .2 11.7.2 26zm689.4-19.8c.3 1.8.7 6.7 1 10.8.9 13.7 4.4 15.4 25.1 12.4 15.3-2.2 13.9-2.9 15 6.7l.6 5.6-6.2.7c-3.4.3-10.3.6-15.3.6l-9.1-.1-12.3-17.9c-6.7-9.8-12.5-18.6-12.8-19.4-.6-1.5 1.7-2.1 9.8-2.4 3.5-.2 3.7 0 4.2 3zM81.6 208.5c-2.1 4.4-4 8.2-4.2 8.4-.2.2-3.7-2.7-7.7-6.5-3.9-3.8-12.7-12.1-19.4-18.6l-12.2-11.6 4.6-3.6 4.5-3.5 4.3 4.7c5.6 6.2 7.1 4.7 1.7-1.7-4.2-4.9-4.2-5-2.1-6.4 1.9-1.4 2.9-.7 18.2 14.7l16.2 16.1-3.9 8zm61.6-36.5c2.5 5.1 17.7 60.4 16.7 60.8-.4.2-4.6-1.4-9.1-3.6l-8.3-3.9-7.3-26c-3.9-14.4-7.2-26.8-7.2-27.6 0-1.7 5.9-3.6 10.5-3.4 2.4.2 3.4.9 4.7 3.7zm-16.8 4.2c7.9 28 12.7 46 12.3 46.5-.6.5-8.9-3.8-12.5-6.5-1.7-1.3-3.7-6.5-8.2-21.2-3.2-10.7-5.6-19.8-5.2-20.2.6-.6 9.7-3.6 11.4-3.7.4-.1 1.3 2.3 2.2 5.1zm604-2.5c.3 1.6.8 4.4 1.1 6.4l.7 3.5-21.9 6.3c-28.7 8.3-26.3 7.9-26.3 4.5 0-1.6-.9-4.9-2-7.3-1.1-2.4-1.8-4.6-1.6-4.9.6-.6 44.6-10.9 47.3-11.1 1.6-.1 2.3.6 2.7 2.6zM211 182.9c0 14.4-.4 15.9-4.8 16.3-1.9.2-3.7.9-4 1.6-.3 1 .7 1.3 3.9 1 3.4-.2 4.4.1 4.7 1.3.3 1.9-3.4 2.9-10.5 2.9h-4.4l.7-15.8c.4-9.6 1.1-16 1.8-16.4.6-.4 3.7-.8 6.9-.8h5.7v9.9zm181-3c.5 1.1 1 4.5 1 7.5v5.6h-43v-15h20.5c19.2 0 20.5.1 21.5 1.9zm183.9 3.2 9.3 2.2-.5 4.4c-.2 2.4-.7 4.7-1 5-.4.3-2.4-.2-4.7-1.1-4.6-1.8-6-2-6-.7 0 .5 2 1.7 4.5 2.7 2.5.9 4.4 1.9 4.2 2.1-.4.3-16.4 3.3-17.9 3.3-1 0-1-10-.2-16.4.4-2.8 1.1-4.5 1.8-4.2.6.2 5.3 1.4 10.5 2.7zm432.4 4.7c-1.9.5-2.2.2-2.9-3.9l-.6-3.4 2.5 3.5c2 2.8 2.2 3.6 1 3.8zm124.7-6.4c0 .4-18.1 12.2-25.4 16.6-3.8 2.3-3.9 2.3-5.3.4-1.9-2.6-5.5-9.5-5.1-9.9.2-.2 8.2-1.9 17.8-3.8 9.6-2 17.6-3.6 17.8-3.6.1-.1.2.1.2.3zM48.7 194.5c.2.1-8.3 7.7-18.8 16.9-10.6 9.2-19.5 16.4-19.9 15.9-.5-.4-2.4-4.8-4.5-9.7-3-7.3-3.4-9.1-2.3-10.2.7-.7 8.3-6.7 16.8-13.3l15.4-12 6.6 6.1c3.6 3.4 6.6 6.3 6.7 6.3zm630.6-8.7c2.6 4.5 3.1 12.5 1.3 21.1-.9 4.1-1.9 7.8-2.4 8.3-.9.9-24.9-.6-26-1.6-.7-.7-3.1-24.8-2.6-25.5.5-.5 25.7-5.9 26.9-5.6.5.1 1.8 1.6 2.8 3.3zm-417.9-1.2 4.6.7v29.5l-6.6.7c-10.5 1.2-22 .2-25.1-2.2-3.6-2.6-4-4.8-3.5-18.1l.4-11.2H244c7 0 14.8.3 17.4.6zm833.8 6.4 3.7 7-7.7 2.4c-8.5 2.6-16.6 4.4-22.7 4.8l-4 .3-.8-6.8c-.5-3.8-.6-7.1-.4-7.3.4-.5 25.2-7 27.2-7.3.6 0 2.7 3.1 4.7 6.9zm-610.4-3.4c8.8.6 9.2.8 9.2 3v2.4h-28V185.7l4.8.6c2.6.3 8.9.9 14 1.3zm248.8 6.6c.7 4 1.3 7.9 1.3 8.5.2 2.6-25.4.8-38.4-2.6l-7-1.8 4-1.2c28-7.9 38.1-10.7 38.4-10.4.2.1 1 3.5 1.7 7.5zM506.3 191c.5 1.8 0 2-4.9 2-4.7 0-5.4-.2-5.4-2 0-1.7.7-2 4.9-2 4 0 5 .3 5.4 2zm141.1 2.2c.3 2.4.8 8.1 1.2 12.7l.7 8.3-8.4-.7c-4.6-.4-8.5-.8-8.6-.9-.5-.4-2.4-19.9-1.9-20.3.7-.7 11.3-3.1 14.2-3.2 1.8-.1 2.3.6 2.8 4.1zm-115.9-1.6c10.5 1 19.3 2 19.8 2.4.4.3.4 3.4.1 6.8l-.7 6.1-4.1-.5c-6-.9-11.3 1.6-13.1 6-.8 2-1.5 6.6-1.5 10.5 0 6.8-.1 7-2.7 7.3-3.9.4-4.2 2.8-.4 2.8h3.1v22.2l-11.7-.7c-6.5-.4-11.8-.8-11.9-.9-.1 0 .1-3.1.4-6.9l.4-6.7h4.4c2.9 0 4.4-.4 4.4-1.3 0-2.9-3.1-26.1-3.6-26.8-.3-.5-1.4-.9-2.5-.9-1.5 0-1.9-.7-1.9-3.5V204h8c10.6 0 10.4-1.8-.2-2.2-8.2-.3-8.3-.3-8.6-3-.3-2.7-.3-2.7 6.9-3 4.7-.2 7.4-.7 7.7-1.6.3-.9-1.6-1.2-7.2-1.2-6.1 0-7.6-.3-7.6-1.5 0-1.9-.3-1.9 22.5.1zm482.5 2.2c1.3 2 3.3 5 4.4 6.6l2 2.9-5.2-2.8c-7.8-4.3-10.8-7.6-8.5-9.8 1.7-1.8 5-.4 7.3 3.1zm-10-1.8c0 .5-.4 1-1 1-.5 0-1-.5-1-1 0-.6.5-1 1-1 .6 0 1 .4 1 1zm-376.3 6.4c-.3.7-2.9 1.6-5.9 2-9.2 1.2-11.8 1.8-11.8 2.9 0 .9 2.5.8 14.3-.9l4.7-.7v3.2c0 2.9-.3 3.1-3.4 3.1-5.8 0-12.6 1.2-12.6 2.3 0 .6 2.9.8 8 .4 7.9-.6 8-.6 8 1.7 0 2.6.6 2.5-25.1 4.2l-9.6.6-.7-5.8c-.4-3.3-.9-7.5-1.2-9.4l-.5-3.6 13.8-2.3c7.6-1.3 15.4-2.7 17.3-3.1 3.1-.5 3.6-.3 4.3 1.7.5 1.3.7 3 .4 3.7zm372.8-4.2c2.3 1.6 3.6 3.3 4 5.3 1.6 9.8 4.5 40.9 3.8 41.6-1.1 1.1-22.9 7.3-32.3 9.3-16.2 3.3-24.7 3.7-85.9 4.3-53 .5-62.3.4-61.9-.8.3-.8 2.4-9.7 4.8-19.9 2.3-10.2 4.7-19 5.4-19.6.6-.7 21.6-3.9 46.6-7.3s59.7-8.1 77-10.5c17.3-2.4 32.3-4.4 33.3-4.5.9 0 3.3.9 5.2 2.1zm-179.7 4.9c7.5 6 7.4 3 .5 31.9-2.4 10.2-4.6 19.7-5 21.2l-.5 2.8h-19.4l-3.3-15c-1.9-8.8-2.9-15.5-2.4-16.3 1.5-2.6 22.8-29.7 23.3-29.7.3 0 3.4 2.3 6.8 5.1zM373 198c0 3-.1 3-5.5 3s-7.3 1.3-3.6 2.5c1.6.5 1.9 2 2.6 10.5.3 5.5 1.1 10 1.6 10s.9-4.5.9-10c0-9.3.1-10 2-10 1.8 0 2 .7 2 7.5 0 4.1.4 7.5.9 7.5 1.5 0 2.1-2.8 2.1-9.1 0-5.1.2-5.9 1.9-5.9 2.6 0 5.1-1 5.1-2.1 0-.5-1.6-.9-3.5-.9-3.2 0-3.5-.2-3.5-3v-3h8.5c7.8 0 8.5.2 8.5 2 0 1.1.7 2 1.5 2s1.5-.9 1.5-2c0-1.7.7-2 4.5-2h4.5v21h-12.9c-7.6 0-13.2.4-13.6 1-.4.6 4.2 1 12.9 1H405v7l-16.2.2c-11.8.2-16.2.6-16.6 1.5-.3 1 3.4 1.3 16.2 1.3H405v5h-11.5c-7 0-11.5.4-11.5 1s4.5 1 11.5 1H405v17.8l-14.2-.4c-7.9-.3-20.2-.7-27.5-1l-13.2-.6v-27.9L350 195h23v3zm52 5.4v7.5l-3.2.3c-1.8.2-3.3.7-3.3 1.3 0 .5 1.5 1.1 3.3 1.3 2.6.3 3.2.7 3.2 2.8 0 1.3.5 2.4 1 2.4.6 0 1-1.1 1-2.5 0-2.5.1-2.5 9-2.5h9v40h-4.7c-2.7 0-11.2-.3-19-.7l-14.3-.6v-7.2c0-4 .3-9.3.6-11.8.6-4.4.8-4.6 4-4.9 4.5-.4 4.4-2.2-.1-2.6-3.3-.3-3.5-.6-3.5-3.7 0-1.9.5-3.7 1.1-4.1.8-.4.8-.9 0-1.7-.6-.6-1.1-5.2-1.1-10.9V196h17v7.4zm39-4.4c0 1.6.5 3 1 3 .6 0 1-1.4 1-3v-3h28v3c0 2-.5 3-1.5 3-.8 0-1.5.4-1.5 1 0 .5.7 1 1.5 1 1 0 1.5 1.1 1.5 3.5v3.5l-33.5-.1-33.5-.1V196h37v3zm43 .1v3l-5.2-.3c-4.9-.3-5.3-.5-5.6-3.1-.3-2.7-.2-2.7 5.2-2.7 5.6 0 5.6 0 5.6 3.1zm-446 6.8 9.4 8.8-7.8 12.9c-4.3 7.1-8.1 13.2-8.5 13.7-.8.8-26.6-22-26.6-23.5 0-1.2 21.6-20.7 23-20.7.6 0 5.3 3.9 10.5 8.8zm529.4-3.7c1.6 10.3 1.7 9.8-3.3 9.8-5.1 0-13.6 3.4-12.6 5 .4.6 1.6.5 3.4-.4 3.5-1.9 12.7-3.1 13.4-1.9.7 1.1 3 18.4 2.5 18.8-.2.1-7-1.7-15.3-4l-15-4.2.2-10.7c0-5.9.3-10.9.5-11.1.3-.3 22.1-4.3 24.5-4.4.7-.1 1.4 1.4 1.7 3.1zm100.4-1.8c3.4 1.2 14.7 3.3 29.1 5.3 3.1.4 3.3.6 2.7 3.5-.3 1.8-.8 3.3-.9 3.4-.2.2-2.8 0-5.8-.5-2.9-.5-5.8-.7-6.2-.4-1.7 1 1.1 2.4 6.2 3l5.3.6-.7 4.5c-1 6.9-2.2 9.4-4.3 8.9-4.5-1.3-9.2-1.7-9.2-.9 0 1 3.3 2.2 6.5 2.2 4.1.1 4.6 1.2 3.4 6.8-1.2 5-1.3 5.1-4.3 4.6-10.3-1.8-22.1-7.3-29-13.6l-4.8-4.3 2.8-12.3c1.6-6.9 3.3-12.2 4-12.2.6 0 3 .6 5.2 1.4zm322.4 1.7c2.9 1.7 6.3 3.5 7.5 4 1.2.4 5.8 6.1 10.2 12.8l8 11.9-12.6 4.7c-6.9 2.5-13.1 4.4-13.7 4.2-.7-.3-1.9-7-3-16.8-.9-9-2-18.1-2.3-20.2-.3-2-.3-3.7 0-3.7s3 1.4 5.9 3.1zm87.8-1.2c0 .9-32 18.1-33.8 18.1-.7 0-1.3-1.6-1.4-3.5-.1-1.9-.2-4.2-.2-5.1-.1-1.3 2.3-2.1 11.4-4 6.3-1.3 14-3.2 17-4.3 6.4-2.3 7-2.4 7-1.2zm-979.2 26.2 9 5.6-6.2 9.7c-6 9.3-6.4 9.7-8 8-1.3-1.2-1.6-2.6-1.2-4.8.3-1.7.9-5.6 1.2-8.7.6-4.9.4-5.9-1.5-7.8-3.3-3.3-8.4-2.8-12.5 1.1-2.7 2.6-5.1 7.5-11 22.2-4.2 10.4-7.6 19.5-7.6 20.3 0 .7 1.6 2.1 3.5 3 1.9.9 3.4 2.2 3.3 2.9-.2.7.1 1.4.7 1.6 1.5.5 13.8-27.3 12.6-28.5-.7-.7-1.3-.2-2 1.4-.5 1.4-3 6.9-5.5 12.3l-4.5 9.7-2.9-1.5-3-1.5 6.4-16.6c7.7-19.8 8.6-21.7 12-24.4 3.6-2.9 7-2.7 9 .5 1.6 2.3 1.6 2.9 0 8.6-1.3 4.8-1.4 6.7-.6 9.4.7 1.9 1.6 3.4 2.1 3.4 1.9 0 .6 2.5-9.3 18.1-6.8 10.8-10.6 15.8-11.5 15.5-2.1-.9-36.3-22.7-36.3-23.2 0-1.4 3.2-6.4 4-6.4.6 0 4.9 1.6 9.7 3.5 10.6 4.1 11 4.3 11.3 3 .1-.5-4.2-2.8-9.7-5-5.4-2.3-9.8-4.6-9.8-5.2 0-.6 5.4-12.3 12-26l12-24.9 12.6 9.6c7 5.2 16.8 12 21.7 15.1zM507 207.5v3.5h-5.5c-5.4 0-5.5-.1-5.5-2.8 0-3.8.5-4.2 6.2-4.2h4.8v3.5zm229 .9c0 1.3.3 3.1.6 4 .5 1.3-.2 1.6-3.9 1.6-5.8 0-7.7-.8-7.7-3 0-4.1 1.1-5 6.1-5 4.5 0 4.9.2 4.9 2.4zm-185 7.2v6.6l-2.7-.7c-4.1-1.1-4.8-1.1-5.1 0-.2.5 1.4 1.4 3.5 2l3.8 1.1.3 15.2.3 15.2H534v-21.8l7-.7c3.9-.4 7-1.1 7-1.6s-3.2-.9-7.1-.9h-7.2l.6-8c.7-10.8 2.5-12.8 12-12.9l4.7-.1v6.6zm512-3.4c0 1.8.3 4.3.6 5.6.6 2-.1 2.6-6.2 5.3-12.2 5.6-10.6 5.9-17.4-3.8-3.3-4.8-6-8.9-6-9.2 0-.4 6.5-.8 14.5-.9l14.5-.3v3.3zm-277 5.7c1.1 5.2 1 6.1-.5 8.5-2 3-1.4 4.6.9 2.7 1.3-1.1 1.6-.9 2.1 1.1.9 4 5.5 25.1 5.5 25.5 0 .1-17.5.3-39 .3-21.4 0-39-.1-39-.3 0-.3 3.6-17.3 4.5-21.5.5-2.1 1-2.2 9.9-2.2h9.4l.6 2.7c1.8 9.5 1.8 11.5 0 14.9-2 3.7-1.2 5.9 1 2.8 3.7-5.1 7.9-9.9 12-13.6l4.6-3.9.6 4.1c1 6.4 2.7 6.1 2.3-.4-.4-5.1-.1-5.9 2.1-7.6 2.8-2.1 2-4.1-.9-2.3-1.7 1-1.9.8-2.5-2.5-.3-2-.6-5.2-.6-7 0-2.9.3-3.2 3.3-3.2 1.7-.1 7.3-.9 12.2-1.9 5-1 9.3-1.9 9.6-2 .4 0 1.2 2.5 1.9 5.8zm-486.4 4.6c1.6 4.6 2.5 8.7 2.2 9-1.4 1.5-15.3 3.5-24.1 3.5h-9.8l.3-8.8.3-8.7 8.5-.8c4.7-.4 10.5-1.1 13-1.6s5-.9 5.7-1c.6 0 2.4 3.7 3.9 8.4zM457 234v20h-9v-40h9v20zm37-9v11h-4c-5.1 0-5.3 1.8-.2 2.2l3.7.3.3 7.7.3 7.8H459v-40h35v11zm13.2.5-.3 11.5H497v-23h10.5l-.3 11.5zm6.5-.9c1.7 13.8 1.7 13.4-1.1 13.4-1.4 0-2.7-.4-3.1-.9-1-1.8.7-23.2 1.9-22.8.6.2 1.6 4.8 2.3 10.3zm135.7-7.4c.3.7.7 3.7 1 6.7l.5 5.3-3.2-.6c-1.8-.4-6-2-9.4-3.6-5.7-2.6-6.3-3.2-6.3-5.9V216h8.5c6 0 8.7.4 8.9 1.2zm87.9.5c.3 1 .8 3.9 1.2 6.5l.6 4.8H721l.6-2.8c.3-1.5 1-4.4 1.5-6.5l1-3.7h6.4c5.2 0 6.5.3 6.8 1.7zm19.1 2.9c1.3 9.8 1.1 10.4-5.8 17.2l-6.4 6.4-.6-2.9c-1.9-9.9-1.9-10.3.3-10.3 1.1 0 2.1-.5 2.1-1 0-.6-.9-1-1.9-1-2.5 0-2.7-.4-3.6-6.7l-.7-5.2 4.4-.4c12-1 11.5-1.2 12.2 3.9zM69.3 233.8c-3.6 7.5-6.9 14.1-7.4 14.6-.9 1-5.9-2.9-5.9-4.5 0-.8 13.4-23.5 15.2-25.7.9-1 1.4-.9 2.8.3 1.7 1.5 1.4 2.4-4.7 15.3zm278.7-9.3v7.5h-31.8l-1.1-6.2c-.6-3.4-.8-6.4-.5-6.7.6-.6 14.9-1.7 26.2-1.9l7.2-.2v7.5zm281.6.6c-.4 4.4-.9 10.1-1.3 12.6l-.6 4.5-3.5-.7c-7.4-1.4-7.8-1.8-8.5-8.6-.4-3.4-.7-8.1-.7-10.5 0-4.2.1-4.3 3.8-4.7 2-.2 5.5-.4 7.6-.5l3.9-.2-.7 8.1zm47.1-6.7c.1.1-.1 3.4-.4 7.4l-.6 7.2h-4.1c-4.1-.1-17.3-2.3-18-3.1-.2-.2-.6-3.3-1-6.8l-.7-6.4 12.3.8c6.8.4 12.4.8 12.5.9zm-64.3 5.8c.3 2.9.6 7.4.6 9.9v4.7l-8.2-2.3-8.3-2.2-.7-4.4c-1.6-10.6-1.6-10.6 9.3-10.8l6.6-.1.7 5.2zm-573.9 7.9c12 10.8 13.3 12.3 12.2 14-.6 1-1.5 1.9-1.9 1.9-.3 0-4.8-1.6-9.8-3.5-9.8-3.7-15.8-4.4-20-2.1-2.4 1.4-2.5 1.3-5.2-5.1-1.6-3.6-2.7-6.7-2.6-6.8.2-.1 3-2.6 6.2-5.4 3.3-2.8 6.3-5.1 6.8-5.1s6.9 5.4 14.3 12.1zm600.6-4.2c3.5 1.5 7.6 3.1 9.1 3.5 2.4.5 2.7 1.2 3.3 6.4.3 3.1.8 6.9 1 8.4.6 3.4.5 3.4-12-.1-6.7-1.8-10-3.2-10-4.2.1-2.6 1.7-16.9 2-16.9.1 0 3.1 1.3 6.6 2.9zm-387.9 8.8 13.6 1.7.4 4.8c.2 2.8-.1 4.8-.7 4.8-2.4 0-41.5-3.1-46.7-3.6l-5.8-.7v-15.3l12.8 3.3c7 1.8 18.9 4 26.4 5zm339.3-1.3 24 6.4-.3 6.8c-.2 3.8-.5 7.1-.7 7.2-.2.2-11.6.1-25.4-.3l-25.1-.8v-13.4c0-12.3.1-13.4 1.8-12.9.9.3 12.5 3.5 25.7 7zm94.5-3c6.8 5.1 18.8 10.3 25.6 11.3l4.6.6-.7 4.5c-.4 2.4-.9 5.1-1.2 5.8-1 2.6-4.4 1.4-11.2-4.1-6.3-5.1-16.4-10.5-19.5-10.5-.7 0-1.9-.6-2.5-1.4-1.2-1.5-2.7-10.6-1.7-10.6.3 0 3.3 2 6.6 4.4zm-17 2.7 8.5 1.2 3.2 8.1c1.7 4.4 3.5 8.9 3.8 9.8.7 1.7-.5 1.8-16.7 1.8-9.6 0-22.3-.3-28.2-.7l-10.7-.6.7-4.1c.3-2.3.8-4.4 1-4.7.2-.4 5.2.6 11.1 2.2 15.7 4.2 14.7 4.6 13.8-6.2l-.7-9.2 2.9.6c1.6.3 6.7 1.1 11.3 1.8zm-522.3 4.8c10 4.6 26.4 10.1 29.9 10.1 2.9 0 2 2.1-5.3 13l-7.6 11.4-2.1-5.4c-1.2-2.9-2.7-5.5-3.4-5.8-1.6-.5-1.5.5.8 7.3 1.9 5.5 1.9 6 .3 8.4-.9 1.4-5.9 9-11.1 16.8l-9.4 14.2-10.1-5C114.6 298.4 97 288.7 97 288c.1-.3 3.6-5.9 7.9-12.5 7.4-11.5 7.9-12 10.9-11.7 4.6.5 7.8-2.2 11.9-10 2-3.8 4.7-7.8 6.1-8.8 3.6-2.9 7.8-2.6 9.8.6 1.7 2.5 1.6 2.8-7 20-9.5 19.1-12 22-18.1 20.9-6.2-1.1-8.2-7.2-4.4-13.4 2.6-4.3 1.5-5.5-1.7-1.8-1.8 2.1-2.4 4-2.4 7.3 0 9.7 10 13.9 17.5 7.3 4.2-3.7 19.5-33.3 19.5-37.7 0-4.8-2.5-7.2-7.4-7.2-5.7 0-8.4 2.3-12.9 10.8-2 3.7-4.5 7.6-5.6 8.6-1.9 1.7-5.5 1.9-5.4.3.1-2.1 16.7-26.8 17.7-26.3.6.2 6.1 2.7 12.3 5.5zm157.7 3-.7 7.2-10.6-.6c-5.8-.3-13.7-.8-17.6-1.1l-7-.5.3-4.8.4-4.8 11.1-.7c6.2-.3 13.9-1.2 17.2-2 3.3-.7 6.4-1 6.8-.6.5.4.5 4 .1 7.9zm12.7-.9 1.6 8H306v-16h8.6l1.5 8zm31.9.5v8.5h-14c-13.7 0-14 0-14.4-2.3-1.4-6.4-2.6-12.9-2.6-13.7 0-.6 6.4-1 15.5-1H348v8.5zm717.4-1.5c2.1 3.4 3.7 6.2 3.5 6.4-.2.1-1.8 1.2-3.5 2.4l-3.1 2.1-4.7-6.7-4.6-6.6 3.2-1.8c1.8-.9 3.8-1.7 4.3-1.7.6-.1 2.7 2.6 4.9 5.9zm34.9 8.7c5.1 7.6 9.7 14.3 10.1 15 .4.8-2.5 3.3-8.3 7.3l-9.1 6-10.1-15.1c-5.6-8.4-9.7-15.5-9.2-16 2-2 14.9-10.7 16-10.8.6-.1 5.4 6.1 10.6 13.6zm-593.8-9.5c.3.3.2 3.7-.1 7.7l-.7 7.2-4.6-.3-4.6-.3-.3-7.9-.3-7.9 5.1.5c2.8.3 5.3.7 5.5 1zm544.9 8.3c2.7 4.2 4.7 7.7 4.5 7.8-12.7 9.2-67.6 46.7-68.4 46.7-.4 0-25.5-36.7-25.5-37.3 0-.2 3.5-1 7.8-1.7 15.6-2.5 56.6-14.6 72.2-21.4 1.9-.8 3.7-1.5 4-1.5.3-.1 2.7 3.3 5.4 7.4zm-424.8-3.2c.2.2-.1 2.7-.8 5.6-1.1 5-1.2 5.1-5 5.1H617v-13.9l4.6 1.4c2.5.7 4.8 1.6 5 1.8zm64.6.9c3.2 1.7 7.5 4.6 9.5 6.4l3.8 3.4-8.8-.3-8.9-.2-2.9-6.8c-2.8-6.8-2.8-6.8-.6-6.1 1.2.3 4.8 2 7.9 3.6zm-652.1.9c4.3 1.7 7.9 3.5 7.9 4.1 0 1.2-12.7 17.3-15.9 20.2-2.5 2.3-2.1 2.5-5-4.3l-2.3-5.4 2.3-1.8c2.4-1.9 2.1-2.3-1.7-2-1.7.2-2.5-.9-4.2-5.4-1.2-3.1-2.2-6.1-2.2-6.6 0-1.4 6.2-2.8 9.8-2.3 1.8.3 6.9 1.9 11.3 3.5zm18.4 1.9c3.5 3.7 2.9 4.5-1.8 2.5-4-1.7-4-1.6-3.1-3.9.9-2.2 1.6-2 4.9 1.4zm1023.9 15.9c9.2 13.6 9.7 14.6 7.9 15.9-3.9 2.9-5 3.2-6.5 1.4-2-2.3-17.8-25.9-18.4-27.6-.6-1.5 5.7-6 6.7-4.8.3.4 5 7.2 10.3 15.1zM58.2 254.8c.4.4 0 2.2-.8 4l-1.4 3.4-2.9-2.1c-3.4-2.5-4.1-2.6-4.1-.7 0 .7 1.1 2.1 2.5 3 1.4.9 2.5 2 2.5 2.5 0 .4-3.4 7.9-7.6 16.6l-7.7 15.9-3.8-9.5c-2.1-5.2-3.8-9.9-3.8-10.6-.1-.7 3.7-5.9 8.3-11.7 4.7-5.7 8.9-11.4 9.5-12.5 1.1-1.9 1.3-1.9 4.9-.5 2 .9 4 1.9 4.4 2.2zm160 53.2 48.2 68.2 11.7 16.8-2.1 3c-1.2 1.7-2.5 2.8-2.9 2.5-.4-.2-2.9-4-5.4-8.4-6.8-11.7-18.4-26.5-28.1-36-4.8-4.6-8.4-8.9-8.2-9.5a21 21 0 0 1 1.8-2.8c2.1-2.9 0-3.2-2.4-.3l-2.4 2.7-6-3.6c-7.6-4.5-20.2-9.6-32.4-13.1l-9.5-2.6-5.7-16.7c-3.7-10.7-5.6-17.5-5.2-19 .5-1.6.2-2.2-.9-2.2-1.3 0-4.7-6.5-4.7-9.1 0-.5 3.4-6.2 7.6-12.5 6.3-9.6 7.9-11.4 8.9-10.2.7.7 17.7 24.5 37.7 52.8zM208 255.4c21.2 3.2 118 8.6 153.8 8.6 6.1 0 11.2.2 11.2.5 0 .9-99.8 101-100.3 100.5-.8-.9-74.3-105.5-76.1-108.3-1.8-2.6-1.8-2.7 0-2.7 1.1 0 6.2.6 11.4 1.4zm859.6 17.3c5.4 8.2 10 15 10.1 15.3.2.3-1.8 1.8-4.4 3.4l-4.6 3-3.6-4.4c-2-2.4-7.4-8.6-12-13.8-4.6-5.1-8.2-9.5-7.9-9.7 1.1-1.1 11.4-8.4 11.9-8.5.3 0 5 6.6 10.5 14.7zm-664-6c-.2 1-1.9 13-3.7 26.6l-3.3 24.8-24-.2c-22.1-.2-24.6 0-30.5 1.9-7.4 2.4-7 2.1-39.4 30-13.7 11.8-24.9 21.3-25 21.1-.2-.2-.9-1.2-1.7-2.2-1.2-1.7 3-6.1 49.6-52.7l50.9-50.9h13.8c12.7-.1 13.8 0 13.3 1.6zm73.1-.3c.1.1 2.9 12.1 6.1 26.6l5.9 26.5-7.4.3c-9.2.4-81.2-1.4-81.8-2-.3-.3 1.1-11.8 3-25.7 1.9-13.9 3.5-25.7 3.5-26.2 0-.6 12.7-.7 35.3-.3 19.3.4 35.3.7 35.4.8zm494.5 17c7 10 13 18.9 13.3 19.7.3.9-2.9 3.7-9.4 8.2l-9.9 6.7-18.1-25.2c-10-13.9-17.7-25.4-17.3-25.6.5-.1 6.7-.6 13.8-1.1 7.1-.4 13.4-.9 13.9-.9.6-.1 6.7 8.1 13.7 18.2zm-898.8-7.5c8.3 5.4 19.2 12.2 24.1 15.1 14.2 8.1 45.6 23.5 54.5 26.7 4.4 1.5 8 3.3 8 3.9 0 2.3-8.1 9.4-13.9 12.4-3.3 1.6-6.3 3-6.6 3-.3 0-.5-1.5-.5-3.3-.1-7.7-8.3-18.2-18.4-23.5-3.9-2-6.6-2.6-11.6-2.7-6.5 0-9.2 1-18.5 6.5l-3 1.8-16-7.9c-8.8-4.3-18.5-8.4-21.5-9-3-.7-5.9-1.5-6.3-1.9-.8-.7 13-31 14.1-31 .3 0 7.3 4.5 15.6 9.9zm478.6 8.9c0 9.9-.3 22-.6 27l-.7 9.2-21.1-.1c-11.6-.1-24.9-.4-29.5-.7l-8.4-.7-5.2-23.5c-2.8-12.9-5.5-24.7-5.8-26.3l-.7-2.7h72v17.8zm16 8.7V320H561.7l.6-9.8c.4-5.3.7-17.2.7-26.5 0-16 .1-16.7 2-16.7s2 .7 2 26.5zm46.5.7c-.4 15-.8 27.4-.9 27.6-.2.1-8.6-.1-18.7-.5l-18.4-.8-.3-26.8-.2-26.7h39.3l-.8 27.2zM944 293c10.2 14.3 18.4 26.4 18.2 26.8-.1.4-18.8 13.4-41.5 28.9l-41.2 28.2-9.4-9.7c-28.8-29.8-44.1-60.8-44.1-89.6v-9.5l7.8-.4c4.2-.1 26.6-.4 49.7-.5l42-.2 18.5 26zm-371.6-20.4c.3 2.6.6 14.3.6 26 0 20.7-.1 21.4-2 21.4s-2-.7-2-26c0-21.3.2-26 1.4-26 .8 0 1.6 1.7 2 4.6zm90.6 5.9V289h-6.2c-3.5 0-14.1-.3-23.5-.7l-17.3-.6v-9.2c0-5 .3-9.5.7-9.8.3-.4 10.9-.7 23.5-.7H663v10.5zm15 .5v11h-13v-22h13v11zm44.8 0c-.3 6.1-.8 11.4-1.1 11.7-.3.3-9.8.2-21.1-.2l-20.6-.7V268h43.3l-.5 11zm57.1 1.4v12.4l-17.2-.4c-9.5-.3-21.8-.7-27.4-1l-10.3-.6V268h54.9v12.4zm34.1-6.9v5.5h-4.2c-2.4 0-9.4-.3-15.5-.7l-11.3-.6V268h31v5.5zm307 6.2c4.6 6.5 8.4 12.2 8.6 12.8.3.9-16.2 12.5-17.9 12.5-.8 0-16.7-23.6-16.7-24.7 0-.6 16.8-12.3 17.7-12.3.1 0 3.8 5.3 8.3 11.7zm-71.4-3.5c8.3 8.5 16.4 18.1 16.4 19.4 0 1.5-9.1 6.7-9.9 5.8-1.9-2-19.1-28.4-19.1-29.2 0-.8 3.5-2.9 5-3.1.3-.1 3.7 3.2 7.6 7.1zm-5.3 12.3c5.4 8 9.7 14.9 9.7 15.4 0 .8-6 5.1-7.2 5.1-.3 0-5-6.6-10.4-14.6l-9.9-14.5 3.5-2.9c1.9-1.6 3.8-3 4.1-3 .3 0 4.9 6.5 10.2 14.5zm-879.9-1.7 1.8 5.9-3.4 12.4c-3.3 11.7-3.6 12.4-5.9 12.1-3.1-.3-16-5.5-15.6-6.3.9-2.3 20.3-30.6 20.8-30.3.3.2 1.4 3 2.3 6.2zm639.2-5.8h10.1l.7 6.2c.3 3.4.4 6.3.2 6.6-.3.2-7.5.1-16-.3l-15.6-.7v-13.1l5.3.7c2.8.3 9.7.6 15.3.6zm230.8 14.6c8 11.9 9.5 14.8 8.5 16-1 1.2-2.1.1-6.7-6.8-7.9-12-10.2-14.9-11.2-14.3-.5.3 2.5 5.8 6.7 12.1 7.4 11.1 7.7 11.7 5.8 13-1 .8-2.1 1.4-2.4 1.4-.7-.1-21.3-29.1-20.9-29.5 2.4-1.9 9.3-6.5 9.7-6.5.4 0 5.1 6.6 10.5 14.6zm69.4 2.1 6.2 9.2-3 2.1c-1.7 1.2-3.5 2-4 1.8-1-.3-17-23.6-17-24.7 0-.3 1.5-1.5 3.2-2.7l3.3-2.1 2.5 3.6c1.5 2 5.4 7.7 8.8 12.8zm-90-5.6c.7 1.2 1.2 2.2 1 2.3-6.4 4.9-10 6.6-11.3 5.6-2.4-2-1.7-3.7 2.8-6.9 5.1-3.6 5.8-3.7 7.5-1zM626 306.5V322h-10v-31h10v15.5zm27.9-14.8 9.2.6-.3 6.1-.3 6.1h-4.2c-2.4-.1-10.1-.2-17.3-.3l-13-.2v-13h8.3c4.6 0 12.5.3 17.6.7zm433.6 10.5c4.2 6.1 7.9 11.7 8.2 12.4.2.7-1.4 2.5-3.8 4.1l-4.2 2.8-1.6-2.5-8.7-12.5-7.1-10 4.1-2.7c2.2-1.6 4.4-2.8 4.8-2.8.4 0 4.1 5 8.3 11.2zM678 298v6h-13v-12h13v6zm29.6-5H722v13h-5.3c-3 0-12.2-.3-20.5-.7l-15.2-.6v-13l6.1.7c3.4.3 12.7.6 20.5.6zm54.2 1.7 18.2.6V307h-13.2c-7.3 0-19.7-.3-27.5-.7l-14.3-.6V294h9.3c5.2 0 17.6.3 27.5.7zm376.3 9c.7 1.3 1 2.4.8 2.6-.2.2-4.3 3.1-9.1 6.5l-8.7 6.1-3.6-4.9c-2-2.8-3.5-5.5-3.3-6.1.2-.5 4.2-3.7 8.8-6.9l8.5-5.9 2.7 3.2c1.5 1.8 3.2 4.2 3.9 5.4zm-321.2-1.5c.8 3.2 1.3 5.9 1 6.1-.2.3-8.2.2-17.6-.1l-17.3-.5V296l16.3.2 16.2.3 1.4 5.7zm208.6 6.1c4.7 6.5 8.3 12.3 8 12.8-.4.5-1.5 1.3-2.5 1.9-1.6.9-3-.6-10.8-11.4-9-12.4-9-12.5-6.9-14 1.2-.8 2.5-1.4 2.9-1.3.4.1 4.6 5.5 9.3 12zm-852.4 2.5c2.5 7 4.5 12.8 4.4 13-.3.4-13.9-3.9-14.8-4.8-.5-.4.4-5.5 2-11.3 1.5-5.8 3-10.4 3.3-10.1.3.3 2.6 6.3 5.1 13.2zM1001 301c.8 1.5.2 2.3-4.1 5.1-5 3.1-5.2 3.2-6.5 1.4-.8-1-1.4-2.1-1.4-2.4.1-1.1 9.4-7 10.2-6.5.4.3 1.2 1.3 1.8 2.4zm76.5 9.5 8.4 12-2.4 2c-1.4 1.1-3.8 2.8-5.4 3.8l-2.9 1.7-8.6-12.7-8.6-12.6 4.8-3.3c2.6-1.8 5-3.2 5.5-3.1.4.1 4.5 5.6 9.2 12.2zM50.6 302.1c3.8 1.2 8.2 2.8 9.7 3.6l2.8 1.4-2.1 2.6c-3.2 4.1-2.7 10.9 1.7 20.5l3.7 8.1-3.4 2.8c-1.9 1.6-3.7 2.9-4.1 2.9-.3 0-4-8.2-8.2-18.3-4.2-10-8.3-19.9-9.1-22-1.6-3.5-1.5-3.7.3-3.7 1 0 5 .9 8.7 2.1zm967.8 11.4c6.1 8.8 8.1 12.3 7.4 13.2-2.1 2.6-4 1-11.8-10.8-6.7-9.9-7.9-12.3-6.9-13.5.7-.8 1.6-1.3 2-1.2.5.2 4.6 5.7 9.3 12.3zm-7.3 1.5c10.8 16 10.2 14.6 7.4 16.4-2.4 1.6-2.4 1.5-11-11l-8.5-12.5 2.2-1.9c2.7-2.2 1.9-2.9 9.9 9zm-352.8-8h4.8l-.3 8.2-.3 8.3-16.5-.4c-9.1-.2-16.8-.5-17.2-.8-.5-.2-.8-4.1-.8-8.5v-8.1l12.8.6c7 .4 14.9.7 17.5.7zm403.5 7.3c2.7 4 5.1 7.7 5.5 8.3.4.7-1 2.3-3.3 3.8l-3.9 2.6-4.4-6.3c-8.7-12.2-8.4-11.2-4.1-14.1 2.1-1.4 4.1-2.3 4.6-2 .5.3 3 3.8 5.6 7.7zM678 315.5v8.5h-13v-17h13v8.5zm327.8 18.6c10.1 14.5 18.7 27.1 19.2 28 .8 1.4-.8 2.8-8.3 7.8-5.1 3.3-9.6 6.1-10 6.1-.8 0-39.7-54.6-39.7-55.7.1-1.2 18.3-13.3 19.5-13 .5.2 9.2 12.3 19.3 26.8zM722 317v9h-5.2c-2.9 0-12.4-.3-21-.7l-15.8-.6V308h42v9zm423.1-2.9c4.7 7 5.3 5.8-6.3 14.3l-7.7 5.6-4.1-5.9c-2.2-3.3-4-6.4-4-7 0-.7 16.7-13.1 17.7-13.1.1 0 2.1 2.7 4.4 6.1zM76.3 314c19.1 9.5 26.9 13.5 27.3 14.1.2.4-5.6 4.2-12.9 8.4-7.2 4.3-14.2 8.4-15.4 9.2-2.1 1.4-2.3 1.3-3.8-2.3l-1.6-3.8 3.8-3.2c4.7-4 3.7-5.7-1.2-1.9-2 1.5-3.8 2.5-4 2.4-1.6-1.7-7.5-17.5-7.5-20.3 0-3.2 2.7-7.6 4.6-7.6.3 0 5.1 2.3 10.7 5zm697-4.3 6.7.6v18l-21.7-.7c-12-.4-24.6-.9-28-1.2l-6.3-.6V322c0-2 .3-5.8.6-8.4l.7-4.6h20.6c11.3 0 23.6.3 27.4.7zm232.2 11.9c7.7 11.5 8.3 12.8 6.8 13.9-1.8 1.4-2.2.9-14.2-16.8-4.4-6.5-4.7-7.5-3.3-8.5 1-.6 1.8-1.1 1.9-1.1.1-.1 4.1 5.6 8.8 12.5zm109.4-6.8 3.9 5.8-3.4 2.3c-1.9 1.3-3.6 2.2-3.7 2-.2-.2-2-2.7-3.9-5.6l-3.7-5.1 3.2-2.6c1.8-1.4 3.3-2.5 3.4-2.6.1 0 2 2.6 4.2 5.8zm-997.2-2.9c8.2 3.8 16.9 13.6 17.4 19.6.5 6.5.1 7.3-4.8 9.5-8.2 3.6-8.5 3.6-12.1-1.8-5.2-7.6-9.9-11.7-20-17l-9.4-4.9 5.4-3.1c7-3.9 7.4-4 13.8-4.1 3.4 0 7.1.7 9.7 1.8zm697.2-.9h4.6l2.3 5.8c1.2 3.2 2.2 7.5 2.2 9.6v3.9l-13.7-.6c-7.5-.4-16.7-.7-20.5-.7H783V309.7l13.7.6c7.5.4 15.7.7 18.2.7zm235.4 8.2c2.4 3.5 5.2 7.5 6.1 9l1.7 2.6-4.5 3.1-4.5 3.1-3.9-5.2c-6.4-8.9-8.2-11.6-8.2-12.5 0-.6 7.7-6.2 8.7-6.3.1 0 2.2 2.8 4.6 6.2zm51.5 3.8c1.7 2.7 3.2 5.4 3.2 5.9 0 1-6.4 6.1-7.7 6.1-.9 0-7.3-9.5-7.3-10.9 0-.7 6.8-5.9 8-6 .3 0 2 2.2 3.8 4.9zm-706-1.5c.4.3-6.7 52.3-7.4 54.7-.6 2.2-6.1 2.5-8.8.5-2.7-2-3.1-6.6-2.8-32.6l.3-24.3 9.2.7c5.1.4 9.3.8 9.5 1zm44.5.2 18.7.6V382h-3.7c-5.9 0-63.6-3-63.9-3.3-.4-.3 6.5-54.5 7.2-56.5.4-1.4 12.2-1.6 41.7-.5zm-270.7 2.2c3.2 1 10.4 3.1 15.8 4.5 12.7 3.4 25.6 8.4 25.6 9.9 0 .7-1.5 2.9-3.3 4.9l-3.2 3.7-8-1.9c-4.4-1.1-8.1-2.4-8.3-3-.4-1.2-2.9-1.3-3.4-.1-.2.5-4.8.4-10.9-.1-9.3-.9-11.1-.8-14.2.7-2 .9-3.9 2.5-4.2 3.6-.9 2.6-1.5 2.4-6.2-1.6-5.7-4.9-6.1-7.1-1.3-9.5 5.1-2.6 9.8-6.7 11.6-10.1 1.7-3.4 2.2-3.5 10-1zM496 352.7l6.7 30.3h-9.6c-5.3 0-14.7-.3-20.8-.7l-11.3-.6v-59.8l14.1.3 14.2.3 6.7 30.2zm488.4-3.3c10.8 15.1 19.6 27.9 19.6 28.3 0 .8-18.9 14-20.8 14.5-.6.2-10.8-11.8-22.7-26.6L939 338.7l12.2-8.3c6.8-4.5 12.6-8.3 12.9-8.3.4-.1 9.5 12.3 20.3 27.3zm-434.6-24.9c.6.5.6 8.1.3 34.7-.2 19.1-.5 22.7-1.7 23.2-.9.3-11 .6-22.5.6-20.8 0-20.9 0-21.4-2.3-2.5-11.2-12.5-56.8-12.5-57.4 0-.7 57.1.4 57.8 1.2zm17.2 5.6c0 6.7-.1 7-2.2 6.7-2.1-.3-2.3-.9-2.6-7.1-.3-6.6-.3-6.7 2.3-6.7 2.4 0 2.5.2 2.5 7.1zm6-.1c0 6.3-.2 7-2 7s-2-.7-2-7 .2-7 2-7 2 .7 2 7zm38.8-5.4c.8.2 1.2 2.4 1.2 6.4v6h-38v-14.1l17.8.7c9.7.3 18.3.7 19 1zm431.9 9.2c3.8 5.3 7.3 10.2 7.6 10.9.6 1-7.6 7.8-10.2 8.6-.6.1-4.6-5-8.9-11.3l-8-11.5 5.6-3.7c3.1-2 5.9-3.5 6.3-3.2.4.2 3.8 4.8 7.6 10.2zm81.1-4.6 4.1 6.3-2.7 2.2c-1.5 1.2-3.1 2.2-3.7 2.2-.5.1-2.9-2.8-5.2-6.4l-4.2-6.4 2.7-2c1.5-1.1 3.2-2.1 3.8-2.1.6 0 3 2.8 5.2 6.2zm28.9-3 2.2 3.1-8.9 6.4c-4.9 3.4-9.3 6.3-9.8 6.3-1.2 0-4.4-4.8-4-6 .4-1.2 16-12.9 17.3-12.9.6 0 2 1.3 3.2 3.1zm-491.4.5c.4.2.7 2.9.7 5.9v5.4h-8.2c-4.6 0-15.4-.3-24-.7l-15.8-.6v-12l23.3.8c12.7.4 23.5.9 24 1.2zm13.8.3c1.6 0 1.9.8 1.9 6 0 6.7.2 6.5-8.4 5.4l-4.6-.7v-12l4.6.7c2.6.3 5.5.6 6.5.6zm395.5 1.5c1.9 2.9 1.3 4-3.4 6.7-3 1.8-3 1.8-4.7-.9-1.8-2.7-1.8-2.7 1.6-5.5 4.1-3.4 4.4-3.4 6.5-.3zm21.3 5.5c2.8 4.4 5.4 8.6 5.7 9.4.4.9-1 2.6-3.7 4.5-2.3 1.7-4.5 3.1-4.9 3.1-.6 0-4.2-5.1-11.4-16.2l-1.7-2.6 4.3-3.1c2.4-1.6 4.8-3 5.5-3.1.6 0 3.4 3.6 6.2 8zm-371.6-5.3c.4.2.7 2.9.7 6v5.6l-15.7-.6c-8.7-.4-18.2-.7-21-.7H680v-12.2l20.3.7c11.1.4 20.5.9 21 1.2zm106.1-.2c.3.8.1 1.5-.4 1.5-.6 0-1-.7-1-1.5s.2-1.5.4-1.5.6.7 1 1.5zm-80.6 1.1 5.2.7v10.8l-13.7-.3-13.8-.3-.3-5.8-.3-5.7h8.8c4.8 0 11.2.3 14.1.6zm-639.4 1c1.7.7 11.6 12.6 11.6 14.1 0 .9-35.4 17.3-37.4 17.3-1 0-8.1-12.9-7.4-13.5.5-.4 31.3-18.5 31.5-18.5.1 0 .8.3 1.7.6zm663.4 0 9.2.7v10.8l-12.7-.3-12.8-.3-.3-3.4c-.2-1.9-.1-4.4.2-5.7.7-2.7 1.5-2.8 16.4-1.8zm52.5 2.1c.4.2.7 2.6.7 5.4v4.9h-14.4c-7.8 0-17.1-.3-20.5-.6l-6.1-.7v-10.9l19.8.7c10.8.4 20 .9 20.5 1.2zm208.7 13.1 6.4 9.4-2.4 1.8-2.4 1.8-7.8-11.4c-4.3-6.2-7.8-11.7-7.8-12.2s1-1.3 2.2-1.9c2.6-1.1 2.1-1.6 11.8 12.5zm80-7.2c2.3 3.6 4 6.6 3.9 6.8-5.8 4.3-7.8 5.6-8.6 5.6-1.1 0-8.3-11.1-8.3-12.9 0-1 6.8-6.1 8.1-6.1.3 0 2.5 3 4.9 6.6zm50.8.9c2.9 4.1 5.2 7.9 5.2 8.3 0 .8-17.2 13.2-18.3 13.2-.7 0-10.7-14.7-10.7-15.8 0-1 16.7-13.2 18-13.2.3 0 2.9 3.4 5.8 7.5zM834.3 341c7 11.7 19.4 26.9 32.8 40.2l11.8 11.8h-4.7c-2.6 0-13.9-.7-25.2-1.5-11.3-.8-21.1-1.5-21.7-1.5-1 0-1.3-6.4-1.3-28.5 0-26.5.1-28.5 1.8-28.5 1.1.1 3.5 3 6.5 8zm228.7-2.9c0 .4-1.8 1.9-4.1 3.3-3.9 2.6-4.2 2.7-6 1-2.7-2.4-2.5-3 2.3-6.4l4.2-3.1 1.8 2.3c1 1.3 1.8 2.6 1.8 2.9zm14.3-1.2c1.4 2.4 1.5 3 .3 4-1.1.9-1.8.6-3.5-1.5-2.2-2.8-2.5-3.7-1.4-4.7 1.3-1.4 2.9-.6 4.6 2.2zm-53.9 11.7c6 9 7.5 11.9 6.4 12.5-.7.5-1.5.9-1.8.9-.3-.1-4-5.3-8.4-11.6-6.1-9.1-7.6-11.8-6.5-12.5.8-.5 1.7-.9 2-.9.3 0 4.1 5.2 8.3 11.6zm49.7-6.4c1.5 2.8-1.8 3-4.1.1-1.6-2.1-1.8-2.9-.8-4 1.2-1.5 2.4-.6 4.9 3.9zm-925.6 3.3c2.3 2.2 9.1 6.9 15.3 10.5 8.2 4.8 11 6.9 10.6 8-2.1 5.3-1.1 7 1.6 2.6l1.5-2.5 5.3 3.2c2.8 1.8 5.2 3.6 5.2 4.1 0 .5-3 4.8-6.6 9.7l-6.5 8.8-6-3.7c-3.3-2-7.9-5.4-10.1-7.4-2.2-2-4.4-3.8-4.8-4-3.7-1.3-25.3-22.4-28.4-27.5-.8-1.5 5.7-4.6 9.2-4.4 1.2 0 2.2-.4 2.2-.9s1.2-1.6 2.8-2.4c2.4-1.4 2.8-1.3 3.7.2.6.9 2.8 3.5 5 5.7zm985.5-4.6 2 3-3.6 2.7c-3.8 2.9-3.7 2.9-6.5-2-.9-1.5-.6-2.3 1.7-4.2 3.7-3 3.9-3 6.4.5zm-912.2 1.6c2.8 1.6 5.2 3.4 5.2 3.8 0 .5-3.7 5.3-8.1 10.8-6.7 8.2-8.5 9.8-10.2 9.3-1.7-.5-1.9-.3-1.4 1.7.4 1.4-.1 3.3-1.5 5.1-1.9 2.8-2.1 2.8-4.5 1.3-3.3-2.2-4.3-1-1.5 1.7l2.1 2.1-6.6 8.1c-9.9 12.1-8.5 11.3-13.7 8.2-2.9-1.7-4.4-3.2-4-3.9 3.2-5.5 12.8-17.7 14-17.7.8 0 1.4-.8 1.4-1.8 0-2 12.7-20.1 14.7-20.9.7-.3 1.3-1.1 1.3-1.7 0-1.5 6-9.8 6.9-9.4.3.2 3 1.6 5.9 3.3zM567 345c0 5.7-.1 6-2.5 6s-2.5-.3-2.5-6 .1-6 2.5-6 2.5.3 2.5 6zm6 0c0 5.3-.2 6-2 6s-2-.7-2-6 .2-6 2-6 2 .7 2 6zm40-2.3c0 8.8 1 8.3-19.1 8.3H576v-12h37v3.7zm11 10.3v14h-9v-28h9v14zm32.9-12.4 6.1.7v12.9l-12.7-.7c-7.1-.3-15.2-.8-18-1.1l-5.3-.5V340h11.9c6.5 0 14.6.3 18 .6zm408.1 8.5c-2.2 1.6-4.3 2.9-4.7 2.9-1.1-.1-4.6-5-4-5.6.2-.3 2.2-1.8 4.3-3.3l3.8-2.9 2.3 3 2.2 3.1-3.9 2.8zm-995.1-.7c-1.4 1.5-1.1 2.9.6 2.2 1-.4 2.5 1.8 5.5 8.2 5.8 12.4 5.8 12.4 1.2 15-2.2 1.2-4.4 2.2-5 2.2-.6 0-2.5-3.5-4.2-7.8-1.8-4.2-4.5-10.7-6-14.4l-2.9-6.7 4.2-3.1 4.1-3 1.7 3.2c1.1 2 1.4 3.7.8 4.2zm608.1-.3v7.1l-3.1-.6c-1.7-.3-4.7-.6-6.5-.6H665v-13h13v7.1zm20.8-6.1h8.2v14.3l-8.2-.6c-4.6-.4-10.7-.7-13.5-.7H680v-14.3l5.3.7c2.8.3 8.9.6 13.5.6zm21.3 1c1.8 0 1.9 1 1.9 12.4 0 6.8-.3 13.1-.6 14-.5 1.2-2.1 1.6-6.5 1.6H709V341.7l4.6.7c2.6.3 5.5.6 6.5.6zm364.4 4.6c2.9 4.4 3.4 5.8 2.3 6.5-2 1.3-2.1 1.2-5.5-4.1-3.6-5.5-3.9-6.6-2-7.3.6-.3 1.2-.6 1.3-.6.1-.1 1.8 2.4 3.9 5.5zm-904.4-3 3.6.6-4 7.4c-2.2 4.1-4.5 7.4-5 7.4-1.9 0-16.9-9.3-17.5-10.8-1.2-3.1 3.5-5.2 11.7-5.2 4.2 0 9.2.3 11.2.6zm598.2.4c1.6 0 1.7 1.7 1.7 21.3v21.4l-4.2 1.2c-2.4.7-4.9 1.8-5.5 2.3-1 .8-1.3-3.9-1.3-23.2v-24.3l3.8.7c2 .3 4.5.6 5.5.6zm45 1.7c.4.2.7 2.4.7 4.9v4.4h-41v-11.2l19.8.7c10.8.4 20 .9 20.5 1.2zm-627 .7c3.2.7 6 1.6 6.4 1.9.4.4-8.7 13.8-13.3 19.6-.5.6-11.4-6-11.4-7 0-.6 1.8-4.3 4.1-8.4 4.6-8.4 4.6-8.4 14.2-6.1zm879.7-.5c0 .4 1.6 2.9 3.6 5.5 2.9 3.8 3.2 4.7 1.9 5.2-.9.4-1.7.5-1.9.3-2.2-2.9-6.6-10-6.6-10.8 0-.6.7-1.1 1.5-1.1s1.5.4 1.5.9zm63.2 3.4 2.7 4.2-2.7 2.2c-3.7 3.1-4.5 2.9-7.7-1.8-2.2-3.3-2.4-4.4-1.4-5 .8-.4 2.3-1.5 3.4-2.3 1.1-.8 2.2-1.5 2.5-1.6.3 0 1.7 1.9 3.2 4.3zm-33.8 4.1 4 6.8-3.5 2.9c-1.9 1.6-3.9 2.9-4.5 2.9-1 0-9.4-11.2-9.4-12.7 0-1.2 7.4-7.3 8.5-6.9.6.1 2.8 3.3 4.9 7zm15.6-1.8c0 .5-2.1 2.5-4.6 4.3-4.9 3.4-4.9 3.4-7.4-1.1-.8-1.4-.1-2.4 3.7-5.3l4.7-3.6 1.8 2.3c1 1.3 1.8 2.8 1.8 3.4zm-65-1.6 2.1 2.9-12.2 8.2-12.2 8.1-1.8-2.3c-1-1.3-1.9-2.9-1.8-3.4 0-.7 21.5-15.7 23.6-16.4.1-.1 1.1 1.2 2.3 2.9zm23.3 11c4.8 7.1 8.7 13.4 8.7 13.9 0 1.3-5.8 5.3-7 4.9-1.1-.4-19-24.8-19-26 0-.7 7-5.8 8-5.8.3.1 4.4 5.9 9.3 13zm95.7-4.9c0 .3-4.3 3.5-9.5 6.9-9.2 6-9.6 6.2-11 4.4-4.1-5.1-4.2-4.9 6.2-11.8l9.7-6.5 2.3 3.1c1.3 1.8 2.3 3.5 2.3 3.9zM567 360c0 6.8-.1 7-2.5 7s-2.5-.2-2.5-7 .1-7 2.5-7 2.5.2 2.5 7zm6 0c0 6.3-.2 7-2 7s-2-.7-2-7 .2-7 2-7 2 .7 2 7zm39 0v7h-36v-14h36v7zm50.3-3.3c.4.2.7 3.2.7 6.5v6.1l-9.2-.7c-5-.3-13.1-.6-18-.6H627v-13.3l17.3.8c9.4.4 17.5.9 18 1.2zm431.4 5.3c3.1 4.8 4.3 7.4 3.6 8.1-1.5 1.5-11.5-12.1-10.1-13.8.6-.7 1.2-1.3 1.4-1.3.2 0 2.5 3.2 5.1 7zm33.9 2.7c-1.7 1.7-22.8 16.3-23.6 16.3-1 0-6.3-8.1-5.7-8.6.3-.3 6-4.3 12.8-9l12.3-8.4 2.7 4.2c2 3.2 2.4 4.6 1.5 5.5zm-453-7.7h3.4v12h-13v-13.3l3.1.7c1.7.3 4.7.6 6.5.6zm22.2 1h9.2v13.3l-9.7-.6c-5.4-.4-11.3-.7-13-.7H680v-13.3l3.8.7c2 .3 7.9.6 13 .6zm448.5 1.9c1.7 2.9 1.7 3-1.2 5-3.7 2.7-4.5 2.6-6.1-.5-1.3-2.3-1.2-2.7 1.6-4.9 1.6-1.3 3.1-2.4 3.4-2.5.3 0 1.3 1.3 2.3 2.9zM824 366v7h-41v-14h41v7zm264.4-.6c4.8 6.6 5.5 8.6 3.2 8.6-1.8 0-10-12.6-9.1-14 .3-.5.8-1 1-1 .2 0 2.4 2.9 4.9 6.4zm91.5-1.6c1.7 2.7 3.1 5.1 3.1 5.4 0 .8-17.6 12.8-18.7 12.8-.4 0-2.2-2.2-4-4.9l-3.2-4.9 9.7-6.5c5.3-3.6 9.8-6.6 9.8-6.6.1-.1 1.6 2.1 3.3 4.7zm-29 4.1c1.2 1.6 2.1 3.2 2.1 3.5 0 .3-1.9 2-4.2 3.7l-4.3 3-1.8-4.2c-1.4-3.4-1.5-4.4-.5-5 .7-.4 2.2-1.5 3.3-2.3 2.7-2.1 3.1-2 5.4 1.3zm-906.7.8c2.4 2.2 2.1 3.2-3.6 12.1-3.3 5-5.1 7-5.9 6.4-6.4-4.7-9.7-7.5-9.7-8.2 0-.8 7.8-11 9.5-12.3 1.5-1.2 7.5 0 9.7 2zm889 3.4c-2.5 2.1-23.3 15.9-23.9 15.9-.5 0-1.4-1-2.1-2.1-1.7-2.7-1.9-2.5 12.2-12.3l10.9-7.6 1.8 2.7c1 1.5 1.5 3 1.1 3.4zM567 375.5c0 6.3-.1 6.5-2.5 6.5s-2.5-.2-2.5-6.5.1-6.5 2.5-6.5 2.5.2 2.5 6.5zm6 0c0 5.8-.2 6.5-2 6.5s-2-.7-2-6.5.2-6.5 2-6.5 2 .7 2 6.5zm39 0v6.5h-36v-13h36v6.5zm12 9V399h-10v-11.4c0-6.2.3-12.8.6-14.5.6-2.9.9-3.1 5-3.1h4.4v14.5zm37.8-12.9c.8.2 1.2 2.5 1.2 6.9v6.5h-8.8c-4.9 0-13-.3-18-.6l-9.2-.7V370l16.8.6c9.2.3 17.3.7 18 1zM678 379v7h-13v-14h13v7zm20.3-6h7.7v14h-9.2c-5.1 0-11-.3-13-.6l-3.8-.7v-14l5.3.7c2.8.3 8.7.6 13 .6zm438.3 4.5c.7 1.9 1.4 3.8 1.4 4.3s-5 4.2-11 8.2c-10.6 7-11.1 7.2-12.5 5.4-4-5.1-4.3-4.8 8.2-13.3 6.5-4.4 11.9-8.1 12.1-8.1.2 0 1 1.6 1.8 3.5zm22.2 1.5 3.1 5-6 4.1c-3.4 2.3-6.4 3.7-6.9 3.3-.4-.5-1.4-3.2-2.3-6.1l-1.5-5.2 4.7-3c2.5-1.7 4.9-3.1 5.2-3.1.3 0 2 2.2 3.7 5zM824 382.4c0 3.6-.3 6.7-.7 6.9-.5.2-9.6-.1-20.3-.7l-19.5-1.1-.3-5.8-.3-5.7H824v6.4zm-257 8.1c0 6.3-.1 6.5-2.5 6.5s-2.5-.2-2.5-6.5.1-6.5 2.5-6.5 2.5.2 2.5 6.5zm6 0c0 5.8-.2 6.5-2 6.5s-2-.7-2-6.5.2-6.5 2-6.5 2 .7 2 6.5zm39 .5v7h-8.8c-4.9 0-13-.3-18-.6l-9.2-.7V384h36v7z"/><path d="M288 .6c0 1.3 4.2 7.4 5.1 7.4 1.2 0 1.2-.4-.8-4.5-.9-1.9-2.3-3.5-3-3.5-.7 0-1.3.3-1.3.6zM340.5 3c1.3 2.5 3.5 4.1 3.5 2.5 0-1.6-2.6-5.5-3.7-5.5s-1.1.6.2 3zM865.7 2.2c-1.3 5.2-2 17.8-1 17.8.6 0 1.3-1.9 1.6-4.3 1.7-12 1.9-15.7.9-15.7-.5 0-1.2 1-1.5 2.2zM901 .2c.1 2 7.3 19.4 8.6 20.9 3.7 4.1 10.5 2.3 46.9-12.2C969.7 3.6 976.7.4 975.2.2c-1.2-.2-9.3 2.4-18 5.8-22 8.7-40 15-42.7 15-2.5 0-3.9-1.3-5.4-5.2l-1-2.6 17.7-6.5C938.2 2.1 942.5.1 940.3.1c-1.8-.1-9.4 2.1-17 4.9-7.6 2.7-14.3 5-14.9 5-.7 0-2-2.3-3-5-1-2.8-2.4-5-3.1-5-.7 0-1.3.1-1.3.2zM1136.3 2.8c1.5 1.5 2.7 3.1 2.7 3.5 0 .3-5.5 3.9-12.2 7.8-13.3 7.8-15.5 9.4-14.1 10.2.5.3 7.2-3.1 14.8-7.5l13.8-8.2 5.3 5.9 5.2 6-3.1 1.3c-4.4 1.8-22.7 14.2-22.7 15.3 0 1.8 2.3.7 12.3-5.9 15.2-10.1 14.8-10 19.2-4.6 3.5 4.2 7.1 6 5.9 3-1.3-3.3 21.9-17.8 30.8-19.2 3.6-.6 5.6-1.9 4.5-3-.9-.9-10.3 1.9-16.7 5.1a122 122 0 0 0-13.5 8.4c-3.8 2.8-7.3 5.1-7.8 5.1s-1.7-1-2.7-2.2c-1.8-2.3-1.8-2.3 4.2-5.5 3.3-1.8 6.7-2.9 7.6-2.6 1.1.5 1.4.2.9-.9-.4-1.1.6-2.4 3.1-4.2 5-3.4 11.9-10.6 10.3-10.6-.7 0-4.3 2.5-7.9 5.5-3.7 3-7.1 5.5-7.7 5.5-.6 0-3.5-2.5-6.5-5.5s-6.3-5.5-7.4-5.5c-1.6 0-.5 1.6 4.7 6.8l6.7 6.7-4.9 2.8c-2.7 1.5-5.5 2.7-6.3 2.7-.8 0-5.2-4.3-9.9-9.5-4.6-5.2-9-9.5-9.8-9.5-1 0-.6.9 1.2 2.8zM1178.3 26.7c-9.4 3.2-12 10.2-6.2 16.8 1.7 1.9 3.7 3.5 4.5 3.5 2 0 1.8-.3-2.1-4.4-3.9-4.2-4.3-6.1-1.9-9.5 1.5-2.1 6.9-5.1 9.3-5.1.5 0 4.4 4.8 8.8 10.6 4.9 6.6 7.9 9.9 8.1 8.9.3-1.4-12.2-19-15.2-21.3-.7-.6-2.7-.4-5.3.5zM949.2 398.2c.3.7 1.3 1.5 2.4 1.7 1.6.3 1.7.1.5-1.3-1.6-1.9-3.4-2.1-2.9-.4z"/></svg>