<svg xmlns="http://www.w3.org/2000/svg" width="1600" height="533.33" version="1.0" viewBox="0 0 1200 400"><path d="M886.3 13.7c-2.9 1.4-5.3 2.8-5.3 3.3 0 .4 1.1 3.2 2.4 6.1l2.5 5.2 1.2-2.9c.7-1.6 1.4-3 1.4-3.1.1-.2 7.5 2.4 16.5 5.8 16.2 6 17.9 6.2 18 2.4 0-.6-7.3-3.7-16.3-6.9-8.9-3.2-16.3-6-16.5-6.2-.2-.1.2-1.2.8-2.4 1.9-3.5.8-3.8-4.7-1.3zM752.2 15.2c-5.8 3.3-5.8 3.4-1.6 10l2.8 4.3.9-3.1.9-3.2 16.7 4.4C781 30 788.8 32 789.3 32c.4 0 .7-1 .7-2.3 0-2-1.4-2.6-16.6-6.6l-16.6-4.5.7-3.3c.3-1.8.5-3.3.3-3.2-.2 0-2.7 1.4-5.6 3.1zM819.3 15c-2.9 1.7-5.3 3.4-5.3 3.9 0 1.5 4.7 9.2 5.6 9.2.5 0 1.2-1 1.5-2.3.6-2.7-.2-2.8 19.3 2.3 11.8 3.2 15.1 3.7 15.7 2.7.5-.7.7-1.8.6-2.3-.2-.6-7.7-3-16.8-5.4-9-2.4-16.5-4.5-16.6-4.6-.2-.1.1-1.6.6-3.3.5-1.8.9-3.2.8-3.2-.1 0-2.6 1.4-5.4 3zM952.3 15c-2.9 1.7-5.3 3.5-5.3 4 0 .6 1.3 3.1 2.9 5.7 2.3 3.7 3.1 4.4 3.5 3 .3-.9.8-2.4 1.1-3.2.2-.8 1-1.3 1.7-1 .7.3 8.2 2.3 16.7 4.5 12.2 3.3 15.6 3.8 16.2 2.8.5-.7.7-1.8.6-2.3-.2-.6-7.7-3-16.8-5.4-9-2.4-16.5-4.5-16.6-4.6-.2-.1.1-1.6.6-3.3.5-1.8.9-3.2.8-3.2-.1 0-2.6 1.4-5.4 3zM1018.5 15.1c-2.7 1.8-5.1 3.3-5.3 3.4-.4.3 4.9 9.4 5.8 10 .5.3 1.1-.8 1.5-2.4l.6-2.9 16.7 4.4c9.2 2.4 17 4.4 17.5 4.4.4 0 .7-1 .7-2.3 0-2.1-1.2-2.6-16.6-6.7l-16.6-4.3.7-3.4c.3-1.8.5-3.3.3-3.3s-2.5 1.4-5.3 3.1zM1085.3 15c-2.9 1.7-5.3 3.3-5.3 3.6 0 .6 3.5 7.2 4.9 9.3.7 1.2 1.2.9 2.3-1.5l1.3-3.1 16.4 4.4c12.8 3.4 16.6 4 17.3 3.1.4-.7.6-1.8.5-2.3-.2-.6-7.8-3-16.8-5.4-9-2.5-16.5-4.5-16.6-4.6-.2-.1.1-1.6.6-3.3.5-1.8.9-3.2.8-3.2-.1 0-2.6 1.4-5.4 3zM1151.5 15.1c-2.7 1.8-5.1 3.3-5.3 3.4-.2.2 1.2 2.7 3 5.6l3.3 5.4.9-2.8c.6-1.5 1.6-2.7 2.5-2.7.8 0 8.4 1.8 16.9 4.1 8.4 2.2 15.5 3.9 15.7 3.7.2-.2.5-1.2.7-2.2.3-1.7-1.7-2.5-16.5-6.5l-16.9-4.5.7-3.3c.3-1.8.5-3.3.3-3.3s-2.5 1.4-5.3 3.1zM684.7 16.7c-4.7 3.5-4.7 3.5-3.1 6.1.8 1.5 2.6 4 4 5.7l2.4 3v-3.2c0-1.7.3-3.4.8-3.6.4-.2 7.5.9 15.7 2.4 18.8 3.5 19.7 3.6 19.3.7-.3-2.3-.6-2.4-26.6-6.8l-7.4-1.2.4-3.4c.2-1.9.2-3.4-.2-3.3-.3 0-2.6 1.6-5.3 3.6zM617.8 18.3l-4.8 4.2 4.5 5 4.4 5 .1-3.4v-3.4l9 .7c5 .3 13.1.9 18 1.2 8.7.7 9 .6 9-1.4 0-1.6-.8-2.2-3.2-2.6-3.3-.5-27.6-2.6-30.3-2.6-.8 0-1.5-1.3-1.7-3.4l-.3-3.4-4.7 4.1zM17.8 16.6c-2.7.8-4.8 1.7-4.8 2 0 1.6 2.4 10 3 10.8.5.4 1.4-.2 2-1.5.7-1.3 1.4-2.5 1.5-2.7.2-.2 7.1 3.6 15.5 8.4 12 6.9 15.4 8.4 16.1 7.3.5-.8.7-1.8.6-2.3-.2-.5-6.9-4.7-15-9.4l-14.6-8.4 1.5-2.9c1.7-3.4 1.3-3.5-5.8-1.3zM551 19.5l-4.4 4.5 4.7 4.8 4.7 4.7V27h35v-5h-34.9l-.3-3.6-.3-3.5-4.5 4.6zM83 18c-4.9 2-4.9 2.1-2.1 9.5l1.9 5 1.3-3c.7-1.7 1.4-3.1 1.4-3.3.1-.1 7.3 3.1 16.1 7.2 15 7.1 16 7.4 16.8 5.5.5-1 .7-2.1.5-2.4-.3-.2-7.2-3.6-15.4-7.4-14.7-6.9-15.6-7.6-14-11.4.9-2.2-.6-2.1-6.5.3zM149 19.1c-2.4 1.1-4.6 2.2-4.8 2.4-.2.2.8 3 2.3 6.2l2.7 5.8 1.4-3.2L152 27l8.2 3.1c26.4 9.8 25.8 9.6 25.8 6 0-1.3-3.5-3-15.7-7.3l-15.8-5.6.3-3.1c.2-3.6.2-3.6-5.8-1zM214.5 21.6c-2.8 1.9-4.9 4-4.7 4.6.2.6 1.7 3.1 3.5 5.5l3.2 4.5.8-3.1c.9-3.8.5-3.7 18.1-.6 7.7 1.4 14.8 2.5 15.8 2.5 2.7 0 2.3-3.8-.4-4.5-3.9-.8-30.1-5.5-31.1-5.5-.5 0-.7-1.5-.4-3.5.3-1.9.5-3.5.4-3.5-.1 0-2.5 1.6-5.2 3.6zM279.8 23.4l-4.8 4.2 4.5 4.9 4.4 5 .1-3.3c0-3.1.1-3.2 4.3-3.1 2.3 0 10.1.6 17.2 1.3 7.2.7 13.3 1.1 13.8.9.4-.2.7-1.3.7-2.4 0-1-.3-1.9-.7-1.9-.5 0-7.3-.7-15.3-1.5S288.5 26 287.3 26c-1.7 0-2.2-.7-2.5-3.4l-.3-3.4-4.7 4.2zM346 24.5l-4.4 4.5 4.7 4.8 4.7 4.7V32h35v-5h-34.9l-.3-3.6-.3-3.5-4.5 4.6zM411.5 26.5l-3.6 4.5 3.2 2.8c1.8 1.5 4.1 3.3 5.2 4.1 1.8 1.2 1.9 1.1 1.5-2l-.3-3.4 17.5-1.7c9.6-.9 17.6-1.7 17.7-1.7 0-.1-.1-1-.4-2.1-.3-1.1-1.3-2-2.2-2-2 0-23.2 1.8-28.8 2.5-4.2.5-4.3.4-4.3-2.5 0-1.7-.4-3-.9-3s-2.5 2-4.6 4.5zM482.5 26.6c-2 2.5-3.6 4.6-3.4 4.8.2.1 2.5 1.9 5.2 4l4.7 3.8v-6.9l14.8-1.2c20.7-1.7 21.3-1.8 19.3-5-.8-1.2-3.1-1.2-15.2-.2-7.9.7-15.6 1.4-17.1 1.7-2.6.5-2.8.3-2.8-2.5 0-1.7-.4-3.1-.9-3.1s-2.5 2-4.6 4.6zM820.5 82.6c-2.7 1.3-5.4 2.5-5.8 2.7-.4.1.4 2.9 1.9 6.2l2.7 6 1.3-3.2 1.3-3.1 16.3 5.9c15 5.5 16.4 5.8 17.6 4.2.6-.9.9-2 .5-2.3-.5-.4-7.4-3.1-15.4-6-8.1-2.9-15.2-5.6-15.9-6-1-.6-1-1.5-.2-3.9.6-1.7 1-3.1.9-3-.1 0-2.4 1.1-5.2 2.5zM886.5 82.7c-2.7 1.4-5.2 2.7-5.4 2.9-.6.5 4.1 11.4 4.9 11.4.4 0 1.1-1.1 1.4-2.5.4-1.4 1.2-2.5 1.9-2.5s8.2 2.5 16.6 5.5c11.9 4.3 15.6 5.3 16.3 4.3.4-.7.6-1.7.5-2.2-.2-.5-7.6-3.6-16.4-6.9l-16.1-5.9 1-3c.6-1.6.9-3.1.7-3.3-.2-.1-2.6.8-5.4 2.2zM953.3 81.8c-2.3.9-4.4 2-4.7 2.3-.5.5.5 4.3 3 10.9.4 1.1 1 .6 2.2-1.7l1.7-3.2 15.8 7.4c15.1 7.1 15.7 7.3 16.8 5.3.6-1.1.9-2.1.7-2.3-.2-.1-7.4-3.5-16-7.5l-15.7-7.3 1.5-2.8c1.7-3.5.9-3.6-5.3-1.1zM1086 82.9l-5.8 2.7c-.1 0 1 2.7 2.5 5.9l2.6 5.9 1.5-3 1.4-3.1 16.2 5.8c14.7 5.4 16.2 5.7 17.4 4.2.6-.9.9-2 .5-2.3-.5-.4-7.4-3.1-15.4-6-18.2-6.5-17.6-6.1-16.1-9.6.7-1.4 1.1-2.8 1-2.9-.2-.2-2.8.9-5.8 2.4zM753 84a80.7 80.7 0 0 1-5.4 3.3c-.5.2.5 3 2.4 6.2l3.4 5.9 1-3.6 1.1-3.5 16 4.3c8.8 2.4 16.6 4.4 17.3 4.4.8 0 1.2-.9 1-2.2-.3-1.9-2.1-2.6-14.1-5.9-7.5-2-14.9-4-16.3-4.3-2.4-.6-2.5-1-2-4.1.4-1.9.6-3.5.4-3.4-.2 0-2.3 1.3-4.8 2.9zM1018.5 83.2c-2.2 1.1-4.2 2.2-4.4 2.4-.5.5 4.2 11.4 5 11.4.4 0 1-1.1 1.3-2.5.4-1.4 1.3-2.5 2-2.5s8.2 2.5 16.6 5.5c11.9 4.4 15.5 5.3 16.1 4.3.5-.7.7-1.7.6-2.3-.2-.5-7.6-3.6-16.4-6.8-15.9-5.9-16.1-6-15.2-8.4.5-1.3.9-2.6.9-2.9 0-.9-2.7-.2-6.5 1.8zM1151.3 83.3c-2.4 1.1-4.3 2.5-4.3 2.9 0 .5 1.2 3.2 2.7 6.1l2.6 5.2 1-3c.5-1.7 1.1-3.1 1.2-3.3.1-.1 7.5 2.5 16.5 5.8 16.2 6 17.9 6.3 18 2.5 0-.6-7.2-3.7-16.1-6.9l-16.1-5.9.6-2.8c.7-3.5-.3-3.6-6.1-.6zM685.9 85.1c-2.4 1.7-4.8 3.5-5.2 3.9-.5.4.9 3.2 3 6.1l3.8 5.3.5-2.9c.3-1.6 1.2-3.1 2-3.2.8-.2 8.6 1 17.3 2.5 8.6 1.6 15.9 2.6 16.2 2.4 1.4-1.4.3-4.2-1.7-4.7-3.2-.7-30.4-5.5-31.3-5.5-.4 0-.5-1.6-.3-3.5s.3-3.5.2-3.5c0 0-2.1 1.4-4.5 3.1zM617.8 87.4l-4.8 4.2 4.5 4.9 4.4 5 .1-3.3c0-3.8-.8-3.7 20.5-1.8 7.7.7 14.3 1.1 14.8.9.4-.2.7-1.3.7-2.4 0-1-.3-1.9-.7-1.9-.5 0-8-.7-16.8-1.5S624.2 90 623.8 90c-.4 0-.8-1.5-1-3.4l-.3-3.4-4.7 4.2zM18.4 85.8l-5 1.7L15 94l1.6 6.5 1.8-3.3 1.7-3.3 3.7 2.2C37.2 104 49.9 111 50.7 111c1 0 2.7-3 2.1-3.5-.2-.2-6.8-4-14.8-8.6-8-4.5-14.7-8.4-14.9-8.6-.3-.2.3-1.7 1.3-3.3 2-3.5 1.5-3.6-6-1.2zM84.8 86.8c-2.6.9-4.9 2-5.3 2.3-.3.4.4 3.3 1.6 6.5l2.2 5.8 1.5-3.1 1.4-3.1 16.1 7.5c12.2 5.6 16.2 7.1 16.9 6.1.4-.7.6-1.7.5-2.3-.2-.5-7.1-4.1-15.3-7.9-8.2-3.9-15.1-7.1-15.3-7.3-.2-.1.1-1.6.7-3.2 1.2-3.5 1.3-3.5-5-1.3zM551 89.5l-4.4 4.5 4.7 4.8 4.7 4.7V97h35v-5h-34.9l-.3-3.6-.3-3.5-4.5 4.6zM149.8 88.3c-2.7 1.1-4.8 2.5-4.8 2.9 0 .5 1.2 3.2 2.7 6.1l2.6 5.2.9-2.8c.5-1.5 1.5-2.7 2.2-2.7.7 0 8.1 2.5 16.5 5.6 15 5.5 18.3 5.9 16.8 2.2-.3-.8-7.7-4-16.5-7.2-15.9-5.7-16.1-5.8-15.1-8.3 1.5-4 1.5-4-5.3-1zM216.3 89.4c-2.9 1.6-5.3 3.3-5.3 3.8 0 1.2 5.4 9.8 6.2 9.8.5 0 .8-.9.8-2s.6-2.3 1.3-2.6c.8-.3 8.6 1.5 17.5 3.9 15.5 4.2 16.2 4.3 16.8 2.4.3-1 .2-2.2-.3-2.6-.4-.4-6.6-2.3-13.8-4.1-21.6-5.5-19.5-4.6-18.4-8.2.5-1.7.8-3.2.6-3.3-.1-.1-2.6 1.2-5.4 2.9zM281 92.7l-4.5 4 4 4.9 4 4.9.3-3.3c.4-3.8-.2-3.8 19.7-1.7 7.7.8 14.6 1.5 15.3 1.5.6 0 1.2-1.1 1.2-2.5 0-1.9-.5-2.5-2.2-2.5-1.3 0-8.8-.7-16.8-1.5S287.2 95 286.8 95c-.4 0-.8-1.4-1-3.1l-.3-3.1-4.5 3.9zM347.2 94.2l-4.2 4.4 4.5 4.4 4.5 4.4V101h36.1l-.3-2.3c-.3-2.2-.5-2.2-18-2.5l-17.7-.2-.3-3.1-.3-3-4.3 4.3zM413.6 95.5l-4 4.8 4.5 4.1 4.4 4.1.3-3.3c.2-1.7.6-3.2 1-3.2s7.9-.7 16.7-1.5c8.8-.8 16.3-1.5 16.8-1.5.4 0 .7-1.1.7-2.5 0-2.3-.3-2.4-4.2-2-6.5.8-27 2.5-29.5 2.5-1.7 0-2.2-.7-2.5-3.2l-.3-3.1-3.9 4.8zM484.6 96.9l-3.9 5.3 2.9 2.3c1.6 1.3 4 3 5.4 3.9 2.6 1.5 2.6 1.5 2.2-2-.2-1.9-.1-3.4.3-3.4.8 0 27.7-4.8 31.3-5.5 2-.5 3.1-3.3 1.7-4.7-.3-.2-7.3.8-15.7 2.3-20 3.7-19.6 3.7-20-.3l-.3-3.3-3.9 5.4zM886.3 151.2l-5.2 2 2.1 5.7c2.6 7 2.5 6.9 3.9 3.7.7-1.4 1.7-2.6 2.3-2.6.6 0 7.8 3.2 16 7 8.1 3.8 15.2 6.7 15.7 6.4.5-.3.9-1.3.9-2.2 0-1.2-4.4-3.7-15.2-8.8-15.2-7-16-7.6-14.3-11.7.9-2.1.3-2.1-6.2.5zM953.6 151c-2.6 1-5 2.1-5.3 2.4-.5.5 2.6 9.5 3.7 10.9.4.4 1.3-.5 1.9-2.1l1.2-3 16.1 7.5c15.8 7.3 17.7 7.7 17.8 4 0-.7-15.9-8.6-27.8-13.8l-4.3-1.9 1.6-3c1.8-3.5 1.6-3.5-4.9-1zM1019.3 151.2l-5.2 2 2.1 5.7c2.6 7 2.5 6.9 3.9 3.7.7-1.4 1.7-2.6 2.3-2.6.6 0 7.8 3.2 16 7 8.2 3.9 15.3 6.7 15.7 6.3 2.4-2.5.6-3.8-14.1-10.7-15.4-7.2-16.1-7.9-14.5-11.9.9-2.1.3-2.1-6.2.5zM1086.6 151c-2.6 1-5 2.1-5.2 2.3-.4.3 1 4.8 3.2 10.7.4 1.1 1 .7 2.2-1.6l1.7-3.1 15.9 7.4c12.3 5.8 16.1 7.1 16.7 6.1.5-.7.7-1.7.6-2.3-.3-.8-25.8-13.3-30.2-14.8-.6-.3-.6-1.5.2-3.5 1.3-3.7 1.3-3.7-5.1-1.2zM1152.3 151.2l-5.2 2 2.1 5.7c2.6 7 2.5 6.9 3.9 3.7.7-1.4 1.7-2.6 2.3-2.6.6 0 7.8 3.2 16 7 8.2 3.9 15.3 6.7 15.7 6.3 2.4-2.5.6-3.8-14.1-10.7-15.4-7.2-16.1-7.9-14.5-11.9.9-2.1.4-2-6.2.5zM818.7 152.6 814 155l1.4 3.3c2.3 5.6 4.5 9.3 4.6 7.6 0-.8.6-2.3 1.3-3.3 1.3-1.8 2.2-1.6 17 3.8 8.7 3.1 16.1 5.6 16.6 5.6s1.1-.9 1.4-1.9c.4-1.6-1.6-2.7-15.2-7.6-8.6-3.2-16-6.1-16.5-6.6-.6-.5-.5-1.8.2-3.4 1.5-3.2.3-3.2-6.1.1zM752.5 153.5c-2.2 1.4-4.4 2.6-4.9 2.8-.5.2.6 3 2.4 6.2l3.4 5.9.8-3.2c.5-1.8 1.3-3.2 1.9-3.2.6 0 7.8 1.8 15.9 4 17 4.6 18 4.7 18 2 0-1.4-1.1-2.2-4.2-3.1-2.4-.6-9.7-2.6-16.3-4.4l-12-3.2.1-3.2c.2-3.7 0-3.7-5.1-.6zM684.8 155.2c-2.6 1.8-4.8 3.5-4.8 3.8 0 .3 1.7 2.7 3.8 5.5 3.4 4.7 3.7 4.8 4 2.5.2-1.4.7-2.9 1.1-3.3.6-.6 18.2 2 32.4 4.9 2.4.5 2.7.3 2.7-2 0-1.4-.3-2.6-.6-2.6-.7 0-27.8-4.8-31.1-5.5-1.6-.4-2.3-1.4-2.5-3.5l-.3-3.1-4.7 3.3zM19 154.9c-3.6 1.2-5.4 2.2-5.2 3.2.1.8.8 3.6 1.5 6.4l1.4 5 1.6-3.2 1.7-3.2 15.2 8.9c13.5 7.8 15.4 8.7 16.5 7.3.7-.9 1-2 .7-2.4-.2-.5-6.4-4.2-13.7-8.4-7.3-4.1-13.8-7.9-14.5-8.4-1.2-.7-1.1-1.4.2-4 1.9-3.5 2-3.5-5.4-1.2zM617.8 156.6c-2.7 2.3-4.4 4.3-4 5 1.1 1.8 7.1 8.4 7.7 8.4.3 0 .5-1.4.5-3 0-1.7.3-3 .8-3 .4 0 8.1.7 17.1 1.5 9 .8 16.8 1.2 17.2.9 1.8-1.1.9-4.4-1.2-4.4-3.1 0-25.9-2-29.6-2.6-2.7-.4-3.2-.9-3.5-3.5l-.3-3.1-4.7 3.8zM84.5 156.1c-2.7 1.1-5.1 2.2-5.2 2.3-.5.4 2.9 10 3.8 11 .5.5 1.3-.2 1.8-1.7.6-1.5 1.4-2.7 1.8-2.7.5 0 7.7 3.2 16.1 7.2 12.6 5.9 15.5 6.9 16.3 5.7.5-.7.7-1.8.6-2.3-.2-.5-7.2-4.1-15.5-8-15.5-7.2-15.6-7.3-13.7-11.9.9-2.1.2-2.1-6 .4zM551 158.5l-4.4 4.5 4.7 4.8 4.7 4.7V165h35v-5h-34.9l-.3-3.1-.3-3-4.5 4.6zM149.7 157.6c-2.7 1.4-4.7 2.8-4.5 3.2.2.4 1.1 2.8 2.2 5.5 2.1 5.3 3.3 5.9 4.2 2.2.3-1.4 1-2.5 1.5-2.5s8.1 2.6 16.9 5.9c15.1 5.5 16 5.7 16.6 3.9.3-1.1.2-2.3-.3-2.7-.4-.4-5.5-2.5-11.3-4.6-22.3-8-21.1-7.5-20-9.5 1.2-2.2 1.3-4 .3-4-.5.1-3 1.2-5.6 2.6zM215.8 158.8c-2.7 1.5-4.8 3-4.8 3.3 0 .4 1.2 2.7 2.6 5.3 2.5 4.5 4.4 5.9 4.4 3.3.1-3.9 1.4-3.9 17.1.4 8.5 2.3 15.9 4.4 16.6 4.6 1.1.4 2.9-3.4 2-4.3-.4-.4-13.5-4.1-29.4-8.3-4-1.1-4.1-1.2-3.3-4.1 1-3.6.7-3.7-5.2-.2zM282.9 159.6c-1.9 1.4-4 2.9-4.8 3.4-1.2.6-.8 1.7 1.8 5.9 3.4 5.3 5.1 5.8 5.1 1.5 0-1.3.6-2.4 1.3-2.4.6 0 8.4 1.3 17.2 2.9 8.8 1.6 16.3 2.7 16.7 2.5 1-.7 1-4.4 0-4.4-.9 0-28.9-4.8-31.8-5.5-1.7-.4-2-1-1.6-3.5.2-1.6.2-3 0-3s-2 1.2-3.9 2.6zM347 163.5l-4.4 4.5 4.7 4.8 4.7 4.7V170h36.1l-.3-2.3c-.3-2.2-.5-2.2-18-2.5l-17.7-.2-.3-3.1-.3-3-4.5 4.6zM413.7 164.5c-2.1 2.5-3.7 4.9-3.5 5.3.4 1 8.3 8.2 9 8.2.2 0 .2-1.6 0-3.5-.4-3.1-.1-3.5 1.8-3.5 3.2 0 26-2 29.8-2.6 2.4-.4 3.2-1 3.2-2.6 0-2.3 2.8-2.3-26.9-.2l-9 .7-.3-3.2-.3-3.2-3.8 4.6zM484.8 164.5c-2.1 2.4-3.8 4.7-3.8 5.2 0 .4 1.7 2.2 3.8 3.9 5.9 4.8 6.2 4.9 5.5.9-.5-3-.3-3.5 1.3-3.5 3.4 0 28.8-2.1 31.2-2.6 1.4-.3 2.2-1.2 2.2-2.5 0-2.1-.2-2.1-11.7-1.3-6.5.5-14.5.9-17.8.9-5.7 0-6-.1-6.5-2.7l-.5-2.6-3.7 4.3zM891 218.8c-.8.2-3.4 1.2-5.7 2.2l-4.1 1.8 2.1 5.7c1.8 5.1 2.2 5.5 3.3 4 .8-1 1.5-2.3 1.7-2.9.2-.6 6.8 1.9 16 6.2 8.5 3.9 15.8 7.2 16.1 7.2.3 0 1-.8 1.5-1.9.9-1.6-.6-2.6-14.7-9.1-8.6-4-15.8-7.4-16-7.5-.1-.1.2-1.5.8-3 1.2-3.1 1.1-3.4-1-2.7zM953.3 219.3c-4.7 1.1-4.8 1.3-3.2 7.2 1.8 7.1 1.9 7.2 3.6 4.2 1.8-3.5 1-3.7 18.6 6.5 10.9 6.3 14.1 7.7 14.8 6.7a6 6 0 0 0 .9-2.4c0-.6-6.7-4.8-14.8-9.4-8.1-4.7-14.8-8.6-15-8.7-.2-.1.4-1.4 1.3-2.8 1.7-2.5 1.6-2.6-.1-2.5-1.1.1-3.8.6-6.1 1.2zM1019.5 219.4c-2.2.7-4 1.6-3.9 2 .1.4.7 3.2 1.4 6.3l1.2 5.6 2.2-2.8 2.2-2.8 15 8.7c13.4 7.7 15 8.5 16.1 7 .7-.9 1-2 .8-2.4-.3-.4-7-4.5-15-9.1-9.3-5.4-14.4-8.8-14-9.6.3-.7.8-2 1.1-2.8.7-1.8-1.4-1.8-7.1-.1zM1087 219.2c-1.9.5-3.9 1.3-4.4 1.8-.4.4 0 3.4.9 6.6l1.7 5.9 1.5-2.8c1.8-3.5 1-3.7 18.6 6.5 10.9 6.3 14.1 7.7 14.8 6.7a6 6 0 0 0 .9-2.4c0-.6-6.7-4.8-14.8-9.4-8.1-4.7-14.8-8.6-15-8.7-.2-.1.4-1.4 1.3-2.8 1.6-2.5 1.6-2.6-.1-2.5-1.1 0-3.5.5-5.4 1.1zM1152.5 219.4c-2.2.7-4 1.6-3.9 2 .1.4.7 3.2 1.4 6.3l1.2 5.6 2.2-2.8 2.2-2.8 15 8.7c13.4 7.7 15 8.5 16.1 7 .7-.9 1-2 .8-2.4-.3-.4-7-4.5-15-9.1-9.3-5.4-14.4-8.8-14-9.6.3-.7.8-2 1.1-2.8.7-1.8-1.4-1.8-7.1-.1zM819.7 221.5c-2.6 1.2-5 2.5-5.3 2.8-.3.3.8 3.1 2.4 6.3l2.9 5.7 1.1-3.1c.6-1.8 1.3-3.2 1.5-3.2.3 0 7.3 2.5 15.6 5.5s15.8 5.5 16.5 5.5c.8 0 1.6-.9 1.9-1.9.4-1.7-1.5-2.7-15.7-7.7-8.8-3.1-16.3-5.9-16.5-6-.2-.2.1-1.7.7-3.3 1.3-3.6 1.2-3.6-5.1-.6zM751.7 223l-4.7 3 1.9 3.8c1.1 2 2.6 4.6 3.4 5.6 1.4 1.9 1.5 1.8 2.2-1.2.3-1.8.9-3.2 1.2-3.2.4 0 28.2 7.4 32.6 8.6 1.3.4 1.7-.1 1.7-1.9 0-2.3-.9-2.7-16.6-6.8l-16.6-4.4.6-3.3c.2-1.7.2-3.2-.2-3.2s-2.8 1.4-5.5 3zM686 223.6c-1.9 1.4-4.1 2.9-4.9 3.3-1 .6-.6 1.9 2 5.9 3.8 5.7 4.9 6.4 4.9 2.8 0-1.4.4-2.7.8-3 .4-.2 7.9.9 16.7 2.5 8.8 1.6 16.6 2.9 17.3 2.9.6 0 1.2-1 1.2-2.3 0-2.2-.8-2.5-16.7-5.3l-16.8-3v-3.2c0-1.8-.2-3.2-.5-3.2-.3.1-2.1 1.2-4 2.6zM617.8 226.1l-4.8 4.4 4.5 5 4.5 5V233l3.8.5c9.1 1.2 30.2 2.6 31.2 2 .5-.3 1-1.4 1-2.4 0-1.6-1.9-1.9-17.4-3.1l-17.5-1.3-.3-3.5-.3-3.5-4.7 4.4zM18.2 224.3c-2.4.7-4.3 1.6-4.4 2.2 0 .5.6 3.4 1.3 6.3l1.2 5.3 2.2-2.7 2.1-2.7 15 8.7c13.7 7.9 15 8.5 16.2 6.9 1.6-2.2 2-1.9-15.5-11.9-9.2-5.3-13.2-8.1-12.9-9 .4-.8.9-2.1 1.2-2.9.7-1.7-.3-1.8-6.4-.2zM85 225.2c-3 1.2-5.6 2.2-5.7 2.3-.5.3 2.9 9.9 3.7 10.9.5.4 1.4-.2 2-1.5.7-1.3 1.4-2.5 1.5-2.7.1-.1 7 2.9 15.4 6.8 8.3 3.8 15.5 7 16 7 1.3 0 2.3-3.2 1.4-4.1-.4-.4-7.3-3.7-15.3-7.4s-14.7-6.9-14.9-7.1c-.2-.2.1-1.6.8-3 .6-1.5 1-2.8.9-2.9-.2-.2-2.8.6-5.8 1.7zM551.3 227.2c-2.4 2.4-4.3 4.8-4.3 5.4 0 .5 2 3 4.5 5.4l4.5 4.4V235h35v-5h-34.9l-.3-3.6-.3-3.5-4.2 4.3zM150.3 226.6c-2.9 1.3-5.3 2.6-5.3 2.9 0 .2 1.2 3 2.6 6.2l2.7 5.8 1-3.3c.5-1.7 1.3-3.2 1.6-3.2.3 0 7.8 2.7 16.6 5.9 15.7 5.8 17.4 6 17.5 2.5 0-.6-7.2-3.8-16.1-7l-16-5.9.6-3.2c.3-1.8.5-3.3.3-3.2-.2 0-2.7 1.1-5.5 2.5zM216.7 227.4c-6.1 3.6-6.1 3.8-3 9.5 2.9 5.3 4.3 6.3 4.3 3.3.1-4.2 1.1-4.2 17.9.3 9 2.5 16.8 4.2 17.2 3.9.5-.3.9-1.3.9-2.3 0-1.4-3.1-2.6-16.7-6.3-9.3-2.5-16.7-4.9-16.7-5.4.1-.5.5-1.9.9-3.2.8-2.7.1-2.7-4.8.2zM283 228.6c-1.9 1.4-4.1 2.9-4.9 3.3-1.2.7-.8 1.8 1.8 6 3.4 5.3 5.1 5.8 5.1 1.5 0-2.3.3-2.5 2.8-2 12.7 2.6 31.5 5.5 32.3 5.1.5-.4.9-1.4.9-2.4 0-1.4-2.7-2.1-17.2-4.6l-17.3-3 .3-3.3c.2-1.7.2-3.2 0-3.2-.2.1-1.9 1.2-3.8 2.6zM350.9 228.3c-.8.7-3 2.4-4.8 3.9l-3.2 2.8 3.6 4.5c2.1 2.5 4.1 4.5 4.6 4.5s.9-1.4.9-3c0-2.9.1-3 3.8-2.5 2 .3 9.7 1 17.1 1.6 11 .9 13.5.8 14.2-.3 2-3.1 1.4-3.2-19.3-4.9l-14.7-1.2-.3-3.3c-.3-2.8-.5-3.1-1.9-2.1zM413.7 233.5c-2.1 2.5-3.7 4.9-3.5 5.3.4 1 8.3 8.2 9 8.2.2 0 .2-1.6 0-3.5-.4-3.1-.1-3.5 1.8-3.5 3.2 0 26-2 29.8-2.6 2.4-.4 3.2-1 3.2-2.6 0-2.3 2.8-2.3-26.9-.2l-9 .7-.3-3.2-.3-3.2-3.8 4.6zM484.8 233.5c-2.1 2.4-3.8 4.7-3.8 5.2 0 .4 1.7 2.2 3.8 3.9 5.9 4.8 6.2 4.9 5.5.9-.5-3-.3-3.5 1.3-3.5 3.4 0 28.8-2.1 31.2-2.6 1.4-.3 2.2-1.2 2.2-2.5 0-2.1-.2-2.1-11.7-1.3-6.5.5-14.5.9-17.8.9-5.7 0-6-.1-6.5-2.7l-.5-2.6-3.7 4.3zM1021.2 287.3c-4.1.8-5.1 1.3-4.8 2.6.3.9.8 3.8 1.2 6.5l.7 4.8 2.2-2.8 2.2-2.7 14.4 10c13.7 9.6 14.4 10 15.7 8.1.8-1 1.2-2.1 1.1-2.2-.2-.2-6.8-4.7-14.6-10.1-12.4-8.6-14.1-10.1-12.9-11.5 3.7-4.3 3.5-4.4-5.2-2.7zM1088.2 287.2l-5.4 1 .7 5.1c1 7.2 1.8 8.4 3.5 5.2.7-1.4 1.7-2.5 2-2.5.4 0 7.1 4.4 14.8 9.9 10.1 7.1 14.3 9.6 15.1 8.8.6-.6 1.1-1.6 1.1-2.2 0-.6-6.3-5.5-14.1-10.9-14-9.7-14-9.8-12.5-12.1 1.8-2.7 2-3.6.9-3.4-.5.1-3.2.6-6.1 1.1zM1155.2 287.3c-2.9.7-5.3 1.5-5.4 2 0 .4.3 3.3.7 6.5l.7 5.7 2.2-2.8 2.3-2.8 14.4 10.1c12.9 9 14.5 9.9 15.6 8.4.7-.9 1-2 .8-2.4-.3-.4-6.6-5-14-10.1s-13.5-9.7-13.5-10.2c0-.4.7-1.9 1.6-3.2 1.8-2.8 2-2.8-5.4-1.2zM887 289.5c-3 1.2-5.4 2.6-5.3 3.1.1.5 1.1 3.4 2.2 6.4l1.9 5.5 1.2-3.3c.7-1.7 1.4-3.2 1.7-3.2.3 0 7.6 3.3 16.3 7.4 15.5 7.2 15.8 7.3 16.8 5.2.9-2.1.1-2.6-14.9-9.6-8.7-4-15.9-7.5-15.9-7.7 0-.2.5-1.3 1.1-2.4 1.7-3.3.6-3.6-5.1-1.4zM954.3 288.3c-2.3.7-4.4 1.5-4.8 1.8-.7.8 1.4 10 2.6 11.3.6.6.9.6.9 0 0-.5.7-1.7 1.4-2.7 1.3-1.7 2.4-1.3 16.6 6.9 12.3 7.1 15.3 8.5 16.1 7.3.5-.8.7-1.9.6-2.4-.2-.6-6.9-4.8-15-9.4l-14.6-8.5 1.5-2.8c1.7-3.2 1.4-3.3-5.3-1.5zM819.5 290.7c-2.7 1.4-5.1 2.7-5.3 2.8-.2.2 1 2.9 2.6 6.1l2.9 5.7 1.1-3.1 1.1-3.2 12.8 4.6c7 2.5 14.5 5.2 16.6 6 3.6 1.3 3.8 1.2 4.6-.9.5-1.2.8-2.3.7-2.3 0-.1-7.4-2.7-16.3-5.9-9-3.2-16.3-6.1-16.3-6.6 0-.4.4-1.9 1-3.3 1.2-3.2.8-3.2-5.5.1zM752.3 292c-2.9 1.7-5.3 3.2-5.3 3.4 0 .8 5.2 9.6 6 10.1.5.3 1.1-.8 1.5-2.5.4-1.6.7-3 .8-3 .1 0 7.6 2 16.7 4.5s16.8 4.5 17.3 4.5c.4 0 .7-1 .7-2.3 0-2-1.4-2.6-16.6-6.6l-16.6-4.5.7-3.3c.3-1.8.5-3.3.3-3.3s-2.7 1.4-5.5 3zM684.7 293.7c-4.7 3.5-4.7 3.5-3.1 6.1.8 1.5 2.6 4 4 5.7l2.4 3v-3.2c0-1.7.3-3.4.8-3.6.4-.2 7.5.9 15.7 2.4 18.9 3.5 19.7 3.6 19.3.6-.3-2-1.5-2.4-17.1-5.1l-16.9-3 .4-3.3c.2-1.8.2-3.3-.2-3.2-.3 0-2.6 1.6-5.3 3.6zM617.7 295.3l-4.7 4.2 4.5 5 4.4 5 .1-3.4v-3.4l9 .7c5 .3 13.1.9 18 1.2 8.7.7 9 .6 9-1.4 0-1.6-.8-2.2-3.2-2.6-3.3-.5-27.6-2.6-30.3-2.6-.9 0-1.5-1.3-1.7-3.5l-.3-3.4-4.8 4.2zM17.9 293.6l-4.7 1.4 1.6 6.2 1.5 6.1 2.1-2.6 2.2-2.7 14.8 8.5c11.8 6.8 15.1 8.3 16.2 7.4.8-.6 1.4-1.5 1.4-1.9 0-.4-6-4.2-13.3-8.4-18.3-10.4-17.5-9.8-15.4-13 1.7-2.5 1.7-2.6 0-2.5-1 .1-3.9.7-6.4 1.5zM551 296.5l-4.4 4.5 4.7 4.8 4.7 4.7V304h35v-5h-34.9l-.3-3.6-.3-3.5-4.5 4.6zM84 294.7c-2.5.9-4.7 1.7-4.8 1.9-.2.1.6 3 1.9 6.4l2.2 6.2 1.6-3.1 1.6-3.1 15.9 7.5c8.8 4.1 16 7.4 16.1 7.3.2-.2.5-1.2.9-2.4.6-1.8-1-2.8-14.9-9.4-8.5-4-15.5-7.7-15.5-8.2 0-.5.5-1.8 1-2.9 1.3-2.3.3-2.4-6-.2zM150.3 295.8c-2.9 1.4-5.3 3-5.3 3.4 0 .5 1.2 3.2 2.7 6.1l2.6 5.2 1-3c.5-1.7 1.1-3.1 1.2-3.2.1-.2 7.5 2.4 16.5 5.7 12.4 4.5 16.6 5.7 17.2 4.8 1.5-2.4.8-3.4-2.9-4.7-2.1-.8-9.4-3.4-16.1-5.9l-12.4-4.5.7-3.3c.3-1.9.5-3.4.3-3.3a54 54 0 0 0-5.5 2.7zM216.3 297.1c-2.9 1.7-5.3 3.3-5.3 3.6 0 1 5.5 10.3 6.1 10.3.4 0 .9-1.3 1.2-2.9l.6-2.9 14.8 3.9c18.1 4.9 19.7 5.1 20.1 2.4.2-1.8-1.5-2.5-16.4-6.4l-16.6-4.4.5-3.4c.3-1.8.5-3.3.4-3.3-.1 0-2.6 1.4-5.4 3.1zM282.5 298.1c-2.2 1.7-4.4 3.4-4.8 3.8-.9.9 5.1 10.1 6.4 10.1.4 0 .9-1.2 1.1-2.8.2-1.7.8-2.6 1.8-2.5.8.1 8.4 1.4 16.8 2.9 10.8 1.8 15.7 2.3 16.4 1.6 2.6-2.6-.3-3.8-16.9-6.6l-16.9-2.8.4-3.4c.2-1.9.3-3.4.1-3.3-.2 0-2.2 1.4-4.4 3zM347.7 300.3l-4.8 4.2 4.5 5 4.5 5 .1-3.4v-3.4l8.8.6c4.8.4 12.6.9 17.3 1.3 7.7.6 8.7.5 9.3-1.1.3-1 .4-2 .1-2.3-.4-.5-26.9-3.1-32.2-3.2-1.8 0-2.2-.7-2.5-3.5l-.3-3.4-4.8 4.2zM414.1 301.4c-4.8 4.9-4.9 4.6.8 10.8 3.2 3.6 4.1 3.5 4.1-.2v-3h35v-5h-34.9l-.3-3.6-.3-3.5-4.4 4.5zM484.5 303.4l-3.9 4.8 4.4 3.9c2.5 2.1 4.8 3.9 5.1 3.9.3 0 .4-1.3.1-2.9-.4-2.7-.1-3 2.9-3.5 3.4-.5 27.6-2.6 30.4-2.6.9 0 1.5-1 1.5-2.5 0-1.4-.3-2.5-.7-2.5-.5 0-8 .7-16.8 1.5s-16.3 1.5-16.7 1.5c-.4 0-1.1-1.4-1.6-3.2l-.8-3.1-3.9 4.7zM886.3 356.2l-5.2 2 2.1 5.7c2.6 7 2.5 6.9 3.9 3.7.7-1.4 1.7-2.6 2.3-2.6.6 0 7.8 3.2 16 7 8.1 3.8 15.2 6.7 15.7 6.4.5-.3.9-1.3.9-2.2 0-1.2-4.4-3.7-15.2-8.8-15.2-7-16-7.6-14.3-11.7.9-2.1.3-2.1-6.2.5zM953.6 356c-2.6 1-5 2.1-5.3 2.4-.5.5 2.6 9.5 3.7 10.9.4.4 1.3-.5 1.9-2.1l1.2-3 16.1 7.5c15.8 7.3 17.7 7.7 17.8 4 0-.7-15.9-8.6-27.8-13.8l-4.3-1.9 1.6-3c1.8-3.5 1.6-3.5-4.9-1zM1019.3 356.2l-5.2 2 2.1 5.7c2.6 7 2.5 6.9 3.9 3.7.7-1.4 1.7-2.6 2.3-2.6.6 0 7.8 3.2 16 7 8.2 3.9 15.3 6.7 15.7 6.3 2.4-2.5.6-3.8-14.1-10.7-15.4-7.2-16.1-7.9-14.5-11.9.9-2.1.3-2.1-6.2.5zM1086.6 356c-2.6 1-5 2.1-5.2 2.3-.4.3 1 4.8 3.2 10.7.4 1.1 1 .7 2.2-1.6l1.7-3.1 15.9 7.4c12.3 5.8 16.1 7.1 16.7 6.1.5-.7.7-1.7.6-2.3-.3-.8-25.8-13.3-30.2-14.8-.6-.3-.6-1.5.2-3.5 1.3-3.7 1.3-3.7-5.1-1.2zM1152.3 356.2l-5.2 2 2.1 5.7c2.6 7 2.5 6.9 3.9 3.7.7-1.4 1.7-2.6 2.3-2.6.6 0 7.8 3.2 16 7 8.2 3.9 15.3 6.7 15.7 6.3 2.4-2.5.6-3.8-14.1-10.7-15.4-7.2-16.1-7.9-14.5-11.9.9-2.1.4-2-6.2.5zM818.7 357.6 814 360l1.4 3.3c2.3 5.6 4.5 9.3 4.6 7.6 0-.8.6-2.3 1.3-3.3 1.3-1.8 2.2-1.6 17 3.8 8.7 3.1 16.1 5.6 16.6 5.6s1.1-.9 1.4-1.9c.4-1.6-1.6-2.7-15.2-7.6-8.6-3.2-16-6.1-16.5-6.6-.6-.5-.5-1.8.2-3.4 1.5-3.2.3-3.2-6.1.1zM752.5 358.5c-2.2 1.4-4.4 2.6-4.9 2.8-.5.2.6 3 2.4 6.2l3.4 5.9.8-3.2c.5-1.8 1.3-3.2 1.9-3.2.6 0 7.8 1.8 15.9 4 17 4.6 18 4.7 18 2 0-1.4-1.1-2.2-4.2-3.1-2.4-.6-9.7-2.6-16.3-4.4l-12-3.2.1-3.2c.2-3.7 0-3.7-5.1-.6zM684.8 360.2c-2.6 1.8-4.8 3.5-4.8 3.8 0 .3 1.7 2.7 3.8 5.5 3.4 4.7 3.7 4.8 4 2.5.2-1.4.7-2.9 1.1-3.3.6-.6 18.2 2 32.4 4.9 2.4.5 2.7.3 2.7-2 0-1.4-.3-2.6-.6-2.6-.7 0-27.8-4.8-31.1-5.5-1.6-.4-2.3-1.4-2.5-3.5l-.3-3.1-4.7 3.3zM19 359.9c-3.6 1.2-5.4 2.2-5.2 3.2.1.8.8 3.6 1.5 6.4l1.4 5 1.6-3.2 1.7-3.2 15.2 8.9c13.5 7.8 15.4 8.7 16.5 7.3.7-.9 1-2 .7-2.4-.2-.5-6.4-4.2-13.7-8.4-7.3-4.1-13.8-7.9-14.5-8.4-1.2-.7-1.1-1.4.2-4 1.9-3.5 2-3.5-5.4-1.2zM617.8 361.6c-2.7 2.3-4.4 4.3-4 5 1.1 1.8 7.1 8.4 7.7 8.4.3 0 .5-1.4.5-3 0-1.7.3-3 .8-3 .4 0 8.1.7 17.1 1.5 9 .8 16.8 1.2 17.2.9 1.8-1.1.9-4.4-1.2-4.4-3.1 0-25.9-2-29.6-2.6-2.7-.4-3.2-.9-3.5-3.5l-.3-3.1-4.7 3.8zM84.5 361.1c-2.7 1.1-5.1 2.2-5.2 2.3-.5.4 2.9 10 3.8 11 .5.5 1.3-.2 1.8-1.7.6-1.5 1.4-2.7 1.8-2.7.5 0 7.7 3.2 16.1 7.2 12.6 5.9 15.5 6.9 16.3 5.7.5-.7.7-1.8.6-2.4-.2-.5-7.2-4.1-15.6-7.9-15.6-7.2-15.6-7.1-13.6-11.9.9-2.1.2-2.1-6 .4zM551 363.5l-4.4 4.5 4.7 4.8 4.7 4.7V370h35v-5h-34.9l-.3-3.1-.3-3-4.5 4.6zM149.7 362.6c-2.7 1.4-4.7 2.8-4.5 3.2.2.4 1.1 2.8 2.2 5.5 2.1 5.3 3.3 5.9 4.2 2.2.3-1.4 1-2.5 1.5-2.5s8.1 2.6 16.9 5.9c15.1 5.5 16 5.7 16.6 3.9.3-1.1.2-2.3-.3-2.7-.4-.4-5.5-2.5-11.3-4.6-22.3-8-21.1-7.5-20-9.5 1.2-2.2 1.3-4 .3-4-.5.1-3 1.2-5.6 2.6zM215.8 363.8c-2.7 1.5-4.8 3-4.8 3.3 0 1.3 5.2 9.9 6 9.9.4 0 1.1-1.1 1.4-2.5.4-1.4 1-2.5 1.4-2.5.4 0 7.9 2 16.7 4.4 15.9 4.4 17.4 4.5 17.5.9 0-.7-1.7-1.7-3.7-2.2-14.5-3.7-28-7.3-29-7.6-.8-.3-.9-1.3-.3-3.4 1-3.7.8-3.8-5.2-.3zM282.9 364.6c-1.9 1.4-4 2.9-4.8 3.4-1.2.6-.8 1.7 1.8 5.9 3.4 5.3 5.1 5.8 5.1 1.5 0-2.3.3-2.4 3.3-1.9 15.4 2.8 31.3 5.2 32 4.8.9-.6.9-4.3-.1-4.3-.9 0-28.9-4.8-31.8-5.5-1.7-.4-2-1-1.6-3.5.2-1.6.2-3 0-3s-2 1.2-3.9 2.6zM347 368.5l-4.4 4.5 4.7 4.8 4.7 4.7V375h36.1l-.3-2.3c-.3-2.2-.5-2.2-18-2.5l-17.7-.2-.3-3.1-.3-3-4.5 4.6zM413.7 369.5c-2.1 2.5-3.7 4.9-3.5 5.3.4 1 8.3 8.2 9 8.2.2 0 .2-1.6 0-3.5-.4-3.1-.1-3.5 1.8-3.5 3.2 0 26-2 29.8-2.6 2.4-.4 3.2-1 3.2-2.6 0-2.3 2.8-2.3-26.9-.2l-9 .7-.3-3.2-.3-3.2-3.8 4.6zM484.8 369.5c-2.1 2.4-3.8 4.7-3.8 5.2 0 .4 1.7 2.2 3.8 3.9 5.9 4.8 6.2 4.9 5.5.9-.5-3-.3-3.5 1.3-3.5 3.4 0 28.8-2.1 31.2-2.6 1.4-.3 2.2-1.2 2.2-2.5 0-2.1-.2-2.1-11.7-1.3-6.5.5-14.5.9-17.8.9-5.7 0-6-.1-6.5-2.7l-.5-2.6-3.7 4.3z"/></svg>