<svg xmlns="http://www.w3.org/2000/svg" width="1600" height="533.33" version="1.0" viewBox="0 0 1200 400"><path d="M25.7 12c-.3 1.3-1.4 2-2.9 2-3.4 0-8.7 3.6-9.9 6.8-1.8 4.5-.4 10.3 3.1 13.4 1.6 1.6 4 2.8 5.3 2.8 3.4 0 4.6 1.3 4.3 4.5-.3 2.4-.9 3.1-3.4 3.6-7.3 1.5-10.8 6.2-9.8 13.4.5 4.6 5.2 9.5 8.9 9.5 3.5 0 4.7 1.4 4.4 5-.2 3-.7 3.5-3.4 4.1-7.4 1.5-10.9 6.2-9.9 13.4.5 4.6 5.2 9.5 8.9 9.5 3.4 0 4.6 1.3 4.3 4.5-.3 2.4-.9 3.1-3.4 3.6-7.3 1.5-10.8 6.2-9.8 13.4.5 4.6 5.2 9.5 8.9 9.5 3.5 0 4.7 1.4 4.4 5-.2 3-.7 3.5-3.4 4.1-7.4 1.5-10.9 6.2-9.9 13.4.5 4.6 5.2 9.5 8.9 9.5 3.4 0 4.6 1.3 4.3 4.5-.3 2.4-.9 3.1-3.4 3.6-7.3 1.5-10.8 6.2-9.8 13.4.5 4.6 5.2 9.5 8.9 9.5 3.5 0 4.7 1.4 4.4 5-.2 3-.7 3.5-3.4 4.1-7.4 1.5-10.9 6.2-9.9 13.4.5 4.6 5.2 9.5 8.9 9.5 3.4 0 4.6 1.3 4.3 4.5-.3 2.4-.9 3.1-3.4 3.6-7.3 1.5-10.8 6.2-9.8 13.4.5 4.6 5.2 9.5 8.9 9.5 3.5 0 4.7 1.4 4.4 5-.2 3-.7 3.5-3.4 4.1-7.4 1.5-10.9 6.2-9.9 13.4.5 4.6 5.2 9.5 8.9 9.5 3.4 0 4.6 1.3 4.3 4.5-.3 2.4-.9 3.1-3.4 3.6-7.3 1.5-10.8 6.2-9.8 13.4.5 4.4 5.1 9.5 8.5 9.5 3.3 0 5.1 1.1 5.1 3.1 0 1 .7 1.9 1.5 1.9s1.5-.9 1.5-1.9c0-2 1.8-3.1 5.1-3.1 3.4 0 8-5.1 8.5-9.5 1-7.2-2.5-11.9-9.8-13.4-2.5-.5-3.1-1.2-3.4-3.6-.3-3.2.9-4.5 4.3-4.5 3.7 0 8.4-4.9 8.9-9.5 1-7.2-2.5-11.9-9.9-13.4-2.7-.6-3.2-1.1-3.4-4.1-.3-3.6.9-5 4.4-5 3.7 0 8.4-4.9 8.9-9.5 1-7.2-2.5-11.9-9.8-13.4-2.5-.5-3.1-1.2-3.4-3.6-.3-3.2.9-4.5 4.3-4.5 3.7 0 8.4-4.9 8.9-9.5 1-7.2-2.5-11.9-9.9-13.4-2.7-.6-3.2-1.1-3.4-4.1-.3-3.6.9-5 4.4-5 3.7 0 8.4-4.9 8.9-9.5 1-7.2-2.5-11.9-9.8-13.4-2.5-.5-3.1-1.2-3.4-3.6-.3-3.2.9-4.5 4.3-4.5 3.7 0 8.4-4.9 8.9-9.5 1-7.2-2.5-11.9-9.9-13.4-2.7-.6-3.2-1.1-3.4-4.1-.3-3.6.9-5 4.4-5 3.7 0 8.4-4.9 8.9-9.5 1-7.2-2.5-11.9-9.8-13.4-2.5-.5-3.1-1.2-3.4-3.6-.3-3.2.9-4.5 4.3-4.5 3.7 0 8.4-4.9 8.9-9.5 1-7.2-2.5-11.9-9.9-13.4-2.7-.6-3.2-1.1-3.4-4.1-.3-3.6.9-5 4.4-5 3.7 0 8.4-4.9 8.9-9.5 1-7.2-2.5-11.9-9.8-13.4-2.5-.5-3.1-1.2-3.4-3.6-.3-3.2.9-4.5 4.3-4.5 1.3 0 3.7-1.2 5.3-2.8 3.5-3.1 4.9-8.9 3.1-13.4-1.2-3.2-6.5-6.8-9.9-6.8-1.5 0-2.6-.7-2.9-2-.3-1.1-1.1-2-1.8-2s-1.5.9-1.8 2zm.1 13.8.3 8.2h-2.6c-5.3 0-9-6.8-6.9-12.5.7-1.8 6.2-4.6 7.9-4.1.6.1 1.1 3.9 1.3 8.4zm8.3-7.8c.5 0 1.8.9 2.9 2 4.5 4.5.8 14-5.5 14-2.5 0-2.5-.1-2.5-7.8 0-8.2.5-9.6 2.8-8.7.7.3 1.8.5 2.3.5zm-8.3 38.8.3 8.2h-2.6c-5.3 0-9-6.8-6.9-12.5.7-1.8 6.2-4.6 7.9-4.1.6.1 1.1 3.9 1.3 8.4zm8.3-7.8c.5 0 1.8.9 2.9 2 4.5 4.5.8 14-5.5 14-2.5 0-2.5-.1-2.5-7.8 0-8.2.5-9.6 2.8-8.7.7.3 1.8.5 2.3.5zm-8.3 39.8.3 8.2h-2.6c-5.3 0-9-6.8-6.9-12.5.7-1.8 6.2-4.6 7.9-4.1.6.1 1.1 3.9 1.3 8.4zm8.3-7.8c.5 0 1.8.9 2.9 2 4.5 4.5.8 14-5.5 14-2.5 0-2.5-.1-2.5-7.8 0-8.2.5-9.6 2.8-8.7.7.3 1.8.5 2.3.5zm-8.3 38.8.3 8.2h-2.6c-5.3 0-9-6.8-6.9-12.5.7-1.8 6.2-4.6 7.9-4.1.6.1 1.1 3.9 1.3 8.4zm8.3-7.8c.5 0 1.8.9 2.9 2 4.5 4.5.8 14-5.5 14-2.5 0-2.5-.1-2.5-7.8 0-8.2.5-9.6 2.8-8.7.7.3 1.8.5 2.3.5zm-8.3 39.8.3 8.2h-2.6c-5.3 0-9-6.8-6.9-12.5.7-1.8 6.2-4.6 7.9-4.1.6.1 1.1 3.9 1.3 8.4zm8.3-7.8c.5 0 1.8.9 2.9 2 4.5 4.5.8 14-5.5 14-2.5 0-2.5-.1-2.5-7.8 0-8.2.5-9.6 2.8-8.7.7.3 1.8.5 2.3.5zm-8.3 38.8.3 8.2h-2.6c-5.3 0-9-6.8-6.9-12.5.7-1.8 6.2-4.6 7.9-4.1.6.1 1.1 3.9 1.3 8.4zm8.3-7.8c.5 0 1.8.9 2.9 2 4.5 4.5.8 14-5.5 14-2.5 0-2.5-.1-2.5-7.8 0-8.2.5-9.6 2.8-8.7.7.3 1.8.5 2.3.5zm-8.3 39.8.3 8.2h-2.6c-5.3 0-9-6.8-6.9-12.5.7-1.8 6.2-4.6 7.9-4.1.6.1 1.1 3.9 1.3 8.4zm8.3-7.8c.5 0 1.8.9 2.9 2 4.5 4.5.8 14-5.5 14-2.5 0-2.5-.1-2.5-7.8 0-8.2.5-9.6 2.8-8.7.7.3 1.8.5 2.3.5zm-8.3 38.8.3 8.2h-2.6c-5.3 0-9-6.8-6.9-12.5.7-1.8 6.2-4.6 7.9-4.1.6.1 1.1 3.9 1.3 8.4zm8.3-7.8c.5 0 1.8.9 2.9 2 4.5 4.5.8 14-5.5 14-2.5 0-2.5-.1-2.5-7.8 0-8.2.5-9.6 2.8-8.7.7.3 1.8.5 2.3.5zm-8.3 39.8.3 8.2h-2.6c-5.3 0-9-6.8-6.9-12.5.7-1.8 6.2-4.6 7.9-4.1.6.1 1.1 3.9 1.3 8.4zm8.3-7.8c.5 0 1.8.9 2.9 2 4.5 4.5.8 14-5.5 14-2.5 0-2.5-.1-2.5-7.8 0-8.2.5-9.6 2.8-8.7.7.3 1.8.5 2.3.5zm-8.3 38.8.3 8.2h-2.6c-5.3 0-9-6.8-6.9-12.5.7-1.8 6.2-4.6 7.9-4.1.6.1 1.1 3.9 1.3 8.4zm8.3-7.8c.5 0 1.8.9 2.9 2 4.5 4.5.8 14-5.5 14-2.5 0-2.5-.1-2.5-7.8 0-8.2.5-9.6 2.8-8.7.7.3 1.8.5 2.3.5zM838 11.9c0 1.4-1 2-3.9 2.5-5.3.8-9.1 5.3-9.1 10.7 0 7.1 3.4 11 10.5 12.1 1.5.2 2.1 1.2 2.3 3.9.3 3.5.2 3.6-3.7 4.3-5.3.8-9.1 5.3-9.1 10.7 0 7.1 3.4 11 10.5 12.1 1.6.2 2.1 1.2 2.3 4.4.3 4.1.3 4.1-3.7 4.8-5.3.8-9.1 5.3-9.1 10.7 0 7.1 3.4 11 10.5 12.1 1.5.2 2.1 1.2 2.3 3.9.3 3.5.2 3.6-3.7 4.3-5.3.8-9.1 5.3-9.1 10.7 0 7.1 3.4 11 10.5 12.1 1.6.2 2.1 1.2 2.3 4.4.3 4.1.3 4.1-3.7 4.8-5.3.8-9.1 5.3-9.1 10.7 0 7.1 3.4 11 10.5 12.1 1.5.2 2.1 1.2 2.3 3.9.3 3.5.2 3.6-3.7 4.3-5.3.8-9.1 5.3-9.1 10.7 0 7.1 3.4 11 10.5 12.1 1.6.2 2.1 1.2 2.3 4.4.3 4.1.3 4.1-3.7 4.8-5.3.8-9.1 5.3-9.1 10.7 0 7.1 3.4 11 10.5 12.1 1.5.2 2.1 1.2 2.3 3.9.3 3.5.2 3.6-3.7 4.3-5.3.8-9.1 5.3-9.1 10.7 0 7.1 3.4 11 10.5 12.1 1.6.2 2.1 1.2 2.3 4.4.3 4.1.3 4.1-3.7 4.8-5.3.8-9.1 5.3-9.1 10.7 0 7.1 3.4 11 10.5 12.1 1.5.2 2.1 1.2 2.3 3.9.3 3.5.2 3.6-3.7 4.3-5.3.8-9.1 5.3-9.1 10.7 0 7.1 3.4 11 10.5 12.1 1.2.2 2.1 1.2 2.3 2.6.5 3 3.9 3 4.4 0 .2-1.8 1.2-2.4 4.2-2.9 7.3-1.2 11.3-9 8.2-16.3-1.6-3.8-6.1-6.6-10.6-6.6-1.8 0-2.1-.5-1.8-3.7.3-3.5.5-3.8 4.2-4.4 7.3-1.2 11.3-9 8.2-16.3-1.6-3.8-6.1-6.6-10.6-6.6-1.9 0-2.1-.5-1.8-4.2.3-4.1.4-4.3 4.2-4.9 7.3-1.2 11.3-9 8.2-16.3-1.6-3.8-6.1-6.6-10.6-6.6-1.8 0-2.1-.5-1.8-3.7.3-3.5.5-3.8 4.2-4.4 7.3-1.2 11.3-9 8.2-16.3-1.6-3.8-6.1-6.6-10.6-6.6-1.9 0-2.1-.5-1.8-4.2.3-4.1.4-4.3 4.2-4.9 7.3-1.2 11.3-9 8.2-16.3-1.6-3.8-6.1-6.6-10.6-6.6-1.8 0-2.1-.5-1.8-3.7.3-3.5.5-3.8 4.2-4.4 7.3-1.2 11.3-9 8.2-16.3-1.6-3.8-6.1-6.6-10.6-6.6-1.9 0-2.1-.5-1.8-4.2.3-4.1.4-4.3 4.2-4.9 7.3-1.2 11.3-9 8.2-16.3-1.6-3.8-6.1-6.6-10.6-6.6-1.8 0-2.1-.5-1.8-3.7.3-3.5.5-3.8 4.2-4.4 7.3-1.2 11.3-9 8.2-16.3-1.6-3.8-6.1-6.6-10.6-6.6-1.9 0-2.1-.5-1.8-4.2.3-4.1.4-4.3 4.2-4.9 7.3-1.2 11.3-9 8.2-16.3-1.6-3.8-6.1-6.6-10.6-6.6-1.8 0-2.1-.5-1.8-3.7.3-3.5.5-3.8 4.2-4.4 7.3-1.2 11.3-9 8.2-16.3-1.6-3.7-6.1-6.6-10.6-6.6-1.3 0-2-.7-2-2s-.7-2-2-2-2 .7-2 1.9zm0 13.6c0 7.9-.1 8.5-2 8.5-1.2 0-3.2-1.1-4.5-2.5-4-4-3-11.6 1.8-13.5 4.5-1.8 4.7-1.4 4.7 7.5zm8.8-7.4c7.6 2.6 5.7 15.9-2.3 15.9-2.5 0-2.5-.1-2.5-8.5 0-4.7.4-8.5.9-8.5.4 0 2.2.5 3.9 1.1zM838 56.5c0 7.9-.1 8.5-2 8.5-1.2 0-3.2-1.1-4.5-2.5-4-4-3-11.6 1.8-13.5 4.5-1.8 4.7-1.4 4.7 7.5zm8.8-7.4c7.6 2.6 5.7 15.9-2.3 15.9-2.5 0-2.5-.1-2.5-8.5 0-4.7.4-8.5.9-8.5.4 0 2.2.5 3.9 1.1zM838 88.5c0 7.9-.1 8.5-2 8.5-1.2 0-3.2-1.1-4.5-2.5-4-4-3-11.6 1.8-13.5 4.5-1.8 4.7-1.4 4.7 7.5zm8.8-7.4c7.6 2.6 5.7 15.9-2.3 15.9-2.5 0-2.5-.1-2.5-8.5 0-4.7.4-8.5.9-8.5.4 0 2.2.5 3.9 1.1zm-8.8 38.4c0 7.9-.1 8.5-2 8.5-1.2 0-3.2-1.1-4.5-2.5-4-4-3-11.6 1.8-13.5 4.5-1.8 4.7-1.4 4.7 7.5zm8.8-7.4c7.6 2.6 5.7 15.9-2.3 15.9-2.5 0-2.5-.1-2.5-8.5 0-4.7.4-8.5.9-8.5.4 0 2.2.5 3.9 1.1zm-8.8 39.4c0 7.9-.1 8.5-2 8.5-1.2 0-3.2-1.1-4.5-2.5-4-4-3-11.6 1.8-13.5 4.5-1.8 4.7-1.4 4.7 7.5zm8.8-7.4c7.6 2.6 5.7 15.9-2.3 15.9-2.5 0-2.5-.1-2.5-8.5 0-4.7.4-8.5.9-8.5.4 0 2.2.5 3.9 1.1zm-8.8 38.4c0 7.9-.1 8.5-2 8.5-1.2 0-3.2-1.1-4.5-2.5-4-4-3-11.6 1.8-13.5 4.5-1.8 4.7-1.4 4.7 7.5zm8.8-7.4c7.6 2.6 5.7 15.9-2.3 15.9-2.5 0-2.5-.1-2.5-8.5 0-4.7.4-8.5.9-8.5.4 0 2.2.5 3.9 1.1zm-8.8 39.4c0 7.9-.1 8.5-2 8.5-1.2 0-3.2-1.1-4.5-2.5-4-4-3-11.6 1.8-13.5 4.5-1.8 4.7-1.4 4.7 7.5zm8.8-7.4c7.6 2.6 5.7 15.9-2.3 15.9-2.5 0-2.5-.1-2.5-8.5 0-4.7.4-8.5.9-8.5.4 0 2.2.5 3.9 1.1zm-8.8 38.4c0 7.9-.1 8.5-2 8.5-1.2 0-3.2-1.1-4.5-2.5-4-4-3-11.6 1.8-13.5 4.5-1.8 4.7-1.4 4.7 7.5zm8.8-7.4c7.6 2.6 5.7 15.9-2.3 15.9-2.5 0-2.5-.1-2.5-8.5 0-4.7.4-8.5.9-8.5.4 0 2.2.5 3.9 1.1zm-8.8 39.4c0 7.9-.1 8.5-2 8.5-1.2 0-3.2-1.1-4.5-2.5-4-4-3-11.6 1.8-13.5 4.5-1.8 4.7-1.4 4.7 7.5zm8.8-7.4c7.6 2.6 5.7 15.9-2.3 15.9-2.5 0-2.5-.1-2.5-8.5 0-4.7.4-8.5.9-8.5.4 0 2.2.5 3.9 1.1zm-8.8 38.4c0 7.9-.1 8.5-2 8.5-1.2 0-3.2-1.1-4.5-2.5-4-4-3-11.6 1.8-13.5 4.5-1.8 4.7-1.4 4.7 7.5zm8.8-7.4c7.6 2.6 5.7 15.9-2.3 15.9-2.5 0-2.5-.1-2.5-8.5 0-4.7.4-8.5.9-8.5.4 0 2.2.5 3.9 1.1zM63 43c0 1.3-.7 2-2 2-13.8 0-16 20.7-2.4 22.9 3.8.6 3.9.8 4.2 4.9.3 3.7.1 4.2-1.8 4.2-4.5 0-9 2.8-10.6 6.6-3.1 7.3.9 15.1 8.2 16.3 3.7.6 3.9.9 4.2 4.4.3 3.2 0 3.7-1.8 3.7-4.5 0-9 2.8-10.6 6.6-3.1 7.3.9 15.1 8.2 16.3 3.8.6 3.9.8 4.2 4.9.3 3.7.1 4.2-1.8 4.2-4.5 0-9 2.8-10.6 6.6-3.1 7.3.9 15.1 8.2 16.3 3.7.6 3.9.9 4.2 4.4.3 3.2 0 3.7-1.8 3.7-4.5 0-9 2.8-10.6 6.6-3.1 7.3.9 15.1 8.2 16.3 3.8.6 3.9.8 4.2 4.9.3 3.7.1 4.2-1.8 4.2-4.5 0-9 2.8-10.6 6.6-3.1 7.3.9 15.1 8.2 16.3 3.7.6 3.9.9 4.2 4.4.3 3.2 0 3.7-1.8 3.7-4.5 0-9 2.8-10.6 6.6-3.1 7.3.9 15.1 8.2 16.3 3.8.6 3.9.8 4.2 4.9.3 3.7.1 4.2-1.8 4.2-4.5 0-9 2.8-10.6 6.6-3.1 7.3.9 15.1 8.2 16.3 3.7.6 3.9.9 4.2 4.4.3 3.2 0 3.7-1.8 3.7-4.5 0-9 2.8-10.6 6.6-3.1 7.3.9 15.1 8.2 16.3 3 .5 4 1.1 4.2 2.9.5 3 3.9 3 4.4 0 .2-1.4 1.1-2.4 2.3-2.6 7.1-1.1 10.5-5 10.5-12.1 0-5.4-3.8-9.9-9.1-10.7-3.9-.7-4-.8-3.7-4.3.2-2.7.8-3.7 2.3-3.9 7.1-1.1 10.5-5 10.5-12.1 0-5.4-3.8-9.9-9.1-10.7-4-.7-4-.7-3.7-4.8.2-3.2.7-4.2 2.3-4.4 7.1-1.1 10.5-5 10.5-12.1 0-5.4-3.8-9.9-9.1-10.7-3.9-.7-4-.8-3.7-4.3.2-2.7.8-3.7 2.3-3.9 7.1-1.1 10.5-5 10.5-12.1 0-5.4-3.8-9.9-9.1-10.7-4-.7-4-.7-3.7-4.8.2-3.2.7-4.2 2.3-4.4 7.1-1.1 10.5-5 10.5-12.1 0-5.4-3.8-9.9-9.1-10.7-3.9-.7-4-.8-3.7-4.3.2-2.7.8-3.7 2.3-3.9 7.1-1.1 10.5-5 10.5-12.1 0-5.4-3.8-9.9-9.1-10.7-4-.7-4-.7-3.7-4.8.2-3.2.7-4.2 2.3-4.4 7.1-1.1 10.5-5 10.5-12.1 0-5.4-3.8-9.9-9.1-10.7-3.9-.7-4-.8-3.7-4.3.2-2.7.8-3.7 2.3-3.9 7.1-1.1 10.5-5 10.5-12.1 0-5.4-3.8-9.9-9.1-10.7-4-.7-4-.7-3.7-4.8.2-3.2.7-4.2 2.3-4.4 7.1-1.1 10.5-5 10.5-12.1 0-5.4-3.8-9.9-9.1-10.7-2.9-.5-3.9-1.1-3.9-2.5 0-1.2-.7-1.9-2-1.9s-2 .7-2 2zm0 13.5c0 8.4 0 8.5-2.5 8.5-5.2 0-9-7.2-6.4-11.9 1.4-2.5 5.2-5.1 7.7-5.1.9 0 1.2 2.4 1.2 8.5zm11.3-5.3c3.8 4.5.3 13.8-5.3 13.8-1.9 0-2-.6-2-8.6v-8.6l2.8.6c1.5.4 3.5 1.6 4.5 2.8zM63 88.5c0 8.4 0 8.5-2.5 8.5-5.2 0-9-7.2-6.4-11.9 1.4-2.5 5.2-5.1 7.7-5.1.9 0 1.2 2.4 1.2 8.5zm11.3-5.3c3.8 4.5.3 13.8-5.3 13.8-1.9 0-2-.6-2-8.6v-8.6l2.8.6c1.5.4 3.5 1.6 4.5 2.8zM63 119.5c0 8.4 0 8.5-2.5 8.5-5.2 0-9-7.2-6.4-11.9 1.4-2.5 5.2-5.1 7.7-5.1.9 0 1.2 2.4 1.2 8.5zm11.3-5.3c3.8 4.5.3 13.8-5.3 13.8-1.9 0-2-.6-2-8.6v-8.6l2.8.6c1.5.4 3.5 1.6 4.5 2.8zM63 151.5c0 8.4 0 8.5-2.5 8.5-5.2 0-9-7.2-6.4-11.9 1.4-2.5 5.2-5.1 7.7-5.1.9 0 1.2 2.4 1.2 8.5zm11.3-5.3c3.8 4.5.3 13.8-5.3 13.8-1.9 0-2-.6-2-8.6v-8.6l2.8.6c1.5.4 3.5 1.6 4.5 2.8zM63 182.5c0 8.4 0 8.5-2.5 8.5-5.2 0-9-7.2-6.4-11.9 1.4-2.5 5.2-5.1 7.7-5.1.9 0 1.2 2.4 1.2 8.5zm11.3-5.3c3.8 4.5.3 13.8-5.3 13.8-1.9 0-2-.6-2-8.6v-8.6l2.8.6c1.5.4 3.5 1.6 4.5 2.8zM63 214.5c0 8.4 0 8.5-2.5 8.5-5.2 0-9-7.2-6.4-11.9 1.4-2.5 5.2-5.1 7.7-5.1.9 0 1.2 2.4 1.2 8.5zm11.3-5.3c3.8 4.5.3 13.8-5.3 13.8-1.9 0-2-.6-2-8.6v-8.6l2.8.6c1.5.4 3.5 1.6 4.5 2.8zM63 245.5c0 8.4 0 8.5-2.5 8.5-5.2 0-9-7.2-6.4-11.9 1.4-2.5 5.2-5.1 7.7-5.1.9 0 1.2 2.4 1.2 8.5zm11.3-5.3c3.8 4.5.3 13.8-5.3 13.8-1.9 0-2-.6-2-8.6v-8.6l2.8.6c1.5.4 3.5 1.6 4.5 2.8zM63 277.5c0 8.4 0 8.5-2.5 8.5-5.2 0-9-7.2-6.4-11.9 1.4-2.5 5.2-5.1 7.7-5.1.9 0 1.2 2.4 1.2 8.5zm11.3-5.3c3.8 4.5.3 13.8-5.3 13.8-1.9 0-2-.6-2-8.6v-8.6l2.8.6c1.5.4 3.5 1.6 4.5 2.8zM63 308.5c0 8.4 0 8.5-2.5 8.5-5.2 0-9-7.2-6.4-11.9 1.4-2.5 5.2-5.1 7.7-5.1.9 0 1.2 2.4 1.2 8.5zm11.3-5.3c3.8 4.5.3 13.8-5.3 13.8-1.9 0-2-.6-2-8.6v-8.6l2.8.6c1.5.4 3.5 1.6 4.5 2.8zM247 43c0 1.3-.7 2-2 2-13.8 0-16 20.7-2.4 22.9 3.8.6 3.9.8 4.2 4.9.3 3.7.1 4.2-1.8 4.2-4.5 0-9 2.8-10.6 6.6-3.1 7.3.9 15.1 8.2 16.3 3.7.6 3.9.9 4.2 4.4.3 3.2 0 3.7-1.8 3.7-4.5 0-9 2.8-10.6 6.6-3.1 7.3.9 15.1 8.2 16.3 3.8.6 3.9.8 4.2 4.9.3 3.7.1 4.2-1.8 4.2-4.5 0-9 2.8-10.6 6.6-3.1 7.3.9 15.1 8.2 16.3 3.7.6 3.9.9 4.2 4.4.3 3.2 0 3.7-1.8 3.7-4.5 0-9 2.8-10.6 6.6-3.1 7.3.9 15.1 8.2 16.3 3.8.6 3.9.8 4.2 4.9.3 3.7.1 4.2-1.8 4.2-4.5 0-9 2.8-10.6 6.6-3.1 7.3.9 15.1 8.2 16.3 3.7.6 3.9.9 4.2 4.4.3 3.2 0 3.7-1.8 3.7-4.5 0-9 2.8-10.6 6.6-3.1 7.3.9 15.1 8.2 16.3 3.8.6 3.9.8 4.2 4.9.3 3.7.1 4.2-1.8 4.2-4.5 0-9 2.8-10.6 6.6-3.1 7.3.9 15.1 8.2 16.3 3.7.6 3.9.9 4.2 4.4.3 3.2 0 3.7-1.8 3.7-4.5 0-9 2.8-10.6 6.6-3.1 7.3.9 15.1 8.2 16.3 3 .5 4 1.1 4.2 2.9.5 3 3.9 3 4.4 0 .2-1.4 1.1-2.4 2.3-2.6 7.1-1.1 10.5-5 10.5-12.1 0-5.4-3.8-9.9-9.1-10.7-3.9-.7-4-.8-3.7-4.3.2-2.7.8-3.7 2.3-3.9 7.1-1.1 10.5-5 10.5-12.1 0-5.4-3.8-9.9-9.1-10.7-4-.7-4-.7-3.7-4.8.2-3.2.7-4.2 2.3-4.4 7.1-1.1 10.5-5 10.5-12.1 0-5.4-3.8-9.9-9.1-10.7-3.9-.7-4-.8-3.7-4.3.2-2.7.8-3.7 2.3-3.9 7.1-1.1 10.5-5 10.5-12.1 0-5.4-3.8-9.9-9.1-10.7-4-.7-4-.7-3.7-4.8.2-3.2.7-4.2 2.3-4.4 7.1-1.1 10.5-5 10.5-12.1 0-5.4-3.8-9.9-9.1-10.7-3.9-.7-4-.8-3.7-4.3.2-2.7.8-3.7 2.3-3.9 7.1-1.1 10.5-5 10.5-12.1 0-5.4-3.8-9.9-9.1-10.7-4-.7-4-.7-3.7-4.8.2-3.2.7-4.2 2.3-4.4 7.1-1.1 10.5-5 10.5-12.1 0-5.4-3.8-9.9-9.1-10.7-3.9-.7-4-.8-3.7-4.3.2-2.7.8-3.7 2.3-3.9 7.1-1.1 10.5-5 10.5-12.1 0-5.4-3.8-9.9-9.1-10.7-4-.7-4-.7-3.7-4.8.2-3.2.7-4.2 2.3-4.4 7.1-1.1 10.5-5 10.5-12.1 0-5.4-3.8-9.9-9.1-10.7-2.9-.5-3.9-1.1-3.9-2.5 0-1.2-.7-1.9-2-1.9s-2 .7-2 2zm0 13.5c0 8.4 0 8.5-2.5 8.5-5.2 0-9-7.2-6.4-11.9 1.4-2.5 5.2-5.1 7.7-5.1.9 0 1.2 2.4 1.2 8.5zm11.3-5.3c3.8 4.5.3 13.8-5.3 13.8-1.9 0-2-.6-2-8.6v-8.6l2.8.6c1.5.4 3.5 1.6 4.5 2.8zM247 88.5c0 8.4 0 8.5-2.5 8.5-5.2 0-9-7.2-6.4-11.9 1.4-2.5 5.2-5.1 7.7-5.1.9 0 1.2 2.4 1.2 8.5zm11.3-5.3c3.8 4.5.3 13.8-5.3 13.8-1.9 0-2-.6-2-8.6v-8.6l2.8.6c1.5.4 3.5 1.6 4.5 2.8zM247 119.5c0 8.4 0 8.5-2.5 8.5-5.2 0-9-7.2-6.4-11.9 1.4-2.5 5.2-5.1 7.7-5.1.9 0 1.2 2.4 1.2 8.5zm11.3-5.3c3.8 4.5.3 13.8-5.3 13.8-1.9 0-2-.6-2-8.6v-8.6l2.8.6c1.5.4 3.5 1.6 4.5 2.8zM247 151.5c0 8.4 0 8.5-2.5 8.5-5.2 0-9-7.2-6.4-11.9 1.4-2.5 5.2-5.1 7.7-5.1.9 0 1.2 2.4 1.2 8.5zm11.3-5.3c3.8 4.5.3 13.8-5.3 13.8-1.9 0-2-.6-2-8.6v-8.6l2.8.6c1.5.4 3.5 1.6 4.5 2.8zM247 182.5c0 8.4 0 8.5-2.5 8.5-5.2 0-9-7.2-6.4-11.9 1.4-2.5 5.2-5.1 7.7-5.1.9 0 1.2 2.4 1.2 8.5zm11.3-5.3c3.8 4.5.3 13.8-5.3 13.8-1.9 0-2-.6-2-8.6v-8.6l2.8.6c1.5.4 3.5 1.6 4.5 2.8zM247 214.5c0 8.4 0 8.5-2.5 8.5-5.2 0-9-7.2-6.4-11.9 1.4-2.5 5.2-5.1 7.7-5.1.9 0 1.2 2.4 1.2 8.5zm11.3-5.3c3.8 4.5.3 13.8-5.3 13.8-1.9 0-2-.6-2-8.6v-8.6l2.8.6c1.5.4 3.5 1.6 4.5 2.8zM247 245.5c0 8.4 0 8.5-2.5 8.5-5.2 0-9-7.2-6.4-11.9 1.4-2.5 5.2-5.1 7.7-5.1.9 0 1.2 2.4 1.2 8.5zm11.3-5.3c3.8 4.5.3 13.8-5.3 13.8-1.9 0-2-.6-2-8.6v-8.6l2.8.6c1.5.4 3.5 1.6 4.5 2.8zM247 277.5c0 8.4 0 8.5-2.5 8.5-5.2 0-9-7.2-6.4-11.9 1.4-2.5 5.2-5.1 7.7-5.1.9 0 1.2 2.4 1.2 8.5zm11.3-5.3c3.8 4.5.3 13.8-5.3 13.8-1.9 0-2-.6-2-8.6v-8.6l2.8.6c1.5.4 3.5 1.6 4.5 2.8zM247 308.5c0 8.4 0 8.5-2.5 8.5-5.2 0-9-7.2-6.4-11.9 1.4-2.5 5.2-5.1 7.7-5.1.9 0 1.2 2.4 1.2 8.5zm11.3-5.3c3.8 4.5.3 13.8-5.3 13.8-1.9 0-2-.6-2-8.6v-8.6l2.8.6c1.5.4 3.5 1.6 4.5 2.8zM432 43c0 1.4-.7 2-2.1 2-3.4 0-8.5 2.9-9.8 5.6-.6 1.4-1.1 4.4-1.1 6.8 0 5 3.1 9.1 7.7 10.1 5.1 1.2 5.3 1.4 5.3 5.5 0 3.4-.3 4-2.1 4-3.4 0-8.5 2.9-9.8 5.6-.6 1.4-1.1 4.4-1.1 6.8 0 5 3.1 9.1 7.7 10.1 5.1 1.2 5.3 1.4 5.3 5 0 2.9-.4 3.5-2.1 3.5-3.4 0-8.5 2.9-9.8 5.6-.6 1.4-1.1 4.4-1.1 6.8 0 5 3.1 9.1 7.7 10.1 5.1 1.2 5.3 1.4 5.3 5.5 0 3.4-.3 4-2.1 4-3.4 0-8.5 2.9-9.8 5.6-.6 1.4-1.1 4.4-1.1 6.8 0 5 3.1 9.1 7.7 10.1 5.1 1.2 5.3 1.4 5.3 5 0 2.9-.4 3.5-2.1 3.5-3.4 0-8.5 2.9-9.8 5.6-.6 1.4-1.1 4.4-1.1 6.8 0 5 3.1 9.1 7.7 10.1 5.1 1.2 5.3 1.4 5.3 5.5 0 3.4-.3 4-2.1 4-3.4 0-8.5 2.9-9.8 5.6-.6 1.4-1.1 4.4-1.1 6.8 0 5 3.1 9.1 7.7 10.1 5.1 1.2 5.3 1.4 5.3 5 0 2.9-.4 3.5-2.1 3.5-3.4 0-8.5 2.9-9.8 5.6-.6 1.4-1.1 4.4-1.1 6.8 0 5 3.1 9.1 7.7 10.1 5.1 1.2 5.3 1.4 5.3 5.5 0 3.4-.3 4-2.1 4-3.4 0-8.5 2.9-9.8 5.6-.6 1.4-1.1 4.4-1.1 6.8 0 5 3.1 9.1 7.7 10.1 5.1 1.2 5.3 1.4 5.3 5 0 2.9-.4 3.5-2.1 3.5-3.4 0-8.5 2.9-9.8 5.6-.6 1.4-1.1 4.4-1.1 6.8 0 5 3.1 9.1 7.7 10.1 4.9 1.1 5.3 1.4 5.3 3.5 0 2.9 3.8 2.7 4.2-.2.2-1.6 1.2-2.4 3.3-2.8 4.2-.9 7.3-2.7 8.6-5.1 1.6-3.1 1.3-10.4-.6-13.2-1.6-2.5-6.1-4.7-9.6-4.7-1.5 0-1.9-.8-1.9-3.5 0-3.6.3-3.9 5.1-4.9 5.8-1.3 9-6.7 8.1-13.8-.5-4-4.5-7.7-9.1-8.4-4-.6-4.1-.8-4.1-4.6 0-3.9.2-4.1 5.1-5.2 5.8-1.3 9-6.7 8.1-13.8-.5-4-4.5-7.7-9.1-8.4-3.9-.6-4.1-.9-4.1-4.1 0-3.4.3-3.7 5.1-4.7 5.8-1.3 9-6.7 8.1-13.8-.5-4-4.5-7.7-9.1-8.4-4-.6-4.1-.8-4.1-4.6 0-3.9.2-4.1 5.1-5.2 5.8-1.3 9-6.7 8.1-13.8-.5-4-4.5-7.7-9.1-8.4-3.9-.6-4.1-.9-4.1-4.1 0-3.4.3-3.7 5.1-4.7 5.8-1.3 9-6.7 8.1-13.8-.5-4-4.5-7.7-9.1-8.4-4-.6-4.1-.8-4.1-4.6 0-3.9.2-4.1 5.1-5.2 5.8-1.3 9-6.7 8.1-13.8-.5-4-4.5-7.7-9.1-8.4-3.9-.6-4.1-.9-4.1-4.1 0-3.4.3-3.7 5.1-4.7 5.8-1.3 9-6.7 8.1-13.8-.5-4-4.5-7.7-9.1-8.4-4-.6-4.1-.8-4.1-4.6 0-3.9.2-4.1 5.1-5.2 5.8-1.3 9-6.7 8.1-13.8-.5-4-4.5-7.7-9.1-8.4-3.1-.5-4.1-1.1-4.1-2.5 0-1.2-.7-1.9-2-1.9s-2 .7-2 2zm0 13.5c0 7.6-.2 8.5-1.9 8.5-1 0-3-.9-4.5-2.1-2.1-1.6-2.6-2.9-2.6-6.3 0-4.2 1.5-6.6 5-7.9 3.7-1.4 4-.9 4 7.8zm11.3-5.8c2.6 2.4 2.3 9.7-.5 12.3-1.2 1.1-3.2 2-4.5 2-2.2 0-2.3-.3-2.3-8.6v-8.6l2.8.7c1.5.3 3.5 1.4 4.5 2.2zM432 88.5c0 7.6-.2 8.5-1.9 8.5-1 0-3-.9-4.5-2.1-2.1-1.6-2.6-2.9-2.6-6.3 0-4.2 1.5-6.6 5-7.9 3.7-1.4 4-.9 4 7.8zm11.3-5.8c2.6 2.4 2.3 9.7-.5 12.3-1.2 1.1-3.2 2-4.5 2-2.2 0-2.3-.3-2.3-8.6v-8.6l2.8.7c1.5.3 3.5 1.4 4.5 2.2zM432 119.5c0 7.6-.2 8.5-1.9 8.5-1 0-3-.9-4.5-2.1-2.1-1.6-2.6-2.9-2.6-6.3 0-4.2 1.5-6.6 5-7.9 3.7-1.4 4-.9 4 7.8zm11.3-5.8c2.6 2.4 2.3 9.7-.5 12.3-1.2 1.1-3.2 2-4.5 2-2.2 0-2.3-.3-2.3-8.6v-8.6l2.8.7c1.5.3 3.5 1.4 4.5 2.2zM432 151.5c0 7.6-.2 8.5-1.9 8.5-1 0-3-.9-4.5-2.1-2.1-1.6-2.6-2.9-2.6-6.3 0-4.2 1.5-6.6 5-7.9 3.7-1.4 4-.9 4 7.8zm11.3-5.8c2.6 2.4 2.3 9.7-.5 12.3-1.2 1.1-3.2 2-4.5 2-2.2 0-2.3-.3-2.3-8.6v-8.6l2.8.7c1.5.3 3.5 1.4 4.5 2.2zM432 182.5c0 7.6-.2 8.5-1.9 8.5-1 0-3-.9-4.5-2.1-2.1-1.6-2.6-2.9-2.6-6.3 0-4.2 1.5-6.6 5-7.9 3.7-1.4 4-.9 4 7.8zm11.3-5.8c2.6 2.4 2.3 9.7-.5 12.3-1.2 1.1-3.2 2-4.5 2-2.2 0-2.3-.3-2.3-8.6v-8.6l2.8.7c1.5.3 3.5 1.4 4.5 2.2zM432 214.5c0 7.6-.2 8.5-1.9 8.5-1 0-3-.9-4.5-2.1-2.1-1.6-2.6-2.9-2.6-6.3 0-4.2 1.5-6.6 5-7.9 3.7-1.4 4-.9 4 7.8zm11.3-5.8c2.6 2.4 2.3 9.7-.5 12.3-1.2 1.1-3.2 2-4.5 2-2.2 0-2.3-.3-2.3-8.6v-8.6l2.8.7c1.5.3 3.5 1.4 4.5 2.2zM432 245.5c0 7.6-.2 8.5-1.9 8.5-1 0-3-.9-4.5-2.1-2.1-1.6-2.6-2.9-2.6-6.3 0-4.2 1.5-6.6 5-7.9 3.7-1.4 4-.9 4 7.8zm11.3-5.8c2.6 2.4 2.3 9.7-.5 12.3-1.2 1.1-3.2 2-4.5 2-2.2 0-2.3-.3-2.3-8.6v-8.6l2.8.7c1.5.3 3.5 1.4 4.5 2.2zM432 277.5c0 7.6-.2 8.5-1.9 8.5-1 0-3-.9-4.5-2.1-2.1-1.6-2.6-2.9-2.6-6.3 0-4.2 1.5-6.6 5-7.9 3.7-1.4 4-.9 4 7.8zm11.3-5.8c2.6 2.4 2.3 9.7-.5 12.3-1.2 1.1-3.2 2-4.5 2-2.2 0-2.3-.3-2.3-8.6v-8.6l2.8.7c1.5.3 3.5 1.4 4.5 2.2zM432 308.5c0 7.6-.2 8.5-1.9 8.5-1 0-3-.9-4.5-2.1-2.1-1.6-2.6-2.9-2.6-6.3 0-4.2 1.5-6.6 5-7.9 3.7-1.4 4-.9 4 7.8zm11.3-5.8c2.6 2.4 2.3 9.7-.5 12.3-1.2 1.1-3.2 2-4.5 2-2.2 0-2.3-.3-2.3-8.6v-8.6l2.8.7c1.5.3 3.5 1.4 4.5 2.2zM1059 42.9c0 1.4-1 2-3.9 2.5-5.3.8-9.1 5.3-9.1 10.7 0 7.1 3.4 11 10.5 12.1 1.6.2 2.1 1.2 2.3 4.4.3 4.1.3 4.1-3.7 4.8-5.3.8-9.1 5.3-9.1 10.7 0 7.1 3.4 11 10.5 12.1 1.5.2 2.1 1.2 2.3 3.9.3 3.5.2 3.6-3.7 4.3-5.3.8-9.1 5.3-9.1 10.7 0 7.1 3.4 11 10.5 12.1 1.6.2 2.1 1.2 2.3 4.4.3 4.1.3 4.1-3.7 4.8-5.3.8-9.1 5.3-9.1 10.7 0 7.1 3.4 11 10.5 12.1 1.5.2 2.1 1.2 2.3 3.9.3 3.5.2 3.6-3.7 4.3-5.3.8-9.1 5.3-9.1 10.7 0 7.1 3.4 11 10.5 12.1 1.6.2 2.1 1.2 2.3 4.4.3 4.1.3 4.1-3.7 4.8-5.3.8-9.1 5.3-9.1 10.7 0 7.1 3.4 11 10.5 12.1 1.5.2 2.1 1.2 2.3 3.9.3 3.5.2 3.6-3.7 4.3-5.3.8-9.1 5.3-9.1 10.7 0 7.1 3.4 11 10.5 12.1 1.6.2 2.1 1.2 2.3 4.4.3 4.1.3 4.1-3.7 4.8-5.3.8-9.1 5.3-9.1 10.7 0 7.1 3.4 11 10.5 12.1 1.5.2 2.1 1.2 2.3 3.9.3 3.5.2 3.6-3.7 4.3-5.3.8-9.1 5.3-9.1 10.7 0 7.1 3.4 11 10.5 12.1 1.2.2 2.1 1.2 2.3 2.6.5 3 3.9 3 4.4 0 .2-1.8 1.2-2.4 4.2-2.9 7.3-1.2 11.3-9 8.2-16.3-1.6-3.8-6.1-6.6-10.6-6.6-1.8 0-2.1-.5-1.8-3.7.3-3.5.5-3.8 4.2-4.4 7.3-1.2 11.3-9 8.2-16.3-1.6-3.8-6.1-6.6-10.6-6.6-1.9 0-2.1-.5-1.8-4.2.3-4.1.4-4.3 4.2-4.9 7.3-1.2 11.3-9 8.2-16.3-1.6-3.8-6.1-6.6-10.6-6.6-1.8 0-2.1-.5-1.8-3.7.3-3.5.5-3.8 4.2-4.4 7.3-1.2 11.3-9 8.2-16.3-1.6-3.8-6.1-6.6-10.6-6.6-1.9 0-2.1-.5-1.8-4.2.3-4.1.4-4.3 4.2-4.9 7.3-1.2 11.3-9 8.2-16.3-1.6-3.8-6.1-6.6-10.6-6.6-1.8 0-2.1-.5-1.8-3.7.3-3.5.5-3.8 4.2-4.4 7.3-1.2 11.3-9 8.2-16.3-1.6-3.8-6.1-6.6-10.6-6.6-1.9 0-2.1-.5-1.8-4.2.3-4.1.4-4.3 4.2-4.9 7.3-1.2 11.3-9 8.2-16.3-1.6-3.8-6.1-6.6-10.6-6.6-1.8 0-2.1-.5-1.8-3.7.3-3.5.5-3.8 4.2-4.4 7.3-1.2 11.3-9 8.2-16.3-1.6-3.8-6.1-6.6-10.6-6.6-1.9 0-2.1-.5-1.8-4.2.3-4.1.4-4.3 4.2-4.9 7.3-1.2 11.3-9 8.2-16.3-1.6-3.7-6.1-6.6-10.6-6.6-1.3 0-2-.7-2-2s-.7-2-2-2-2 .7-2 1.9zm0 13.6c0 7.9-.1 8.5-2 8.5-1.2 0-3.2-1.1-4.5-2.5-4-4-3-11.6 1.8-13.5 4.5-1.8 4.7-1.4 4.7 7.5zm8.8-7.4c7.6 2.6 5.7 15.9-2.3 15.9-2.5 0-2.5-.1-2.5-8.5 0-4.7.4-8.5.9-8.5.4 0 2.2.5 3.9 1.1zm-8.8 39.4c0 7.9-.1 8.5-2 8.5-1.2 0-3.2-1.1-4.5-2.5-4-4-3-11.6 1.8-13.5 4.5-1.8 4.7-1.4 4.7 7.5zm8.8-7.4c7.6 2.6 5.7 15.9-2.3 15.9-2.5 0-2.5-.1-2.5-8.5 0-4.7.4-8.5.9-8.5.4 0 2.2.5 3.9 1.1zm-8.8 38.4c0 7.9-.1 8.5-2 8.5-1.2 0-3.2-1.1-4.5-2.5-4-4-3-11.6 1.8-13.5 4.5-1.8 4.7-1.4 4.7 7.5zm8.8-7.4c7.6 2.6 5.7 15.9-2.3 15.9-2.5 0-2.5-.1-2.5-8.5 0-4.7.4-8.5.9-8.5.4 0 2.2.5 3.9 1.1zm-8.8 39.4c0 7.9-.1 8.5-2 8.5-1.2 0-3.2-1.1-4.5-2.5-4-4-3-11.6 1.8-13.5 4.5-1.8 4.7-1.4 4.7 7.5zm8.8-7.4c7.6 2.6 5.7 15.9-2.3 15.9-2.5 0-2.5-.1-2.5-8.5 0-4.7.4-8.5.9-8.5.4 0 2.2.5 3.9 1.1zm-8.8 38.4c0 7.9-.1 8.5-2 8.5-1.2 0-3.2-1.1-4.5-2.5-4-4-3-11.6 1.8-13.5 4.5-1.8 4.7-1.4 4.7 7.5zm8.8-7.4c7.6 2.6 5.7 15.9-2.3 15.9-2.5 0-2.5-.1-2.5-8.5 0-4.7.4-8.5.9-8.5.4 0 2.2.5 3.9 1.1zm-8.8 39.4c0 7.9-.1 8.5-2 8.5-1.2 0-3.2-1.1-4.5-2.5-4-4-3-11.6 1.8-13.5 4.5-1.8 4.7-1.4 4.7 7.5zm8.8-7.4c7.6 2.6 5.7 15.9-2.3 15.9-2.5 0-2.5-.1-2.5-8.5 0-4.7.4-8.5.9-8.5.4 0 2.2.5 3.9 1.1zm-8.8 38.4c0 7.9-.1 8.5-2 8.5-1.2 0-3.2-1.1-4.5-2.5-4-4-3-11.6 1.8-13.5 4.5-1.8 4.7-1.4 4.7 7.5zm8.8-7.4c7.6 2.6 5.7 15.9-2.3 15.9-2.5 0-2.5-.1-2.5-8.5 0-4.7.4-8.5.9-8.5.4 0 2.2.5 3.9 1.1zm-8.8 39.4c0 7.9-.1 8.5-2 8.5-1.2 0-3.2-1.1-4.5-2.5-4-4-3-11.6 1.8-13.5 4.5-1.8 4.7-1.4 4.7 7.5zm8.8-7.4c7.6 2.6 5.7 15.9-2.3 15.9-2.5 0-2.5-.1-2.5-8.5 0-4.7.4-8.5.9-8.5.4 0 2.2.5 3.9 1.1zm-8.8 38.4c0 7.9-.1 8.5-2 8.5-1.2 0-3.2-1.1-4.5-2.5-4-4-3-11.6 1.8-13.5 4.5-1.8 4.7-1.4 4.7 7.5zm8.8-7.4c7.6 2.6 5.7 15.9-2.3 15.9-2.5 0-2.5-.1-2.5-8.5 0-4.7.4-8.5.9-8.5.4 0 2.2.5 3.9 1.1zM210 74.9c0 1.4-1 2-3.9 2.5-5.3.8-9.1 5.3-9.1 10.7 0 7.1 3.4 11 10.5 12.1 1.5.2 2.1 1.2 2.3 3.9.3 3.5.2 3.6-3.7 4.3-5.3.8-9.1 5.3-9.1 10.7 0 7.1 3.4 11 10.5 12.1 1.6.2 2.1 1.2 2.3 4.4.3 4.1.3 4.1-3.7 4.8-5.3.8-9.1 5.3-9.1 10.7 0 7.1 3.4 11 10.5 12.1 1.5.2 2.1 1.2 2.3 3.9.3 3.5.2 3.6-3.7 4.3-5.3.8-9.1 5.3-9.1 10.7 0 7.1 3.4 11 10.5 12.1 1.6.2 2.1 1.2 2.3 4.4.3 4.1.3 4.1-3.7 4.8-5.3.8-9.1 5.3-9.1 10.7 0 7.1 3.4 11 10.5 12.1 1.5.2 2.1 1.2 2.3 3.9.3 3.5.2 3.6-3.7 4.3-5.3.8-9.1 5.3-9.1 10.7 0 7.1 3.4 11 10.5 12.1 1.6.2 2.1 1.2 2.3 4.4.3 4.1.3 4.1-3.7 4.8-5.3.8-9.1 5.3-9.1 10.7 0 7.1 3.4 11 10.5 12.1 1.5.2 2.1 1.2 2.3 3.9.3 3.5.2 3.6-3.7 4.3-5.3.8-9.1 5.3-9.1 10.7 0 7.1 3.4 11 10.5 12.1 1.2.2 2.1 1.2 2.3 2.6.5 3 3.9 3 4.4 0 .2-1.8 1.2-2.4 4.2-2.9 7.3-1.2 11.3-9 8.2-16.3-1.6-3.8-6.1-6.6-10.6-6.6-1.8 0-2.1-.5-1.8-3.7.3-3.5.5-3.8 4.2-4.4 7.3-1.2 11.3-9 8.2-16.3-1.6-3.8-6.1-6.6-10.6-6.6-1.9 0-2.1-.5-1.8-4.2.3-4.1.4-4.3 4.2-4.9 7.3-1.2 11.3-9 8.2-16.3-1.6-3.8-6.1-6.6-10.6-6.6-1.8 0-2.1-.5-1.8-3.7.3-3.5.5-3.8 4.2-4.4 7.3-1.2 11.3-9 8.2-16.3-1.6-3.8-6.1-6.6-10.6-6.6-1.9 0-2.1-.5-1.8-4.2.3-4.1.4-4.3 4.2-4.9 7.3-1.2 11.3-9 8.2-16.3-1.6-3.8-6.1-6.6-10.6-6.6-1.8 0-2.1-.5-1.8-3.7.3-3.5.5-3.8 4.2-4.4 7.3-1.2 11.3-9 8.2-16.3-1.6-3.8-6.1-6.6-10.6-6.6-1.9 0-2.1-.5-1.8-4.2.3-4.1.4-4.3 4.2-4.9 7.3-1.2 11.3-9 8.2-16.3-1.6-3.8-6.1-6.6-10.6-6.6-1.8 0-2.1-.5-1.8-3.7.3-3.5.5-3.8 4.2-4.4 7.3-1.2 11.3-9 8.2-16.3-1.6-3.7-6.1-6.6-10.6-6.6-1.3 0-2-.7-2-2s-.7-2-2-2-2 .7-2 1.9zm0 13.6c0 7.9-.1 8.5-2 8.5-1.2 0-3.2-1.1-4.5-2.5-4-4-3-11.6 1.8-13.5 4.5-1.8 4.7-1.4 4.7 7.5zm8.8-7.4c7.6 2.6 5.7 15.9-2.3 15.9-2.5 0-2.5-.1-2.5-8.5 0-4.7.4-8.5.9-8.5.4 0 2.2.5 3.9 1.1zm-8.8 38.4c0 7.9-.1 8.5-2 8.5-1.2 0-3.2-1.1-4.5-2.5-4-4-3-11.6 1.8-13.5 4.5-1.8 4.7-1.4 4.7 7.5zm8.8-7.4c7.6 2.6 5.7 15.9-2.3 15.9-2.5 0-2.5-.1-2.5-8.5 0-4.7.4-8.5.9-8.5.4 0 2.2.5 3.9 1.1zm-8.8 39.4c0 7.9-.1 8.5-2 8.5-1.2 0-3.2-1.1-4.5-2.5-4-4-3-11.6 1.8-13.5 4.5-1.8 4.7-1.4 4.7 7.5zm8.8-7.4c7.6 2.6 5.7 15.9-2.3 15.9-2.5 0-2.5-.1-2.5-8.5 0-4.7.4-8.5.9-8.5.4 0 2.2.5 3.9 1.1zm-8.8 38.4c0 7.9-.1 8.5-2 8.5-1.2 0-3.2-1.1-4.5-2.5-4-4-3-11.6 1.8-13.5 4.5-1.8 4.7-1.4 4.7 7.5zm8.8-7.4c7.6 2.6 5.7 15.9-2.3 15.9-2.5 0-2.5-.1-2.5-8.5 0-4.7.4-8.5.9-8.5.4 0 2.2.5 3.9 1.1zm-8.8 39.4c0 7.9-.1 8.5-2 8.5-1.2 0-3.2-1.1-4.5-2.5-4-4-3-11.6 1.8-13.5 4.5-1.8 4.7-1.4 4.7 7.5zm8.8-7.4c7.6 2.6 5.7 15.9-2.3 15.9-2.5 0-2.5-.1-2.5-8.5 0-4.7.4-8.5.9-8.5.4 0 2.2.5 3.9 1.1zm-8.8 38.4c0 7.9-.1 8.5-2 8.5-1.2 0-3.2-1.1-4.5-2.5-4-4-3-11.6 1.8-13.5 4.5-1.8 4.7-1.4 4.7 7.5zm8.8-7.4c7.6 2.6 5.7 15.9-2.3 15.9-2.5 0-2.5-.1-2.5-8.5 0-4.7.4-8.5.9-8.5.4 0 2.2.5 3.9 1.1zm-8.8 39.4c0 7.9-.1 8.5-2 8.5-1.2 0-3.2-1.1-4.5-2.5-4-4-3-11.6 1.8-13.5 4.5-1.8 4.7-1.4 4.7 7.5zm8.8-7.4c7.6 2.6 5.7 15.9-2.3 15.9-2.5 0-2.5-.1-2.5-8.5 0-4.7.4-8.5.9-8.5.4 0 2.2.5 3.9 1.1zm-8.8 38.4c0 7.9-.1 8.5-2 8.5-1.2 0-3.2-1.1-4.5-2.5-4-4-3-11.6 1.8-13.5 4.5-1.8 4.7-1.4 4.7 7.5zm8.8-7.4c7.6 2.6 5.7 15.9-2.3 15.9-2.5 0-2.5-.1-2.5-8.5 0-4.7.4-8.5.9-8.5.4 0 2.2.5 3.9 1.1zM394 74.9c0 1.4-1 2-3.9 2.5-5.3.8-9.1 5.3-9.1 10.7 0 7.1 3.4 11 10.5 12.1 1.5.2 2.1 1.2 2.3 3.9.3 3.5.2 3.6-3.7 4.3-5.3.8-9.1 5.3-9.1 10.7 0 7.1 3.4 11 10.5 12.1 1.6.2 2.1 1.2 2.3 4.4.3 4.1.3 4.1-3.7 4.8-5.3.8-9.1 5.3-9.1 10.7 0 7.1 3.4 11 10.5 12.1 1.5.2 2.1 1.2 2.3 3.9.3 3.5.2 3.6-3.7 4.3-5.3.8-9.1 5.3-9.1 10.7 0 7.1 3.4 11 10.5 12.1 1.6.2 2.1 1.2 2.3 4.4.3 4.1.3 4.1-3.7 4.8-5.3.8-9.1 5.3-9.1 10.7 0 7.1 3.4 11 10.5 12.1 1.5.2 2.1 1.2 2.3 3.9.3 3.5.2 3.6-3.7 4.3-5.3.8-9.1 5.3-9.1 10.7 0 7.1 3.4 11 10.5 12.1 1.6.2 2.1 1.2 2.3 4.4.3 4.1.3 4.1-3.7 4.8-5.3.8-9.1 5.3-9.1 10.7 0 7.1 3.4 11 10.5 12.1 1.5.2 2.1 1.2 2.3 3.9.3 3.5.2 3.6-3.7 4.3-5.3.8-9.1 5.3-9.1 10.7 0 7.1 3.4 11 10.5 12.1 1.2.2 2.1 1.2 2.3 2.6.5 3 3.9 3 4.4 0 .2-1.8 1.2-2.4 4.2-2.9 7.3-1.2 11.3-9 8.2-16.3-1.6-3.8-6.1-6.6-10.6-6.6-1.8 0-2.1-.5-1.8-3.7.3-3.5.5-3.8 4.2-4.4 7.3-1.2 11.3-9 8.2-16.3-1.6-3.8-6.1-6.6-10.6-6.6-1.9 0-2.1-.5-1.8-4.2.3-4.1.4-4.3 4.2-4.9 7.3-1.2 11.3-9 8.2-16.3-1.6-3.8-6.1-6.6-10.6-6.6-1.8 0-2.1-.5-1.8-3.7.3-3.5.5-3.8 4.2-4.4 7.3-1.2 11.3-9 8.2-16.3-1.6-3.8-6.1-6.6-10.6-6.6-1.9 0-2.1-.5-1.8-4.2.3-4.1.4-4.3 4.2-4.9 7.3-1.2 11.3-9 8.2-16.3-1.6-3.8-6.1-6.6-10.6-6.6-1.8 0-2.1-.5-1.8-3.7.3-3.5.5-3.8 4.2-4.4 7.3-1.2 11.3-9 8.2-16.3-1.6-3.8-6.1-6.6-10.6-6.6-1.9 0-2.1-.5-1.8-4.2.3-4.1.4-4.3 4.2-4.9 7.3-1.2 11.3-9 8.2-16.3-1.6-3.8-6.1-6.6-10.6-6.6-1.8 0-2.1-.5-1.8-3.7.3-3.5.5-3.8 4.2-4.4 7.3-1.2 11.3-9 8.2-16.3-1.6-3.7-6.1-6.6-10.6-6.6-1.3 0-2-.7-2-2s-.7-2-2-2-2 .7-2 1.9zm0 13.6c0 7.9-.1 8.5-2 8.5-1.2 0-3.2-1.1-4.5-2.5-4-4-3-11.6 1.8-13.5 4.5-1.8 4.7-1.4 4.7 7.5zm8.8-7.4c7.6 2.6 5.7 15.9-2.3 15.9-2.5 0-2.5-.1-2.5-8.5 0-4.7.4-8.5.9-8.5.4 0 2.2.5 3.9 1.1zm-8.8 38.4c0 7.9-.1 8.5-2 8.5-1.2 0-3.2-1.1-4.5-2.5-4-4-3-11.6 1.8-13.5 4.5-1.8 4.7-1.4 4.7 7.5zm8.8-7.4c7.6 2.6 5.7 15.9-2.3 15.9-2.5 0-2.5-.1-2.5-8.5 0-4.7.4-8.5.9-8.5.4 0 2.2.5 3.9 1.1zm-8.8 39.4c0 7.9-.1 8.5-2 8.5-1.2 0-3.2-1.1-4.5-2.5-4-4-3-11.6 1.8-13.5 4.5-1.8 4.7-1.4 4.7 7.5zm8.8-7.4c7.6 2.6 5.7 15.9-2.3 15.9-2.5 0-2.5-.1-2.5-8.5 0-4.7.4-8.5.9-8.5.4 0 2.2.5 3.9 1.1zm-8.8 38.4c0 7.9-.1 8.5-2 8.5-1.2 0-3.2-1.1-4.5-2.5-4-4-3-11.6 1.8-13.5 4.5-1.8 4.7-1.4 4.7 7.5zm8.8-7.4c7.6 2.6 5.7 15.9-2.3 15.9-2.5 0-2.5-.1-2.5-8.5 0-4.7.4-8.5.9-8.5.4 0 2.2.5 3.9 1.1zm-8.8 39.4c0 7.9-.1 8.5-2 8.5-1.2 0-3.2-1.1-4.5-2.5-4-4-3-11.6 1.8-13.5 4.5-1.8 4.7-1.4 4.7 7.5zm8.8-7.4c7.6 2.6 5.7 15.9-2.3 15.9-2.5 0-2.5-.1-2.5-8.5 0-4.7.4-8.5.9-8.5.4 0 2.2.5 3.9 1.1zm-8.8 38.4c0 7.9-.1 8.5-2 8.5-1.2 0-3.2-1.1-4.5-2.5-4-4-3-11.6 1.8-13.5 4.5-1.8 4.7-1.4 4.7 7.5zm8.8-7.4c7.6 2.6 5.7 15.9-2.3 15.9-2.5 0-2.5-.1-2.5-8.5 0-4.7.4-8.5.9-8.5.4 0 2.2.5 3.9 1.1zm-8.8 39.4c0 7.9-.1 8.5-2 8.5-1.2 0-3.2-1.1-4.5-2.5-4-4-3-11.6 1.8-13.5 4.5-1.8 4.7-1.4 4.7 7.5zm8.8-7.4c7.6 2.6 5.7 15.9-2.3 15.9-2.5 0-2.5-.1-2.5-8.5 0-4.7.4-8.5.9-8.5.4 0 2.2.5 3.9 1.1zm-8.8 38.4c0 7.9-.1 8.5-2 8.5-1.2 0-3.2-1.1-4.5-2.5-4-4-3-11.6 1.8-13.5 4.5-1.8 4.7-1.4 4.7 7.5zm8.8-7.4c7.6 2.6 5.7 15.9-2.3 15.9-2.5 0-2.5-.1-2.5-8.5 0-4.7.4-8.5.9-8.5.4 0 2.2.5 3.9 1.1zM653 75c0 1.4-.7 2-2.1 2-3.4 0-8.5 2.9-9.8 5.6-.6 1.4-1.1 4.4-1.1 6.8 0 5 3.1 9.1 7.7 10.1 5.1 1.2 5.3 1.4 5.3 5 0 2.9-.4 3.5-2.1 3.5-3.4 0-8.5 2.9-9.8 5.6-.6 1.4-1.1 4.4-1.1 6.8 0 5 3.1 9.1 7.7 10.1 5.1 1.2 5.3 1.4 5.3 5.5 0 3.4-.3 4-2.1 4-3.4 0-8.5 2.9-9.8 5.6-.6 1.4-1.1 4.4-1.1 6.8 0 5 3.1 9.1 7.7 10.1 5.1 1.2 5.3 1.4 5.3 5 0 2.9-.4 3.5-2.1 3.5-3.4 0-8.5 2.9-9.8 5.6-.6 1.4-1.1 4.4-1.1 6.8 0 5 3.1 9.1 7.7 10.1 5.1 1.2 5.3 1.4 5.3 5.5 0 3.4-.3 4-2.1 4-3.4 0-8.5 2.9-9.8 5.6-.6 1.4-1.1 4.4-1.1 6.8 0 5 3.1 9.1 7.7 10.1 5.1 1.2 5.3 1.4 5.3 5 0 2.9-.4 3.5-2.1 3.5-3.4 0-8.5 2.9-9.8 5.6-.6 1.4-1.1 4.4-1.1 6.8 0 5 3.1 9.1 7.7 10.1 5.1 1.2 5.3 1.4 5.3 5.5 0 3.4-.3 4-2.1 4-3.4 0-8.5 2.9-9.8 5.6-.6 1.4-1.1 4.4-1.1 6.8 0 5 3.1 9.1 7.7 10.1 5.1 1.2 5.3 1.4 5.3 5 0 2.9-.4 3.5-2.1 3.5-3.4 0-8.5 2.9-9.8 5.6-.6 1.4-1.1 4.4-1.1 6.8 0 5 3.1 9.1 7.7 10.1 4.9 1.1 5.3 1.4 5.3 3.5 0 2.9 3.8 2.7 4.2-.2.2-1.6 1.2-2.4 3.3-2.8 4.2-.9 7.3-2.7 8.6-5.1 1.6-3.1 1.3-10.4-.6-13.2-1.6-2.5-6.1-4.7-9.6-4.7-1.5 0-1.9-.8-1.9-3.5 0-3.6.3-3.9 5.1-4.9 5.8-1.3 9-6.7 8.1-13.8-.5-4-4.5-7.7-9.1-8.4-4-.6-4.1-.8-4.1-4.6 0-3.9.2-4.1 5.1-5.2 5.8-1.3 9-6.7 8.1-13.8-.5-4-4.5-7.7-9.1-8.4-3.9-.6-4.1-.9-4.1-4.1 0-3.4.3-3.7 5.1-4.7 5.8-1.3 9-6.7 8.1-13.8-.5-4-4.5-7.7-9.1-8.4-4-.6-4.1-.8-4.1-4.6 0-3.9.2-4.1 5.1-5.2 5.8-1.3 9-6.7 8.1-13.8-.5-4-4.5-7.7-9.1-8.4-3.9-.6-4.1-.9-4.1-4.1 0-3.4.3-3.7 5.1-4.7 5.8-1.3 9-6.7 8.1-13.8-.5-4-4.5-7.7-9.1-8.4-4-.6-4.1-.8-4.1-4.6 0-3.9.2-4.1 5.1-5.2 5.8-1.3 9-6.7 8.1-13.8-.5-4-4.5-7.7-9.1-8.4-3.9-.6-4.1-.9-4.1-4.1 0-3.4.3-3.7 5.1-4.7 5.8-1.3 9-6.7 8.1-13.8-.5-4-4.5-7.7-9.1-8.4-3.1-.5-4.1-1.1-4.1-2.5 0-1.2-.7-1.9-2-1.9s-2 .7-2 2zm0 13.5c0 7.6-.2 8.5-1.9 8.5-1 0-3-.9-4.5-2.1-2.1-1.6-2.6-2.9-2.6-6.3 0-4.2 1.5-6.6 5-7.9 3.7-1.4 4-.9 4 7.8zm11.3-5.8c2.6 2.4 2.3 9.7-.5 12.3-1.2 1.1-3.2 2-4.5 2-2.2 0-2.3-.3-2.3-8.6v-8.6l2.8.7c1.5.3 3.5 1.4 4.5 2.2zM653 119.5c0 7.6-.2 8.5-1.9 8.5-1 0-3-.9-4.5-2.1-2.1-1.6-2.6-2.9-2.6-6.3 0-4.2 1.5-6.6 5-7.9 3.7-1.4 4-.9 4 7.8zm11.3-5.8c2.6 2.4 2.3 9.7-.5 12.3-1.2 1.1-3.2 2-4.5 2-2.2 0-2.3-.3-2.3-8.6v-8.6l2.8.7c1.5.3 3.5 1.4 4.5 2.2zM653 151.5c0 7.6-.2 8.5-1.9 8.5-1 0-3-.9-4.5-2.1-2.1-1.6-2.6-2.9-2.6-6.3 0-4.2 1.5-6.6 5-7.9 3.7-1.4 4-.9 4 7.8zm11.3-5.8c2.6 2.4 2.3 9.7-.5 12.3-1.2 1.1-3.2 2-4.5 2-2.2 0-2.3-.3-2.3-8.6v-8.6l2.8.7c1.5.3 3.5 1.4 4.5 2.2zM653 182.5c0 7.6-.2 8.5-1.9 8.5-1 0-3-.9-4.5-2.1-2.1-1.6-2.6-2.9-2.6-6.3 0-4.2 1.5-6.6 5-7.9 3.7-1.4 4-.9 4 7.8zm11.3-5.8c2.6 2.4 2.3 9.7-.5 12.3-1.2 1.1-3.2 2-4.5 2-2.2 0-2.3-.3-2.3-8.6v-8.6l2.8.7c1.5.3 3.5 1.4 4.5 2.2zM653 214.5c0 7.6-.2 8.5-1.9 8.5-1 0-3-.9-4.5-2.1-2.1-1.6-2.6-2.9-2.6-6.3 0-4.2 1.5-6.6 5-7.9 3.7-1.4 4-.9 4 7.8zm11.3-5.8c2.6 2.4 2.3 9.7-.5 12.3-1.2 1.1-3.2 2-4.5 2-2.2 0-2.3-.3-2.3-8.6v-8.6l2.8.7c1.5.3 3.5 1.4 4.5 2.2zM653 245.5c0 7.6-.2 8.5-1.9 8.5-1 0-3-.9-4.5-2.1-2.1-1.6-2.6-2.9-2.6-6.3 0-4.2 1.5-6.6 5-7.9 3.7-1.4 4-.9 4 7.8zm11.3-5.8c2.6 2.4 2.3 9.7-.5 12.3-1.2 1.1-3.2 2-4.5 2-2.2 0-2.3-.3-2.3-8.6v-8.6l2.8.7c1.5.3 3.5 1.4 4.5 2.2zM653 277.5c0 7.6-.2 8.5-1.9 8.5-1 0-3-.9-4.5-2.1-2.1-1.6-2.6-2.9-2.6-6.3 0-4.2 1.5-6.6 5-7.9 3.7-1.4 4-.9 4 7.8zm11.3-5.8c2.6 2.4 2.3 9.7-.5 12.3-1.2 1.1-3.2 2-4.5 2-2.2 0-2.3-.3-2.3-8.6v-8.6l2.8.7c1.5.3 3.5 1.4 4.5 2.2zM653 308.5c0 7.6-.2 8.5-1.9 8.5-1 0-3-.9-4.5-2.1-2.1-1.6-2.6-2.9-2.6-6.3 0-4.2 1.5-6.6 5-7.9 3.7-1.4 4-.9 4 7.8zm11.3-5.8c2.6 2.4 2.3 9.7-.5 12.3-1.2 1.1-3.2 2-4.5 2-2.2 0-2.3-.3-2.3-8.6v-8.6l2.8.7c1.5.3 3.5 1.4 4.5 2.2zM875 74.9c0 1.4-1 2-3.9 2.5-5.3.8-9.1 5.3-9.1 10.7 0 7.1 3.4 11 10.5 12.1 1.5.2 2.1 1.2 2.3 3.9.3 3.5.2 3.6-3.7 4.3-5.3.8-9.1 5.3-9.1 10.7 0 7.1 3.4 11 10.5 12.1 1.6.2 2.1 1.2 2.3 4.4.3 4.1.3 4.1-3.7 4.8-5.3.8-9.1 5.3-9.1 10.7 0 7.1 3.4 11 10.5 12.1 1.5.2 2.1 1.2 2.3 3.9.3 3.5.2 3.6-3.7 4.3-5.3.8-9.1 5.3-9.1 10.7 0 7.1 3.4 11 10.5 12.1 1.6.2 2.1 1.2 2.3 4.4.3 4.1.3 4.1-3.7 4.8-5.3.8-9.1 5.3-9.1 10.7 0 7.1 3.4 11 10.5 12.1 1.5.2 2.1 1.2 2.3 3.9.3 3.5.2 3.6-3.7 4.3-5.3.8-9.1 5.3-9.1 10.7 0 7.1 3.4 11 10.5 12.1 1.6.2 2.1 1.2 2.3 4.4.3 4.1.3 4.1-3.7 4.8-5.3.8-9.1 5.3-9.1 10.7 0 7.1 3.4 11 10.5 12.1 1.5.2 2.1 1.2 2.3 3.9.3 3.5.2 3.6-3.7 4.3-5.3.8-9.1 5.3-9.1 10.7 0 7.1 3.4 11 10.5 12.1 1.2.2 2.1 1.2 2.3 2.6.5 3 3.9 3 4.4 0 .2-1.8 1.2-2.4 4.2-2.9 7.3-1.2 11.3-9 8.2-16.3-1.6-3.8-6.1-6.6-10.6-6.6-1.8 0-2.1-.5-1.8-3.7.3-3.5.5-3.8 4.2-4.4 7.3-1.2 11.3-9 8.2-16.3-1.6-3.8-6.1-6.6-10.6-6.6-1.9 0-2.1-.5-1.8-4.2.3-4.1.4-4.3 4.2-4.9 7.3-1.2 11.3-9 8.2-16.3-1.6-3.8-6.1-6.6-10.6-6.6-1.8 0-2.1-.5-1.8-3.7.3-3.5.5-3.8 4.2-4.4 7.3-1.2 11.3-9 8.2-16.3-1.6-3.8-6.1-6.6-10.6-6.6-1.9 0-2.1-.5-1.8-4.2.3-4.1.4-4.3 4.2-4.9 7.3-1.2 11.3-9 8.2-16.3-1.6-3.8-6.1-6.6-10.6-6.6-1.8 0-2.1-.5-1.8-3.7.3-3.5.5-3.8 4.2-4.4 7.3-1.2 11.3-9 8.2-16.3-1.6-3.8-6.1-6.6-10.6-6.6-1.9 0-2.1-.5-1.8-4.2.3-4.1.4-4.3 4.2-4.9 7.3-1.2 11.3-9 8.2-16.3-1.6-3.8-6.1-6.6-10.6-6.6-1.8 0-2.1-.5-1.8-3.7.3-3.5.5-3.8 4.2-4.4 7.3-1.2 11.3-9 8.2-16.3-1.6-3.7-6.1-6.6-10.6-6.6-1.3 0-2-.7-2-2s-.7-2-2-2-2 .7-2 1.9zm0 13.6c0 7.9-.1 8.5-2 8.5-1.2 0-3.2-1.1-4.5-2.5-4-4-3-11.6 1.8-13.5 4.5-1.8 4.7-1.4 4.7 7.5zm8.8-7.4c7.6 2.6 5.7 15.9-2.3 15.9-2.5 0-2.5-.1-2.5-8.5 0-4.7.4-8.5.9-8.5.4 0 2.2.5 3.9 1.1zm-8.8 38.4c0 7.9-.1 8.5-2 8.5-1.2 0-3.2-1.1-4.5-2.5-4-4-3-11.6 1.8-13.5 4.5-1.8 4.7-1.4 4.7 7.5zm8.8-7.4c7.6 2.6 5.7 15.9-2.3 15.9-2.5 0-2.5-.1-2.5-8.5 0-4.7.4-8.5.9-8.5.4 0 2.2.5 3.9 1.1zm-8.8 39.4c0 7.9-.1 8.5-2 8.5-1.2 0-3.2-1.1-4.5-2.5-4-4-3-11.6 1.8-13.5 4.5-1.8 4.7-1.4 4.7 7.5zm8.8-7.4c7.6 2.6 5.7 15.9-2.3 15.9-2.5 0-2.5-.1-2.5-8.5 0-4.7.4-8.5.9-8.5.4 0 2.2.5 3.9 1.1zm-8.8 38.4c0 7.9-.1 8.5-2 8.5-1.2 0-3.2-1.1-4.5-2.5-4-4-3-11.6 1.8-13.5 4.5-1.8 4.7-1.4 4.7 7.5zm8.8-7.4c7.6 2.6 5.7 15.9-2.3 15.9-2.5 0-2.5-.1-2.5-8.5 0-4.7.4-8.5.9-8.5.4 0 2.2.5 3.9 1.1zm-8.8 39.4c0 7.9-.1 8.5-2 8.5-1.2 0-3.2-1.1-4.5-2.5-4-4-3-11.6 1.8-13.5 4.5-1.8 4.7-1.4 4.7 7.5zm8.8-7.4c7.6 2.6 5.7 15.9-2.3 15.9-2.5 0-2.5-.1-2.5-8.5 0-4.7.4-8.5.9-8.5.4 0 2.2.5 3.9 1.1zm-8.8 38.4c0 7.9-.1 8.5-2 8.5-1.2 0-3.2-1.1-4.5-2.5-4-4-3-11.6 1.8-13.5 4.5-1.8 4.7-1.4 4.7 7.5zm8.8-7.4c7.6 2.6 5.7 15.9-2.3 15.9-2.5 0-2.5-.1-2.5-8.5 0-4.7.4-8.5.9-8.5.4 0 2.2.5 3.9 1.1zm-8.8 39.4c0 7.9-.1 8.5-2 8.5-1.2 0-3.2-1.1-4.5-2.5-4-4-3-11.6 1.8-13.5 4.5-1.8 4.7-1.4 4.7 7.5zm8.8-7.4c7.6 2.6 5.7 15.9-2.3 15.9-2.5 0-2.5-.1-2.5-8.5 0-4.7.4-8.5.9-8.5.4 0 2.2.5 3.9 1.1zm-8.8 38.4c0 7.9-.1 8.5-2 8.5-1.2 0-3.2-1.1-4.5-2.5-4-4-3-11.6 1.8-13.5 4.5-1.8 4.7-1.4 4.7 7.5zm8.8-7.4c7.6 2.6 5.7 15.9-2.3 15.9-2.5 0-2.5-.1-2.5-8.5 0-4.7.4-8.5.9-8.5.4 0 2.2.5 3.9 1.1zM1023 75c0 1.3-.7 2-2 2-13.8 0-16 20.7-2.4 22.9 3.7.6 3.9.9 4.2 4.4.3 3.2 0 3.7-1.8 3.7-4.5 0-9 2.8-10.6 6.6-3.1 7.3.9 15.1 8.2 16.3 3.8.6 3.9.8 4.2 4.9.3 3.7.1 4.2-1.8 4.2-4.5 0-9 2.8-10.6 6.6-3.1 7.3.9 15.1 8.2 16.3 3.7.6 3.9.9 4.2 4.4.3 3.2 0 3.7-1.8 3.7-4.5 0-9 2.8-10.6 6.6-3.1 7.3.9 15.1 8.2 16.3 3.8.6 3.9.8 4.2 4.9.3 3.7.1 4.2-1.8 4.2-4.5 0-9 2.8-10.6 6.6-3.1 7.3.9 15.1 8.2 16.3 3.7.6 3.9.9 4.2 4.4.3 3.2 0 3.7-1.8 3.7-4.5 0-9 2.8-10.6 6.6-3.1 7.3.9 15.1 8.2 16.3 3.8.6 3.9.8 4.2 4.9.3 3.7.1 4.2-1.8 4.2-4.5 0-9 2.8-10.6 6.6-3.1 7.3.9 15.1 8.2 16.3 3.7.6 3.9.9 4.2 4.4.3 3.2 0 3.7-1.8 3.7-4.5 0-9 2.8-10.6 6.6-3.1 7.3.9 15.1 8.2 16.3 3 .5 4 1.1 4.2 2.9.5 3 3.9 3 4.4 0 .2-1.4 1.1-2.4 2.3-2.6 7.1-1.1 10.5-5 10.5-12.1 0-5.4-3.8-9.9-9.1-10.7-3.9-.7-4-.8-3.7-4.3.2-2.7.8-3.7 2.3-3.9 7.1-1.1 10.5-5 10.5-12.1 0-5.4-3.8-9.9-9.1-10.7-4-.7-4-.7-3.7-4.8.2-3.2.7-4.2 2.3-4.4 7.1-1.1 10.5-5 10.5-12.1 0-5.4-3.8-9.9-9.1-10.7-3.9-.7-4-.8-3.7-4.3.2-2.7.8-3.7 2.3-3.9 7.1-1.1 10.5-5 10.5-12.1 0-5.4-3.8-9.9-9.1-10.7-4-.7-4-.7-3.7-4.8.2-3.2.7-4.2 2.3-4.4 7.1-1.1 10.5-5 10.5-12.1 0-5.4-3.8-9.9-9.1-10.7-3.9-.7-4-.8-3.7-4.3.2-2.7.8-3.7 2.3-3.9 7.1-1.1 10.5-5 10.5-12.1 0-5.4-3.8-9.9-9.1-10.7-4-.7-4-.7-3.7-4.8.2-3.2.7-4.2 2.3-4.4 7.1-1.1 10.5-5 10.5-12.1 0-5.4-3.8-9.9-9.1-10.7-3.9-.7-4-.8-3.7-4.3.2-2.7.8-3.7 2.3-3.9 7.1-1.1 10.5-5 10.5-12.1 0-5.4-3.8-9.9-9.1-10.7-2.9-.5-3.9-1.1-3.9-2.5 0-1.2-.7-1.9-2-1.9s-2 .7-2 2zm0 13.5c0 8.4 0 8.5-2.5 8.5-5.2 0-9-7.2-6.4-11.9 1.4-2.5 5.2-5.1 7.7-5.1.9 0 1.2 2.4 1.2 8.5zm11.3-5.3c3.8 4.5.3 13.8-5.3 13.8-1.9 0-2-.6-2-8.6v-8.6l2.8.6c1.5.4 3.5 1.6 4.5 2.8zm-11.3 36.3c0 8.4 0 8.5-2.5 8.5-5.2 0-9-7.2-6.4-11.9 1.4-2.5 5.2-5.1 7.7-5.1.9 0 1.2 2.4 1.2 8.5zm11.3-5.3c3.8 4.5.3 13.8-5.3 13.8-1.9 0-2-.6-2-8.6v-8.6l2.8.6c1.5.4 3.5 1.6 4.5 2.8zm-11.3 37.3c0 8.4 0 8.5-2.5 8.5-5.2 0-9-7.2-6.4-11.9 1.4-2.5 5.2-5.1 7.7-5.1.9 0 1.2 2.4 1.2 8.5zm11.3-5.3c3.8 4.5.3 13.8-5.3 13.8-1.9 0-2-.6-2-8.6v-8.6l2.8.6c1.5.4 3.5 1.6 4.5 2.8zm-11.3 36.3c0 8.4 0 8.5-2.5 8.5-5.2 0-9-7.2-6.4-11.9 1.4-2.5 5.2-5.1 7.7-5.1.9 0 1.2 2.4 1.2 8.5zm11.3-5.3c3.8 4.5.3 13.8-5.3 13.8-1.9 0-2-.6-2-8.6v-8.6l2.8.6c1.5.4 3.5 1.6 4.5 2.8zm-11.3 37.3c0 8.4 0 8.5-2.5 8.5-5.2 0-9-7.2-6.4-11.9 1.4-2.5 5.2-5.1 7.7-5.1.9 0 1.2 2.4 1.2 8.5zm11.3-5.3c3.8 4.5.3 13.8-5.3 13.8-1.9 0-2-.6-2-8.6v-8.6l2.8.6c1.5.4 3.5 1.6 4.5 2.8zm-11.3 36.3c0 8.4 0 8.5-2.5 8.5-5.2 0-9-7.2-6.4-11.9 1.4-2.5 5.2-5.1 7.7-5.1.9 0 1.2 2.4 1.2 8.5zm11.3-5.3c3.8 4.5.3 13.8-5.3 13.8-1.9 0-2-.6-2-8.6v-8.6l2.8.6c1.5.4 3.5 1.6 4.5 2.8zm-11.3 37.3c0 8.4 0 8.5-2.5 8.5-5.2 0-9-7.2-6.4-11.9 1.4-2.5 5.2-5.1 7.7-5.1.9 0 1.2 2.4 1.2 8.5zm11.3-5.3c3.8 4.5.3 13.8-5.3 13.8-1.9 0-2-.6-2-8.6v-8.6l2.8.6c1.5.4 3.5 1.6 4.5 2.8zm-11.3 36.3c0 8.4 0 8.5-2.5 8.5-5.2 0-9-7.2-6.4-11.9 1.4-2.5 5.2-5.1 7.7-5.1.9 0 1.2 2.4 1.2 8.5zm11.3-5.3c3.8 4.5.3 13.8-5.3 13.8-1.9 0-2-.6-2-8.6v-8.6l2.8.6c1.5.4 3.5 1.6 4.5 2.8zM99 105.9c0 1.4-1 2-3.9 2.5-5.3.8-9.1 5.3-9.1 10.7 0 7.1 3.4 11 10.5 12.1 1.6.2 2.1 1.2 2.3 4.4.3 4.1.3 4.1-3.7 4.8-5.3.8-9.1 5.3-9.1 10.7 0 7.1 3.4 11 10.5 12.1 1.5.2 2.1 1.2 2.3 3.9.3 3.5.2 3.6-3.7 4.3-5.3.8-9.1 5.3-9.1 10.7 0 7.1 3.4 11 10.5 12.1 1.6.2 2.1 1.2 2.3 4.4.3 4.1.3 4.1-3.7 4.8-5.3.8-9.1 5.3-9.1 10.7 0 7.1 3.4 11 10.5 12.1 1.5.2 2.1 1.2 2.3 3.9.3 3.5.2 3.6-3.7 4.3-5.3.8-9.1 5.3-9.1 10.7 0 7.1 3.4 11 10.5 12.1 1.6.2 2.1 1.2 2.3 4.4.3 4.1.3 4.1-3.7 4.8-5.3.8-9.1 5.3-9.1 10.7 0 7.1 3.4 11 10.5 12.1 1.2.2 2.1 1.2 2.3 2.6.5 3 3.9 3 4.4 0 .2-1.8 1.2-2.4 4.2-2.9 7.3-1.2 11.3-9 8.2-16.3-1.6-3.8-6.1-6.6-10.6-6.6-1.9 0-2.1-.5-1.8-4.2.3-4.1.4-4.3 4.2-4.9 7.3-1.2 11.3-9 8.2-16.3-1.6-3.8-6.1-6.6-10.6-6.6-1.8 0-2.1-.5-1.8-3.7.3-3.5.5-3.8 4.2-4.4 7.3-1.2 11.3-9 8.2-16.3-1.6-3.8-6.1-6.6-10.6-6.6-1.9 0-2.1-.5-1.8-4.2.3-4.1.4-4.3 4.2-4.9 7.3-1.2 11.3-9 8.2-16.3-1.6-3.8-6.1-6.6-10.6-6.6-1.8 0-2.1-.5-1.8-3.7.3-3.5.5-3.8 4.2-4.4 7.3-1.2 11.3-9 8.2-16.3-1.6-3.8-6.1-6.6-10.6-6.6-1.9 0-2.1-.5-1.8-4.2.3-4.1.4-4.3 4.2-4.9 7.3-1.2 11.3-9 8.2-16.3-1.6-3.7-6.1-6.6-10.6-6.6-1.3 0-2-.7-2-2s-.7-2-2-2-2 .7-2 1.9zm0 13.6c0 7.9-.1 8.5-2 8.5-1.2 0-3.2-1.1-4.5-2.5-4-4-3-11.6 1.8-13.5 4.5-1.8 4.7-1.4 4.7 7.5zm8.8-7.4c7.6 2.6 5.7 15.9-2.3 15.9-2.5 0-2.5-.1-2.5-8.5 0-4.7.4-8.5.9-8.5.4 0 2.2.5 3.9 1.1zM99 151.5c0 7.9-.1 8.5-2 8.5-1.2 0-3.2-1.1-4.5-2.5-4-4-3-11.6 1.8-13.5 4.5-1.8 4.7-1.4 4.7 7.5zm8.8-7.4c7.6 2.6 5.7 15.9-2.3 15.9-2.5 0-2.5-.1-2.5-8.5 0-4.7.4-8.5.9-8.5.4 0 2.2.5 3.9 1.1zM99 182.5c0 7.9-.1 8.5-2 8.5-1.2 0-3.2-1.1-4.5-2.5-4-4-3-11.6 1.8-13.5 4.5-1.8 4.7-1.4 4.7 7.5zm8.8-7.4c7.6 2.6 5.7 15.9-2.3 15.9-2.5 0-2.5-.1-2.5-8.5 0-4.7.4-8.5.9-8.5.4 0 2.2.5 3.9 1.1zM99 214.5c0 7.9-.1 8.5-2 8.5-1.2 0-3.2-1.1-4.5-2.5-4-4-3-11.6 1.8-13.5 4.5-1.8 4.7-1.4 4.7 7.5zm8.8-7.4c7.6 2.6 5.7 15.9-2.3 15.9-2.5 0-2.5-.1-2.5-8.5 0-4.7.4-8.5.9-8.5.4 0 2.2.5 3.9 1.1zM99 245.5c0 7.9-.1 8.5-2 8.5-1.2 0-3.2-1.1-4.5-2.5-4-4-3-11.6 1.8-13.5 4.5-1.8 4.7-1.4 4.7 7.5zm8.8-7.4c7.6 2.6 5.7 15.9-2.3 15.9-2.5 0-2.5-.1-2.5-8.5 0-4.7.4-8.5.9-8.5.4 0 2.2.5 3.9 1.1zM99 277.5c0 7.9-.1 8.5-2 8.5-1.2 0-3.2-1.1-4.5-2.5-4-4-3-11.6 1.8-13.5 4.5-1.8 4.7-1.4 4.7 7.5zm8.8-7.4c7.6 2.6 5.7 15.9-2.3 15.9-2.5 0-2.5-.1-2.5-8.5 0-4.7.4-8.5.9-8.5.4 0 2.2.5 3.9 1.1zM284 106c0 1.3-.7 2-2 2-13.8 0-16 20.7-2.4 22.9 3.8.6 3.9.8 4.2 4.9.3 3.7.1 4.2-1.8 4.2-4.5 0-9 2.8-10.6 6.6-3.1 7.3.9 15.1 8.2 16.3 3.7.6 3.9.9 4.2 4.4.3 3.2 0 3.7-1.8 3.7-4.5 0-9 2.8-10.6 6.6-3.1 7.3.9 15.1 8.2 16.3 3.8.6 3.9.8 4.2 4.9.3 3.7.1 4.2-1.8 4.2-4.5 0-9 2.8-10.6 6.6-3.1 7.3.9 15.1 8.2 16.3 3.7.6 3.9.9 4.2 4.4.3 3.2 0 3.7-1.8 3.7-4.5 0-9 2.8-10.6 6.6-3.1 7.3.9 15.1 8.2 16.3 3.8.6 3.9.8 4.2 4.9.3 3.7.1 4.2-1.8 4.2-4.5 0-9 2.8-10.6 6.6-3.1 7.3.9 15.1 8.2 16.3 3 .5 4 1.1 4.2 2.9.5 3 3.9 3 4.4 0 .2-1.4 1.1-2.4 2.3-2.6 7.1-1.1 10.5-5 10.5-12.1 0-5.4-3.8-9.9-9.1-10.7-4-.7-4-.7-3.7-4.8.2-3.2.7-4.2 2.3-4.4 7.1-1.1 10.5-5 10.5-12.1 0-5.4-3.8-9.9-9.1-10.7-3.9-.7-4-.8-3.7-4.3.2-2.7.8-3.7 2.3-3.9 7.1-1.1 10.5-5 10.5-12.1 0-5.4-3.8-9.9-9.1-10.7-4-.7-4-.7-3.7-4.8.2-3.2.7-4.2 2.3-4.4 7.1-1.1 10.5-5 10.5-12.1 0-5.4-3.8-9.9-9.1-10.7-3.9-.7-4-.8-3.7-4.3.2-2.7.8-3.7 2.3-3.9 7.1-1.1 10.5-5 10.5-12.1 0-5.4-3.8-9.9-9.1-10.7-4-.7-4-.7-3.7-4.8.2-3.2.7-4.2 2.3-4.4 7.1-1.1 10.5-5 10.5-12.1 0-5.4-3.8-9.9-9.1-10.7-2.9-.5-3.9-1.1-3.9-2.5 0-1.2-.7-1.9-2-1.9s-2 .7-2 2zm0 13.5c0 8.4 0 8.5-2.5 8.5-5.2 0-9-7.2-6.4-11.9 1.4-2.5 5.2-5.1 7.7-5.1.9 0 1.2 2.4 1.2 8.5zm11.3-5.3c3.8 4.5.3 13.8-5.3 13.8-1.9 0-2-.6-2-8.6v-8.6l2.8.6c1.5.4 3.5 1.6 4.5 2.8zM284 151.5c0 8.4 0 8.5-2.5 8.5-5.2 0-9-7.2-6.4-11.9 1.4-2.5 5.2-5.1 7.7-5.1.9 0 1.2 2.4 1.2 8.5zm11.3-5.3c3.8 4.5.3 13.8-5.3 13.8-1.9 0-2-.6-2-8.6v-8.6l2.8.6c1.5.4 3.5 1.6 4.5 2.8zM284 182.5c0 8.4 0 8.5-2.5 8.5-5.2 0-9-7.2-6.4-11.9 1.4-2.5 5.2-5.1 7.7-5.1.9 0 1.2 2.4 1.2 8.5zm11.3-5.3c3.8 4.5.3 13.8-5.3 13.8-1.9 0-2-.6-2-8.6v-8.6l2.8.6c1.5.4 3.5 1.6 4.5 2.8zM284 214.5c0 8.4 0 8.5-2.5 8.5-5.2 0-9-7.2-6.4-11.9 1.4-2.5 5.2-5.1 7.7-5.1.9 0 1.2 2.4 1.2 8.5zm11.3-5.3c3.8 4.5.3 13.8-5.3 13.8-1.9 0-2-.6-2-8.6v-8.6l2.8.6c1.5.4 3.5 1.6 4.5 2.8zM284 245.5c0 8.4 0 8.5-2.5 8.5-5.2 0-9-7.2-6.4-11.9 1.4-2.5 5.2-5.1 7.7-5.1.9 0 1.2 2.4 1.2 8.5zm11.3-5.3c3.8 4.5.3 13.8-5.3 13.8-1.9 0-2-.6-2-8.6v-8.6l2.8.6c1.5.4 3.5 1.6 4.5 2.8zM284 277.5c0 8.4 0 8.5-2.5 8.5-5.2 0-9-7.2-6.4-11.9 1.4-2.5 5.2-5.1 7.7-5.1.9 0 1.2 2.4 1.2 8.5zm11.3-5.3c3.8 4.5.3 13.8-5.3 13.8-1.9 0-2-.6-2-8.6v-8.6l2.8.6c1.5.4 3.5 1.6 4.5 2.8zM469 106c0 1.4-.7 2-2.1 2-3.4 0-8.5 2.9-9.8 5.6-.6 1.4-1.1 4.4-1.1 6.8 0 5 3.1 9.1 7.7 10.1 5.1 1.2 5.3 1.4 5.3 5.5 0 3.4-.3 4-2.1 4-3.4 0-8.5 2.9-9.8 5.6-.6 1.4-1.1 4.4-1.1 6.8 0 5 3.1 9.1 7.7 10.1 5.1 1.2 5.3 1.4 5.3 5 0 2.9-.4 3.5-2.1 3.5-3.4 0-8.5 2.9-9.8 5.6-.6 1.4-1.1 4.4-1.1 6.8 0 5 3.1 9.1 7.7 10.1 5.1 1.2 5.3 1.4 5.3 5.5 0 3.4-.3 4-2.1 4-3.4 0-8.5 2.9-9.8 5.6-.6 1.4-1.1 4.4-1.1 6.8 0 5 3.1 9.1 7.7 10.1 5.1 1.2 5.3 1.4 5.3 5 0 2.9-.4 3.5-2.1 3.5-3.4 0-8.5 2.9-9.8 5.6-.6 1.4-1.1 4.4-1.1 6.8 0 5 3.1 9.1 7.7 10.1 5.1 1.2 5.3 1.4 5.3 5.5 0 3.4-.3 4-2.1 4-3.4 0-8.5 2.9-9.8 5.6-.6 1.4-1.1 4.4-1.1 6.8 0 5 3.1 9.1 7.7 10.1 4.9 1.1 5.3 1.4 5.3 3.5 0 2.9 3.8 2.7 4.2-.2.2-1.6 1.2-2.4 3.3-2.8 4.2-.9 7.3-2.7 8.6-5.1 1.6-3.1 1.3-10.4-.6-13.2-1.6-2.5-6.1-4.7-9.6-4.7-1.5 0-1.9-.8-1.9-4 0-4.1.2-4.3 5.1-5.4 5.8-1.3 9-6.7 8.1-13.8-.5-4-4.5-7.7-9.1-8.4-3.9-.6-4.1-.9-4.1-4.1 0-3.4.3-3.7 5.1-4.7 5.8-1.3 9-6.7 8.1-13.8-.5-4-4.5-7.7-9.1-8.4-4-.6-4.1-.8-4.1-4.6 0-3.9.2-4.1 5.1-5.2 5.8-1.3 9-6.7 8.1-13.8-.5-4-4.5-7.7-9.1-8.4-3.9-.6-4.1-.9-4.1-4.1 0-3.4.3-3.7 5.1-4.7 5.8-1.3 9-6.7 8.1-13.8-.5-4-4.5-7.7-9.1-8.4-4-.6-4.1-.8-4.1-4.6 0-3.9.2-4.1 5.1-5.2 5.8-1.3 9-6.7 8.1-13.8-.5-4-4.5-7.7-9.1-8.4-3.1-.5-4.1-1.1-4.1-2.5 0-1.2-.7-1.9-2-1.9s-2 .7-2 2zm0 13.5c0 7.6-.2 8.5-1.9 8.5-1 0-3-.9-4.5-2.1-2.1-1.6-2.6-2.9-2.6-6.3 0-4.2 1.5-6.6 5-7.9 3.7-1.4 4-.9 4 7.8zm11.3-5.8c2.6 2.4 2.3 9.7-.5 12.3-1.2 1.1-3.2 2-4.5 2-2.2 0-2.3-.3-2.3-8.6v-8.6l2.8.7c1.5.3 3.5 1.4 4.5 2.2zM469 151.5c0 7.6-.2 8.5-1.9 8.5-1 0-3-.9-4.5-2.1-2.1-1.6-2.6-2.9-2.6-6.3 0-4.2 1.5-6.6 5-7.9 3.7-1.4 4-.9 4 7.8zm11.3-5.8c2.6 2.4 2.3 9.7-.5 12.3-1.2 1.1-3.2 2-4.5 2-2.2 0-2.3-.3-2.3-8.6v-8.6l2.8.7c1.5.3 3.5 1.4 4.5 2.2zM469 182.5c0 7.6-.2 8.5-1.9 8.5-1 0-3-.9-4.5-2.1-2.1-1.6-2.6-2.9-2.6-6.3 0-4.2 1.5-6.6 5-7.9 3.7-1.4 4-.9 4 7.8zm11.3-5.8c2.6 2.4 2.3 9.7-.5 12.3-1.2 1.1-3.2 2-4.5 2-2.2 0-2.3-.3-2.3-8.6v-8.6l2.8.7c1.5.3 3.5 1.4 4.5 2.2zM469 214.5c0 7.6-.2 8.5-1.9 8.5-1 0-3-.9-4.5-2.1-2.1-1.6-2.6-2.9-2.6-6.3 0-4.2 1.5-6.6 5-7.9 3.7-1.4 4-.9 4 7.8zm11.3-5.8c2.6 2.4 2.3 9.7-.5 12.3-1.2 1.1-3.2 2-4.5 2-2.2 0-2.3-.3-2.3-8.6v-8.6l2.8.7c1.5.3 3.5 1.4 4.5 2.2zM469 245.5c0 7.6-.2 8.5-1.9 8.5-1 0-3-.9-4.5-2.1-2.1-1.6-2.6-2.9-2.6-6.3 0-4.2 1.5-6.6 5-7.9 3.7-1.4 4-.9 4 7.8zm11.3-5.8c2.6 2.4 2.3 9.7-.5 12.3-1.2 1.1-3.2 2-4.5 2-2.2 0-2.3-.3-2.3-8.6v-8.6l2.8.7c1.5.3 3.5 1.4 4.5 2.2zM469 277.5c0 7.6-.2 8.5-1.9 8.5-1 0-3-.9-4.5-2.1-2.1-1.6-2.6-2.9-2.6-6.3 0-4.2 1.5-6.6 5-7.9 3.7-1.4 4-.9 4 7.8zm11.3-5.8c2.6 2.4 2.3 9.7-.5 12.3-1.2 1.1-3.2 2-4.5 2-2.2 0-2.3-.3-2.3-8.6v-8.6l2.8.7c1.5.3 3.5 1.4 4.5 2.2zM690 106c0 1.4-.7 2-2.1 2-3.4 0-8.5 2.9-9.8 5.6-.6 1.4-1.1 4.4-1.1 6.8 0 5 3.1 9.1 7.7 10.1 5.1 1.2 5.3 1.4 5.3 5.5 0 3.4-.3 4-2.1 4-3.4 0-8.5 2.9-9.8 5.6-.6 1.4-1.1 4.4-1.1 6.8 0 5 3.1 9.1 7.7 10.1 5.1 1.2 5.3 1.4 5.3 5 0 2.9-.4 3.5-2.1 3.5-3.4 0-8.5 2.9-9.8 5.6-.6 1.4-1.1 4.4-1.1 6.8 0 5 3.1 9.1 7.7 10.1 5.1 1.2 5.3 1.4 5.3 5.5 0 3.4-.3 4-2.1 4-3.4 0-8.5 2.9-9.8 5.6-.6 1.4-1.1 4.4-1.1 6.8 0 5 3.1 9.1 7.7 10.1 5.1 1.2 5.3 1.4 5.3 5 0 2.9-.4 3.5-2.1 3.5-3.4 0-8.5 2.9-9.8 5.6-.6 1.4-1.1 4.4-1.1 6.8 0 5 3.1 9.1 7.7 10.1 5.1 1.2 5.3 1.4 5.3 5.5 0 3.4-.3 4-2.1 4-3.4 0-8.5 2.9-9.8 5.6-.6 1.4-1.1 4.4-1.1 6.8 0 5 3.1 9.1 7.7 10.1 4.9 1.1 5.3 1.4 5.3 3.5 0 2.9 3.8 2.7 4.2-.2.2-1.6 1.2-2.4 3.3-2.8 4.2-.9 7.3-2.7 8.6-5.1 1.6-3.1 1.3-10.4-.6-13.2-1.6-2.5-6.1-4.7-9.6-4.7-1.5 0-1.9-.8-1.9-4 0-4.1.2-4.3 5.1-5.4 5.8-1.3 9-6.7 8.1-13.8-.5-4-4.5-7.7-9.1-8.4-3.9-.6-4.1-.9-4.1-4.1 0-3.4.3-3.7 5.1-4.7 5.8-1.3 9-6.7 8.1-13.8-.5-4-4.5-7.7-9.1-8.4-4-.6-4.1-.8-4.1-4.6 0-3.9.2-4.1 5.1-5.2 5.8-1.3 9-6.7 8.1-13.8-.5-4-4.5-7.7-9.1-8.4-3.9-.6-4.1-.9-4.1-4.1 0-3.4.3-3.7 5.1-4.7 5.8-1.3 9-6.7 8.1-13.8-.5-4-4.5-7.7-9.1-8.4-4-.6-4.1-.8-4.1-4.6 0-3.9.2-4.1 5.1-5.2 5.8-1.3 9-6.7 8.1-13.8-.5-4-4.5-7.7-9.1-8.4-3.1-.5-4.1-1.1-4.1-2.5 0-1.2-.7-1.9-2-1.9s-2 .7-2 2zm0 13.5c0 7.6-.2 8.5-1.9 8.5-1 0-3-.9-4.5-2.1-2.1-1.6-2.6-2.9-2.6-6.3 0-4.2 1.5-6.6 5-7.9 3.7-1.4 4-.9 4 7.8zm11.3-5.8c2.6 2.4 2.3 9.7-.5 12.3-1.2 1.1-3.2 2-4.5 2-2.2 0-2.3-.3-2.3-8.6v-8.6l2.8.7c1.5.3 3.5 1.4 4.5 2.2zM690 151.5c0 7.6-.2 8.5-1.9 8.5-1 0-3-.9-4.5-2.1-2.1-1.6-2.6-2.9-2.6-6.3 0-4.2 1.5-6.6 5-7.9 3.7-1.4 4-.9 4 7.8zm11.3-5.8c2.6 2.4 2.3 9.7-.5 12.3-1.2 1.1-3.2 2-4.5 2-2.2 0-2.3-.3-2.3-8.6v-8.6l2.8.7c1.5.3 3.5 1.4 4.5 2.2zM690 182.5c0 7.6-.2 8.5-1.9 8.5-1 0-3-.9-4.5-2.1-2.1-1.6-2.6-2.9-2.6-6.3 0-4.2 1.5-6.6 5-7.9 3.7-1.4 4-.9 4 7.8zm11.3-5.8c2.6 2.4 2.3 9.7-.5 12.3-1.2 1.1-3.2 2-4.5 2-2.2 0-2.3-.3-2.3-8.6v-8.6l2.8.7c1.5.3 3.5 1.4 4.5 2.2zM690 214.5c0 7.6-.2 8.5-1.9 8.5-1 0-3-.9-4.5-2.1-2.1-1.6-2.6-2.9-2.6-6.3 0-4.2 1.5-6.6 5-7.9 3.7-1.4 4-.9 4 7.8zm11.3-5.8c2.6 2.4 2.3 9.7-.5 12.3-1.2 1.1-3.2 2-4.5 2-2.2 0-2.3-.3-2.3-8.6v-8.6l2.8.7c1.5.3 3.5 1.4 4.5 2.2zM690 245.5c0 7.6-.2 8.5-1.9 8.5-1 0-3-.9-4.5-2.1-2.1-1.6-2.6-2.9-2.6-6.3 0-4.2 1.5-6.6 5-7.9 3.7-1.4 4-.9 4 7.8zm11.3-5.8c2.6 2.4 2.3 9.7-.5 12.3-1.2 1.1-3.2 2-4.5 2-2.2 0-2.3-.3-2.3-8.6v-8.6l2.8.7c1.5.3 3.5 1.4 4.5 2.2zM690 277.5c0 7.6-.2 8.5-1.9 8.5-1 0-3-.9-4.5-2.1-2.1-1.6-2.6-2.9-2.6-6.3 0-4.2 1.5-6.6 5-7.9 3.7-1.4 4-.9 4 7.8zm11.3-5.8c2.6 2.4 2.3 9.7-.5 12.3-1.2 1.1-3.2 2-4.5 2-2.2 0-2.3-.3-2.3-8.6v-8.6l2.8.7c1.5.3 3.5 1.4 4.5 2.2zM801 106c0 1.3-.7 2-2 2-13.8 0-16 20.7-2.4 22.9 3.8.6 3.9.8 4.2 4.9.3 3.7.1 4.2-1.8 4.2-4.5 0-9 2.8-10.6 6.6-3.1 7.3.9 15.1 8.2 16.3 3.7.6 3.9.9 4.2 4.4.3 3.2 0 3.7-1.8 3.7-4.5 0-9 2.8-10.6 6.6-3.1 7.3.9 15.1 8.2 16.3 3.8.6 3.9.8 4.2 4.9.3 3.7.1 4.2-1.8 4.2-4.5 0-9 2.8-10.6 6.6-3.1 7.3.9 15.1 8.2 16.3 3.7.6 3.9.9 4.2 4.4.3 3.2 0 3.7-1.8 3.7-4.5 0-9 2.8-10.6 6.6-3.1 7.3.9 15.1 8.2 16.3 3.8.6 3.9.8 4.2 4.9.3 3.7.1 4.2-1.8 4.2-4.5 0-9 2.8-10.6 6.6-3.1 7.3.9 15.1 8.2 16.3 3 .5 4 1.1 4.2 2.9.5 3 3.9 3 4.4 0 .2-1.4 1.1-2.4 2.3-2.6 7.1-1.1 10.5-5 10.5-12.1 0-5.4-3.8-9.9-9.1-10.7-4-.7-4-.7-3.7-4.8.2-3.2.7-4.2 2.3-4.4 7.1-1.1 10.5-5 10.5-12.1 0-5.4-3.8-9.9-9.1-10.7-3.9-.7-4-.8-3.7-4.3.2-2.7.8-3.7 2.3-3.9 7.1-1.1 10.5-5 10.5-12.1 0-5.4-3.8-9.9-9.1-10.7-4-.7-4-.7-3.7-4.8.2-3.2.7-4.2 2.3-4.4 7.1-1.1 10.5-5 10.5-12.1 0-5.4-3.8-9.9-9.1-10.7-3.9-.7-4-.8-3.7-4.3.2-2.7.8-3.7 2.3-3.9 7.1-1.1 10.5-5 10.5-12.1 0-5.4-3.8-9.9-9.1-10.7-4-.7-4-.7-3.7-4.8.2-3.2.7-4.2 2.3-4.4 7.1-1.1 10.5-5 10.5-12.1 0-5.4-3.8-9.9-9.1-10.7-2.9-.5-3.9-1.1-3.9-2.5 0-1.2-.7-1.9-2-1.9s-2 .7-2 2zm0 13.5c0 8.4 0 8.5-2.5 8.5-5.2 0-9-7.2-6.4-11.9 1.4-2.5 5.2-5.1 7.7-5.1.9 0 1.2 2.4 1.2 8.5zm11.3-5.3c3.8 4.5.3 13.8-5.3 13.8-1.9 0-2-.6-2-8.6v-8.6l2.8.6c1.5.4 3.5 1.6 4.5 2.8zM801 151.5c0 8.4 0 8.5-2.5 8.5-5.2 0-9-7.2-6.4-11.9 1.4-2.5 5.2-5.1 7.7-5.1.9 0 1.2 2.4 1.2 8.5zm11.3-5.3c3.8 4.5.3 13.8-5.3 13.8-1.9 0-2-.6-2-8.6v-8.6l2.8.6c1.5.4 3.5 1.6 4.5 2.8zM801 182.5c0 8.4 0 8.5-2.5 8.5-5.2 0-9-7.2-6.4-11.9 1.4-2.5 5.2-5.1 7.7-5.1.9 0 1.2 2.4 1.2 8.5zm11.3-5.3c3.8 4.5.3 13.8-5.3 13.8-1.9 0-2-.6-2-8.6v-8.6l2.8.6c1.5.4 3.5 1.6 4.5 2.8zM801 214.5c0 8.4 0 8.5-2.5 8.5-5.2 0-9-7.2-6.4-11.9 1.4-2.5 5.2-5.1 7.7-5.1.9 0 1.2 2.4 1.2 8.5zm11.3-5.3c3.8 4.5.3 13.8-5.3 13.8-1.9 0-2-.6-2-8.6v-8.6l2.8.6c1.5.4 3.5 1.6 4.5 2.8zM801 245.5c0 8.4 0 8.5-2.5 8.5-5.2 0-9-7.2-6.4-11.9 1.4-2.5 5.2-5.1 7.7-5.1.9 0 1.2 2.4 1.2 8.5zm11.3-5.3c3.8 4.5.3 13.8-5.3 13.8-1.9 0-2-.6-2-8.6v-8.6l2.8.6c1.5.4 3.5 1.6 4.5 2.8zM801 277.5c0 8.4 0 8.5-2.5 8.5-5.2 0-9-7.2-6.4-11.9 1.4-2.5 5.2-5.1 7.7-5.1.9 0 1.2 2.4 1.2 8.5zm11.3-5.3c3.8 4.5.3 13.8-5.3 13.8-1.9 0-2-.6-2-8.6v-8.6l2.8.6c1.5.4 3.5 1.6 4.5 2.8zM912 106c0 1.3-.7 2-2 2-13.8 0-16 20.7-2.4 22.9 3.8.6 3.9.8 4.2 4.9.3 3.7.1 4.2-1.8 4.2-4.5 0-9 2.8-10.6 6.6-3.1 7.3.9 15.1 8.2 16.3 3.7.6 3.9.9 4.2 4.4.3 3.2 0 3.7-1.8 3.7-4.5 0-9 2.8-10.6 6.6-3.1 7.3.9 15.1 8.2 16.3 3.8.6 3.9.8 4.2 4.9.3 3.7.1 4.2-1.8 4.2-4.5 0-9 2.8-10.6 6.6-3.1 7.3.9 15.1 8.2 16.3 3.7.6 3.9.9 4.2 4.4.3 3.2 0 3.7-1.8 3.7-4.5 0-9 2.8-10.6 6.6-3.1 7.3.9 15.1 8.2 16.3 3.8.6 3.9.8 4.2 4.9.3 3.7.1 4.2-1.8 4.2-4.5 0-9 2.8-10.6 6.6-3.1 7.3.9 15.1 8.2 16.3 3 .5 4 1.1 4.2 2.9.5 3 3.9 3 4.4 0 .2-1.4 1.1-2.4 2.3-2.6 7.1-1.1 10.5-5 10.5-12.1 0-5.4-3.8-9.9-9.1-10.7-4-.7-4-.7-3.7-4.8.2-3.2.7-4.2 2.3-4.4 7.1-1.1 10.5-5 10.5-12.1 0-5.4-3.8-9.9-9.1-10.7-3.9-.7-4-.8-3.7-4.3.2-2.7.8-3.7 2.3-3.9 7.1-1.1 10.5-5 10.5-12.1 0-5.4-3.8-9.9-9.1-10.7-4-.7-4-.7-3.7-4.8.2-3.2.7-4.2 2.3-4.4 7.1-1.1 10.5-5 10.5-12.1 0-5.4-3.8-9.9-9.1-10.7-3.9-.7-4-.8-3.7-4.3.2-2.7.8-3.7 2.3-3.9 7.1-1.1 10.5-5 10.5-12.1 0-5.4-3.8-9.9-9.1-10.7-4-.7-4-.7-3.7-4.8.2-3.2.7-4.2 2.3-4.4 7.1-1.1 10.5-5 10.5-12.1 0-5.4-3.8-9.9-9.1-10.7-2.9-.5-3.9-1.1-3.9-2.5 0-1.2-.7-1.9-2-1.9s-2 .7-2 2zm0 13.5c0 8.4 0 8.5-2.5 8.5-5.2 0-9-7.2-6.4-11.9 1.4-2.5 5.2-5.1 7.7-5.1.9 0 1.2 2.4 1.2 8.5zm11.3-5.3c3.8 4.5.3 13.8-5.3 13.8-1.9 0-2-.6-2-8.6v-8.6l2.8.6c1.5.4 3.5 1.6 4.5 2.8zM912 151.5c0 8.4 0 8.5-2.5 8.5-5.2 0-9-7.2-6.4-11.9 1.4-2.5 5.2-5.1 7.7-5.1.9 0 1.2 2.4 1.2 8.5zm11.3-5.3c3.8 4.5.3 13.8-5.3 13.8-1.9 0-2-.6-2-8.6v-8.6l2.8.6c1.5.4 3.5 1.6 4.5 2.8zM912 182.5c0 8.4 0 8.5-2.5 8.5-5.2 0-9-7.2-6.4-11.9 1.4-2.5 5.2-5.1 7.7-5.1.9 0 1.2 2.4 1.2 8.5zm11.3-5.3c3.8 4.5.3 13.8-5.3 13.8-1.9 0-2-.6-2-8.6v-8.6l2.8.6c1.5.4 3.5 1.6 4.5 2.8zM912 214.5c0 8.4 0 8.5-2.5 8.5-5.2 0-9-7.2-6.4-11.9 1.4-2.5 5.2-5.1 7.7-5.1.9 0 1.2 2.4 1.2 8.5zm11.3-5.3c3.8 4.5.3 13.8-5.3 13.8-1.9 0-2-.6-2-8.6v-8.6l2.8.6c1.5.4 3.5 1.6 4.5 2.8zM912 245.5c0 8.4 0 8.5-2.5 8.5-5.2 0-9-7.2-6.4-11.9 1.4-2.5 5.2-5.1 7.7-5.1.9 0 1.2 2.4 1.2 8.5zm11.3-5.3c3.8 4.5.3 13.8-5.3 13.8-1.9 0-2-.6-2-8.6v-8.6l2.8.6c1.5.4 3.5 1.6 4.5 2.8zM912 277.5c0 8.4 0 8.5-2.5 8.5-5.2 0-9-7.2-6.4-11.9 1.4-2.5 5.2-5.1 7.7-5.1.9 0 1.2 2.4 1.2 8.5zm11.3-5.3c3.8 4.5.3 13.8-5.3 13.8-1.9 0-2-.6-2-8.6v-8.6l2.8.6c1.5.4 3.5 1.6 4.5 2.8zM1096.7 106c-.3 1.3-1.4 2-2.9 2-3.4 0-8.7 3.6-9.9 6.8-1.8 4.5-.4 10.3 3.1 13.4 1.6 1.6 4 2.8 5.3 2.8 3.5 0 4.7 1.4 4.4 5-.2 3-.7 3.5-3.4 4.1-7.4 1.5-10.9 6.2-9.9 13.4.5 4.6 5.2 9.5 8.9 9.5 3.4 0 4.6 1.3 4.3 4.5-.3 2.4-.9 3.1-3.4 3.6-7.3 1.5-10.8 6.2-9.8 13.4.5 4.6 5.2 9.5 8.9 9.5 3.5 0 4.7 1.4 4.4 5-.2 3-.7 3.5-3.4 4.1-7.4 1.5-10.9 6.2-9.9 13.4.5 4.6 5.2 9.5 8.9 9.5 3.4 0 4.6 1.3 4.3 4.5-.3 2.4-.9 3.1-3.4 3.6-7.3 1.5-10.8 6.2-9.8 13.4.5 4.6 5.2 9.5 8.9 9.5 3.5 0 4.7 1.4 4.4 5-.2 3-.7 3.5-3.4 4.1-7.4 1.5-10.9 6.2-9.9 13.4.5 4.4 5.1 9.5 8.5 9.5 3.3 0 5.1 1.1 5.1 3.1 0 1 .7 1.9 1.5 1.9s1.5-.9 1.5-1.9c0-2 1.8-3.1 5.1-3.1 3.4 0 8-5.1 8.5-9.5 1-7.2-2.5-11.9-9.9-13.4-2.7-.6-3.2-1.1-3.4-4.1-.3-3.6.9-5 4.4-5 3.7 0 8.4-4.9 8.9-9.5 1-7.2-2.5-11.9-9.8-13.4-2.5-.5-3.1-1.2-3.4-3.6-.3-3.2.9-4.5 4.3-4.5 3.7 0 8.4-4.9 8.9-9.5 1-7.2-2.5-11.9-9.9-13.4-2.7-.6-3.2-1.1-3.4-4.1-.3-3.6.9-5 4.4-5 3.7 0 8.4-4.9 8.9-9.5 1-7.2-2.5-11.9-9.8-13.4-2.5-.5-3.1-1.2-3.4-3.6-.3-3.2.9-4.5 4.3-4.5 3.7 0 8.4-4.9 8.9-9.5 1-7.2-2.5-11.9-9.9-13.4-2.7-.6-3.2-1.1-3.4-4.1-.3-3.6.9-5 4.4-5 1.3 0 3.7-1.2 5.3-2.8 3.5-3.1 4.9-8.9 3.1-13.4-1.2-3.2-6.5-6.8-9.9-6.8-1.5 0-2.6-.7-2.9-2-.3-1.1-1.1-2-1.8-2s-1.5.9-1.8 2zm.1 13.8.3 8.2h-2.6c-5.3 0-9-6.8-6.9-12.5.7-1.8 6.2-4.6 7.9-4.1.6.1 1.1 3.9 1.3 8.4zm8.3-7.8c.5 0 1.8.9 2.9 2 4.5 4.5.8 14-5.5 14-2.5 0-2.5-.1-2.5-7.8 0-8.2.5-9.6 2.8-8.7.7.3 1.8.5 2.3.5zm-8.3 39.8.3 8.2h-2.6c-5.3 0-9-6.8-6.9-12.5.7-1.8 6.2-4.6 7.9-4.1.6.1 1.1 3.9 1.3 8.4zm8.3-7.8c.5 0 1.8.9 2.9 2 4.5 4.5.8 14-5.5 14-2.5 0-2.5-.1-2.5-7.8 0-8.2.5-9.6 2.8-8.7.7.3 1.8.5 2.3.5zm-8.3 38.8.3 8.2h-2.6c-5.3 0-9-6.8-6.9-12.5.7-1.8 6.2-4.6 7.9-4.1.6.1 1.1 3.9 1.3 8.4zm8.3-7.8c.5 0 1.8.9 2.9 2 4.5 4.5.8 14-5.5 14-2.5 0-2.5-.1-2.5-7.8 0-8.2.5-9.6 2.8-8.7.7.3 1.8.5 2.3.5zm-8.3 39.8.3 8.2h-2.6c-5.3 0-9-6.8-6.9-12.5.7-1.8 6.2-4.6 7.9-4.1.6.1 1.1 3.9 1.3 8.4zm8.3-7.8c.5 0 1.8.9 2.9 2 4.5 4.5.8 14-5.5 14-2.5 0-2.5-.1-2.5-7.8 0-8.2.5-9.6 2.8-8.7.7.3 1.8.5 2.3.5zm-8.3 38.8.3 8.2h-2.6c-5.3 0-9-6.8-6.9-12.5.7-1.8 6.2-4.6 7.9-4.1.6.1 1.1 3.9 1.3 8.4zm8.3-7.8c.5 0 1.8.9 2.9 2 4.5 4.5.8 14-5.5 14-2.5 0-2.5-.1-2.5-7.8 0-8.2.5-9.6 2.8-8.7.7.3 1.8.5 2.3.5zm-8.3 39.8.3 8.2h-2.6c-5.3 0-9-6.8-6.9-12.5.7-1.8 6.2-4.6 7.9-4.1.6.1 1.1 3.9 1.3 8.4zm8.3-7.8c.5 0 1.8.9 2.9 2 4.5 4.5.8 14-5.5 14-2.5 0-2.5-.1-2.5-7.8 0-8.2.5-9.6 2.8-8.7.7.3 1.8.5 2.3.5zM173 137.9c0 1.4-1 2-3.9 2.5-5.3.8-9.1 5.3-9.1 10.7 0 7.1 3.4 11 10.5 12.1 1.5.2 2.1 1.2 2.3 3.9.3 3.5.2 3.6-3.7 4.3-5.3.8-9.1 5.3-9.1 10.7 0 7.1 3.4 11 10.5 12.1 1.6.2 2.1 1.2 2.3 4.4.3 4.1.3 4.1-3.7 4.8-5.3.8-9.1 5.3-9.1 10.7 0 7.1 3.4 11 10.5 12.1 1.5.2 2.1 1.2 2.3 3.9.3 3.5.2 3.6-3.7 4.3-5.3.8-9.1 5.3-9.1 10.7 0 7.1 3.4 11 10.5 12.1 1.2.2 2.1 1.2 2.3 2.6.5 3 3.9 3 4.4 0 .2-1.8 1.2-2.4 4.2-2.9 7.3-1.2 11.3-9 8.2-16.3-1.6-3.8-6.1-6.6-10.6-6.6-1.8 0-2.1-.5-1.8-3.7.3-3.5.5-3.8 4.2-4.4 7.3-1.2 11.3-9 8.2-16.3-1.6-3.8-6.1-6.6-10.6-6.6-1.9 0-2.1-.5-1.8-4.2.3-4.1.4-4.3 4.2-4.9 7.3-1.2 11.3-9 8.2-16.3-1.6-3.8-6.1-6.6-10.6-6.6-1.8 0-2.1-.5-1.8-3.7.3-3.5.5-3.8 4.2-4.4 7.3-1.2 11.3-9 8.2-16.3-1.6-3.7-6.1-6.6-10.6-6.6-1.3 0-2-.7-2-2s-.7-2-2-2-2 .7-2 1.9zm0 13.6c0 7.9-.1 8.5-2 8.5-1.2 0-3.2-1.1-4.5-2.5-4-4-3-11.6 1.8-13.5 4.5-1.8 4.7-1.4 4.7 7.5zm8.8-7.4c7.6 2.6 5.7 15.9-2.3 15.9-2.5 0-2.5-.1-2.5-8.5 0-4.7.4-8.5.9-8.5.4 0 2.2.5 3.9 1.1zm-8.8 38.4c0 7.9-.1 8.5-2 8.5-1.2 0-3.2-1.1-4.5-2.5-4-4-3-11.6 1.8-13.5 4.5-1.8 4.7-1.4 4.7 7.5zm8.8-7.4c7.6 2.6 5.7 15.9-2.3 15.9-2.5 0-2.5-.1-2.5-8.5 0-4.7.4-8.5.9-8.5.4 0 2.2.5 3.9 1.1zm-8.8 39.4c0 7.9-.1 8.5-2 8.5-1.2 0-3.2-1.1-4.5-2.5-4-4-3-11.6 1.8-13.5 4.5-1.8 4.7-1.4 4.7 7.5zm8.8-7.4c7.6 2.6 5.7 15.9-2.3 15.9-2.5 0-2.5-.1-2.5-8.5 0-4.7.4-8.5.9-8.5.4 0 2.2.5 3.9 1.1zm-8.8 38.4c0 7.9-.1 8.5-2 8.5-1.2 0-3.2-1.1-4.5-2.5-4-4-3-11.6 1.8-13.5 4.5-1.8 4.7-1.4 4.7 7.5zm8.8-7.4c7.6 2.6 5.7 15.9-2.3 15.9-2.5 0-2.5-.1-2.5-8.5 0-4.7.4-8.5.9-8.5.4 0 2.2.5 3.9 1.1zM358 138c0 1.3-.7 2-2 2-13.8 0-16 20.7-2.4 22.9 3.7.6 3.9.9 4.2 4.4.3 3.2 0 3.7-1.8 3.7-4.5 0-9 2.8-10.6 6.6-3.1 7.3.9 15.1 8.2 16.3 3.8.6 3.9.8 4.2 4.9.3 3.7.1 4.2-1.8 4.2-4.5 0-9 2.8-10.6 6.6-3.1 7.3.9 15.1 8.2 16.3 3.7.6 3.9.9 4.2 4.4.3 3.2 0 3.7-1.8 3.7-4.5 0-9 2.8-10.6 6.6-3.1 7.3.9 15.1 8.2 16.3 3 .5 4 1.1 4.2 2.9.5 3 3.9 3 4.4 0 .2-1.4 1.1-2.4 2.3-2.6 7.1-1.1 10.5-5 10.5-12.1 0-5.4-3.8-9.9-9.1-10.7-3.9-.7-4-.8-3.7-4.3.2-2.7.8-3.7 2.3-3.9 7.1-1.1 10.5-5 10.5-12.1 0-5.4-3.8-9.9-9.1-10.7-4-.7-4-.7-3.7-4.8.2-3.2.7-4.2 2.3-4.4 7.1-1.1 10.5-5 10.5-12.1 0-5.4-3.8-9.9-9.1-10.7-3.9-.7-4-.8-3.7-4.3.2-2.7.8-3.7 2.3-3.9 7.1-1.1 10.5-5 10.5-12.1 0-5.4-3.8-9.9-9.1-10.7-2.9-.5-3.9-1.1-3.9-2.5 0-1.2-.7-1.9-2-1.9s-2 .7-2 2zm0 13.5c0 8.4 0 8.5-2.5 8.5-5.2 0-9-7.2-6.4-11.9 1.4-2.5 5.2-5.1 7.7-5.1.9 0 1.2 2.4 1.2 8.5zm11.3-5.3c3.8 4.5.3 13.8-5.3 13.8-1.9 0-2-.6-2-8.6v-8.6l2.8.6c1.5.4 3.5 1.6 4.5 2.8zM358 182.5c0 8.4 0 8.5-2.5 8.5-5.2 0-9-7.2-6.4-11.9 1.4-2.5 5.2-5.1 7.7-5.1.9 0 1.2 2.4 1.2 8.5zm11.3-5.3c3.8 4.5.3 13.8-5.3 13.8-1.9 0-2-.6-2-8.6v-8.6l2.8.6c1.5.4 3.5 1.6 4.5 2.8zM358 214.5c0 8.4 0 8.5-2.5 8.5-5.2 0-9-7.2-6.4-11.9 1.4-2.5 5.2-5.1 7.7-5.1.9 0 1.2 2.4 1.2 8.5zm11.3-5.3c3.8 4.5.3 13.8-5.3 13.8-1.9 0-2-.6-2-8.6v-8.6l2.8.6c1.5.4 3.5 1.6 4.5 2.8zM358 245.5c0 8.4 0 8.5-2.5 8.5-5.2 0-9-7.2-6.4-11.9 1.4-2.5 5.2-5.1 7.7-5.1.9 0 1.2 2.4 1.2 8.5zm11.3-5.3c3.8 4.5.3 13.8-5.3 13.8-1.9 0-2-.6-2-8.6v-8.6l2.8.6c1.5.4 3.5 1.6 4.5 2.8zM505.7 138c-.3 1.3-1.4 2-2.9 2-3.4 0-8.7 3.6-9.9 6.8-1.8 4.5-.4 10.3 3.1 13.4 1.6 1.6 4 2.8 5.3 2.8 3.4 0 4.6 1.3 4.3 4.5-.3 2.4-.9 3.1-3.4 3.6-7.3 1.5-10.8 6.2-9.8 13.4.5 4.6 5.2 9.5 8.9 9.5 3.5 0 4.7 1.4 4.4 5-.2 3-.7 3.5-3.4 4.1-7.4 1.5-10.9 6.2-9.9 13.4.5 4.6 5.2 9.5 8.9 9.5 3.4 0 4.6 1.3 4.3 4.5-.3 2.4-.9 3.1-3.4 3.6-7.3 1.5-10.8 6.2-9.8 13.4.5 4.4 5.1 9.5 8.5 9.5 3.3 0 5.1 1.1 5.1 3.1 0 1 .7 1.9 1.5 1.9s1.5-.9 1.5-1.9c0-2 1.8-3.1 5.1-3.1 3.4 0 8-5.1 8.5-9.5 1-7.2-2.5-11.9-9.8-13.4-2.5-.5-3.1-1.2-3.4-3.6-.3-3.2.9-4.5 4.3-4.5 3.7 0 8.4-4.9 8.9-9.5 1-7.2-2.5-11.9-9.9-13.4-2.7-.6-3.2-1.1-3.4-4.1-.3-3.6.9-5 4.4-5 3.7 0 8.4-4.9 8.9-9.5 1-7.2-2.5-11.9-9.8-13.4-2.5-.5-3.1-1.2-3.4-3.6-.3-3.2.9-4.5 4.3-4.5 1.3 0 3.7-1.2 5.3-2.8 3.5-3.1 4.9-8.9 3.1-13.4-1.2-3.2-6.5-6.8-9.9-6.8-1.5 0-2.6-.7-2.9-2-.3-1.1-1.1-2-1.8-2s-1.5.9-1.8 2zm.1 13.8.3 8.2h-2.6c-5.3 0-9-6.8-6.9-12.5.7-1.8 6.2-4.6 7.9-4.1.6.1 1.1 3.9 1.3 8.4zm8.3-7.8c.5 0 1.8.9 2.9 2 4.5 4.5.8 14-5.5 14-2.5 0-2.5-.1-2.5-7.8 0-8.2.5-9.6 2.8-8.7.7.3 1.8.5 2.3.5zm-8.3 38.8.3 8.2h-2.6c-5.3 0-9-6.8-6.9-12.5.7-1.8 6.2-4.6 7.9-4.1.6.1 1.1 3.9 1.3 8.4zm8.3-7.8c.5 0 1.8.9 2.9 2 4.5 4.5.8 14-5.5 14-2.5 0-2.5-.1-2.5-7.8 0-8.2.5-9.6 2.8-8.7.7.3 1.8.5 2.3.5zm-8.3 39.8.3 8.2h-2.6c-5.3 0-9-6.8-6.9-12.5.7-1.8 6.2-4.6 7.9-4.1.6.1 1.1 3.9 1.3 8.4zm8.3-7.8c.5 0 1.8.9 2.9 2 4.5 4.5.8 14-5.5 14-2.5 0-2.5-.1-2.5-7.8 0-8.2.5-9.6 2.8-8.7.7.3 1.8.5 2.3.5zm-8.3 38.8.3 8.2h-2.6c-5.3 0-9-6.8-6.9-12.5.7-1.8 6.2-4.6 7.9-4.1.6.1 1.1 3.9 1.3 8.4zm8.3-7.8c.5 0 1.8.9 2.9 2 4.5 4.5.8 14-5.5 14-2.5 0-2.5-.1-2.5-7.8 0-8.2.5-9.6 2.8-8.7.7.3 1.8.5 2.3.5zM616.7 138c-.3 1.3-1.4 2-2.9 2-3.4 0-8.7 3.6-9.9 6.8-1.8 4.5-.4 10.3 3.1 13.4 1.6 1.6 4 2.8 5.3 2.8 3.4 0 4.6 1.3 4.3 4.5-.3 2.4-.9 3.1-3.4 3.6-7.3 1.5-10.8 6.2-9.8 13.4.5 4.6 5.2 9.5 8.9 9.5 3.5 0 4.7 1.4 4.4 5-.2 3-.7 3.5-3.4 4.1-7.4 1.5-10.9 6.2-9.9 13.4.5 4.6 5.2 9.5 8.9 9.5 3.4 0 4.6 1.3 4.3 4.5-.3 2.4-.9 3.1-3.4 3.6-7.3 1.5-10.8 6.2-9.8 13.4.5 4.4 5.1 9.5 8.5 9.5 3.3 0 5.1 1.1 5.1 3.1 0 1 .7 1.9 1.5 1.9s1.5-.9 1.5-1.9c0-2 1.8-3.1 5.1-3.1 3.4 0 8-5.1 8.5-9.5 1-7.2-2.5-11.9-9.8-13.4-2.5-.5-3.1-1.2-3.4-3.6-.3-3.2.9-4.5 4.3-4.5 3.7 0 8.4-4.9 8.9-9.5 1-7.2-2.5-11.9-9.9-13.4-2.7-.6-3.2-1.1-3.4-4.1-.3-3.6.9-5 4.4-5 3.7 0 8.4-4.9 8.9-9.5 1-7.2-2.5-11.9-9.8-13.4-2.5-.5-3.1-1.2-3.4-3.6-.3-3.2.9-4.5 4.3-4.5 1.3 0 3.7-1.2 5.3-2.8 3.5-3.1 4.9-8.9 3.1-13.4-1.2-3.2-6.5-6.8-9.9-6.8-1.5 0-2.6-.7-2.9-2-.3-1.1-1.1-2-1.8-2s-1.5.9-1.8 2zm.1 13.8.3 8.2h-2.6c-5.3 0-9-6.8-6.9-12.5.7-1.8 6.2-4.6 7.9-4.1.6.1 1.1 3.9 1.3 8.4zm8.3-7.8c.5 0 1.8.9 2.9 2 4.5 4.5.8 14-5.5 14-2.5 0-2.5-.1-2.5-7.8 0-8.2.5-9.6 2.8-8.7.7.3 1.8.5 2.3.5zm-8.3 38.8.3 8.2h-2.6c-5.3 0-9-6.8-6.9-12.5.7-1.8 6.2-4.6 7.9-4.1.6.1 1.1 3.9 1.3 8.4zm8.3-7.8c.5 0 1.8.9 2.9 2 4.5 4.5.8 14-5.5 14-2.5 0-2.5-.1-2.5-7.8 0-8.2.5-9.6 2.8-8.7.7.3 1.8.5 2.3.5zm-8.3 39.8.3 8.2h-2.6c-5.3 0-9-6.8-6.9-12.5.7-1.8 6.2-4.6 7.9-4.1.6.1 1.1 3.9 1.3 8.4zm8.3-7.8c.5 0 1.8.9 2.9 2 4.5 4.5.8 14-5.5 14-2.5 0-2.5-.1-2.5-7.8 0-8.2.5-9.6 2.8-8.7.7.3 1.8.5 2.3.5zm-8.3 38.8.3 8.2h-2.6c-5.3 0-9-6.8-6.9-12.5.7-1.8 6.2-4.6 7.9-4.1.6.1 1.1 3.9 1.3 8.4zm8.3-7.8c.5 0 1.8.9 2.9 2 4.5 4.5.8 14-5.5 14-2.5 0-2.5-.1-2.5-7.8 0-8.2.5-9.6 2.8-8.7.7.3 1.8.5 2.3.5zM727 138c0 1.4-.7 2-2.1 2-3.4 0-8.5 2.9-9.8 5.6-.6 1.4-1.1 4.4-1.1 6.8 0 5 3.1 9.1 7.7 10.1 5.1 1.2 5.3 1.4 5.3 5 0 2.9-.4 3.5-2.1 3.5-3.4 0-8.5 2.9-9.8 5.6-.6 1.4-1.1 4.4-1.1 6.8 0 5 3.1 9.1 7.7 10.1 5.1 1.2 5.3 1.4 5.3 5.5 0 3.4-.3 4-2.1 4-3.4 0-8.5 2.9-9.8 5.6-.6 1.4-1.1 4.4-1.1 6.8 0 5 3.1 9.1 7.7 10.1 5.1 1.2 5.3 1.4 5.3 5 0 2.9-.4 3.5-2.1 3.5-3.4 0-8.5 2.9-9.8 5.6-.6 1.4-1.1 4.4-1.1 6.8 0 5 3.1 9.1 7.7 10.1 4.9 1.1 5.3 1.4 5.3 3.5 0 2.9 3.8 2.7 4.2-.2.2-1.6 1.2-2.4 3.3-2.8 4.2-.9 7.3-2.7 8.6-5.1 1.6-3.1 1.3-10.4-.6-13.2-1.6-2.5-6.1-4.7-9.6-4.7-1.5 0-1.9-.8-1.9-3.5 0-3.6.3-3.9 5.1-4.9 5.8-1.3 9-6.7 8.1-13.8-.5-4-4.5-7.7-9.1-8.4-4-.6-4.1-.8-4.1-4.6 0-3.9.2-4.1 5.1-5.2 5.8-1.3 9-6.7 8.1-13.8-.5-4-4.5-7.7-9.1-8.4-3.9-.6-4.1-.9-4.1-4.1 0-3.4.3-3.7 5.1-4.7 5.8-1.3 9-6.7 8.1-13.8-.5-4-4.5-7.7-9.1-8.4-3.1-.5-4.1-1.1-4.1-2.5 0-1.2-.7-1.9-2-1.9s-2 .7-2 2zm0 13.5c0 7.6-.2 8.5-1.9 8.5-1 0-3-.9-4.5-2.1-2.1-1.6-2.6-2.9-2.6-6.3 0-4.2 1.5-6.6 5-7.9 3.7-1.4 4-.9 4 7.8zm11.3-5.8c2.6 2.4 2.3 9.7-.5 12.3-1.2 1.1-3.2 2-4.5 2-2.2 0-2.3-.3-2.3-8.6v-8.6l2.8.7c1.5.3 3.5 1.4 4.5 2.2zM727 182.5c0 7.6-.2 8.5-1.9 8.5-1 0-3-.9-4.5-2.1-2.1-1.6-2.6-2.9-2.6-6.3 0-4.2 1.5-6.6 5-7.9 3.7-1.4 4-.9 4 7.8zm11.3-5.8c2.6 2.4 2.3 9.7-.5 12.3-1.2 1.1-3.2 2-4.5 2-2.2 0-2.3-.3-2.3-8.6v-8.6l2.8.7c1.5.3 3.5 1.4 4.5 2.2zM727 214.5c0 7.6-.2 8.5-1.9 8.5-1 0-3-.9-4.5-2.1-2.1-1.6-2.6-2.9-2.6-6.3 0-4.2 1.5-6.6 5-7.9 3.7-1.4 4-.9 4 7.8zm11.3-5.8c2.6 2.4 2.3 9.7-.5 12.3-1.2 1.1-3.2 2-4.5 2-2.2 0-2.3-.3-2.3-8.6v-8.6l2.8.7c1.5.3 3.5 1.4 4.5 2.2zM727 245.5c0 7.6-.2 8.5-1.9 8.5-1 0-3-.9-4.5-2.1-2.1-1.6-2.6-2.9-2.6-6.3 0-4.2 1.5-6.6 5-7.9 3.7-1.4 4-.9 4 7.8zm11.3-5.8c2.6 2.4 2.3 9.7-.5 12.3-1.2 1.1-3.2 2-4.5 2-2.2 0-2.3-.3-2.3-8.6v-8.6l2.8.7c1.5.3 3.5 1.4 4.5 2.2zM986 138c0 1.3-.7 2-2 2-13.8 0-16 20.7-2.4 22.9 3.7.6 3.9.9 4.2 4.4.3 3.2 0 3.7-1.8 3.7-4.5 0-9 2.8-10.6 6.6-3.1 7.3.9 15.1 8.2 16.3 3.8.6 3.9.8 4.2 4.9.3 3.7.1 4.2-1.8 4.2-4.5 0-9 2.8-10.6 6.6-3.1 7.3.9 15.1 8.2 16.3 3.7.6 3.9.9 4.2 4.4.3 3.2 0 3.7-1.8 3.7-4.5 0-9 2.8-10.6 6.6-3.1 7.3.9 15.1 8.2 16.3 3 .5 4 1.1 4.2 2.9.5 3 3.9 3 4.4 0 .2-1.4 1.1-2.4 2.3-2.6 7.1-1.1 10.5-5 10.5-12.1 0-5.4-3.8-9.9-9.1-10.7-3.9-.7-4-.8-3.7-4.3.2-2.7.8-3.7 2.3-3.9 7.1-1.1 10.5-5 10.5-12.1 0-5.4-3.8-9.9-9.1-10.7-4-.7-4-.7-3.7-4.8.2-3.2.7-4.2 2.3-4.4 7.1-1.1 10.5-5 10.5-12.1 0-5.4-3.8-9.9-9.1-10.7-3.9-.7-4-.8-3.7-4.3.2-2.7.8-3.7 2.3-3.9 7.1-1.1 10.5-5 10.5-12.1 0-5.4-3.8-9.9-9.1-10.7-2.9-.5-3.9-1.1-3.9-2.5 0-1.2-.7-1.9-2-1.9s-2 .7-2 2zm0 13.5c0 8.4 0 8.5-2.5 8.5-5.2 0-9-7.2-6.4-11.9 1.4-2.5 5.2-5.1 7.7-5.1.9 0 1.2 2.4 1.2 8.5zm11.3-5.3c3.8 4.5.3 13.8-5.3 13.8-1.9 0-2-.6-2-8.6v-8.6l2.8.6c1.5.4 3.5 1.6 4.5 2.8zM986 182.5c0 8.4 0 8.5-2.5 8.5-5.2 0-9-7.2-6.4-11.9 1.4-2.5 5.2-5.1 7.7-5.1.9 0 1.2 2.4 1.2 8.5zm11.3-5.3c3.8 4.5.3 13.8-5.3 13.8-1.9 0-2-.6-2-8.6v-8.6l2.8.6c1.5.4 3.5 1.6 4.5 2.8zM986 214.5c0 8.4 0 8.5-2.5 8.5-5.2 0-9-7.2-6.4-11.9 1.4-2.5 5.2-5.1 7.7-5.1.9 0 1.2 2.4 1.2 8.5zm11.3-5.3c3.8 4.5.3 13.8-5.3 13.8-1.9 0-2-.6-2-8.6v-8.6l2.8.6c1.5.4 3.5 1.6 4.5 2.8zM986 245.5c0 8.4 0 8.5-2.5 8.5-5.2 0-9-7.2-6.4-11.9 1.4-2.5 5.2-5.1 7.7-5.1.9 0 1.2 2.4 1.2 8.5zm11.3-5.3c3.8 4.5.3 13.8-5.3 13.8-1.9 0-2-.6-2-8.6v-8.6l2.8.6c1.5.4 3.5 1.6 4.5 2.8zM1170 137.9c0 1.4-1 2-3.9 2.5-5.3.8-9.1 5.3-9.1 10.7 0 7.1 3.4 11 10.5 12.1 1.5.2 2.1 1.2 2.3 3.9.3 3.5.2 3.6-3.7 4.3-5.3.8-9.1 5.3-9.1 10.7 0 7.1 3.4 11 10.5 12.1 1.6.2 2.1 1.2 2.3 4.4.3 4.1.3 4.1-3.7 4.8-5.3.8-9.1 5.3-9.1 10.7 0 7.1 3.4 11 10.5 12.1 1.5.2 2.1 1.2 2.3 3.9.3 3.5.2 3.6-3.7 4.3-5.3.8-9.1 5.3-9.1 10.7 0 7.1 3.4 11 10.5 12.1 1.2.2 2.1 1.2 2.3 2.6.5 3 3.9 3 4.4 0 .2-1.8 1.2-2.4 4.2-2.9 7.3-1.2 11.3-9 8.2-16.3-1.6-3.8-6.1-6.6-10.6-6.6-1.8 0-2.1-.5-1.8-3.7.3-3.5.5-3.8 4.2-4.4 7.3-1.2 11.3-9 8.2-16.3-1.6-3.8-6.1-6.6-10.6-6.6-1.9 0-2.1-.5-1.8-4.2.3-4.1.4-4.3 4.2-4.9 7.3-1.2 11.3-9 8.2-16.3-1.6-3.8-6.1-6.6-10.6-6.6-1.8 0-2.1-.5-1.8-3.7.3-3.5.5-3.8 4.2-4.4 7.3-1.2 11.3-9 8.2-16.3-1.6-3.7-6.1-6.6-10.6-6.6-1.3 0-2-.7-2-2s-.7-2-2-2-2 .7-2 1.9zm0 13.6c0 7.9-.1 8.5-2 8.5-1.2 0-3.2-1.1-4.5-2.5-4-4-3-11.6 1.8-13.5 4.5-1.8 4.7-1.4 4.7 7.5zm8.8-7.4c7.6 2.6 5.7 15.9-2.3 15.9-2.5 0-2.5-.1-2.5-8.5 0-4.7.4-8.5.9-8.5.4 0 2.2.5 3.9 1.1zm-8.8 38.4c0 7.9-.1 8.5-2 8.5-1.2 0-3.2-1.1-4.5-2.5-4-4-3-11.6 1.8-13.5 4.5-1.8 4.7-1.4 4.7 7.5zm8.8-7.4c7.6 2.6 5.7 15.9-2.3 15.9-2.5 0-2.5-.1-2.5-8.5 0-4.7.4-8.5.9-8.5.4 0 2.2.5 3.9 1.1zm-8.8 39.4c0 7.9-.1 8.5-2 8.5-1.2 0-3.2-1.1-4.5-2.5-4-4-3-11.6 1.8-13.5 4.5-1.8 4.7-1.4 4.7 7.5zm8.8-7.4c7.6 2.6 5.7 15.9-2.3 15.9-2.5 0-2.5-.1-2.5-8.5 0-4.7.4-8.5.9-8.5.4 0 2.2.5 3.9 1.1zm-8.8 38.4c0 7.9-.1 8.5-2 8.5-1.2 0-3.2-1.1-4.5-2.5-4-4-3-11.6 1.8-13.5 4.5-1.8 4.7-1.4 4.7 7.5zm8.8-7.4c7.6 2.6 5.7 15.9-2.3 15.9-2.5 0-2.5-.1-2.5-8.5 0-4.7.4-8.5.9-8.5.4 0 2.2.5 3.9 1.1zM136 168.9c0 1.4-1 2-3.9 2.5-5.3.8-9.1 5.3-9.1 10.7 0 7.1 3.4 11 10.5 12.1 1.6.2 2.1 1.2 2.3 4.4.3 4.1.3 4.1-3.7 4.8-5.3.8-9.1 5.3-9.1 10.7 0 7.1 3.4 11 10.5 12.1 1.2.2 2.1 1.2 2.3 2.6.5 3 3.9 3 4.4 0 .2-1.8 1.2-2.4 4.2-2.9 7.3-1.2 11.3-9 8.2-16.3-1.6-3.8-6.1-6.6-10.6-6.6-1.9 0-2.1-.5-1.8-4.2.3-4.1.4-4.3 4.2-4.9 7.3-1.2 11.3-9 8.2-16.3-1.6-3.7-6.1-6.6-10.6-6.6-1.3 0-2-.7-2-2s-.7-2-2-2-2 .7-2 1.9zm0 13.6c0 7.9-.1 8.5-2 8.5-1.2 0-3.2-1.1-4.5-2.5-4-4-3-11.6 1.8-13.5 4.5-1.8 4.7-1.4 4.7 7.5zm8.8-7.4c7.6 2.6 5.7 15.9-2.3 15.9-2.5 0-2.5-.1-2.5-8.5 0-4.7.4-8.5.9-8.5.4 0 2.2.5 3.9 1.1zm-8.8 39.4c0 7.9-.1 8.5-2 8.5-1.2 0-3.2-1.1-4.5-2.5-4-4-3-11.6 1.8-13.5 4.5-1.8 4.7-1.4 4.7 7.5zm8.8-7.4c7.6 2.6 5.7 15.9-2.3 15.9-2.5 0-2.5-.1-2.5-8.5 0-4.7.4-8.5.9-8.5.4 0 2.2.5 3.9 1.1zM321 169c0 1.3-.7 2-2 2-13.8 0-16 20.7-2.4 22.9 3.8.6 3.9.8 4.2 4.9.3 3.7.1 4.2-1.8 4.2-4.5 0-9 2.8-10.6 6.6-3.1 7.3.9 15.1 8.2 16.3 3 .5 4 1.1 4.2 2.9.5 3 3.9 3 4.4 0 .2-1.4 1.1-2.4 2.3-2.6 7.1-1.1 10.5-5 10.5-12.1 0-5.4-3.8-9.9-9.1-10.7-4-.7-4-.7-3.7-4.8.2-3.2.7-4.2 2.3-4.4 7.1-1.1 10.5-5 10.5-12.1 0-5.4-3.8-9.9-9.1-10.7-2.9-.5-3.9-1.1-3.9-2.5 0-1.2-.7-1.9-2-1.9s-2 .7-2 2zm0 13.5c0 8.4 0 8.5-2.5 8.5-5.2 0-9-7.2-6.4-11.9 1.4-2.5 5.2-5.1 7.7-5.1.9 0 1.2 2.4 1.2 8.5zm11.3-5.3c3.8 4.5.3 13.8-5.3 13.8-1.9 0-2-.6-2-8.6v-8.6l2.8.6c1.5.4 3.5 1.6 4.5 2.8zM321 214.5c0 8.4 0 8.5-2.5 8.5-5.2 0-9-7.2-6.4-11.9 1.4-2.5 5.2-5.1 7.7-5.1.9 0 1.2 2.4 1.2 8.5zm11.3-5.3c3.8 4.5.3 13.8-5.3 13.8-1.9 0-2-.6-2-8.6v-8.6l2.8.6c1.5.4 3.5 1.6 4.5 2.8zM542.7 169c-.3 1.3-1.4 2-2.9 2-3.4 0-8.7 3.6-9.9 6.8-1.8 4.5-.4 10.3 3.1 13.4 1.6 1.6 4 2.8 5.3 2.8 3.5 0 4.7 1.4 4.4 5-.2 3-.7 3.5-3.4 4.1-7.4 1.5-10.9 6.2-9.9 13.4.5 4.4 5.1 9.5 8.5 9.5 3.3 0 5.1 1.1 5.1 3.1 0 1 .7 1.9 1.5 1.9s1.5-.9 1.5-1.9c0-2 1.8-3.1 5.1-3.1 3.4 0 8-5.1 8.5-9.5 1-7.2-2.5-11.9-9.9-13.4-2.7-.6-3.2-1.1-3.4-4.1-.3-3.6.9-5 4.4-5 1.3 0 3.7-1.2 5.3-2.8 3.5-3.1 4.9-8.9 3.1-13.4-1.2-3.2-6.5-6.8-9.9-6.8-1.5 0-2.6-.7-2.9-2-.3-1.1-1.1-2-1.8-2s-1.5.9-1.8 2zm.1 13.8.3 8.2h-2.6c-5.3 0-9-6.8-6.9-12.5.7-1.8 6.2-4.6 7.9-4.1.6.1 1.1 3.9 1.3 8.4zm8.3-7.8c.5 0 1.8.9 2.9 2 4.5 4.5.8 14-5.5 14-2.5 0-2.5-.1-2.5-7.8 0-8.2.5-9.6 2.8-8.7.7.3 1.8.5 2.3.5zm-8.3 39.8.3 8.2h-2.6c-5.3 0-9-6.8-6.9-12.5.7-1.8 6.2-4.6 7.9-4.1.6.1 1.1 3.9 1.3 8.4zm8.3-7.8c.5 0 1.8.9 2.9 2 4.5 4.5.8 14-5.5 14-2.5 0-2.5-.1-2.5-7.8 0-8.2.5-9.6 2.8-8.7.7.3 1.8.5 2.3.5zM579.7 169c-.3 1.3-1.4 2-2.9 2-3.4 0-8.7 3.6-9.9 6.8-1.8 4.5-.4 10.3 3.1 13.4 1.6 1.6 4 2.8 5.3 2.8 3.5 0 4.7 1.4 4.4 5-.2 3-.7 3.5-3.4 4.1-7.4 1.5-10.9 6.2-9.9 13.4.5 4.4 5.1 9.5 8.5 9.5 3.3 0 5.1 1.1 5.1 3.1 0 1 .7 1.9 1.5 1.9s1.5-.9 1.5-1.9c0-2 1.8-3.1 5.1-3.1 3.4 0 8-5.1 8.5-9.5 1-7.2-2.5-11.9-9.9-13.4-2.7-.6-3.2-1.1-3.4-4.1-.3-3.6.9-5 4.4-5 1.3 0 3.7-1.2 5.3-2.8 3.5-3.1 4.9-8.9 3.1-13.4-1.2-3.2-6.5-6.8-9.9-6.8-1.5 0-2.6-.7-2.9-2-.3-1.1-1.1-2-1.8-2s-1.5.9-1.8 2zm.1 13.8.3 8.2h-2.6c-5.3 0-9-6.8-6.9-12.5.7-1.8 6.2-4.6 7.9-4.1.6.1 1.1 3.9 1.3 8.4zm8.3-7.8c.5 0 1.8.9 2.9 2 4.5 4.5.8 14-5.5 14-2.5 0-2.5-.1-2.5-7.8 0-8.2.5-9.6 2.8-8.7.7.3 1.8.5 2.3.5zm-8.3 39.8.3 8.2h-2.6c-5.3 0-9-6.8-6.9-12.5.7-1.8 6.2-4.6 7.9-4.1.6.1 1.1 3.9 1.3 8.4zm8.3-7.8c.5 0 1.8.9 2.9 2 4.5 4.5.8 14-5.5 14-2.5 0-2.5-.1-2.5-7.8 0-8.2.5-9.6 2.8-8.7.7.3 1.8.5 2.3.5zM764 169c0 1.4-.7 2-2.1 2-3.4 0-8.5 2.9-9.8 5.6-.6 1.4-1.1 4.4-1.1 6.8 0 5 3.1 9.1 7.7 10.1 5.1 1.2 5.3 1.4 5.3 5.5 0 3.4-.3 4-2.1 4-3.4 0-8.5 2.9-9.8 5.6-.6 1.4-1.1 4.4-1.1 6.8 0 5 3.1 9.1 7.7 10.1 4.9 1.1 5.3 1.4 5.3 3.5 0 2.9 3.8 2.7 4.2-.2.2-1.6 1.2-2.4 3.3-2.8 4.2-.9 7.3-2.7 8.6-5.1 1.6-3.1 1.3-10.4-.6-13.2-1.6-2.5-6.1-4.7-9.6-4.7-1.5 0-1.9-.8-1.9-4 0-4.1.2-4.3 5.1-5.4 5.8-1.3 9-6.7 8.1-13.8-.5-4-4.5-7.7-9.1-8.4-3.1-.5-4.1-1.1-4.1-2.5 0-1.2-.7-1.9-2-1.9s-2 .7-2 2zm0 13.5c0 7.6-.2 8.5-1.9 8.5-1 0-3-.9-4.5-2.1-2.1-1.6-2.6-2.9-2.6-6.3 0-4.2 1.5-6.6 5-7.9 3.7-1.4 4-.9 4 7.8zm11.3-5.8c2.6 2.4 2.3 9.7-.5 12.3-1.2 1.1-3.2 2-4.5 2-2.2 0-2.3-.3-2.3-8.6v-8.6l2.8.7c1.5.3 3.5 1.4 4.5 2.2zM764 214.5c0 7.6-.2 8.5-1.9 8.5-1 0-3-.9-4.5-2.1-2.1-1.6-2.6-2.9-2.6-6.3 0-4.2 1.5-6.6 5-7.9 3.7-1.4 4-.9 4 7.8zm11.3-5.8c2.6 2.4 2.3 9.7-.5 12.3-1.2 1.1-3.2 2-4.5 2-2.2 0-2.3-.3-2.3-8.6v-8.6l2.8.7c1.5.3 3.5 1.4 4.5 2.2zM949 169c0 1.3-.7 2-2 2-13.8 0-16 20.7-2.4 22.9 3.8.6 3.9.8 4.2 4.9.3 3.7.1 4.2-1.8 4.2-4.5 0-9 2.8-10.6 6.6-3.1 7.3.9 15.1 8.2 16.3 3 .5 4 1.1 4.2 2.9.5 3 3.9 3 4.4 0 .2-1.4 1.1-2.4 2.3-2.6 7.1-1.1 10.5-5 10.5-12.1 0-5.4-3.8-9.9-9.1-10.7-4-.7-4-.7-3.7-4.8.2-3.2.7-4.2 2.3-4.4 7.1-1.1 10.5-5 10.5-12.1 0-5.4-3.8-9.9-9.1-10.7-2.9-.5-3.9-1.1-3.9-2.5 0-1.2-.7-1.9-2-1.9s-2 .7-2 2zm0 13.5c0 8.4 0 8.5-2.5 8.5-5.2 0-9-7.2-6.4-11.9 1.4-2.5 5.2-5.1 7.7-5.1.9 0 1.2 2.4 1.2 8.5zm11.3-5.3c3.8 4.5.3 13.8-5.3 13.8-1.9 0-2-.6-2-8.6v-8.6l2.8.6c1.5.4 3.5 1.6 4.5 2.8zM949 214.5c0 8.4 0 8.5-2.5 8.5-5.2 0-9-7.2-6.4-11.9 1.4-2.5 5.2-5.1 7.7-5.1.9 0 1.2 2.4 1.2 8.5zm11.3-5.3c3.8 4.5.3 13.8-5.3 13.8-1.9 0-2-.6-2-8.6v-8.6l2.8.6c1.5.4 3.5 1.6 4.5 2.8zM1133 168.9c0 1.4-1 2-3.9 2.5-5.3.8-9.1 5.3-9.1 10.7 0 7.1 3.4 11 10.5 12.1 1.6.2 2.1 1.2 2.3 4.4.3 4.1.3 4.1-3.7 4.8-5.3.8-9.1 5.3-9.1 10.7 0 7.1 3.4 11 10.5 12.1 1.2.2 2.1 1.2 2.3 2.6.5 3 3.9 3 4.4 0 .2-1.8 1.2-2.4 4.2-2.9 7.3-1.2 11.3-9 8.2-16.3-1.6-3.8-6.1-6.6-10.6-6.6-1.9 0-2.1-.5-1.8-4.2.3-4.1.4-4.3 4.2-4.9 7.3-1.2 11.3-9 8.2-16.3-1.6-3.7-6.1-6.6-10.6-6.6-1.3 0-2-.7-2-2s-.7-2-2-2-2 .7-2 1.9zm0 13.6c0 7.9-.1 8.5-2 8.5-1.2 0-3.2-1.1-4.5-2.5-4-4-3-11.6 1.8-13.5 4.5-1.8 4.7-1.4 4.7 7.5zm8.8-7.4c7.6 2.6 5.7 15.9-2.3 15.9-2.5 0-2.5-.1-2.5-8.5 0-4.7.4-8.5.9-8.5.4 0 2.2.5 3.9 1.1zm-8.8 39.4c0 7.9-.1 8.5-2 8.5-1.2 0-3.2-1.1-4.5-2.5-4-4-3-11.6 1.8-13.5 4.5-1.8 4.7-1.4 4.7 7.5zm8.8-7.4c7.6 2.6 5.7 15.9-2.3 15.9-2.5 0-2.5-.1-2.5-8.5 0-4.7.4-8.5.9-8.5.4 0 2.2.5 3.9 1.1zM25.7 328c-.3 1.3-1.4 2-2.9 2-3.4 0-8.7 3.6-9.9 6.8-1.8 4.5-.4 10.3 3.1 13.4 1.6 1.6 4 2.8 5.3 2.8 3.4 0 4.6 1.3 4.3 4.5-.3 2.4-.9 3.1-3.4 3.6-7.3 1.5-10.8 6.2-9.8 13.4.5 4.4 5.1 9.5 8.5 9.5 3.3 0 5.1 1.1 5.1 3.1 0 1 .7 1.9 1.5 1.9s1.5-.9 1.5-1.9c0-2 1.8-3.1 5.1-3.1 3.4 0 8-5.1 8.5-9.5 1-7.2-2.5-11.9-9.8-13.4-2.5-.5-3.1-1.2-3.4-3.6-.3-3.2.9-4.5 4.3-4.5 1.3 0 3.7-1.2 5.3-2.8 3.5-3.1 4.9-8.9 3.1-13.4-1.2-3.2-6.5-6.8-9.9-6.8-1.5 0-2.6-.7-2.9-2-.3-1.1-1.1-2-1.8-2s-1.5.9-1.8 2zm.1 13.8.3 8.2h-2.6c-5.3 0-9-6.8-6.9-12.5.7-1.8 6.2-4.6 7.9-4.1.6.1 1.1 3.9 1.3 8.4zm8.3-7.8c.5 0 1.8.9 2.9 2 4.5 4.5.8 14-5.5 14-2.5 0-2.5-.1-2.5-7.8 0-8.2.5-9.6 2.8-8.7.7.3 1.8.5 2.3.5zm-8.3 38.8.3 8.2h-2.6c-5.3 0-9-6.8-6.9-12.5.7-1.8 6.2-4.6 7.9-4.1.6.1 1.1 3.9 1.3 8.4zm8.3-7.8c.5 0 1.8.9 2.9 2 4.5 4.5.8 14-5.5 14-2.5 0-2.5-.1-2.5-7.8 0-8.2.5-9.6 2.8-8.7.7.3 1.8.5 2.3.5zM63 328c0 1.3-.7 2-2 2-13.8 0-16 20.7-2.4 22.9 3 .5 4 1.1 4.2 2.9.5 3 3.9 3 4.4 0 .2-1.4 1.1-2.4 2.3-2.6 7.1-1.1 10.5-5 10.5-12.1 0-5.4-3.8-9.9-9.1-10.7-2.9-.5-3.9-1.1-3.9-2.5 0-1.2-.7-1.9-2-1.9s-2 .7-2 2zm0 13.5c0 8.4 0 8.5-2.5 8.5-5.2 0-9-7.2-6.4-11.9 1.4-2.5 5.2-5.1 7.7-5.1.9 0 1.2 2.4 1.2 8.5zm11.3-5.3c3.8 4.5.3 13.8-5.3 13.8-1.9 0-2-.6-2-8.6v-8.6l2.8.6c1.5.4 3.5 1.6 4.5 2.8zM247 328c0 1.3-.7 2-2 2-13.8 0-16 20.7-2.4 22.9 3 .5 4 1.1 4.2 2.9.5 3 3.9 3 4.4 0 .2-1.4 1.1-2.4 2.3-2.6 7.1-1.1 10.5-5 10.5-12.1 0-5.4-3.8-9.9-9.1-10.7-2.9-.5-3.9-1.1-3.9-2.5 0-1.2-.7-1.9-2-1.9s-2 .7-2 2zm0 13.5c0 8.4 0 8.5-2.5 8.5-5.2 0-9-7.2-6.4-11.9 1.4-2.5 5.2-5.1 7.7-5.1.9 0 1.2 2.4 1.2 8.5zm11.3-5.3c3.8 4.5.3 13.8-5.3 13.8-1.9 0-2-.6-2-8.6v-8.6l2.8.6c1.5.4 3.5 1.6 4.5 2.8zM432 328c0 1.4-.7 2-2.1 2-3.4 0-8.5 2.9-9.8 5.6-.6 1.4-1.1 4.4-1.1 6.8 0 5 3.1 9.1 7.7 10.1 4.9 1.1 5.3 1.4 5.3 3.5 0 2.9 3.8 2.7 4.2-.2.2-1.6 1.2-2.4 3.3-2.8 4.2-.9 7.3-2.7 8.6-5.1 1.6-3.1 1.3-10.4-.6-13.2-1.6-2.5-6.1-4.7-9.6-4.7-1.2 0-1.9-.7-1.9-2s-.7-2-2-2-2 .7-2 2zm0 13.5c0 7.6-.2 8.5-1.9 8.5-1 0-3-.9-4.5-2.1-2.1-1.6-2.6-2.9-2.6-6.3 0-4.2 1.5-6.6 5-7.9 3.7-1.4 4-.9 4 7.8zm11.3-5.8c2.6 2.4 2.3 9.7-.5 12.3-1.2 1.1-3.2 2-4.5 2-2.2 0-2.3-.3-2.3-8.6v-8.6l2.8.7c1.5.3 3.5 1.4 4.5 2.2zM838 327.9c0 1.4-1 2-3.9 2.5-5.3.8-9.1 5.3-9.1 10.7 0 7.1 3.4 11 10.5 12.1 1.5.2 2.1 1.2 2.3 3.9.3 3.5.2 3.6-3.7 4.3-5.3.8-9.1 5.3-9.1 10.7 0 7.1 3.4 11 10.5 12.1 1.2.2 2.1 1.2 2.3 2.6.5 3 3.9 3 4.4 0 .2-1.8 1.2-2.4 4.2-2.9 7.3-1.2 11.3-9 8.2-16.3-1.6-3.8-6.1-6.6-10.6-6.6-1.8 0-2.1-.5-1.8-3.7.3-3.5.5-3.8 4.2-4.4 7.3-1.2 11.3-9 8.2-16.3-1.6-3.7-6.1-6.6-10.6-6.6-1.3 0-2-.7-2-2s-.7-2-2-2-2 .7-2 1.9zm0 13.6c0 7.9-.1 8.5-2 8.5-1.2 0-3.2-1.1-4.5-2.5-4-4-3-11.6 1.8-13.5 4.5-1.8 4.7-1.4 4.7 7.5zm8.8-7.4c7.6 2.6 5.7 15.9-2.3 15.9-2.5 0-2.5-.1-2.5-8.5 0-4.7.4-8.5.9-8.5.4 0 2.2.5 3.9 1.1zm-8.8 38.4c0 7.9-.1 8.5-2 8.5-1.2 0-3.2-1.1-4.5-2.5-4-4-3-11.6 1.8-13.5 4.5-1.8 4.7-1.4 4.7 7.5zm8.8-7.4c7.6 2.6 5.7 15.9-2.3 15.9-2.5 0-2.5-.1-2.5-8.5 0-4.7.4-8.5.9-8.5.4 0 2.2.5 3.9 1.1zM1059 327.9c0 1.4-1 2-3.9 2.5-5.3.8-9.1 5.3-9.1 10.7 0 7.1 3.4 11 10.5 12.1 1.2.2 2.1 1.2 2.3 2.6.5 3 3.9 3 4.4 0 .2-1.8 1.2-2.4 4.2-2.9 7.3-1.2 11.3-9 8.2-16.3-1.6-3.7-6.1-6.6-10.6-6.6-1.3 0-2-.7-2-2s-.7-2-2-2-2 .7-2 1.9zm0 13.6c0 7.9-.1 8.5-2 8.5-1.2 0-3.2-1.1-4.5-2.5-4-4-3-11.6 1.8-13.5 4.5-1.8 4.7-1.4 4.7 7.5zm8.8-7.4c7.6 2.6 5.7 15.9-2.3 15.9-2.5 0-2.5-.1-2.5-8.5 0-4.7.4-8.5.9-8.5.4 0 2.2.5 3.9 1.1z"/></svg>