<svg xmlns="http://www.w3.org/2000/svg" version="1.0" viewBox="0 0 500 500"><path d="M239.3 36c-2.5 1.2-24.3 22.3-63.8 61.9l-60 60.1H39v185h76.5l58.5 58.6c32.2 32.2 60.5 59.9 62.9 61.5 5.1 3.3 8.6 3.6 11.7 1.1 5.2-4.1 4.9 8.1 5.2-210.7.1-140.6-.1-205.6-.8-209.1-1.8-8.4-6.9-11.5-13.7-8.4zM296.5 161.4c-8.9 2.5-16.5 12.7-16.5 22.1.1 7.1 3.4 11.3 31.3 39.2l27.2 27.3-27.6 27.7c-23 23.1-27.9 28.6-29.4 32.6-6.1 16.3 10.2 33.3 27.5 28.7 4-1.1 7.7-4.4 32.8-29.3l28.2-28.1 28.3 28.1c25 25 28.7 28.3 32.7 29.3 17.3 4.6 33.6-12.4 27.5-28.7-1.5-4-6.4-9.5-29.4-32.6L401.5 250l27.2-27.3c27.9-27.9 31.2-32.1 31.3-39.2 0-6.2-2.1-10.9-7.4-16.1-4.1-4.2-6.1-5.4-10.3-6.3-5.7-1.2-10.1-.7-14.8 1.7-1.6.8-15.3 13.6-30.3 28.5L370 218.4l-27.3-27.1c-14.9-14.9-28.5-27.7-30.2-28.6-4.6-2.3-10.5-2.7-16-1.3z"/></svg>