<svg xmlns="http://www.w3.org/2000/svg" version="1.0" viewBox="0 0 500 500"><path d="M239.3 36c-2.5 1.2-24.3 22.3-63.8 61.9l-60 60.1H39v185h76.5l58.5 58.6c32.2 32.2 60.5 59.9 62.9 61.5 5.1 3.3 8.6 3.6 11.7 1.1 5.2-4.1 4.9 8.1 5.2-210.7.1-140.6-.1-205.6-.8-209.1-1.8-8.4-6.9-11.5-13.7-8.4zM377.2 97.9c-9.8 3.4-15.5 11.3-15.6 21.6 0 7.7 2 11.6 11.9 22.5 19.1 21.1 32.3 47.4 38.6 77 3.3 15.3 3.4 45.6.2 61.5-6.4 31.3-19 56-41.7 81.5-5 5.6-7.1 8.8-8.3 12.9-5.1 17.6 11.9 33.5 29.5 27.7 4.1-1.4 6.7-3.4 13.4-10.5 29.8-31.3 49.3-72.9 54.7-117.1 1.6-12.3 1.3-38.1-.4-51.5-5.7-43.2-23.6-81.7-53.2-114.3-10.6-11.6-18.9-14.9-29.1-11.3z"/><path d="M295.8 141c-7.9 2.4-13.9 9.1-15.9 17.8-1.9 7.8.6 14.1 9 23.7 24.8 28.2 32.5 65.5 20.7 100.1-4.3 12.9-10.4 23.3-20.1 34.4-7.8 9-9.8 13.2-9.8 20.5 0 14.4 13.3 25.5 26.9 22.5 7.2-1.6 10.8-4.3 19.2-14.4 17-20.4 27.4-41.8 32.9-67.6 2.8-13.4 2.6-44-.5-57.9-6.1-27-18.5-51-35.9-69.2-9.6-10-17-12.8-26.5-9.9z"/></svg>