<?xml version="1.0" standalone="no"?>
<!DOCTYPE svg PUBLIC "-//W3C//DTD SVG 20010904//EN"
 "http://www.w3.org/TR/2001/REC-SVG-20010904/DTD/svg10.dtd">
<svg version="1.0" xmlns="http://www.w3.org/2000/svg"
 width="500.000000pt" height="500.000000pt" viewBox="0 0 500.000000 500.000000"
 preserveAspectRatio="xMidYMid meet">
<metadata>
Created by potrace 1.14, written by Peter Selinger 2001-2017
</metadata>
<g transform="translate(0.000000,500.000000) scale(0.100000,-0.100000)"
fill="#000105" stroke="none">
<path d="M2247 4694 c-1 -1 -24 -5 -52 -8 -534 -69 -906 -217 -1264 -504 -425
-340 -690 -860 -729 -1428 -11 -163 -3 -620 12 -700 2 -10 7 -41 10 -69 56
-415 249 -817 527 -1094 109 -108 350 -291 384 -291 6 0 33 37 62 83 54 87
983 1683 1238 2127 39 69 189 328 332 575 143 248 268 464 277 480 9 17 26 46
37 65 12 19 97 166 189 327 l169 292 -42 15 c-126 45 -326 85 -602 122 -44 6
-542 13 -548 8z m286 -1130 c8 -8 -32 -83 -311 -584 -359 -646 -535 -951 -546
-947 -15 5 -53 140 -63 224 -10 83 -10 335 -1 420 10 88 54 262 88 344 108
265 322 452 600 523 89 23 219 34 233 20z"/>
<path d="M3817 4293 c-19 -32 -148 -254 -287 -493 -349 -600 -816 -1406 -882
-1520 -30 -52 -152 -261 -270 -465 -271 -467 -690 -1192 -757 -1311 -44 -77
-59 -114 -48 -114 1 0 79 -18 172 -39 265 -61 398 -75 715 -75 478 1 806 66
1165 232 278 129 460 254 655 451 147 148 248 291 339 481 114 238 164 428
188 705 10 115 10 491 1 615 -33 411 -168 784 -397 1090 -61 82 -256 283 -336
346 -68 55 -193 144 -209 150 -9 3 -27 -17 -49 -53z m-463 -1457 c43 -146 60
-452 36 -617 -43 -290 -164 -507 -356 -645 -88 -63 -239 -132 -336 -153 -88
-19 -238 -28 -238 -14 0 7 40 80 165 298 13 22 118 204 234 404 117 200 267
459 334 576 77 135 126 211 134 208 6 -3 19 -28 27 -57z"/>
</g>
</svg>
