<?xml version="1.0" standalone="no"?>
<!DOCTYPE svg PUBLIC "-//W3C//DTD SVG 20010904//EN"
 "http://www.w3.org/TR/2001/REC-SVG-20010904/DTD/svg10.dtd">
<svg version="1.0" xmlns="http://www.w3.org/2000/svg"
 width="312.000000pt" height="312.000000pt" viewBox="0 0 312.000000 312.000000"
 preserveAspectRatio="xMidYMid meet">
<metadata>
Created by potrace 1.14, written by Peter Selinger 2001-2017
</metadata>
<g transform="translate(0.000000,312.000000) scale(0.100000,-0.100000)"
fill="#000000" stroke="none">
<path d="M1397 2990 c-195 -21 -428 -109 -616 -233 -65 -43 -198 -157 -253
-217 -68 -73 -184 -250 -233 -355 -50 -106 -101 -277 -117 -390 -14 -102 -4
-444 16 -541 36 -176 144 -415 250 -552 59 -77 236 -247 316 -304 143 -102
306 -177 488 -225 91 -24 112 -26 342 -27 205 0 258 2 325 18 265 61 505 192
695 377 132 129 210 238 288 400 99 205 132 361 132 619 0 370 -84 629 -293
902 -64 84 -205 223 -270 266 -205 138 -362 207 -561 248 -87 18 -390 26 -509
14z m360 -314 c415 -116 699 -407 805 -823 20 -78 23 -112 23 -303 0 -193 -3
-224 -23 -300 -116 -426 -407 -715 -829 -822 -78 -20 -112 -23 -303 -23 -193
0 -224 3 -300 23 -424 115 -715 407 -821 823 -26 102 -38 394 -20 505 49 315
226 598 481 766 98 65 199 112 307 143 137 40 174 44 388 41 179 -3 210 -6
292 -30z"/>
<path d="M1450 2399 c-279 -23 -536 -212 -670 -490 -55 -114 -70 -194 -70
-369 0 -175 15 -255 70 -368 96 -200 222 -326 423 -423 112 -54 193 -69 367
-69 175 0 255 15 369 70 197 95 326 224 421 422 55 113 70 193 70 368 0 175
-15 255 -70 369 -99 206 -261 360 -462 440 -112 45 -283 63 -448 50z m163
-244 c168 -44 324 -169 402 -325 48 -95 65 -171 65 -290 0 -119 -17 -195 -65
-290 -78 -156 -234 -281 -402 -325 -75 -20 -251 -20 -326 0 -209 54 -398 243
-452 452 -20 75 -20 251 0 327 53 204 243 396 446 450 73 20 259 20 332 1z"/>
<path d="M1518 1797 c-103 -53 -156 -151 -145 -270 10 -111 92 -209 200 -238
70 -19 175 -7 237 27 171 93 186 353 26 461 -59 41 -103 53 -188 53 -55 0 -77
-5 -130 -33z"/>
</g>
</svg>
